<svg xmlns="http://www.w3.org/2000/svg" viewBox="0 0 3840 2160"><path fill="#210302" d="M0 0h3840v2160H0z"/><g fill-opacity=".5"><path fill="#ff391d" d="M1065.9 87.7l530 1128.2-764.5 821L631.2 670.7z"/><path fill="#ffff9c" d="M1010.4 1354.2l-438.6-484 332.2-285 133.7 497.4z"/><path fill="#f50000" d="M474 1795.6L1548 1138 752.3 477.2l297 509.6z"/><path fill="#670000" d="M1848 998.4L887 2392.5l346-1363.2L841.9-232.5z"/><path fill="#fff98d" d="M717.3 1100l345.6 148.5L848.6 711 638 687.7z"/><path fill="#700" d="M1522 1515.3l-134.7-183.4-834.4 158.8-82.3 901.8z"/><path d="M296.4 1782.1l541.6-511-465.3-913.7-166 1068.4z"/><path fill="#860000" d="M318 844.8l-68.4 230.9-482.1 420.7L35.2 490z"/><path d="M4072.5-71.8L1626.6-232.5l154.5 2461 2291.4 164z"/><path fill="#ff1500" d="M947.6 1496.6l323.3-270.6-15.8-494.2-281.5-100.2z"/><path d="M-232.5-35.2l780.2 1197 142.2-532.4L763-232.5z"/><path fill="#600000" d="M656 588.2l1145.7 286.2L1186 81.8 800.4 206.3z"/><path fill="#ff0b00" d="M616 728l385.2-59-299.5-104-66 375.4z"/><path fill="#fff59a" d="M1012.6 1266L633.1 920.9l135.3-225.5 56.2 52.4z"/><path fill="#ff982d" d="M1078.9 1272.5l-84-533.8-71.9-41.8-121.4 492.4z"/><path d="M143.7 1888l-376.2 504.5 668.1-75.4L643.7 405.5zM2033.3-193.4l1905.1 9.2 134.1 2576.7h-2408z"/><path fill="#9c0000" d="M547.2 1708.8l-23.2-218 1117.6-437L648.8 1903z"/><path fill="#3f0000" d="M1918.3 1107.2L803.8 1836l-570 556.5 1027.8-260.4z"/><path d="M233.3 1494l469-81.1L838 1210.5 293.7 564z"/><path fill="#f40701" d="M864.4 1452.3l359.2-197-365.7-4.7 21.7-254z"/><path fill="#feefa5" d="M704.6 1037.4l273.8-122.6-296.6-247.1-7.3 278.8z"/><path fill="#340000" d="M1897.2 1664.2L1785.2 384l-419.7 1024.4 506.3-116z"/><path fill="#9a0000" d="M1243.8 1578.9L1116.6 320.7 667.2 580.2l858.3 212z"/><path fill="#410000" d="M192.9 1898.2l-425.4-540.8 55-942.2 399.6 1107z"/><path d="M26 1400.3l740.3-17.7 90.9-182-423.4-349.1z"/><path d="M498.4 1553.5l-74-834.8-642-410L776.2-63zm3574.1-918.3L1362-232.5l268 931-320.5-226.8z"/><path fill="#610000" d="M1450.2 1082l-509.8 954.8 742.8-853.4-708-1153.7z"/><path fill="#ff5e0f" d="M1054 1306.6L942.2 704.4l-264.6-30.8L1076 837z"/><path fill="#840000" d="M196.1 1065L61 1004.7 36.2 775.4l254.3 105.3z"/><path fill="#f40000" d="M1000.5 1287.1l-7.7 63.5 109.7-296 325.4 74.7z"/><path fill="#fe0100" d="M601.7 609.5l354.7 5.7 165 596.8 7.7-459.3z"/><path fill="#2b0000" d="M674.8 301.6l401-534.1 862.7 1789.2-458-1461.1z"/><path fill="#850000" d="M1109 746.6l97.1-389.8L790 241l-15.3 294.5z"/><path d="M4072.5-12.5v2213l-2542.8 90.9L2359.3-4.2z"/><path fill="#730000" d="M500.6 1887.8l280.9 45.4 660-422-914 103z"/><path fill="#ff6119" d="M679 729l237.4-35.5-219.7-56.2-26.9 33.2z"/><path d="M722 1047.5L521.1 1593l-129.4 799.5H-65.8z"/><path fill="#800302" d="M620.7 570.7l775.6-354.2-730.6 444.4 6.8 273.5z"/><path fill="#1a0000" d="M1742.6 2392.5l150.3-814.7 25-929.4-553.6 1744.1z"/><path fill="#f6e99c" d="M706.3 1068.4l258.2-50.5-213-312.3-104.7 182.9z"/><path fill="#2e0000" d="M495.7 2061.1l371.7-160.4 571.6 202.2-1015.7 198.7z"/><path fill="#9a0100" d="M823.8 1212.3L639.7 1639l322.6 71.7L815 973.5z"/><path fill="#370000" d="M1312 324.7l-52 429.6L1800 636l-334.8-161.7z"/><path fill="#430000" d="M289 1420.9L-232.4 1785 418 754.1l-448.8 557.6z"/><path fill="#4d0000" d="M1032.4 2035.5l-528.3-297.2-62.5 326.8 367.2-316.8z"/><path fill="#ffb952" d="M878 1237.3l104.7-16.8-120.6-504.1 125 119.2z"/><path fill="#d80000" d="M1161.3 1001.7l179.3-75.5-203.8-201.5-237.7-150z"/><path fill="#410000" d="M262 707.3l27.8-72.8-417.1-232.2-105.2 354.9z"/></g></svg>