<svg xmlns="http://www.w3.org/2000/svg" viewBox="0 0 3840 2160"><path fill="#433632" d="M0 0h3840v2160H0z"/><g fill-opacity=".5"><path fill="#bd726a" d="M-59.4-232.5h515l475.5 2625-907-119z"/><path fill="#00030d" d="M2825.6 2295.5l1246.9-826.8V-232.5l-957 49z"/><path fill="#0e130f" d="M1283.2 1830l368.7-1973-541-89.5-631.1 1233z"/><path fill="#aa817a" d="M-172.7 758.2l884.6-404.9-166.3-585.8-778.1 58.9z"/><path fill="#606d60" d="M3047.2 408l-664 294-416.8-934.5 670 390z"/><path fill="#854e4a" d="M3219.7 1822l178.7 570.5 46-1070.3-188.1 58.5z"/><path fill="#7b4640" d="M1120 1669.8l78.2 667-1430.7-210.6L473.2 1120z"/><path fill="#57584e" d="M2993.6 1260.4l-495 929.1-185.2-2064.1 227.3 766z"/><path fill="#1e1f31" d="M4072.5 2110.6l-574 281.9-87.2-880.4L3751 947z"/><path fill="#070e11" d="M3766.7 52.5L3439 1247.8l-279.2 56L2970-232.6z"/><path fill="#575c50" d="M1620.4 874.8l403.3 37.5 124.3-99.4-109.9 934z"/><path fill="#302e24" d="M849.6 153.7l1251.2 2139-964.1 40L1203 1467z"/><path fill="#6e4741" d="M696.7 775.3l-150.5 691.4-192.8 227L531.1 213z"/><path fill="#08191b" d="M2473.1 89l996.4-232.7-724 359.9-147.1-112.8z"/><path fill="#a56a65" d="M340.9 1178l96.1 100.6-614.3 198.1-47.4-766.5z"/><path fill="#263129" d="M1318.8 79.5l886.6 326L2433.7 613l-675.3 254.3z"/><path fill="#141817" d="M1418.3-232.5l117.2 15.3L1393 569.3l-855.2 63.8z"/><path fill="#59584e" d="M2500.2 1478.8L2044 1656.3l515.6 120.7 489.7-889.2z"/><path fill="#141516" d="M3021.5 1127.8l-573-437.6 1077.4 291.5L2730 2152.3z"/><path fill="#945a55" d="M548.9 1955.5l594.6 79.4-34 229L62.4 2392.6z"/><path fill="#5c3a33" d="M291.4 1758.3L3.2 1688l31 704.5 392.6-615.3z"/><path fill="#6d4e47" d="M1018 153.7L468.9-152 11.8-174l897.7 425z"/><path fill="#52564b" d="M3094.5 573.8L2511 523l-837.5-361.8 1381.1 60z"/><path fill="#261f1b" d="M1310.3 1764.8l534.3 627.7h-724l82.3-648.7z"/><path fill="#734742" d="M466.4 1731.7l-96-1107.9 824 1422L65.8 1926.2z"/><path fill="#181212" d="M999.7 996.4l219.7 341-63.9 297.4-525.7-674z"/><path fill="#553635" d="M3457.5 1166.3l-33 1226.2-228.1-359.7-53.1-517.5z"/><path fill="#2e2f26" d="M2345.7 411.7l24.4 1000.2-110.7 109.6-154.2-147.4z"/><path fill="#4d4e49" d="M2979.3 1173.2l-76.6 219.3-571.5-110.7 674.3-412.3z"/><path fill="#27232c" d="M3451 996.2L3433.3 2132l514.5 89 124.7-755.8z"/><path fill="#8e5954" d="M94.9 1572.2l1028.6 94.7L187 1748l-217.2-181.8z"/><path fill="#34312b" d="M1569 1290.3l-16.5-707.6-693.3 326.1 469.7 457.6z"/><path fill="#8b605a" d="M237.2 521.8l459.6-719-231.5 943.3L-232.5 616z"/><path fill="#151417" d="M3423.6 2361.4L3067 1941.8l67.5-2174.3-219.7 2602.1z"/><path fill="#5d5e57" d="M2144.4 445.8l192.3-435.1 102.8-197L2563 441.8z"/><path fill="#323732" d="M2477.7 1068l6.1-408.3L3174.3 174l-231.8 870z"/><path fill="#47423e" d="M2568.9 1918.9l54.8 473.6h-724.9l252-591.8z"/><path fill="#20211d" d="M690 371l1571.5-603.5L728.1 554.6 501.8 844.5z"/><path fill="#9e7872" d="M-232.5 648.7l594.3-317.8 70.8-563.4-247.4 81z"/><path fill="#322128" d="M1931.2 1778l29.1 11.3 714.9 137.4-422.6-226.6z"/><path fill="#363a32" d="M1426.8 435.4l-5.8 407.2 545.3 47.7-169-1122.8z"/><path fill="#51514c" d="M1659.3 1166.7L2105 700.1l-98.7 855.7-224.1-491.7z"/><path fill="#191c1e" d="M2037 582.8l177.6 115.5-248.7 1-257.2-114.6z"/><path fill="#454538" d="M2287.1 309.6l-470.4 10.6L1703.1-61 2166-232.5z"/><path fill="#643d3d" d="M3475.2 1822.7l-254 569.8 64-145.1-8.7-885.7z"/><path fill="#141316" d="M3383.3 1341l348.2-656-1093 273.2 165.5-178z"/><path fill="#49473c" d="M1956 1692.6l-133.2-903.3-377.6-37.5 258.5 404.1z"/><path fill="#342422" d="M2548.4 1509.1l-48.6-150.3-399.4-85.9 14.5 149.4z"/><path fill="#75514b" d="M828.3 320L474 471.3 803.7-23.4l-422.4 148z"/><path fill="#454845" d="M2751.9 1029.4l67.3 84.7-618.5 168.7 468.1-484.1z"/></g></svg>