<svg xmlns="http://www.w3.org/2000/svg" viewBox="0 0 3840 2160"><path fill="#5c613b" d="M0 0h3840v2160H0z"/><g fill-opacity=".5"><path d="M2257.7 805.2l663.5 1415.6-1939.3 20 271.8-1158.4z"/><path fill="#ffddde" d="M947.8 1557.4l-465.6-113 33.8 439.4 424.9-182.6z"/><path fill="#88aa56" d="M4072.5 760L3615.3-1.5l-3847.8-24 523.8 1088.1z"/><path fill="#170012" d="M2419.9 1075l-1372.3-73.7L1294 2352.7l1458-107.5z"/><path fill="#a7748a" d="M1369.2 1385.3L239.9 1070.6l844.5-174L888.9 1879z"/><path fill="#000001" d="M280.1 1995.3L674 2392.5h287.6l-585.2-681z"/><path fill="#8da768" d="M1944.6 922.4l-520.6 75 79.7 68.5 35.6 165.9z"/><path fill="#230013" d="M838.4 2331.3l1076.1-1461 330-79.6L2939 2375.2z"/><path fill="#728e46" d="M3359 2392.5l713.5-1582.4-1959-261 389.2 709.6z"/><path fill="#15060e" d="M427.5 2041.8l-319.1-584.7 882.2-143.8-515 160z"/><path fill="#c6a6b8" d="M798.6 910.2l-512.7 484 105-82.4-9-204.3z"/><path fill="#562818" d="M689.2 2352L536 2035.7l607-672.5 164.4-175.2z"/><path fill="#f5fbfa" d="M1060.6 907.1l-138 40.5-356.1 86.4 291-138z"/><path fill="#fff5e3" d="M673 1880.8l8.7-31.3 70.8-203.8L548.8 1500z"/><path fill="#67293c" d="M1022.1 1445.7l-143.7-410.1-553 137.5 422 373.5z"/><path fill="#170016" d="M2214.6 1625.7L1571 1978l-473.8-919.2L1315 943.6z"/><path fill="#66793f" d="M2341.3 904.5l295.2 898.7 398.3-11.4 1037.7-64.6z"/><path fill="#90a565" d="M1508-232.5L676 46.9l1053.5 296.3 654.2-575.7z"/><path fill="#9b6973" d="M1068.1 1603l-516.5-349.7 304.8-34.2-188.2 245z"/><path fill="#b19199" d="M1267.3 1469.4l-152.7-218.5-164.4-53.2-2.8 120.7z"/><path fill="#597335" d="M-232.5 1487.5l638.2 874L70.6 218.2 814 852.5z"/><path fill="#c8a67a" d="M1144.7 1777.3l-139.8 218-56.6-168.7 164.4 18.2z"/><path fill="#3b0015" d="M1033 1715l280.7-103.8L2138 738.8l-990.2 1622z"/><path fill="#280f18" d="M592.8 1159.6l-149.3 555.3L97 1529l71 103.6z"/><path fill="#7c8e4e" d="M1628.5 1056.8l227.8 81.6 80-510.1L1606.2 406z"/><path fill="#536b32" d="M1959.3 799.8L748 728.7 1159.2 959l827-157.4z"/><path fill="#d1e1cf" d="M1023.3 1694.6l286.9-328.6-113 62.3-101 271.3z"/><path fill="#29151d" d="M862.1 1382.3l-298.2 109 356.6-321.1 43.7 329.5z"/><path fill="#9a8c71" d="M477.6 1865.5L669 2014.3l-191-479.7-28.5 182.8z"/><path fill="#372a33" d="M342 1205.4l-80.7-30.7L682 946.5l-151.5-54.2z"/><path fill="#75874e" d="M1682.5-232.5l900.7 1617L3855.5 812l-261.8 120.6z"/><path fill="#1c0014" d="M2101.2 842.7l223.7 36.6 518.4 1513.2H923.5z"/><path fill="#819d52" d="M1331 907l106.4-363.7 41.8-117.2L-232.5-50.2z"/><path fill="#2e2d19" d="M540-232.5L-153-98l-15.6-79.7L560 134.9z"/><path fill="#180414" d="M999.3 1073.7l341.4 302.1-225 66.2 219.8-445.9z"/><path fill="#5c0017" d="M1615.7 1309.1l316.2-411.5 275.6-65.1-375 371.8z"/><path fill="#181713" d="M586.9 2066.4l302-85.4-137.4 411.5L244 1943.6z"/><path fill="#e5d5bb" d="M820.3 1642l-84.4-65.9 326.7-79.4-301.5 184.8z"/><path fill="#737340" d="M1981.5 1772.9l83.8-71.5 11 104.2-20.1 82z"/><path fill="#281628" d="M671 980.5l-320.1 101.2 85.9-67.4 188.7-73.2z"/><path fill="#62753c" d="M3558.3-232.5l514.2 2625L2854 2189.8l373-256.3z"/><path fill="#738d4b" d="M-92.8 1247.7l427.4 332L93 943l1028.9-332.7z"/><path fill="#304817" d="M3920.7 181l-111 413.1 225.8-535.5-722.6.6z"/><path fill="#b6a4b9" d="M1016.9 893l37.8 563.9-139.4-489L203 1151.6z"/><path fill="#0c0014" d="M1198.4 1768.9l72.4 410.6-114.8-691 484.3-38.5z"/><path fill="#8b5e49" d="M744.6 1721.4l373.4-215.6L862.1 1828l-336 196.8z"/><path fill="#222219" d="M605.9 1396.1l169.8-1.1L228 1504.2l-45 297.6z"/><path fill="#51642c" d="M243.7 598.3l552.6 71-689.2-294.6 264.7-148.5z"/><path fill="#998a85" d="M444.3 1658.5l53.4 251.4 98-303.2 27.2-167z"/><path fill="#3a4522" d="M1207.4 228.8l-40.4 44 47.6 92.5 197-48.5z"/></g></svg>