<svg xmlns="http://www.w3.org/2000/svg" viewBox="0 0 3840 2160"><path fill="#47556e" d="M0 0h3840v2160H0z"/><g fill-opacity=".5"><path fill="#e7ffff" d="M2790.8 1440.2l-485.9-17-151.6-599 354.5-602.5z"/><path fill="#c8f0c8" d="M929.4 565.9l240.5-798.4L-87.5 942.7l-145 1058z"/><path fill="#000014" d="M1252 864l-18.6 354.8-715.8 1173.7 1467.9-462.6z"/><path fill="#fff" d="M356 345.2L-232.6 9l787.7-241.4L715.5 56.9z"/><path fill="#e6f6ff" d="M2348.1 1493L2072.7 406.6 1629.9 868l1032-45.7z"/><path fill="#e9fcff" d="M1323.4 687.7L675 354.7 1077 796l-113.9 943.6z"/><path fill="#000012" d="M3757-232.5L2574.2 443.2l1498.2 91.6-152.9-656.3z"/><path fill="#fff" d="M3165.5 593.1l176-214.7 378.7 256-204.1 62z"/><path fill="#000013" d="M4072.5 1081.4L3488 1300l-753.6 531.8L3976.6 227z"/><path fill="#00002e" d="M896-232.5l460.3 875 1297.2-367-585.2-508z"/><path fill="#fff" d="M1843.8 1555l97-327.4-404.8 434.5 170.2-2.8z"/><path d="M439 114.6L216.8 394l-449.3-62 257.3-99.3z"/><path fill="#000021" d="M1448 332l-340.3 2060.5L1665 971.4l200.4 141.2z"/><path fill="#0a1039" d="M2499.3 1292.1l-791 346.8 194.7 346 863.5-689.5z"/><path fill="#e4f4ff" d="M1264.7 643.1l-273.5 510.4-351.8 175.3 513.4 15.5z"/><path fill="#fff" d="M-232.5 1440.2l755.8-330.6-315.6-175.5 47.2 35.6z"/><path fill="#00000f" d="M3438.4 1778l587-417.6-592.2 43.1-319.6-414.2z"/><path fill="#9caabc" d="M2645.9 1074.2l-107 804.2-547.9 82.4 220.3-170.5z"/><path fill="#fff" d="M3777.6 1394.8l-124.6-2 419.5-300.3-596.3 220.3z"/><path fill="ivory" d="M586.5 13l-752 623.2 788.7-453.6-855.7-196.8z"/><path fill="#000028" d="M2036.8-232.5l218 821.8 150.4 85.7-23.7-223.3z"/><path fill="#dde8ee" d="M1606 1313.7l-67.7-86.4L1972 979.6l38.5 8.1z"/><path fill="#e6eef4" d="M2596.6-52.7L2817.2 411 2603 98.3 1531.2-177.4z"/><path fill="#1b2c4d" d="M866.6 1235.6L548 1344.8l-66.2-515 718.3-209.1z"/><path fill="#100000" d="M849.5-69.6l-1082 935.8 680.3-415 153.8-117z"/><path fill="#fff" d="M1057.9 459l76 162.7L610 744.3l16-36.6z"/><path fill="#fdffff" d="M2454 676.3L1639 930l239-265.7 214 18z"/><path fill="#000036" d="M1948.4 566.5l-437-527.7-252.2 2353.7L1698 720.9z"/><path fill="#fff" d="M-232.5-232.5v498.9L541.7 93l702.8-325.5z"/><path fill="#000833" d="M3916.4 2360.3L3447.6 1303l624.9-260.8-1218.4-431.6z"/><path fill="#000029" d="M33.7 1784.3l605.5-343-871.7 146.9v333.5z"/><path fill="#fff" d="M3314.2 381.8l147.3 343.7-342.3-129.6 589.5 62.9z"/><path fill="#c1cfd2" d="M864.8 1807.6l-109.7-148.5 222.2-243.8-230.4 674.1z"/><path d="M358.6 238.6l-504.8 245.5 380.6-256.9 248-186.4z"/><path fill="#c1dcff" d="M2691.2 1039.8l15.3 162.4-608.3 25.5L2581 622.1z"/><path fill="#111f42" d="M3963.5 2254.3l-393.4-814.9-551.1 708.8-295.1-940.9z"/><path fill="#b4d9b5" d="M1601.1 2167.8l-121.9-18.4-45.3-104.6 677.9 67.3z"/><path fill="#fff" d="M69.8 1548.8l187.1-97.9-59.7-221.4L74 1497.7zm1813.4-813.6l110.6 125.5-80.3-395.4 241.2-54.7z"/><path fill="#000227" d="M999.3 1671l-57-134.8 526.6-529.8-28.6 1265z"/><path fill="#000031" d="M3811.6 424.4l260.9-478-539.7 2.2-898 417.3z"/><path fill="#1f2e4c" d="M2385.4 722.6l958-160.2 48.5-42.7-510-158.8z"/><path fill="#28405a" d="M700 530l969 16.5-171.7-779-426.2 478z"/><path fill="#edffef" d="M1259.8-232.5l-594.5 457 248.5-457-1146.3 527.3z"/><path fill="#000e38" d="M665.9 2392.5l64.6-328.8L77 1973.9l-54.4 418.6z"/><path fill="#1b2754" d="M2112.5 698L1001.7 474l332.1 191.8L2683 549.4z"/><path fill="#000639" d="M2199 1138.6l-147.1-65.4 108.8-314.8 87.8 304.8z"/><path fill="#a5bbd5" d="M2763.9 1931.8l23.3-227.4-106.9-594.6 231.1 809.4z"/><path fill="#818590" d="M2919 1152.5l210.7 13.2-49 197.2-1273.1 709z"/><path fill="#0e1f42" d="M2413.3 1507.7l369.3 169-326.8 715.8 94.7-659.4z"/></g></svg>