<svg xmlns="http://www.w3.org/2000/svg" viewBox="0 0 3840 2160"><path fill="#612e32" d="M0 0h3840v2160H0z"/><g fill-opacity=".5"><path fill="#9c8ea3" d="M1559 319.6l-83.3 1161.7 1078.8-23.4-169.4-1121.7z"/><path fill="#fff" d="M-232.5 542.4l1270.8 93 103 94.3L-232.5 712z"/><path fill="#0b0000" d="M3563.8 2392.5L1964.4-165 3416.2-54.5l-1117 2112.8z"/><path fill="#7e0000" d="M1398 2322.6L1452.5 249 83.7 1898.7 242.6 2361z"/><path fill="#d30312" d="M994.2 417l-355-569-871.7-80.5v583.8z"/><path fill="#c8423c" d="M602.4 745.3l-834.9-87V1603l1830.6-318.5z"/><path fill="#070000" d="M1431.6 1889.3L1201 1289.6 587.5 2392.5l1866-46.4z"/><path fill="#15495f" d="M3919.6 2302.8l152.9-2306-795.6-229.3 83 2555.6z"/><path fill="#2e0000" d="M2469-221.8l814.3 67.2-109.5 2428.8-558.5-483.3z"/><path fill="#5b94d0" d="M1142 270.5L1672.5 71l59.5-303.4H812.1z"/><path fill="#3a0000" d="M654.3 566.3L2140.6 45 1369 640.8 813.6-155.6z"/><path fill="#c14c69" d="M-232.5 590.2l989 10.3-319.8-409.1-618.6-142z"/><path fill="#fff" d="M610.5 733.7L5.5 616.2 646.3 629l436.7 60z"/><path fill="#f50000" d="M694.8 1631l-.1 630.4L225.6 1619l2 699.7z"/><path fill="#646258" d="M1339 1781l186.8-354.2 950.6-9.2-145.9 880z"/><path fill="#3a0509" d="M1906 976l-216.6 389.2 95.2-139.3 604.3-98.4z"/><path fill="#9788ab" d="M657.3 1466.9l-660-13.3 22-461.8 209 341.8z"/><path fill="#4a0000" d="M642.9 2392.5l912-1020-1070-164 321.7 248.7z"/><path fill="#2f0000" d="M868.6 883.2l90 221.4 368-58.4 40.8-549.6z"/><path fill="#7f6d7d" d="M54.3 917.6L656.6 1143l-889.1 268.7 344.8 980.8z"/><path fill="#f13f11" d="M1506.7 693.4l-111.4 385.8-733.6 56.2 846.3 206z"/><path fill="#646481" d="M3295.6 1306.3l-5.1-1329.8 290.7 497.6-232.6 1846.6z"/><path fill="#160f0f" d="M3756.9 2389.9l315.6-502.6V-210.4L3648-46z"/><path fill="#98809e" d="M2192.5 315.8l322.7 782-698.5-578.2 33.4-257.7z"/><path fill="#960609" d="M3337.2 2169.2l-198.5 223.3-57-1008 187.5-1617z"/><path fill="#9f85a0" d="M2166 1396.2l131-597.4 246.8 24.3-190.5 671.8z"/><path fill="#435b63" d="M2780.4 165l-9.7 18.7-56.8 450.2 115.5 448.7z"/><path fill="#bb0d00" d="M1158.5 1444.7l-485-575-906-184.8 1076.2 47.8z"/><path fill="#200c08" d="M2393.3 1783l671.1 609.5 49.5-1053.2L3044.7 96z"/><path fill="#8e717c" d="M1304.6 887l396.8 238 228-392.7L1507.3 542z"/><path fill="#3c0000" d="M1176.5 257.8L497.8-232.5 1218 632.3l565.5-339.2z"/><path fill="#e8e7ff" d="M-232.5 575.9l127.8 92.7L347.9 699l904-15.5z"/><path fill="#601506" d="M2674.8 699l40.4-405-50.6-131.1-755.1-86.4z"/><path fill="#880300" d="M1459.2 1370.3l-1517 9.3 979.2-269.3-485-28.2z"/><path fill="#817281" d="M835.5 933.3l-306.6 96-253.4-212.8 302.2 36.7z"/><path fill="#000b11" d="M3283.3 154.2L2974 269.6 2181.7-11l1069.2-221.5z"/><path fill="#e4c3fc" d="M328.5 1373.2l275.2 66.5-199.8 6-247.6-19.5z"/><path fill="#a10000" d="M712.9 629.4l90.2-703-1009.6-158.9 718.8 475.2z"/><path fill="#9f8693" d="M-222.3 1091.3l80.1 779.8 40.2 293.8 332 165.9z"/><path fill="#ea0000" d="M244.6 2392.5h148.6l6.4-738.8-139.3 88.4z"/><path fill="#42191b" d="M920.7 520.5l1000.4 127.8L441.4 364.8l-673.9 40.3z"/><path fill="#eb0000" d="M-232.5 1124.8L69.9 439.2-232.5 542l458.8 263.5z"/><path fill="#350407" d="M632.4-173.3l-87.8 576.6L430.6 79l62.2-256.3z"/><path fill="#5c464b" d="M2275.5 722.6L1418 452.7l946.3 136.4L2657.8 894z"/><path fill="#1b0000" d="M1435.7 1431l-152.2-71.3-371.4 338 396.5 291.6z"/><path fill="#5e0000" d="M1140 2037.5l-740 224.8-6-626 249 480.2z"/><path fill="#484156" d="M241-232.5l42.3 592.8L251 462.5l-112.6-79z"/><path fill="#d00805" d="M562.4 1629.8l-5.8 708.8 174.7-377-29.9-690.1z"/><path fill="#606b92" d="M1169.8 141.1L1564-154l-170.6 426.5-398-60.4z"/><path fill="#4b5963" d="M1976-38l264.9 236 135-430.5 701.6 284.8z"/></g></svg>