<svg xmlns="http://www.w3.org/2000/svg" viewBox="0 0 3840 2160"><path fill="#393d3a" d="M0 0h3840v2160H0z"/><g fill-opacity=".5"><path fill="#ffffd3" d="M2051.6 925.8l-286.2 1037-1392.5 16.1L1414.3 733z"/><path fill="#fff" d="M2147 2040.4l377.3-196-628.2-39.4-274 354.8z"/><path d="M1487 1774l-277.8-562L2587.8-232.5h-774zm-1719.5 341.5L198-232.5l390.6 2093 488 532z"/><path fill="#040005" d="M3021 330.2l-657.5 1917.4 1578-56.6 65.3-749.8z"/><path fill="#ced6b8" d="M772 1147.3l96.4 1245.2 346.3-286 639-446.8z"/><path fill="#ffffd7" d="M1495.8 1528.2l219-765.5 266.5 281.3-62.7 417.3z"/><path fill="#e2e8df" d="M1240.3 316.3l-267.8-49.4 356.8-104.6 168.5 127.4z"/><path fill="#ffffc7" d="M1590.9 1071.7l233.6 1074.7 712.7-340.4-714.1 37.2z"/><path d="M1169.3 1282.7l385.6 152.6 53.4-634.7L1376 981.5zm-314.8-88.5l-1083 255.7-4-1362.3 825.4-320.1z"/><path fill="#000913" d="M2780-232.5l986.8 1390.8L3936.1-185l-387.2 18.6z"/><path fill="#06080a" d="M1293.2 1182.5L3230.8-206.7 1320 4.1l316 895z"/><path d="M1699.5 2299.3l78.2-384.8-353.3-26.2-245.8 454.6z"/><path fill="#fffed4" d="M704.4 1588l-73 90.6 140.8 257.5 679.3-1079.3z"/><path fill="#fbffcd" d="M1959.7 1856l441.5 225 54.9-80.4-44.4-196.5z"/><path fill="#a44639" d="M2337.6 635.4L2218.1 981l-256.8 112.8-70-484.1z"/><path fill="#090d0d" d="M547.1 2392.5l618.9-800.2-357.8 321L-232.5 2302z"/><path fill="#0c101a" d="M2754 751.6l-752.1 368.8-173.6 508.6L2835 1291.4z"/><path fill="#f4e7c0" d="M1512.1 694l449.8 325.4-252.3-272.2-591.9 393.8z"/><path fill="#a9bbb8" d="M2538.9 259.4l87.3 7.8 428.3-70.4-66.5 124.3z"/><path fill="#000b12" d="M2680.1 1689.3l1392.4 45.9-1274.7 657.3-508.9-744.7z"/><path fill="#71443d" d="M3162.4 839.1l-192.3 274.4 315.8 328.8 190.3-261.8z"/><path fill="#323e4b" d="M514 1981.5l257.8-693.2-577.6 53.1-45.4 809.3z"/><path fill="#1e2f3a" d="M888.5 598.1l-359-273.8 1090 29.2L954 1398.1z"/><path d="M1498.2 864l72.6 441.4-165.5 180.5-210.3-294.8z"/><path fill="#fff5c8" d="M1965.3 785l-71.4 745.1-196.2-441.4-69.2-142z"/><path fill="#fff3c9" d="M1254.1 933l341.2-232.4-367.5 482.4-261.4 357.9z"/><path fill="#101212" d="M1334.2 789.2L1865-232.5l107 1289.2-160.8-378.4z"/><path d="M2602.9 2261.3l-332.4-248.8-1040.4 380 1050.5-208.3z"/><path fill="#a1a893" d="M1552.5 2085.1l-194.9-401.4L774 1831.1l821.6-470.7z"/><path fill="#26343f" d="M1972 1879.3l-261.1-502-88.9 88.3 757.4 222.5z"/><path fill="#c5a29c" d="M3760.9 940.1l311.6 299.6-217.8-248.1-62.6 258.3z"/><path d="M804.6 1964.5l-259.9-55.6 114.1 483.6 336.7-668.7z"/><path fill="#f0eec3" d="M1790.7 1131.9l25.8 980.2-86.2-477.5 197.2-135.3z"/><path fill="#cccbad" d="M833.6 1101.3l555.8 515.3-804 286.6L843 1439.7z"/><path fill="#0c1219" d="M2654.2 1582.8l98.7-523.2-79-1029.8-135 487.3z"/><path fill="#61706f" d="M1135 1174.4l-33.3-545.8 177.8-85.2 49 274.8z"/><path fill="#e1dfbd" d="M729.6 1958l-176.3-135 168.6-340.9 228 1.2z"/><path fill="#3e4449" d="M1430.4 1672l5.8-17.6 130.2-74.2-237 812.3z"/><path fill="#999e91" d="M313.3 1454.1l-7.4-9.2 200.4 15.2L334 1580z"/><path d="M1685.2 2392.5l70-503.2-176 10-17 309.1z"/><path fill="#4a5c60" d="M2436 1233.8l-52.8-262.4 73.7-494.3 163.7 629.7z"/><path fill="#031115" d="M-232.5-232.5l158.6 2446.3L610 241.7l2021.7-153z"/><path fill="#f0e9c1" d="M1516.6 718.8l-672.3 766.1 496.2-18.2-151.7-265.5z"/><path fill="#f4fbc8" d="M2129.6 2036.1l285.5-213.6-82.2-46.2-538.3 180z"/><path fill="#050808" d="M2436.8 1997l-133.4 173.9 1304.3 4.5-1138-465.7z"/><path fill="#30343c" d="M881.4 792.8l310.1 264-329 424.6 179.1-362.2z"/><path fill="#192129" d="M850.9 1437.1l-249 197.8-97.6 757.6L453 665.1z"/><path fill="#181c23" d="M2361.7 718l77.8 194.5-459.2 972-159.3-63.6z"/></g></svg>