<svg xmlns="http://www.w3.org/2000/svg" viewBox="0 0 3840 2160"><path fill="#402a2e" d="M0 0h3840v2160H0z"/><g fill-opacity=".5"><path fill="#9b7783" d="M1297.9 1860l812-582.8-193.4-1509.7L-146 354.7z"/><path fill="#c07639" d="M1472.5 1829.7l566-564.5 45-836.8-1349 1037.4z"/><path fill="#030000" d="M-232.5 2131l4305 261.5-324.5-2625-1208 1902z"/><path d="M-232.5 2392.5l92.7-1465 1380.4 836.7 63.3 628.3z"/><path fill="#87280f" d="M2543.2 1685.5l1529.3-383.6-2016.8-192.5 461.3 664.2z"/><path fill="#313574" d="M1304.7-227.7l-1322.1-4.8 33.3 1278 2469.6-940.1z"/><path fill="#0b0019" d="M2497.2 938.9l1452 197.4L4072.5-68 2691.2-232.5z"/><path fill="#262e19" d="M1680 748.4l278 731.6 837.7 307L1645 2392.6z"/><path fill="#ffe243" d="M1457.3 1405.3l222.4 48-145.4 244.5-155.2-95.3z"/><path fill="#e5ae77" d="M1817.9 1098.6l202 387.2-25.3-1031.9-104.3-217.6z"/><path fill="#000300" d="M4072.5 2001.3l-965.8-426-280.7-558.9-12.8 1376.1z"/><path fill="#7b3e28" d="M-198.2 788.1L1598.5 2064l-58-228.6-291.2-497z"/><path fill="#b24524" d="M2848.2 1475.5l-552.9-273.4-59.2 122.6 199.8 321z"/><path fill="#91716e" d="M1733.7 1182.4l-953.2 112.1 309.4-425.8 623-2.5z"/><path fill="#120d00" d="M789.9 1375l711 1017.5-1543.3-192.3L-232.5 1004z"/><path fill="#4e3b48" d="M-232.5 821l414.3-688.1 646.9 1172.8-741.5-204.8z"/><path fill="#580f0a" d="M2876.2 1344.5l702.2-264.3 488 301.2-891.6 304z"/><path fill="#3f3f7b" d="M164-75.2l45.7 402 1101 77.8 912.4-637.1z"/><path fill="#cb5224" d="M1407.1 1584.4l197.3 133.2-742-198 792-265.2z"/><path fill="#43361f" d="M643 2125.4l1154.3-205.9-189-532.2 666.6-56.4z"/><path fill="#fff058" d="M1538 1371.8l-103.4 173.8 138.8 130.6 29.4-109.6z"/><path fill="#674d52" d="M1984.4-35l307 271.5-231 502.2-218.8-605.9z"/><path fill="#5a4a5f" d="M157 931.4l1571.5-637 61.3 663.7L116.3 654.5z"/><path fill="#040100" d="M4072.5 2119.1l-936.7 273.4 193.6-835.3 743.1 13z"/><path fill="#000a00" d="M2616.4 1422.6l-93 969.9 199.6-456.9-69.3-475.6z"/><path fill="#2d2654" d="M495.7 381.3L286.3 589.5l-518.8 59.2 157-881.2z"/><path fill="#321117" d="M3422.2 1245.5l-854 53-227-526.5L3408 857z"/><path fill="#3e2936" d="M2054.9 1343l797.7-690.6L2630-232.5l-486 75z"/><path fill="#88231e" d="M937.7 1554.1l-165.5-94.6L925 1320.9l556.8 54.5z"/><path fill="#100218" d="M3957.9 904.5l12.9-849.1-670.9-287.9-337.2 961.4z"/><path fill="#342d21" d="M1823.5 2043.4L2589 1787l-292-266.6-620.5-247.2z"/><path fill="#873625" d="M2772.5 1352.2l13 402.8-667-1012.8 211.4 734.2z"/><path fill="#ab8579" d="M1426.8 1205.7l284-26.8 5.2-210.3-475.5 135.5z"/><path fill="#0b0e06" d="M4 1897.5l-9.8 327.3 1667 167.7 1241.2-251.1z"/><path fill="#5b4828" d="M1723.6 1616l-528.3 182.8 21.2 30.6 322.8 297.4z"/><path fill="#72514d" d="M153.4 994.6l87.2 148.8 788.6 93.3 407.6-17.6z"/><path fill="#b0845d" d="M1797.8 1127.5l94 188.7L2031 1467l67.5-748.6z"/><path fill="#662417" d="M3254.3 1737.9l-93 74.3-110-540.4 285.7-12.7z"/><path fill="#070e03" d="M3156.6 2392.5l-94.6-1060-443.8 670.3-103.1 389.7z"/><path fill="#d0946b" d="M1809.5 1012l100.9-801.2 133.4 1014.5-25.7 133.6z"/><path fill="#4b4370" d="M1655 628.6L287.8 427.5l312-575.8L1938.9 298z"/><path fill="#611b1a" d="M448.2 1255.2l463 48.8 131.3 101.3-359.4 38.1z"/><path fill="#d67b3e" d="M1665.2 1406.4l-219-22.8 16.5 324.4-284-126.7z"/><path fill="#432f2b" d="M1657.6 1805.5l91.7-1080 133.8 750 399.6-267.4z"/><path fill="#76585b" d="M1329.7 1021.4l310-67.1-48-317.9L98.4 865.6z"/><path fill="#231d0d" d="M1470 2121.7L365.9 1805.2 845 2392.5l235.1-811.2z"/><path fill="#430705" d="M3499.8 1587.6l193.1-6.8 311 51.8 68.6-911.4z"/><path fill="#3e3037" d="M766.8 1103l-728-328.5L.2-232.5-109 911z"/><path fill="#020204" d="M-96 1828.8l421.3-409.4 49.3 973.1-573.8-120.6z"/><path fill="#2d1b2c" d="M2407 921.1l503.6 147L2839-232.5 2462.8 37.1z"/></g></svg>