<svg xmlns="http://www.w3.org/2000/svg" viewBox="0 0 3840 2160"><path fill="#e56f40" d="M0 0h3840v2160H0z"/><g fill-opacity=".5"><path fill="#100000" d="M3600.8 423.8l-581.6 1267.1 1053.3 255.4L4063.4-69z"/><path fill="#180000" d="M502.3 1373.5l-734.8-184.9V355l1150.8 743.6z"/><path fill="#ffb36b" d="M3801.8-113L266-57.8l1497 1864.7 511.3-261.2z"/><path fill="#270000" d="M3971.3 1923.2l-118-1813.3-214.1 810.4-467.4 341.5z"/><path fill="#ffae8d" d="M405 1440.5l819.8 910.3L1402 1128.1l-652 103.2z"/><path fill="#ff3b00" d="M2630 1078.7l1073.7-799.4-70.8 615-143.3 209z"/><path fill="#ff1200" d="M1940.5 2127.3l795.6-1211-165.5 1069.5-1436.1-505z"/><path fill="#860000" d="M-232.5 1297.3l1484.3-128.9-1058.5-544-259-856.9z"/><path fill="#ffaa8f" d="M24 2392.5l464.2-718.2 571.6-113.1-1292.3-362.5z"/><path fill="#ffa27c" d="M3007.7 2305.1l-710.2-275.4 1177.2-322-53.4-354.7z"/><path fill="#ff5f01" d="M340.3 268.2l-140.8 600 1522.7-205.5-25.2-100z"/><path fill="#ffab7d" d="M2563.3 790.4l210 1602.1L3247 996.7l-1352.6 529.8z"/><path fill="#db1400" d="M2417.7 769.2L2705 642l-524.3-215.6-77.8 263.3z"/><path fill="maroon" d="M3439.6 532.1L3909 170.7l125.2 486.4-800.1-50.1z"/><path fill="#8b0000" d="M3067.3 1680l165.6 143 392.8-898.8-430 244.4z"/><path fill="#300" d="M820.7 1215.6L227 862l-459.6-668v1046.4z"/><path fill="#ff1800" d="M3329.8 2241l174.5-497.4-96-87.4-562.7 712.2z"/><path fill="#430000" d="M3899 596.5l-471.3 561 40 688.3 604.8-17.7z"/><path fill="#ffb881" d="M1039.5 2392.5l1314.8-454.7-128.6 431.6-708.5-526.3z"/><path fill="#ff2c00" d="M1943.5 1746.2l-658.3-284.9 638.1 704.4 825.4-881.7z"/><path fill="#ffaa8d" d="M3323.5 1907l566.7 485.5 182.3-1470.8L3833 1842z"/><path fill="#f30" d="M1149.2 1060.3L604.7 634.6 210.8 787.3l1006.3 455.1z"/><path fill="#ff9624" d="M3799.6 225.3l-606.7-457.8-566.2 643.1 278.1 486.5z"/><path fill="#c10000" d="M355.8 293.9L86.1-180.7l-31.8-51.8 470.2 472z"/><path fill="#ffa37a" d="M1871.9 1766.9l865-945-1692.2-186.8 182 667.8z"/><path fill="#cf0d08" d="M1304.2 547l167.7 276 263.7-225.2-213.1-91z"/><path fill="#ff2909" d="M777.7 1779.5L291.5 1719l953.2 673.6-272.7-373z"/><path fill="#ff1e00" d="M1279.6 1660.6l-37.3 292 272.7 3.2-87-537.4z"/><path fill="#ffab8d" d="M639.5 2255l146-367.7-470 42.2 50.2 463z"/><path fill="#ffaa78" d="M2629-71.2L1221.3-232.5l-68 811.4 1665.6-292.5z"/><path fill="#ffa736" d="M1218.6-232.5L340 703.2l-491.3-935.7 588.5 570.2z"/><path fill="#d20000" d="M404.2 1429.8l-196.1-185 435-27.2 670.2-300.3z"/><path fill="#ff6d02" d="M3439 991.7l127.5-54.4-437.2-548.8-214 726.2z"/><path fill="#e73509" d="M1767.2 543.3l-557.9-219 164.5 4L1759.2 493z"/><path fill="#ffa64e" d="M269.4 719.8L187 647l210-12.8-531.8-265z"/><path fill="#ff320f" d="M327.4 2295.9l-14.3-454.4-280-423.4 91.1 107.8z"/><path fill="#ffa77f" d="M1080 1043.5L846 772l-68.5-169 275 79.4z"/><path fill="#a20000" d="M3258.9 1722.1l21.7-730.3-180.3 502.8-88.9 329.8z"/><path fill="#a00000" d="M109.3 324.4l-249.5-556.9 141.7 630 319.7 204.7z"/><path fill="#ff9165" d="M3036.7 2093.4l422.8-682.4 1.4 224.8-79.8 47.4z"/><path fill="#ff6500" d="M667.7 850.2l206.7 211-143-853.2-321 316.7z"/><path fill="#fa2908" d="M2981 871.3l-155-291-179.3 579.3 113.8-574z"/><path fill="#ff9c71" d="M2780.4 671L-65 1540.4l395.6 208.5 626.1 1z"/><path fill="#ff3004" d="M1661.8 2032L2733 1480l-352.1 703.5 145-844.7z"/><path fill="#ff9368" d="M3087 1174.7l-42.4 939.5-639.6 133.2 588.7-1279z"/><path fill="#ff9e31" d="M1165.3 636.1L475 251.5l-85-484 857 586.7z"/><path fill="#fd5101" d="M3622.9 715.5l48.7-172.2-1106.8 636.3 179.5 20z"/><path fill="#6d0000" d="M3668 697.4l-211 92.8 615.6 313.6-334-851z"/><path fill="#ff9e68" d="M2259 1836.8l-164 164-873.4 391.7h1455z"/><path fill="#dc3c18" d="M2348.9 442.8l338.9-128L2191 422.1l235.3 433.2z"/></g></svg>