<svg xmlns="http://www.w3.org/2000/svg" viewBox="0 0 3840 2160"><path fill="#304431" d="M0 0h3840v2160H0z"/><g fill-opacity=".5"><path fill="#0e0000" d="M2228.8-232.5l948 2625-1277.1-80.4-274.4-2544.6z"/><path fill="#496a4f" d="M4058.3 192.9L3257.9 18 2166.1 1570.4l1906.4 414z"/><path fill="#936a48" d="M2043 938.2L1745.7 1401 1441 912.6l-7.7-526.3z"/><path fill="#050000" d="M2480 1211.9l-93.2-798L1322-232.5l2.6 489.4z"/><path fill="#769a7e" d="M3074 1960.8l851.8-3.6 146.7 81.6-927.6 102z"/><path fill="#335b45" d="M-232.5 79.5l175.9 2076.2 1917.6-60L1274.7 81.2z"/><path fill="#608969" d="M2330.6 131.8l837.7 276.3-774 15L3347.6 129z"/><path fill="#81ad97" d="M1860.3 1998.4l-4.3 39-1322.6 3.4 1028.3-45.6z"/><path fill="#0e1409" d="M2466.5 1594.8l1146 797.7-2151.2-478.4L3873 1693.3z"/><path fill="#658c72" d="M3054.1 1717.2l1018.4 37-1036.6 139.4-35.5-111.5z"/><path fill="#8bb39b" d="M3157 1107.8l915.5-20.4-884.8-29.8-745 16z"/><path fill="#070f00" d="M564.6 719.1l-797.1 54.3 684.7 19.2 1690.4-32.3z"/><path fill="#031000" d="M-232.5 1654.2l2758 27.7-2687.7 60.4 255.7 283.4z"/><path fill="#93bea4" d="M3684.3 618.2l-1125 11 75.3-29.1 119.1-8.2z"/><path fill="#83aa92" d="M1640.2 1335.5l230.7-53.4-1653 47 1368.3 6.8z"/><path fill="#83ae99" d="M1833.5 1526.6l-320.6 3.7-1745.4 26.8 2031.8 29z"/><path fill="#000200" d="M-105.4 542l576.8-69.8-21.7-9.4 971.1 80.2z"/><path fill="#0a0c02" d="M2632.7 944.5L1812.6 1289l77 616.1 270.1-244.7z"/><path fill="#000c00" d="M113.3 1256.7l-345.8-59.8 1748.2 2.9 167.4 48.5z"/><path fill="#93bea6" d="M3753.8 866.7l-658.2-6.8-101.4-25.3 1051.5-3.5z"/><path fill="#90b6a4" d="M677 1763l-858.6 34.3 693.2 10.6 1063.4-11.5z"/><path fill="#7da28d" d="M1090.8 661.5l-334.3-79-271 44.1 1088.6-37.4z"/><path fill="#9fc2ab" d="M259.3 1083.2l1076.2-16.7 519.3 24.4-591.6-3.8z"/><path fill="#000c00" d="M617.3 948l-820.2 71.2 476.7 8.4 1372.8-32z"/><path fill="#0b1800" d="M2892.7 93.8l501.5-4.6 678.3-45-1845.1.2z"/><path fill="#a9d3bd" d="M3261.9 1300.5l-661 13.6 1187.5 15.7 198.3-32.3z"/><path fill="#000700" d="M1624.6 317.6l97.8-72.1-1903 32.2-51.9 35.5z"/><path fill="#72917a" d="M2179.6 855.6L1009 825.1l-875.3 13.7L679 874.2z"/><path fill="#84ac98" d="M1773.5 1953.4l83.8-187.1L356 1788.8l1489 11.6z"/><path fill="#92b8a1" d="M2789.4 1528.6l476.7 41.2 806.4-15.2-754.4-31.4z"/><path fill="#0b1908" d="M1823.9 1859l-1612 141.5 156-108 977 74.4z"/><path fill="#000800" d="M4011.6 568.1l-1156.3-37.2 1217.2-44.6-191 92.5z"/><path fill="#ab9788" d="M1663.9 937.4l-125.2-136-37.4 129.5-16.8 149.6z"/><path fill="#8bb197" d="M4072.5 361.5l-404.3 6.5-1324.6 6.4 1452 33.6z"/><path fill="#82a58e" d="M2649.4 799.6l514 63.2-568.3-11.3 301-67.8z"/><path fill="#000300" d="M3485.7 733.4L2524.2 776l1039.9 10.3 508.4-12z"/><path fill="#151810" d="M3278.9 1389.3l-582.5 60.3 458.5 492.8-1955.2 450.1z"/><path fill="#000d00" d="M-47.6 98.6l865.2-36.7 719.5.2L130.9-232.5z"/><path fill="#031002" d="M267.3 1485.7l485-68.8 1623.2 41.3-1347.9 37.6z"/><path fill="#739b83" d="M-232.5 1303l896.7-.8 470.8-4.5-738.6 74.5z"/><path fill="#8db1a1" d="M849.5 1999.5l-1082 36.3 1067-11.2 554.9 17.5z"/><path fill="#051000" d="M2127.3 270l1771.3 1.4-99.1-503.9 162.4 567z"/><path fill="#402606" d="M2157.7 1195.9l-65-459.5-277.2-9.5 86 616.3z"/><path fill="#7d9f8b" d="M1037.4 396h441.2l-295-42L394 370.7z"/><path fill="#001200" d="M3637.7 1034.2l325.2-74-1298.7 65.5-139.7-84.2z"/><path fill="#7fa78d" d="M4072.5 630.9l-634.5 10-305.7-15.6 395.8-28z"/><path fill="#000300" d="M4031.6 1243l-618.6-52.6-729.3 32.4 517.1 28.6z"/><path fill="#091906" d="M3197.8 1507l-218.7 10.8 1093.4-70.8-1142-14.3z"/><path fill="#87af94" d="M4072.5 122L3097 155.4l975.5 20.5-64-69.3z"/><path fill="#90b49d" d="M82.6 368l231.8 3.8 532.5 20.3-952.5-1.6z"/></g></svg>