<svg xmlns="http://www.w3.org/2000/svg" viewBox="0 0 3840 2160"><path fill="#ad6d43" d="M0 0h3840v2160H0z"/><g fill-opacity=".5"><path fill="#3a0800" d="M3775 1888L2767 614.2 2523 502l-876.7 958.5z"/><path fill="#ffe0a1" d="M2662.5-232.5L1401.3 947.3 2660 1059 705.4-158z"/><path fill="#ffffc7" d="M1443.5 47.7l1572 266.4 1057-239.5-898.7 592.7z"/><path fill="#ffe19c" d="M998.2 615.8L773.3 1994.2 1368 450.7l82.6-70.4z"/><path fill="#ffe785" d="M3108 1706.5L2777.5 1541l720 851.5 467.3-232z"/><path fill="#400" d="M3024.6 2392.5H3647l-817-613.7-412.2-231.5z"/><path fill="#ffffb3" d="M3851 437.3l-1310.7 73.3 1149-377.4L4072.5 30z"/><path fill="#560000" d="M3455 984.5l426.5 81.5 191 265.2-795.8-25.8z"/><path fill="#fff0a7" d="M-232.5 119.6l1434.3 668.6L94.6 672.3l1078.3-103.6z"/><path fill="#ffffb8" d="M2432 364l1232-596.5L2621.3 86.2 1752 294.4z"/><path fill="#ffc" d="M-232.5-232.5l933.7 502.6 158.3-490 130.7 418.5z"/><path fill="#fecb72" d="M4072.5 1448.8l-1133.6-315.1 225.5 323.4 908.1 314z"/><path fill="#530000" d="M366.4 2194.5l-481.5 144.6 469.3-503.4L856.1 1386z"/><path fill="#8d0000" d="M3964.3 48.1L2958.4 349l-324.3-126.8 1265.3-428.6z"/><path fill="#340904" d="M3064 976.7L2820.3 1264l-1110-949.6 620.7 55.4z"/><path fill="#4d1a09" d="M1745 2392.5L1234.6 917.3 2557 1467.8 1454 1708z"/><path fill="#fff89b" d="M-232.5 2146.4L655 1342l185-11.4-405.4 456z"/><path fill="#fffda9" d="M1061 1704l245.4-368.4-218 805.1-291.9 251.8z"/><path fill="#590000" d="M-213.6 2035.5l-18.9-63.7 288-462.5 863.6-382.4z"/><path fill="#ffffa2" d="M3413.4 981.1l391 62.7 268.1-191.5-568.6-129.9z"/><path fill="#350000" d="M2088.8 1569l525.9 633.8-176.2 189.7-319.2-521.9z"/><path fill="#570000" d="M2921.2 1541.2L3644 2005l340 169-41.9-450z"/><path fill="#ffffa7" d="M406.5 1344.9l-639 157.3 677-358.5 378.3-81.5z"/><path fill="#fffca5" d="M-154 951.9l437.2-54.3L1237 769.1l-1284.8 377z"/><path fill="#9b0000" d="M4072.5 470.5l-952.4-4.9 289.6 253.6 424.2 19.2z"/><path fill="#ffffb1" d="M1371.3 1603.2l-101.3 519 199.8 258-15.7-761.1z"/><path fill="#ffdf8a" d="M332.2 2205.5l199.4 187 734-1474.8L496 2043z"/><path fill="#730000" d="M-59.8 101.5l-172.7-334 291 137.3 1134.7 686.3z"/><path fill="#ffffbd" d="M2038 964.2l321.5 268.2-707.6-524.5 603.5-50.8z"/><path fill="#6a0000" d="M1149.3 1456.3l-115.5 56.7-421.4 706 188.4 173.5z"/><path fill="#1e0000" d="M2266.4 1722l-209-275.7 872.4-613 49.5 191z"/><path fill="#890000" d="M-197.2 509.2l590.1 89.5 451.6-20.4-1054-294z"/><path fill="#fff9a6" d="M1644 2051.4l288 341.1-209.4-610.3-136.7-211.6z"/><path fill="#7f0000" d="M1060 2275.5l187.5 117 114.8-857.3-160.2 186.6z"/><path fill="#600" d="M989.4 772.5l-1182 186.7 253.2-616-293.1 356.5z"/><path fill="#7b0900" d="M783.2 1433.7l299.6-176.8-591.6 734.4-686.7 401.2z"/><path fill="#7b0000" d="M-232.5 1456.3l832.7-363.9L794 914.2-132.7 1164z"/><path fill="#b3753e" d="M1383 1028.7l1178.8-186-105.6 294.8-303.8 245.3z"/><path fill="#52260f" d="M1663.7 559.2l-350.1 656-91-334.9 251.8-393.8z"/><path fill="#fff098" d="M801.3 705.8l-311.2-97-722.6-91.7v231.1z"/><path fill="#96522c" d="M2403.3 1669.4l258.2 162.2 785-495.1-77.9-588.4z"/><path fill="#8c0000" d="M1059.5 424L235.6-232.5l535 290.2 542.6 512z"/><path fill="#fdca6a" d="M2316 1815.2l102.8-139.3 564 590.4-262.7 126.2z"/><path fill="#7b0000" d="M1426.2 2371.1l120-913.9 139.7 861.4 656-427.1z"/><path fill="#ffe8a8" d="M1848.2 89l13.9 596-320.8 472.5 230.3-919.7z"/><path fill="#cc663c" d="M1062.6-78.3l483 596.4 414.2-603.3-893.2-16.3z"/><path fill="#ecc57d" d="M2120 1949.4l-122.8-582.7-11.6 645.2 476 380.6z"/><path fill="#d00600" d="M1878.2 214.2l131.2-3.4 178.3-260.7L2026.3-7z"/><path fill="#ffcd7e" d="M3106 1657.6l559.8 396.6-695-140-88.2-245.7z"/><path fill="#600500" d="M3594.4 2392.5L2750 1715l-553.7-257.8 609.4 623.3z"/></g></svg>