<svg xmlns="http://www.w3.org/2000/svg" viewBox="0 0 3840 2160"><path fill="#503013" d="M0 0h3840v2160H0z"/><g fill-opacity=".5"><path fill="#df622e" d="M3048.2 2392.5h-754.3l6.7-2625 706.7 1725.6z"/><path fill="#c48b57" d="M1576.3 1050.2l523.6 792.4L1078 1273.4l-34-574.8z"/><path fill="#fdbe84" d="M1168 2074.3l188.2-211.8 292 25.8-234.8 473.3z"/><path d="M1028.7 1666.5l158.3-1868-1361-31-26 2625z"/><path fill="#816f3c" d="M2228.3 182.8l6.4 784.8 1638.7 62.1 199.1-798z"/><path fill="#0d0500" d="M1928.9 1293.2l244.3-687.8-3.1-837.9-1135.5 895.8z"/><path fill="#820000" d="M2021.5 2392.5l-16.3-1212.2 560.2-84.9-69.6 1297.1z"/><path d="M602.8 1769.1l1190.8-330.5L792 2392.5l181-518.1z"/><path fill="#1e5c51" d="M1641.9 1303.7l496.4 1088.8-334.1-88.2-316-542.5z"/><path fill="#f6bd7f" d="M2457.6 201.9l-183.8 702 185-106.6 93.5-285.4z"/><path fill="#797351" d="M780.3 2266l-461 50 50.3-401 628.2-48z"/><path fill="#ae692f" d="M2074.9 1322.8l-344.6 366.4 128 226.3 302.5-143z"/><path fill="#d59261" d="M1349.8 1532l-100.2-740.4L1406 932.2l220.9 451z"/><path fill="#ee5825" d="M2724.7 2392.5H2433l124.7-915 187-110.6z"/><path fill="#eebe7c" d="M3037.8 2311.5l-110.6-235-43-315.5 97.7-279.3z"/><path fill="#3d2907" d="M2172.5 1339.6L2633 442.3l-494.6-674.8L3224.3 54.9z"/><path fill="#6d431d" d="M904.8 620.6l-64 725-294-247.7 764.7-124z"/><path fill="#312600" d="M4072.5 1278.1l-993.3-68-16 1182.4 956-410.8z"/><path fill="#cc2b00" d="M3077.3 1371L2738 1175.7l128 512.3 311.6-333.9z"/><path d="M424.8 1372.6l138.3 37.4-342.6 982.5-453-1098z"/><path fill="#b58d48" d="M2580.9 409.1l24.6 1547.4 60.6-780.2 100-78.6z"/><path fill="#453209" d="M2730.8 628l747 335.5 12.7 661.8-743.5-453z"/><path fill="#1b0100" d="M1891.5 331.7l-268 1632.6 478-1106.7-81.8-39z"/><path fill="#735f35" d="M3606.7 1220l465.8-162.5V-169.4l-832.6 356.8z"/><path fill="#040300" d="M896.4 2392.5l-184.3-57 339.1-450.6 709.7-616.3z"/><path fill="#630000" d="M2721 1739l104.6-203.7 83 857.2L2768 2311z"/><path fill="#0b0000" d="M55-60.6l-287.5 512 638.8.1L1224.8-6z"/><path fill="#710700" d="M2613 1260.1l-391.3-207 86.6 1339.4L2587 1379.7z"/><path fill="#001b18" d="M1824.2 2392.5l415-349-768.5 299.8 190.9-537.8z"/><path fill="#2a1a00" d="M1412 911.8L230.3 179.4l-462.7 1758L1243.2-211.3z"/><path fill="#cea36a" d="M2505 250.8l15.8 293.8-258.4-401.8 146.1-45.3z"/><path fill="#81512a" d="M1431.8 1856.3l-160.6-43.6 234.5-550L1009.8 2381z"/><path fill="#746433" d="M1587.9 279.3l-50.3 45.7-239.2 10.4 482.5-567.9z"/><path fill="#676456" d="M909 756.1l-4 76-139-221 335 158.1z"/><path fill="#a46b38" d="M1846.2 1634.4L1637 1333.8l26.3-40.2 467.3 388.6z"/><path fill="#562f1b" d="M781 1174.6l743.6 306-238.2 290.4-719.6-587z"/><path fill="#3d675a" d="M1652.6 1912.7l225-78.6 158.1 233.7-41.3 324.7z"/><path fill="#7e6637" d="M2904.6 1208l-623.5-98.5-423 24 486.6-165.2z"/><path fill="#1b0500" d="M1472 942.8l859.8 1058.4-450.8-554.3 161.5-712.3z"/><path fill="#2c1100" d="M2552 659.4l-130.8 243.7-8.4 59.8 130 99.5z"/><path fill="#a86d3e" d="M2222.9 102.3l57-57 63 789.6-107-252.5z"/><path fill="#231b00" d="M1752.7-152.1l792.6 324.4 481-277.2-1352 179.3z"/><path fill="#e9af70" d="M2997.9 2164l-9.3-609.9-118.6 162 253.7 592.6z"/><path fill="#da9f6a" d="M1603 1878l-44.7 204-198.3 83.4 79.3-259.3z"/><path fill="#3b1500" d="M1810-138l283 325 200.4 507-204.5 398z"/><path fill="#000e04" d="M924.4 1739.2l199.2 281 560.6-720.8-184.2 551.2z"/><path fill="#410000" d="M2079.2 2377.6l-139.7-563.5 98.5-79.4 226 484.6z"/><path fill="#c18f62" d="M1184.5 1053.6l241.8 148.4 174.3 186.5-196 125z"/><path fill="#362300" d="M1813.6-158.5L1296 817.2l1080.8-511.8 2 222.6z"/><path fill="#59411c" d="M2784 992.7L4072.5-232.5 3182.7 55.7l-633.9 381.5z"/></g></svg>