<svg xmlns="http://www.w3.org/2000/svg" viewBox="0 0 3840 2160"><path fill="#4c3b29" d="M0 0h3840v2160H0z"/><g fill-opacity=".5"><path fill="#ffe997" d="M2890.1 958.5l1029.5 454.1 152.9-696-1094.8-348.9z"/><path fill="#e16e5d" d="M2130.4 1531.4L980.6 271l-83.3 1389.2 997.8 305z"/><path d="M97.4 1049.3L8.9 2365l253.7 27.4L847 1658.1z"/><path fill="#010706" d="M2336.1 141l1677 2097.2-1051 82.3L1181.2 574.2z"/><path fill="#ffffb9" d="M3749.8 780l322.7 954.9-554.2-635-266.8-34z"/><path fill="#97de80" d="M329.5-232.5l-562 445.6 811.3 363.2-593-754.2z"/><path fill="#fffff1" d="M1147.9 798.7l172.8 266.6h125.8l-183.7-492z"/><path fill="#000004" d="M1961.3 1960.1L1177 2392.5l2895.5-275.3-2181.7-486.1z"/><path fill="#ffc083" d="M3152 341.8l-384-574.3-231.6 14 620.4 659z"/><path fill="#c41916" d="M1569.6 2392.5L1428 1480.1l615.8-448.8L625 1224.8z"/><path fill="#ff8e6b" d="M1316.2 1666l259.4-725.3 485.8 655.5-472.9-204.7z"/><path fill="#3c6b3c" d="M650.8 1521l526-905.3-960-839.1-34 1082z"/><path fill="#8f5130" d="M4072.5 656.5L2038.3 121.8l889 15.4 38.9 791.5z"/><path fill="#010a0d" d="M-232.5 1501l1629.7-345-469.8-197.9-648.6 1434.4z"/><path fill="#b1d8d8" d="M1991.9 1960.6L1654.7 1371l146.4 529.6 85.6 36.8z"/><path fill="#01070e" d="M2145.5 2334.2l1718 58.3 92-946.3-454.8 50z"/><path fill="#130000" d="M2875.2 723.3l-336.5 420.2L1792.5 4.9l88-237.4z"/><path fill="#4a5340" d="M1394.4 1548l-30.7 29 302.8 815.5L1815 1311z"/><path fill="#635b37" d="M2299 1635.2l-291.2 56.2 317-524.3 594-200.9z"/><path fill="#405c28" d="M1346.5 1087.8l759.5-186-837-178.2 172.3 275.9z"/><path fill="#f2e0b8" d="M1087.2 304.7l126 162-69.4 40.3-175-50z"/><path fill="#61040a" d="M816.5 1574.8l-266.8 764 986.8 53.7-319.4-867z"/><path fill="#64676a" d="M2528.9 1700.2l1450-447.6-972.2 377.1-501.3 326.2z"/><path fill="#ffdd96" d="M3367.6 887.3l704.9 13.2-408.3 309-451.9-39.8z"/><path fill="#041e08" d="M4072.5 554.9l-476.6-733.4-262.8-54-148 379.4z"/><path fill="#11390f" d="M1236 454.4L673.3 7.7 1934-62.1l453.7 93.5z"/><path fill="#ffbca4" d="M3056.4 921.2l-166-147 24.6-61.8-39.7 309.7z"/><path fill="#220200" d="M2937.8 549.6l4.5-448L2349 937l427.4 218.2z"/><path fill="#ec7049" d="M2286.5 100.1l166.8 59 236.4 250.2-15.6 132.9z"/><path fill="#120100" d="M1555.3 1847.6l-174.2-196 13.7-85.1 103.1-111.2z"/><path fill="#77953c" d="M2044.7 279.4l-178.3 194L1665-48.8l-17.8 143.3z"/><path fill="#213018" d="M999.8 754.4l-485-584.2 119 613.6 728-382.9z"/><path fill="#ff4044" d="M1289.1 1269l256.2-262.3 399.2 241.5-497.2 135z"/><path fill="#000207" d="M1957 2275.5l-265.3 63.1 433.2-591.2 981-717z"/><path fill="#77925b" d="M381.5 441.4l217.9 1.8L4.5 65.5l467.2 1045z"/><path fill="#152f1d" d="M77 311l-309.5 970.1 891 197.8-345.8-573z"/><path fill="#c4e1e1" d="M1940.4 1480.8l-220-127.2 167.9-108.1-23.7 191.3z"/><path fill="#746b44" d="M3212.3 233.7l-180.5 92.7-5.6 303.5 977.4-8.7z"/><path fill="#d16443" d="M1971.3-232.5l909.4 616.4-4.3-72.4-706-494.2z"/><path fill="#fff9bf" d="M2365.8-232.5h161.3l478.7 354-70.8 4.3z"/><path fill="#798649" d="M630.1 1069.3l-113 145.7 419 90.5-398.3-479.8z"/><path fill="#db2023" d="M919.4 1222.5l241.6 105.2-70 127.2-422.9-1.3z"/><path fill="#f0d0b2" d="M1146.8 685l181.4-99.8-109.5 412.5-134-494z"/><path fill="#ffd690" d="M3681.4 879.5l391.1 675.8-684.3-457.5 94.3-276z"/><path fill="#b2d17d" d="M1785 1416l237.6 220.3 64.1 20.2-15.1-150.7z"/><path fill="#ecc445" d="M1373.6 1493.3l253.5 58-109.7 60.7 76.8-292.5z"/><path fill="#7d7954" d="M1306.4 957.3L1025 1127.8 928.6 423 720.2 707.3z"/><path fill="#595553" d="M3668 1549.5l49.8-262.8-789.9-353.4 93 122.5z"/><path fill="#6b6562" d="M1607.5 1441l-100 756.8-95 194.7 455.2-473z"/><path fill="#240d02" d="M1866.5 1410.3l196.2-1642.8L2530 697.4l-664.3 749.3z"/></g></svg>