<svg xmlns="http://www.w3.org/2000/svg" viewBox="0 0 3840 2160"><path fill="#222" d="M0 0h3840v2160H0z"/><g fill-opacity=".5"><path fill="#a9a9a9" d="M2667.6 1348.7l809.5 42 595.4-1557.2-650.2-66z"/><path fill="#fff" d="M3193.3 744.6L3097 1247l229.6 108.4 190-223.5z"/><path d="M-232.5-20L-3.7 2369.2l1516.7 23.2L1303 1.6z"/><path fill="#575757" d="M1954.5 338.8L1182.6 278l763 1951.7 147.6-909z"/><path fill="#4a4a4a" d="M288.6 1007.4l410.1 1.4 217.4-659.3 132 1366.3z"/><path d="M1893.3 2364.5l283.5-1208.2 1895.7 528.4-310.9 588.1z"/><path fill="#454545" d="M3020.5 754.7l1019.2-922.2L2173 912l904.3 354.1z"/><path d="M1681.1 286.2l-1913.6-11.8L2106-232.5l597.2 990.8z"/><path fill="#424242" d="M4010 26l62.5 2049.9-714.2-1547L1822.1-101z"/><path fill="gray" d="M3439.2 510.7l-90 452.5-286.8 63.9L2342 888z"/><path d="M1810.6 1393.4l-913.2 43.2L1174.6 858l601.4 458.8z"/><path d="M449 1297.2L113.4-232.5l-346 2383.1 2041.2 241.9z"/><path fill="#555" d="M871.9 1549.5L1982.5 1779l-35-1335.1-201.9 959.5z"/><path fill="#454545" d="M3628.2 1468.7l440.5-1064.3-973.9 1223.4-263.4-330.8z"/><path fill="#070707" d="M3496 241.3l-888.2 511.4-528-107-224.5-480.2z"/><path fill="#020202" d="M2217.3 873l-622.6-7.9-115.2-176.5 482.3 125.7z"/><path fill="#ececec" d="M3206.6 926l248.6 128.3-104 238.5-283.6-109.1z"/><path fill="#464646" d="M3139.7 825.3L2106.7 650 2054 855.7l569.7 153.3z"/><path fill="#acacac" d="M2794.5 980.5l515.3 84.6-123.5-430 81.9 172.6z"/><path d="M1799.5 1727.3L-211.2 2006l1411.7-57.9 737.2-29.4z"/><path fill="#4a4a4a" d="M983.8 598l-425.7-71.4 167.1 194.6 261.1 85.6z"/><path d="M3887.6 2167l-35.5-687.2-846.8 123.4-1077 270.9zM-232.5 1106.5l535.4-1339L627.2 779.8l508.4 46z"/><path fill="#626262" d="M3462.5 1212.2L3379 177l-1141.5-10L3679-26.3z"/><path fill="#616161" d="M1395.3 789.8l660.3 769.2-21.6-512.5-141.8-85.4z"/><path fill="#191919" d="M3056.6 1185l-10.4-132.6-2.2-23.8-1135.4-1.6z"/><path fill="#676767" d="M3011 1247.6l121.4 206.2 1 120.5 420.5-244.8z"/><path fill="#292929" d="M3475.7 724l264.3-63.7 302.5 287.9-427.4 45.2z"/><path d="M721.2-88.4l548.4 1696 592.8-382.3-121.8 214.2z"/><path d="M1880 120.7l172 628.4 318.8-981.6-2603.3 366.7z"/><path fill="#3a3a3a" d="M1474.7 1444.6l923.5 333.6 4.8-265.1-1361.4 246z"/><path fill="#131313" d="M1580.5 470.1l-36.6 226.2L1637 925l177.7-500.5z"/><path fill="#3b3b3b" d="M1033.7 808.4L487.8 1085l-252.6 12.7 591.6 290.2z"/><path fill="#313131" d="M3305.7 276.6L2804.2 48l86.2 682.5 205.4-57.7z"/><path fill="#4a4a4a" d="M1366.2 624.3l-309.4-278.4h459.4l57.4 790.4z"/><path fill="#0a0a0a" d="M2276.6 1158.8L2055 1106l-98.3-308.2 624.3 360.4z"/><path fill="#2a2a2a" d="M4031.2 33l41.3 395-335.4-51.8-37.4-275.5z"/><path fill="#464646" d="M1571.3 1903.1l202.4 23 218.5 30-92 276.4z"/><path d="M2479 87.9l-632.4-320.4 504 73 664.6-73z"/><path fill="#9a9a9a" d="M2965.8 1327.4l-49.7-154.3-151.9 171.2 449.7-142z"/><path d="M1378.8 2262l-740.6-754.7L-232.5 727l196.6 1665.5z"/><path fill="#686868" d="M4072.5 1135l-2-103.6-816.4-115.7 818.4 289z"/><path fill="#666" d="M2872.8 115l-477 130.4 5.9-152 121.5 11.2z"/><path fill="#383838" d="M2887 1413l-405.2-577 154.3 483.9 492.9 20z"/><path fill="#222" d="M171 901.7l1190.2 931 240.4-385.4L839 1703.2z"/><path fill="#797979" d="M3199.8 486l11.3 202 861.4-182-122.2 181.8z"/><path d="M941.6 626L761.3 434.5-232.5 62.1 806.7-131.1z"/><path fill="#343434" d="M1857.4 23.4l21.8 93L1759.5-20l160.7 532.3z"/><path fill="#2e2e2e" d="M3131.5 1997.8l160.8 110-1089.7 26.5 1195.7 241.2z"/><path fill="#424242" d="M1985.5 626.5L1767 785.8l-152.4-592.2L2006 469.2z"/></g></svg>