<svg xmlns="http://www.w3.org/2000/svg" viewBox="0 0 3840 2160"><path fill="#49423a" d="M0 0h3840v2160H0z"/><g fill-opacity=".5"><path fill="#d7e0ee" d="M4072.5 1627.3l-360.6 765.2L-226.8 1956l690.9-238.8z"/><path d="M1943.4-232.5l-1911 30.8-264.9 1301.2 4188.6-31.7z"/><path fill="#cbe8ff" d="M2428 952l122.8 1029.2 317.4-35.3-903-1249.4z"/><path fill="#0a0000" d="M1739.2 1859.7l340-1143.5 330.4 969.4-176.2 296.3z"/><path fill="#ca8750" d="M1397.2 1182.7l481.6-468.9 121.7 1276.7-2233-738.6z"/><path fill="#edffff" d="M2178.3 1989.9l1098-317.2-1527.5 719.8-14.2-422.2z"/><path fill="#2a0900" d="M3217.8 1563l133.8 195.6 720.9-559-2644.6-882.3z"/><path fill="#cde2ff" d="M1651.6 1813.6l-952 124-157.9-86.4 942.1-295.3z"/><path fill="#905629" d="M1359.3 1909.8l-1591.8 99.6 1796.1 231.1 473-719.4z"/><path fill="#8aa8d0" d="M3338.4 2094.7l294.1-388.7-1310.4-346.2 127 606z"/><path d="M1244 1094L2698-181.3l-2930.5 111v1222.9zM2714.8-202L3021 197l1051.5 42.4v-344.1z"/><path fill="#05070f" d="M2263.7 1192.4l125.4 706.4-273.9-41.5-319-432.7z"/><path fill="#e2f3ff" d="M2374 964l-.3 387.5-235.9-479.9 53-33.6z"/><path fill="#2a7448" d="M2985.3 675l-49.6-299.6 722.9-196.1L3815 712.9z"/><path fill="#2f1603" d="M4018.3 646.3l-881.1 41.1 95.5 1099.8 774.1-326.8z"/><path fill="#fca330" d="M1825.4 1346.5l118-170.5-242-70.4-92.2 741.6z"/><path fill="#ffcb74" d="M1403.6 2056.2l-24.5 328.8-411.8 7.5 219.5-464.1z"/><path fill="#c8f0ff" d="M2941 420.7l-172.5-281.2-59.2-372h-8.5z"/><path fill="#bbe2ff" d="M4043 1541.3L3212.5 1815l62.3 148 797.7-323z"/><path fill="#76544c" d="M350.1 1837L49.3 2392.6-232.5 1281l1858 308.9z"/><path fill="#f4fdff" d="M1482.7 2174.1l459.8-156 822.5 136.1 500.3 11.6z"/><path fill="#3f3410" d="M1770.2 548.1l1002.6-780.6L1912 1331.1 1788.4 856z"/><path fill="#fba343" d="M1460-232.5l673 134-1229.7-65.8L1426.2 128z"/><path fill="#4c300d" d="M2805.8 238.5L2680.8-82l-304.9 994.1 303.5 670.9z"/><path fill="#c07a29" d="M1169 1299.2l-847 142.4-371.6 39.5 33.8-304.6z"/><path fill="#938b86" d="M356.9 1729.5l32.4 282.7-397.1 165.3-224.7-470.8z"/><path fill="#e37e1f" d="M3765.4 1072l-5.5 33.6 312.6 132.4L3944 210.4z"/><path fill="#6d7b57" d="M2882.3 2342.5l898-584.4 268.2 333.7 24 300.7z"/><path fill="#000007" d="M3553.8 151.3l518.7-121.8-1096-120L3346.7 374z"/><path fill="#eefcff" d="M1079.1 1901.6l-139.9-180.2 648.2 3-34.3-91z"/><path fill="#866261" d="M3001.5 1452.7l926.4 151.5-226 91L2538.7 1499z"/><path fill="#506271" d="M2477.7 2214.6l665.3-390-672.8 194.5 277.5 373.4z"/><path fill="#171109" d="M2530.4 1100l218.8-428.3 1215.4 56.1-1139.2 776.6z"/><path fill="#4f2c25" d="M1015.2 1937.5l-1247.7 252.2L716 2392.5h489.8z"/><path fill="#5d300d" d="M2194.8 1238.4L1850.9 1932l-58.4-117.5 38.5-526.2z"/><path fill="#4b8a56" d="M3604.9 96l203.8 859.7-212.4-451.5-66.3-569z"/><path fill="#575b75" d="M2302.3 1726.8l99-15.3 117-197 609.2 140.3z"/><path fill="#a6c7e3" d="M2262.3 2219.7l792.1-543.7-620.9 71.3 28.2-338.1z"/><path fill="#533a37" d="M996.1 1622.3L913.3 1786l-1145.8-305.2 1902-21.4z"/><path fill="#4f3c25" d="M1605.7 1315.7l-77.5-164 188.6-477.2L2031.5 457z"/><path fill="#000008" d="M-219.7-232.5L2170 342.3l-1021 698.1-982.8-57z"/><path fill="#8c4f11" d="M2540 665.7l291.6-294.3-319.5-603.9L2698.3 599z"/><path fill="#626e94" d="M922 1713.2l650.2-64-103.7-184.3L981.2 1637z"/><path fill="#52270a" d="M-232.5 1485.2V1737l704.9-176.3 275.5-133.4z"/><path fill="#030f1f" d="M1902.2 1875.6l548-231.8-352.3-574.2 294.4 194.3z"/><path fill="#d9983e" d="M1690.3 1039.1l128.3 899.7-291-286.3 413.4-439.4z"/><path fill="#2f4f78" d="M2416.7 1718.8l-351.2 165.4-145.5 123.4 410.5-61.4z"/><path fill="#e0ecf7" d="M2163.3 966.1l191.3 98.5 31 124.8-96.7-3.1z"/><path fill="#895c47" d="M1648.5 1787.8l158.1 261-647.9 304.9 259.2-386z"/></g></svg>