<svg xmlns="http://www.w3.org/2000/svg" viewBox="0 0 3840 2160"><path fill="#5c5d6d" d="M0 0h3840v2160H0z"/><g fill-opacity=".5"><path fill="#4c0000" d="M3389.5 933.4L4064 762.7l-127.8-995.2-649.8 190.7z"/><path fill="#5a0604" d="M1769.7 656L2167 259l413.7 650 48.8 825z"/><path fill="#00233b" d="M1252.1 730.3l484.1 158.4 100.7 761-598 54z"/><path fill="#4c9dc9" d="M3283.7 509.4l147.8-741.9-1148.3 276L2470.6 490z"/><path fill="#ab9796" d="M4072.5 1895.2l-1389.9-308.8 542.2-354 778.6 265.3z"/><path fill="#510000" d="M3386 748.6l378 103 308.5-737-675.9-347.1z"/><path fill="#9c4e51" d="M2924 1715.1L2037.2 546.5l-419 590.4 516.8 511.2z"/><path fill="#bac3b6" d="M-232.5 611.6l190.9-162.8 293.5 66 199.5 295.7z"/><path fill="#7d8091" d="M-232.5 2215.3l1695.4 177.2L1287.6 1226-232.5 706.6z"/><path fill="#583603" d="M886.5 248.5l24.1-319.4-1131.7 2 61 412.2z"/><path fill="#6c7eaa" d="M1597.4 806l-906.6-39.5L1014-110 2096.6 29z"/><path fill="#006082" d="M3354.8 883l-3.6 416.6 721.3 159V1020z"/><path fill="#001e31" d="M2739.1 1241.6l-108 84.5-574.9-987.2 86-393.7z"/><path fill="#828fa0" d="M1902 1359.2l550-291.3-740.7-51.3 15.9 243.5z"/><path fill="#77000c" d="M2704.2 1275.2l-95.9 334 39.5 35.6-467.4-20.8z"/><path fill="#051a2c" d="M1706 922.5l-482 336.1-198.3-165.6 351.2-315.2z"/><path fill="#5b2800" d="M2351.3 1497.6l300.2 180 574.5 189.2-111-167.5z"/><path fill="#a39ca1" d="M1341.8 1432.6l-13.1-160.3-546-243.4 77.7 282.3z"/><path fill="#152b42" d="M1644.7 1344l-648.9 208.6 651.1 193.7 306.8-306.3z"/><path fill="#2d4565" d="M2739.2 1411l424.5-314-23.2-446.6-600 109.2z"/><path fill="#000512" d="M1752.2 634.1L2285 518.8l-190-194.3 188-23z"/><path fill="#377d8a" d="M400.1 731.5l-632.6-416.3 45.7-195.2 1095 429.4z"/><path fill="#820020" d="M1925.4 1370l567.5-405.2-156.5 684.7 313.2-319.2z"/><path fill="#0a2539" d="M682 652.3l-45.2-867 265 17.8 74-35.6z"/><path fill="#290000" d="M4072.5 337l-383.3 130.4L3235-102.3l734-9z"/><path fill="#7c7d98" d="M3282 1843l77-1739-106.5-336.5-123.3 1585.6z"/><path fill="#712f00" d="M3300.4 780l581.3 112.3 190.8-342.6-645.1-287z"/><path fill="#162633" d="M419.2 801.4L786.7 946l-95.5 95.8-121.3-36.7z"/><path d="M2279.3 864l93.8-4.7 293.9 232.3-332-512.8z"/><path fill="#9296a2" d="M778.4 1273.8L924.2 1143 866 372 758.6 795.8z"/><path fill="#86878e" d="M2044.2 1190.4l313.5 169-442.6 803.9 336.7-1017z"/><path fill="#416277" d="M2110.6 469l396.8-701.5 161.2 1120-714.8-713.1z"/><path fill="#616f93" d="M1405.5 1705.7L718 2392.5 4064.7 2188l-1556-566z"/><path fill="#e2b97a" d="M-232.5 1047.7l132.4-403.4L173.5 620l31.8 73.6z"/><path fill="#9faeab" d="M2441.2 1224.4l23.4 74.4 159 53.5-93.7-190.9z"/><path fill="#3e5a70" d="M505 321l88-456.3 186.4 425L769 1456.1z"/><path fill="#383f43" d="M3506.4 1725.4l-272.3 45.4 419.2 273.1 105-82.6z"/><path fill="#508fb2" d="M2211.6 392.2l344.4-.2 552-624.5 17.2 818.3z"/><path fill="#7e5625" d="M-210.6 434.3l546.2-130.2L570.4 74.5l-400.5-307z"/><path fill="#898ca1" d="M1193 411l-94 561.2 408.5-336.7-544-53.7z"/><path fill="#86848d" d="M2407 1148l-659.6-16 197 384.8 267-550.4z"/><path fill="#4f9797" d="M3465.2 854.4l607.3 116.8-455.6 43.6-193.3 33.6z"/><path fill="#53658c" d="M1642.3-232.5l-243.6 682.3 675.5 20.5 63-151.2z"/><path fill="#864431" d="M2061 564.3l-147.6 301.3 162.2 322.3L2348.8 653z"/><path fill="#14283f" d="M2255 678.2l-248-884 156.3-26.7L2267.5-2.6z"/><path fill="#1b1416" d="M2065 568.9l-626.5 491 569.8-605.4 516 59z"/><path fill="#593654" d="M1081.7 1144.7L887.4 798.4 1002.7 606l124 87.5z"/><path fill="#270a00" d="M831.3-33.2L533.8-232.5l333.5 516.9 55.2-516.9z"/><path fill="#004572" d="M3763.9 1409.9l308.6-88-557.5-216.6-215.3 113.6z"/><path fill="#353635" d="M3337 1573.9l-1.3-276.7 107.2 689.2-106.5-222.1z"/></g></svg>