<svg xmlns="http://www.w3.org/2000/svg" viewBox="0 0 3840 2160"><path fill="#5c8c9b" d="M0 0h3840v2160H0z"/><g fill-opacity=".5"><path fill="#39530e" d="M-63.8 2063.5l-168.7-2037 1272.4-259 394.8 2461.7z"/><path fill="#ffc894" d="M2135.4 1977.5l1905.2-140-1298-347.2-1517-267.9z"/><path fill="#2fafff" d="M3790-232.5l282.5 1379.6-4166.4-44 1977.4-985.9z"/><path fill="#3f0000" d="M1505.7 1331.4L738.9 969l-325.3 604.8 444.2 565.1z"/><path fill="#b8daec" d="M2304.5 1454.6l688.8-703.5L4072.5 863v453z"/><path fill="#9e774e" d="M1852.5 2392.5l2092.3-160.7L1318.1 1374l-379.3 366.1z"/><path fill="#c0edce" d="M-219.2 1111.8L391 1519.4l280.6-561L-86 1062.9z"/><path fill="#002a00" d="M2193.6-232.5l-824.4 468-966.6-348.6L2144.7 77.5z"/><path fill="#114829" d="M1056.9 364.3l314.3 259.2L-232.5 1009V341.9z"/><path fill="#ffefd7" d="M1362.5 1457.6l1513.1 366.8 924.3-37.1L1605 1337.6z"/><path fill="#7efc3e" d="M276.2 377L-16.3-138 682-148l341.5 426.3z"/><path d="M711.7 1954.7l-265.4-520.3 655.3-73.2L830 2150.7z"/><path fill="#2d94ff" d="M908.3 757.7L2677-232.5l1395.5 250-164.4 844z"/><path fill="#7795ff" d="M1559.3 1992.9l42-465L1968 1725l-49.9 327.2z"/><path fill="#435b78" d="M3621 1363l-364.3-300.8-252.7 598 618.7-12.7z"/><path fill="#319034" d="M3749.4 1826.6l-468.2 59.5L2040 2023.8l1353.2 368z"/><path fill="#ffffb6" d="M654.4 2124.6l1037 36.5-539 231.4-1384.9-272.3z"/><path fill="#3999ff" d="M1044.9 197.9l3027.6 387.4L77.1 890l1578 370.7z"/><path fill="#bec957" d="M538.5 1961l202.9 119.3-91.7-266-821.7-509.4z"/><path fill="#c3f4f2" d="M4072.5 1016.5l-414 521.4 28.5-801.8-820 433.3z"/><path fill="#4b0018" d="M1431.2 2030.7l295.7 79.2-202.2-233-80.2-499z"/><path fill="#399aff" d="M3264.7 970.9l-573.5 208L1666 99.2l2406.5-113z"/><path fill="#d39974" d="M1383.2 1958.9L1148 1521.8l-58.2 170-214 65.5z"/><path fill="#45be3c" d="M-232.5 859.3l687.8 715-164 568.8-523.8-72z"/><path fill="#ba7e3a" d="M2466.1 1888.5l310-110.5-611.2-146.2-580 760.7z"/><path fill="#23681a" d="M1130.4-232.5l248.2 520.8 343-41.1-269.9-431.4z"/><path fill="#3886a1" d="M2096 1490l423.2-663.2-1771.1-256 898.3 625.7z"/><path fill="#b3fef9" d="M2967.7 815.5l342 209.9-601-72.5 75.8-82.5z"/><path fill="#295c3a" d="M693.2 899.6l-157.6-61.7 52.6-666.3 832.5 377.6z"/><path fill="#8db2c0" d="M628.3 1127.5l401.2-122.2-992.8-63.4 243.5 485.6z"/><path fill="#c2d6ab" d="M3002.7 2168.1l1069.8 9.9-969.1-65.5-288.6-539.4z"/><path fill="#f68" d="M725.7 1409.4l-143.9-31.6 13-61.3 409.1 45.7z"/><path fill="#cdf2ed" d="M2491 1384.1l386.7-28.2-106.8-129-402.6-47.7z"/><path fill="#040000" d="M1350 1455.3l-90.6 213 5 132.4 100.6-147z"/><path fill="#0a0306" d="M1393 2023.3l-440.8-242.2L504.6 1304l189.9 644.5z"/><path fill="#379dff" d="M3400 910L1578-96l-321.4-136.5L2333.5 655z"/><path fill="#600d24" d="M1338.6 1288.4l-29.4 125-883.9-114.5 491.9-286.1z"/><path fill="#d24b75" d="M2372.8 1590.4l51.4-206.7-431.2 2-30.4 10.3z"/><path fill="#5e86ac" d="M2838.9 1391.2l1233.6-314.6-1097.3 72.9-210.4-138.4z"/><path fill="#0d1526" d="M2016.5 1625L1908 2061l112.2-192.8 40.7-131.7z"/><path fill="#d19644" d="M2816 1975.8l781.8-214 354.9 204.6-1257.9-186.6z"/><path fill="#4096de" d="M1359.8 1318.1L808.5 909.5 1474.3 348l-24.5 1041z"/><path fill="#3b8a2a" d="M1640-185.4l256.8-47.1 331.7 371.6-232.6 8.5z"/><path fill="#ffe3d3" d="M2715.3 1771l217.2 24.2 520.2-16.3L2306.8 1432z"/><path fill="#fff4dd" d="M1693.3 1320l-223 132.8 659.2 152.5 308.7-5.5z"/><path fill="#cbeee4" d="M3882.4 906.1l-365.6-64.7 555.7 622.8-477.9 3z"/><path fill="#38a2ff" d="M3076.6 779.2L1174.5 194.4 1037 279l570.7 449.6z"/><path fill="#e18e75" d="M1578.2 1529.2l-271 491.4 100.7-690.5-53.5 55.7z"/><path fill="#c8b1b4" d="M2039.1 1719.6L1513 1423.9l-409.2 73.5 92-89.9z"/><path fill="#22583f" d="M2357 2061.3l144.6-271.1-278.6 138 1256.8 192z"/></g></svg>