<svg xmlns="http://www.w3.org/2000/svg" viewBox="0 0 3840 2160"><path fill="#4b2724" d="M0 0h3840v2160H0z"/><g fill-opacity=".5"><path fill="#f26d58" d="M4072.5 1769.7l-154-1750.5-1985 754.5 802 821.5z"/><path d="M-232.5 2152l3409.4 240.5-2472.5-2625-288 1422z"/><path fill="#6a5162" d="M1479 1115.5L3863.5 528l209-547.7-1844.4-212.9z"/><path d="M2872.9 2192.5l83.8-466.4 951.9 4 163.9 587.5z"/><path fill="#d25d42" d="M-232.5 1278.7l125-257.8 332.3-189.5 383 501.1z"/><path fill="#d85330" d="M2839.1 1749.9L4072.5 1530 2872.7 399l-128.6 537z"/><path fill="#b24815" d="M1399 562.8l-41.6-326.4 390.4 129.8-26 925.2z"/><path fill="#000003" d="M-142.1 1359.6l33.3 848.2 1825.5 184.7-442.2-1182.9z"/><path fill="#000507" d="M994.3-141.2l401.4 160.3L965 1749.2 389.2 1071z"/><path fill="#942d13" d="M4072.5 1741.3l-1126.4-1.7 64.1 17.3L1406.8 720.7z"/><path fill="#d1756a" d="M3102.5 802l-167-483.6-200.6 516 176.1 681z"/><path fill="#522623" d="M2133.3 710.6l-714-143 579 562.3 763-653.1z"/><path fill="#895a67" d="M3199.3 823.9l-466.6-406L2878-108l1194.6 782.5z"/><path fill="#373d48" d="M954-232.5l1149.8 707 671.1-233.8 74.2-321.3z"/><path fill="#1f0809" d="M2577.3 1415.9l-1337.2-461 885 883.3 700.7-216z"/><path fill="#2b2135" d="M1317.6-232.5L607.3 387.8l-775 147.4L-84.4-82z"/><path fill="#000508" d="M667.6 1338l-657.4 18-108 930.2 1309-132.6z"/><path fill="#6b3d3c" d="M588 450l-563.8 7.8-162.6 458.7 521 114.1z"/><path fill="#5b3b4c" d="M4016.5 425.6l-202.7-658.1-1397.3 814 1245.7-285.2z"/><path fill="#02090d" d="M3088.2 2392.5l984.3-375L2844.8 1673l134.5 441z"/><path fill="#5e2414" d="M2435.7 1950.2l359.5-448.4 181.4 564.2-115.3 326.5z"/><path fill="#c44926" d="M3997.3 1344.3l75.2 376-1929-416.7 1834.2-391.2z"/><path fill="#0e060b" d="M1250.2-232.5l-179.9 425.8 652.6 5 116 379.1z"/><path fill="#080b0c" d="M556 1019l353.2 1373.5 706.2-1799.4 97.8 154z"/><path fill="#a84a1e" d="M1758.7 1069l-89 58.2-192.2-288.3 281.5-40.4z"/><path fill="#863c2d" d="M2273.6 1331l447.7-128.4 78-572.2-804.4 286.5z"/><path fill="#371410" d="M1904.2 1151.3l-155-543.2-4.5 488.7-796.6 480.8z"/><path fill="#b15241" d="M246 1292.6l281.4-4.3-241-332.8-518.9 447.3z"/><path fill="#9e4720" d="M1316 492l275.1 156 175.6-132.4-247-343.5z"/><path fill="#5b2319" d="M2012.9 1769.8l-69 114.4 226.4 508.3 112.2-301z"/><path fill="#6b494f" d="M1861.3 586.4L2490.2 479l402.6-711.6L2729.3 846z"/><path fill="#88301d" d="M2833.2 1384l394.1 260.1-440.1 203-123.2 76z"/><path fill="#ac574b" d="M3514.1 798.2l-449.9 295.4-72.5-565.7-42.1-131.5z"/><path fill="#e86b4e" d="M2772.9 860.2l58.6 401 162.8 177.9 13.7-417.7z"/><path fill="#200d0f" d="M1756.5 693.1l94-242.7-948.7-682.9L1684.4 195z"/><path fill="#090a0b" d="M675.9 294.4l241.1-9 748.2 1691.3L441.4 1160z"/><path fill="#955d6c" d="M4072.5 820.3v613.6L3827.8 289.2l-582 291.2z"/><path fill="#0d0909" d="M1986.6 1346.3L1723 681.1l202.2 952.7 468.3 582.6z"/><path fill="#7c3623" d="M418.6 1005.4l-345 89.4L-232.5 817l735.2-47z"/><path fill="#65271a" d="M1560 1236l26-352.3-25.2 600L1400 1210z"/><path fill="#71271a" d="M2399.7 1134.1l-518.7 52.2 254 128.8-92.4-48z"/><path fill="#140b0d" d="M990 382.4l797.2 399-228-153L1321.6 889z"/><path fill="#85696d" d="M3104.5 22.4l-188.3-254.9L2781.6 150l217.7-.1z"/><path fill="#44363e" d="M1412-199.5l1134.4-33L2339.6 565 1164.1-68.6z"/><path fill="#4a313e" d="M540.5 655.2l-655.6-8.8 1435.6-796.3-613.2-82.6z"/><path fill="#ae512a" d="M1479 645.4l45.4 50 204.9 267-140.5 17.7z"/><path fill="#3a140f" d="M2214.3 1369.7L1926.1 1026l-438 40 768.3 186.6z"/><path fill="#572316" d="M1180.6 435.4l283.8 210-64-450.8-125 39.1z"/><path fill="#c2706d" d="M2745.1 1019.7l43-184 34.3-320.4 243-21.2z"/><path fill="#4f374b" d="M3492.1 85.1L2677.5 9.4 3685-232.5 4072.5 526z"/></g></svg>