<svg xmlns="http://www.w3.org/2000/svg" viewBox="0 0 3840 2160"><path fill="#523b35" d="M0 0h3840v2160H0z"/><g fill-opacity=".5"><path fill="#a47e6b" d="M68.9 1256.5l2587.8-1152-1102.3 2288-509.8-1228.3z"/><path d="M1424 2392.5l1538.6-1268.3 1109.9 844.1-346.5 285.5z"/><path fill="#b40000" d="M2499.2 537l423-362.2 364.2 834-304 111.4z"/><path fill="#ffc077" d="M1760 1777l47 311-744 304.5 129.5-407z"/><path fill="#900000" d="M819.2 978.6l744.1 860-807.5 424.1L433 2297z"/><path fill="#000906" d="M922.9 866.9l790.6-419.2 122-30.8-366-563.5z"/><path d="M3337.5 2291.9l-1720.3 100.6 1350-1235 317.3 275.8z"/><path fill="#d7ab91" d="M735.7 1084l158.7 81.2 287.7-408 436.2 562.9z"/><path fill="#677571" d="M2247 1903.2l380.7-629L2164.2-195 1707.8-66.2z"/><path fill="#52655a" d="M-42.4 493.1l1152-578.6 15 941.4-1081 1250.2z"/><path fill="#150c0c" d="M1820.8 1791.6l622.6 600.4L1571 838.6l394.7 383.2z"/><path fill="#0b1e0c" d="M3200.1-232.5l620.5 75.6-57 2549.4-63-1867z"/><path fill="#560001" d="M101.7 2392.5l1405.4-905 196.7 297.2-127.6 36.6z"/><path fill="#a00009" d="M2531.3 268.8L2667.8 809l495.7 217.6 11.3-514.4z"/><path fill="#682331" d="M1688.7 1061.4l72.6-447.3 25.1-280.6-691.5 486z"/><path fill="#320005" d="M3150.6 1048.5l-695.7-487 254.8 572.8 324.6 10.2z"/><path fill="#616762" d="M1942.7-232.5L1743.1 1289l641.1-688 693.5-709.8z"/><path fill="#b06122" d="M1476.2 1461.5l-92.1 312-249.8-259.8L1033 1062z"/><path fill="#3a503d" d="M3230.7 1307.3l-111.2-335.5 640-713.3-131.3 2134z"/><path fill="#3d4135" d="M1726 1341.3l-13.1-326.7 506.9-40.5-276.3 650.8z"/><path fill="#9a9c9c" d="M2791.6 1182.5l273.6-92.7-448 287.2-31.6-80.3z"/><path fill="#586159" d="M596.7 1213.7l-57.3 1056.6-352.7-263.5-3.8 45.7z"/><path fill="#090e0e" d="M1340.1 686.2l-197 139.2 9.3-748.5 651 135.4z"/><path fill="#55635c" d="M911.3-146.7l255-54.7-73.8 416L2706-180z"/><path fill="#780014" d="M1146.3 2392.5l-19.3-1201-487.7 36.5-88.7 811.5z"/><path fill="#c9cbff" d="M1724.2 2100l-60.7-220.5 100.4-67.4-7.2 233.6z"/><path fill="#6e7267" d="M2962.1 1127.6l-1052.7 145.7 156.9 429 367-204.6z"/><path fill="#e59b50" d="M1175.3 1956.4l546.5-115-791.6 551.1 211.6-160.8z"/><path fill="#bd8f7f" d="M1870.8 1606l-153.6 74.4-499.1-811.7-221.4 253.7z"/><path fill="#3e483b" d="M2406.1-232.5L3666.8 61.9l-74 711.4-722-496.4z"/><path fill="#100605" d="M2095 1706.7l-148.2 685.8 39.3-811.4-431.6 196z"/><path fill="#b3001b" d="M2768.8 318l167.7 655.7-195-60-228.2-556.5z"/><path fill="#1f1d1f" d="M2589 308.2l-249.5 402.4 448.4 173.2L2565.7 679z"/><path fill="#161411" d="M716.4 364.6l279.3 74.6 809.9-252.4 82.5 283.4z"/><path d="M3328.5 2192.1L1891 2392.5l618.2-925 389.4-292z"/><path fill="#344732" d="M3574.1 2392.5l-132.3-881-223.9 881 745.3-292.6z"/><path fill="#5f594f" d="M3366.4 327.7l-90 240.5-129.2 698.2 269.1 377.5z"/><path fill="#333f37" d="M1498.9-76.2L25.7 556.8l-258.2 978.6L2.5-232.5z"/><path fill="#6f0008" d="M2723.9 878.2l335.4 233.4 202.3-188.2-174-486.6z"/><path fill="#853b48" d="M2779.2 948.8l-271.9-184.9-124.6 147.5 146.5 207.3z"/><path fill="#90585a" d="M1919.8 1078.5l-523.5-35 67.2 29-98.8 464.2z"/><path fill="#a59095" d="M3090 1106.5l9-10.7-383.5 116.1-24.9 93z"/><path fill="#8e4b5a" d="M1934.5 1979.6l-203.9 25.2 224.5-295.5-158.4 3z"/><path fill="#b89a89" d="M1352.8 1119.1l298 129.9-456.7-423-212.8-76z"/><path fill="#4a0006" d="M881.7 2115.6l489 276.9L769 1760.7l-187.6 297z"/><path fill="#773928" d="M1411.9 1681.4l-104-247 520.4-153.7 164.5 133.7z"/><path fill="#5f5f57" d="M146.3 822.3l1000.5-128.2-608.6 784.7-378.4-232.4z"/><path fill="#192e1b" d="M4072.5 2173.3l-347.6-810.2-286.9 457.2 178.5 572.2z"/><path fill="#920724" d="M828.2 1218.2l311.3-62.6L523.3 2128 669 1354z"/><path fill="#94511e" d="M1521.3 1934.7L1146 2336.4l721 56.1h-439.7z"/></g></svg>