<svg xmlns="http://www.w3.org/2000/svg" viewBox="0 0 3840 2160"><path fill="#413643" d="M0 0h3840v2160H0z"/><g fill-opacity=".5"><path fill="#d48898" d="M1931.6 1983L817.7 560.8l1746.1-435.2L3169.1 1209z"/><path fill="#000305" d="M1394.7 2392.5l-1627.2-228.8L64.8-232.5l906.9 1035z"/><path d="M2150 2258.3l645.4-418.3L3876 258l159.8 2134.5z"/><path fill="#19384d" d="M707.7 1728.2l1160.3 496-288.9-1430.4-786.6 75.4z"/><path fill="#9295a1" d="M1674.4 903l247 1489.5 624.9-1469-598.5-286.6z"/><path fill="#6a6edc" d="M3658.7 401.8L3138 120.6l-965.2-46.8 1042.5-306.3z"/><path fill="#bb3d4d" d="M3118.3 1179.3l-1358.7-617 88.5-393.1L2952 463.4z"/><path fill="#8dc3d7" d="M848.2 663l165.1 199 316.8-520-287 60.9z"/><path fill="#031b2d" d="M329 358.6l1065.7 117.3 1530.8-708.4L-232.5 29z"/><path fill="#040f22" d="M2199.1 187.2L2090.7-30.5l1981.8 574.7-2041.7-379.8z"/><path fill="#314851" d="M3384.5 1725.8L2035 2241.6l-36.5-1016.2 787.7 484.5z"/><path fill="#000b0b" d="M3888.2 641.2L4072.5-223l-864 1349.2L2936 514.3z"/><path fill="#c84d5a" d="M1043 685.7l547.4 114.1L2580 307l-649.4-78.4z"/><path fill="#7470c3" d="M2917.2 1357.4l403.2-364.7 52.5 174.1-23.8-15.8z"/><path fill="#57597a" d="M1564.4 1802L1186 1344.4l532.7-17.4 120.5 506.4z"/><path fill="#bb4252" d="M2801.9 1515.9l-413 4.6 628.9-754.1 50.7 441.7z"/><path fill="#ae8c99" d="M1702.1 1349L1852 723.3l859.6 221.9 36.1 217.2z"/><path fill="#091212" d="M-232.5-29.3l115 2421.8 406.2-21.3L959.9-232.5z"/><path fill="#95a6a9" d="M1312.3 915.4l-71.6 111.7 42.8-770.3L866 722.6z"/><path fill="#6f7481" d="M2188.7 1972l-816.4-367.2 963-221.2 37.3 694.9z"/><path fill="#081618" d="M2407.8 1816.8l510.4-86 1154.3-674-1078 270.4z"/><path fill="#141723" d="M2890 84.1l526 474.2L3725.6-34l346.9 683.5z"/><path fill="#63629a" d="M3737.2 1561l-173-66.6 200.3-221.4-35.4 96.2z"/><path fill="#2c3642" d="M517.7 1071l775.8 663.5 332.6-997.1-664.7 150.9z"/><path fill="#0e171f" d="M1902.9 2073.7l78.8 199.3-741.4-338.8 173.6-147.5z"/><path fill="#947781" d="M3269 610.8l8.5-272.6L2957 468.3l396.6 25.6z"/><path fill="#3b456e" d="M1681.6 127.4l223.8-300.3-843.6 602.8 1125-232.5z"/><path fill="#060e08" d="M4072.5 2211.5l-2706.5 181 1991.6-478.9 69.1-645.7z"/><path fill="#275ba2" d="M843 602l44.9-4 79.7-29.7-224.3-237z"/><path fill="#6f494e" d="M2795.4 725.8L2507 1080.2 2486 593l311.9 447.7z"/><path fill="#af4560" d="M1619.7 318.8l672.4-160.2 444.8 202.2 204.3 312.6z"/><path fill="#6f61a9" d="M3412.8 347.8l659.7-365.6L3674.1 271l-770-503.5z"/><path fill="#1b1d30" d="M3604.6 387.6l-837 24.5-195-124 418.3-237.8z"/><path fill="#ad8c9d" d="M2106.7 2392.5l-167-805.2-161-762.3 124 1242.8z"/><path fill="#697e9a" d="M1691.5 2131.4l-207.6-39.7-195.3-146.7 356.8 447.5z"/><path fill="#20262a" d="M2581.4 1626.3l-220.1 766.2 18.3-102.5-5.4-849.5z"/><path fill="#595b80" d="M1591.2 1064.2l-185-196.6L1783 739.1l-76.7 462z"/><path fill="#14161d" d="M3527 483.6l-492.3 257.6 59.8 387.9 457.2-384z"/><path fill="#a4939b" d="M2746.9 1002.4L2636.6 1333l-243.8-239.6-335.4-78.7z"/><path fill="#595cab" d="M2484.8 132l-394-324.9 1048.5-39.6 30.9 321.9z"/><path fill="#a94b4f" d="M1737 825.2L1500.9 584l-510.3 93 92.4 44z"/><path fill="#101926" d="M2431.6 2392.5l-338-456.5-111.2-46.2 140.8 368z"/><path fill="#191f2c" d="M2924.4 419.5l-661.1-261 621.2-63.9L3435 300.1z"/><path fill="#705857" d="M2595 1570.3l-591.3-136.1 66.1-262 311.7 215z"/><path fill="#4e73c0" d="M1312.2 562.1l-36-61.7 34.8-201.5-276.6 138.8z"/><path fill="#854b48" d="M2569.6 894.7L2781 761.8l-564.5-262-305 133.7z"/><path fill="#192b38" d="M1411.5 41L1275 524.8l126.5-34.3 227.2-152z"/><path fill="#172331" d="M1091.5 2392.5L243.3 510.4l1276.2-742.9-731.2 637.2z"/><path fill="#0c1210" d="M3369.6 1084.6L3570 1256l502.5 314V352.4z"/><path fill="#ab425b" d="M2923.1 556.8l-194.4-204.5-511.3-124.6 903.7 826.8z"/></g></svg>