<svg xmlns="http://www.w3.org/2000/svg" viewBox="0 0 3840 2160"><path fill="#3e726d" d="M0 0h3840v2160H0z"/><g fill-opacity=".5"><path fill="#96dcfa" d="M2108.3 1017.8L1967.2 24l2105.3-.8v1089z"/><path fill="#001d47" d="M1529.6 2161L-67.3 591l3.2-823.6 1980.5 127z"/><path fill="#940074" d="M1631.2 1004.4l-381.7 531 673.3 696 290.5-410.5z"/><path fill="#b18700" d="M259 1973l-491.5-748.3V803.3l783 686.8z"/><path fill="#99b500" d="M3880.6 1902.8l172.9-301.5-450.1-573.5-313.2 558.2z"/><path fill="#67ced2" d="M1190.9 179.2l-536.6-43.3L922.9 535l353.5 32.5z"/><path fill="#4eb379" d="M2313.2 1541.4l977.3-13.4 203.6-386-564-1374.5z"/><path fill="#c9fcff" d="M4037.2-16.3L3240.8 150l77.8 554 753.9-106.7z"/><path fill="#1a54cb" d="M1547.3 508l617.2 446.3 651-1186.8L1578 1092.2z"/><path fill="#18110c" d="M2477 33l485 2183.3-416.3-2448.8L24.5 43.9z"/><path fill="#abcdfc" d="M791.3 2292.3l42 33.6-443.3 66 959.8-928.1z"/><path fill="#1d6f3a" d="M1947.8 1440l1712.7 182.4-47.3 693.7-1496.2 76.4z"/><path fill="#0c9ab5" d="M1200 164L224.7 883.3l761.1 497.3L525.5 441z"/><path fill="#001811" d="M916.2-232.5H85.9l-318.4 655L330.3 769z"/><path fill="#2e11df" d="M2668.1 1097.8l-1.4-375.9-133 91.7L2328 1040z"/><path fill="#00211f" d="M1313.9 952.8L1948.2 165l-75.6-397.5-682 57.3z"/><path fill="#071a93" d="M1617.5 1649.7l-380.7-176.5-268 214.2 501.7 259.8z"/><path fill="#0d9c73" d="M2975.8 2071L1621 1030l291.3-917 310.8 1191.1z"/><path fill="#b1e2ff" d="M2529.4 165L2355.8 12l-389.3 268.7 87.9 205.4z"/><path fill="#23712d" d="M862.5 956.7l412.8 458.7-775.5 847-647.4-78.8z"/><path fill="#000502" d="M928 755.4L862 1052l492.4-75.2 57.8-183.9z"/><path fill="#b3ddf1" d="M2130.1 863.6l48.9 315.2L2599.2 724l-13.6-263z"/><path fill="#59ae8a" d="M2969.8 1695.6l1102.7-1101-1172.9 197.6-203.3-13.4z"/><path fill="#898200" d="M-232.5 956.4l699.8 376.3-38.5 449.7-661.3 7.5z"/><path fill="#970b74" d="M1824.7 1770l-586.4-331.6 443.2-147.9 452.7 411.5z"/><path fill="#11682d" d="M1838 2221L685.8 2354.7l407.7-397.5 767.7-46.5z"/><path fill="#0eb71d" d="M2576.5 1105.6l93.9 862.7-267.6-582 1-341z"/><path fill="#4032f8" d="M2561 394.2l-114-233-383 577.7L2529.5 515z"/><path fill="#0048a7" d="M452 409.1l102.1 140.2 429 274.3-104.9-509.1z"/><path fill="#0065c6" d="M1704 712.6l179.1 424.7L1258.2 946l-4.8 27.3z"/><path fill="#3d2100" d="M258.6 1497.2l-491.1-634.3L183 1092.3-90.8 1370z"/><path fill="#9ee0d7" d="M1196.3 156.7l-166 307 69.9-115.3L750.7 299z"/><path fill="#342dea" d="M2391.2 1307.3l-58.7-288.3-124.6 140.3-29.5 181z"/><path fill="#dc00a7" d="M1541.2 1818l246.5 28.7 404.4-1.6-596.8 88.3z"/><path fill="#1d4549" d="M2255.6 1139.7L1612.2 1435l202.7 248.4-792 234.6z"/><path fill="#5f01ff" d="M1031 1625.3l192.5-110.6-21-46.5 47.6 290z"/><path fill="#60ea85" d="M2552 1334.7L2286.6 1535l336.5-4.4 51.5-561.2z"/><path fill="#001c17" d="M881.2-232.5H336l527 394 176.8 188.7z"/><path fill="#9cc614" d="M269.7 1872.2L5 890.7l66 252.6 268 148.1z"/><path d="M3722.1.1l-745.6-7 114.3-1.5 768.7 33.7z"/><path fill="#c0d61f" d="M3735.6 1443.8L3426 1039l432.4 280.4-524.4 137.5z"/><path fill="#ad14bf" d="M1830.8 1464.5l-107.8-14.3 233.6 793-4.7-678z"/><path fill="#00271a" d="M625 528l419-209.7 579.7-31.6-995.1 163.2z"/><path fill="#b6009f" d="M1470.3 1057l498.2 366.2-26.3-79-328.6-253.5z"/><path fill="#282be5" d="M2291.1-54.5L1927.8 54l29.3 174 80.2-15.5z"/><path fill="#137858" d="M633.6 1477.3L-199 927.6l51-431.4 1159.5 995.6z"/><path fill="#052a1b" d="M431.4 1891.4L49.2 1874l92.3-238.4-321.6 8.9z"/><path fill="#287a0d" d="M2791.1 1387.7l-280.5-260.8-80.9-133 680.7 588.9z"/><path fill="#d3c3c9" d="M3072 1087.1l325.7-49-88-111-217.9 55z"/><path fill="#03231b" d="M675 757.2l496.8 236.1L1467.9 655l251.8 167.5z"/></g></svg>