<svg xmlns="http://www.w3.org/2000/svg" viewBox="0 0 3840 2160"><path fill="#c59583" d="M0 0h3840v2160H0z"/><g fill-opacity=".5"><path fill="#c79aff" d="M1130.5 2392.5l-1363-138.2v-496.6l2564.6-345.5z"/><path fill="#fa8712" d="M2654.1-232.5L1088.6-114.3 1428.9 1204l1162.9-845.3z"/><path fill="#b460ff" d="M2611.5 1744.2l1094-22 301.5 632.4-420.8 37.9z"/><path fill="#bc42ff" d="M1067-232.5l85 690.9-1384.5-335.8v-297.2z"/><path fill="#a2bb5c" d="M4039.5 465.7L-183 486.3l4255.5 1500-207.5 19z"/><path fill="#ff202f" d="M867 451.2l-324 787.4 347.2 78.5 63.2-471z"/><path fill="#ff8225" d="M1331.3 2107.2l1335.3-305.7 178.8 64.3 416.5 526.7z"/><path fill="#ffd903" d="M1666.9 864l-474.7 95.6 549 525 91.2-25.8z"/><path fill="#7f1ff6" d="M4043 418l29.5-406-1452.4 244.6 165.4-489.1z"/><path fill="#f25e38" d="M-232.5 224.1v1080.6l863.9-895.5 196.5-182.7z"/><path fill="#9cb5a3" d="M2770.4 810.7l-991.1-62.3 30 1053.5 181.3 141.6z"/><path fill="#e93486" d="M2448.3 1404l-390 388.2-350.5 105 979.8 495.3z"/><path fill="#8fd8a6" d="M1062 1870.7L937 1041l360.7-469.6 173.5 986.9z"/><path fill="#ce86ff" d="M2261 1884.6L-19 2201.9l3.7-349 852.7-150.3z"/><path fill="#ff8436" d="M3056.2 489l1016.3-47.3V293.6L2912.8 171.7z"/><path fill="#ff3463" d="M1098.6 322L1566 511.7l1238.6-79.4-1028-286.7z"/><path fill="#8bdc90" d="M857.4 1395.4l-240.2 221.4L493 612.8 77.1 1073z"/><path fill="#f9c90d" d="M314.3 1836.5l688.6-670.4-11.7 129.3-58.3 184.5z"/><path fill="#ffe015" d="M3781.2 1781.4l193.5-1576.1L3603 1271.5l469.6 12.6z"/><path fill="#ce73ff" d="M3620.3 1651.3l-477.6 322.2-223.6 419h1065.2z"/><path fill="#ec4087" d="M2282.5 1244.2l274-405.2-347.2-11.4-62.6 357.7z"/><path fill="#d7e0ff" d="M3610.4 723.3l-76.5-53.1-251.3 287.6 10.5 263z"/><path fill="#ffbe0d" d="M1588.4-232.5L1167.5 90.2l1276 215.3 298.5-7.8z"/><path fill="#efe130" d="M3065.8 2291.9l-593.3-1064-100.6 167.7 367.8 829.2z"/><path fill="#7051c4" d="M2183.2 2007.7l236.6-161.5-127.5-117.8-650.8 141.3z"/><path fill="#fbfaff" d="M2788.6 684L2511 1129.5l113.3-28.8L2807 892.9z"/><path fill="#e59fff" d="M1840.2 1664.1L1454 1563l-141-175.3-95.7 953.9z"/><path fill="#ffc120" d="M3053.5 1335.1l261 156.3-146.3-507.6-251.6-68.4z"/><path fill="#ffc111" d="M3519.3 1669.9l5.9-260.7L3884 1585l3.7 162.8z"/><path fill="#8e5817" d="M3633.4 449l-307 330.4-148-31.6 130-228.4z"/><path fill="#8acc96" d="M3475.7 1001.1l-508.5-524.3 478.3 1402.7 293-1187.2z"/><path fill="#7fd277" d="M175 1774l322 95.7-41.4.8L598.3 579.2z"/><path fill="#9cde91" d="M3071.2 1239.5l-263.9 507.1-173.5 140.2-143-652.1z"/><path fill="#d996ff" d="M2174.7 1793.4l-1147.3 207.8 21.2-703-627 680.6z"/><path fill="#a4654a" d="M1967.7 377.5l-12.6 496.2-870.3-448-283.7 556.5z"/><path fill="#8a5017" d="M2490.9 876.6l428.6-391.5-439 59.6 65.1 275z"/><path fill="#ffe757" d="M2778.3 271.7l338 361 140.8-254.6 228.6-241.3z"/><path fill="#769f41" d="M134.3 793l94 150.1 345.2-485.3-475.3 51.6z"/><path fill="#e9defb" d="M1987.2 682.4l69.5-100.6 5.3 327.5-331.4 239.8z"/><path fill="#ff3e5f" d="M236.4 1482.5L181.7 1199l-240.4 370.6 275.5 199.2z"/><path fill="#ffd12d" d="M2796.8 1367.8l-72.4 11 684.4 325.1-601-66.4z"/><path fill="#bb6dff" d="M1189.8 393L-232.5 33.3l2132.7-226.9L999.6 67.7z"/><path fill="#6c43bd" d="M2822.4 185.6L2628 90l33.5 257.6 267.4 270.6z"/><path fill="#b2b8e6" d="M-225 1343.6l-7.5-116.3 768.1-469.9-370.8 557.8z"/><path fill="#ff5e72" d="M819 543.6l-1051.5-293L735.6 261 1051 574.4z"/><path fill="#3b6932" d="M1361.9 1068.8l-154.1 158.3-301.4-64.4 90.8-28z"/><path fill="#ffe6ff" d="M1280 821.9l-5.1-168.1-275 448.5 189.5-45z"/><path fill="#7ddc62" d="M1945.5 1441.3l-337-572.9 398.6 961.5 147-1208.9z"/><path fill="#e7fb2b" d="M253.9 883.5l59.8-26.1-546.2 83L86 602.3z"/><path fill="#ff3457" d="M3167.3 516.6L3527 407.8l545.4 148.8-543-391z"/></g></svg>