<svg xmlns="http://www.w3.org/2000/svg" viewBox="0 0 3840 2160"><path fill="#5d2a16" d="M0 0h3840v2160H0z"/><g fill-opacity=".5"><path fill="#ff7139" d="M1711.4 1789.2L946 1962l-1178.4-425.4L1898 763.4z"/><path d="M1848.8 1821.2l-2081.3 252.3 2998.4 319-937.7-2625z"/><path d="M4072.5 1750.3l-4305 219.7 273.7 422.5 4031.3-182.9z"/><path fill="#b95528" d="M3101 447.1l-762.6 420.2 120.3 955.2 1504.5-123.4z"/><path d="M2111.5 1931.9l1937.8-219.5 23.2 456.5-2426.3 57.2z"/><path d="M2198.2 2131.6l396.9 260.9-331.8-1751-703-371.2z"/><path fill="#e06030" d="M1275.9 1930.2l477.6-310.5 171.7-863L376.5 1861.3z"/><path fill="#963f26" d="M434.8 1851.3l-667.3-223 985-1119 1218.7 370z"/><path d="M614.2 1917L-3.3 1756.8l20 635.8 4055.8-389z"/><path d="M-26.4 2161L2436 2277 2088 168.8l-371 1686.6z"/><path fill="#2a1915" d="M-145.6-154.4l2032 200-327.2 223.9L-232.5 650z"/><path fill="#c35829" d="M2342.3 1116.1l184.7 706.6 484.1-419.6-498.8-363.2z"/><path fill="#ec6c3a" d="M1779.9 1281l-58.3 39.8 61.6 473-937.6-407.1z"/><path fill="#7e4124" d="M2523.7 1134l-566-1214.6L1548 468.1l760.5-266.7z"/><path fill="#6d351c" d="M3632.3 563.6L4072.5 1625l-623.2 195.3-541-1428.6z"/><path d="M3271.6 1820.3l800.9-60.3-403.3 632.5-2183.1-577.9z"/><path fill="#100600" d="M1729.5 1148.1l501.9-565.6 132.4 71-205 972.6z"/><path fill="#914122" d="M3675.3 681L2194.2 524.6l499 579.6 817.2-281.7z"/><path fill="#b44617" d="M335.7 1865.3l-324.9-159L738.9 1597l508.2 361.7z"/><path fill="#a94c2d" d="M1396 1351.3l447.4-172.3-196.2-463.3-449.1 82.5z"/><path fill="#442414" d="M3580.6 110.3l491.9-73.4-2920.6-269.4 1934.8 765z"/><path d="M-82.5 2392.5l2566.8-631.2L567.9 1992 51 1732z"/><path fill="#562a1c" d="M582.5 1025.5l-815-457.8 756.7-227L2347 138z"/><path fill="#502919" d="M2799.8 1113.6l1272.7-535.4-434.8 486.7-717.5 105.3z"/><path fill="#853921" d="M1392.6 1047.1L-128 1732.5l-104.6-746.2 429-14z"/><path fill="#010000" d="M2646.8 773.8L1961 801l102.4-538.4-365.6 528.6z"/><path fill="#a2481f" d="M2997.2 1847.5l80.8-154.6 146.4-614.6-764 624.2z"/><path fill="#954d28" d="M2398.6 341.9L2284 610.3 2153 531l-50.5-207.2z"/><path fill="#934423" d="M4072.5 691.4l-693.4 657.7-278.6-230.7 972 218.4z"/><path fill="#62351d" d="M2419.6-232.5l-906.8 646 390 202.4-97.3-200.5z"/><path fill="#f3733f" d="M1807.1 1381.4l-25.7-98-894.3 305.3 874-102z"/><path fill="#b1532a" d="M2384.1 1199.4l-39.5-102L3341 792.6l-438.6 257.9z"/><path fill="#d65b28" d="M1084.7 1300.8l609.7 496.3-900.9 131.1 627.8-709.7z"/><path fill="#642e1a" d="M3120.5 673.3l-787 37.5-22.5-300.5 1761.5 117.5z"/><path d="M-232.5 1998.6l1248.8 97.8L515.5 1869 206 1856.2z"/><path fill="#3c2013" d="M4005.1 409.7l-140.5-203.6-307 137.2L3297 576.5z"/><path d="M2646.9 1899.9l-2879.4 228 3983.4 264.6 321.6-668.5z"/><path fill="#090402" d="M1801 221.8L2094.5 1784l22.2-1396L1781 270.6z"/><path fill="#b05124" d="M2736.9 1750.5l-395.5-747 149.7 789.3 24 48.5z"/><path fill="#653219" d="M4072.5 1861.7l-833.2-359.3 833.2-444.3-426.2-36.3z"/><path fill="#6c3020" d="M-232.5 987.5l448.4 213.3 952.8-275.9-188.3-468.2z"/><path fill="#883d20" d="M3580.9 737.7L2680 850l1016-341.8 347.5-163.8z"/><path fill="#080100" d="M2357.4 1100.6l74.4 767.9-746.6 52.3 222.9-418.7z"/><path fill="#aa4d2b" d="M1788.7 1267.7l-662-409.3 720-23.4 55.6-7.6z"/><path fill="#080200" d="M1842.3 2392.5l430-1273.7-150.8-578 216.1 113.9z"/><path fill="#7e3a20" d="M2990.5 967.5L3116 910l-231.5 372-506.6 37.3z"/><path fill="#b35127" d="M3703.6 1185.9l-693-20.2-322.6 380.6-195.7-219.2z"/><path fill="#cd5d37" d="M1749.5 993.3l39.7-4-252.6 181.3-198-124.3z"/><path fill="#813c1b" d="M3386.9 1324l229.7 444.5-354.6-14-621.5-205.5z"/><path fill="#341d14" d="M-232.5 488.5L502 135l1156.2 27.1-1774.6-394.6z"/></g></svg>