<svg xmlns="http://www.w3.org/2000/svg" viewBox="0 0 3840 2160"><path fill="#8c623e" d="M0 0h3840v2160H0z"/><g fill-opacity=".5"><path d="M3849 2392.5L4072.6 734 1627 1624l-1859.4 562.5z"/><path fill="#f3a960" d="M-232.5 2231.2L44.7-124.4l3781.8-108.1 112.3 991.4z"/><path fill="#000014" d="M4072.5 777.7l-229.7 1614.8-4075.3-80.3L3097.7 1104z"/><path fill="#2c1b16" d="M243.6 2392.5l53.4-849.3 307.3 849.3 493.3-1148.6z"/><path fill="#e19856" d="M3471 985.6l-1333.8 55.2L3571.9-232.5l500.6 839.1z"/><path fill="#1c1314" d="M938 1392.4l-121.2 271.5 792 728.6-592-646.6z"/><path fill="#120e17" d="M3230.2 959.2L4072.5 2097l-2661 295.5 887.7-925.6z"/><path fill="#ca8b51" d="M836.5 1430.7L3292.8-232.5l-464.2 1432.1-926.1 355.2z"/><path fill="#ae804e" d="M1783.7-135.4L253.9 1816.2-232.5 5.5l904.5-66z"/><path fill="#c5884b" d="M641.4 293.5L404.6 2057.2 712.1 1870l93.7-119.6z"/><path fill="#1a141b" d="M712.6 1843.3L75.8 2392.5l3996.7-1149.4-3065.6 537.1z"/><path fill="#140e14" d="M4072.5 1056.4L2844.2 1090l153 457.3 805 840z"/><path fill="#2a140e" d="M252.5 2205.8l135.7-481.5-47.6-115.4-3.8 78.3z"/><path fill="#ce8c4d" d="M3216.2 933l-336.7-305-1564.2 1054.7 923.8-255.6z"/><path fill="#1c151c" d="M3727 2167.1l-3931.4 5.4L285 2075l920.1-310.8z"/><path fill="#1b0f12" d="M4002.3 1127.8l-845-138.3-79.2 183.7 994.4-496.7z"/><path fill="#cb8946" d="M143.3 1876.5l494.5-567.6-870.3 731 833-47.4z"/><path fill="#c3874c" d="M688.6 1861.5l103.9-16.8 34.8-548-1059.8-35.9z"/><path fill="#de9557" d="M3947.5-232.5l-743 1058.2 129 212.5 663.8-355z"/><path fill="#4e301a" d="M235 1877.3L376.5 1624l-12.2 99 66 236.6z"/><path fill="#c78849" d="M1556 1629.5l889-348.5-1497 230 76 283.5z"/><path fill="#221819" d="M810.1 2339.9l3.1-802.6 122 141.3-667 713.9z"/><path fill="#bc8551" d="M1174 1423.4l-1346.1 45.3L1723.7-232.5l839.7 1139.3z"/><path fill="#1f171c" d="M888.8 1871.8l856-302.5 839.5-215 42.7 1038.2z"/><path fill="#ab7e50" d="M-232.5 978l305.3 178.4L-129-232.5l1560.1 94z"/><path fill="#1f1619" d="M1006.9 1999l-115.5-563.8 240.7 709.8-1238 31.5z"/><path fill="#cc8e56" d="M2115.3-39.9l905.4 1112 90.2-21.3 269.5-1283.3z"/><path fill="#1e1519" d="M2373.2 1330.1l-520.9 480.3 1417-838.3-13.2 694.5z"/><path fill="#c2864c" d="M1424.2 1544.8l-518.3-327-152.2 664.9-918.8-747.9z"/><path fill="#301e17" d="M854.3 1836.7l-197.8 100-61-64.3 442 5.4z"/><path fill="#181117" d="M3713.4 1126.7l-817.4-27.4-365 557.4 1541.5-72.1z"/><path fill="#c4874a" d="M69.4 1286.6L644 1941.5 298 2036l541.3-347.3z"/><path fill="#c68953" d="M2732 1246.8l244.3-1479.3-1155 528.5 658.4 1035.8z"/><path fill="#1c151b" d="M881.1 1552.4l-60.7 371 2708.9 222.1-2898 78.8z"/><path fill="#221617" d="M2650.5 1446.4l539.9-466.2 476.4 121 405.7-429z"/><path fill="#cb894a" d="M180.1 2047.1l-412.6 150 560.8-666-3.7 186.6z"/><path fill="#bc844e" d="M852.2 541.2l1225.6 245.2-1155.2 775.4 101.8 140z"/><path fill="#d29051" d="M3102.1 1062.2l-746.3 85.7 513.4-17.7 683.1-1323.5z"/><path fill="#161016" d="M3537.6 894l325.3 1032.1 209.6-654.8v-173.9z"/><path fill="#c98a4c" d="M1667.8 1195.8l1161-54.2-752 341.5L1026 1595.4z"/><path fill="#c5874c" d="M2002.5 1315.6l-356.8 305-463.5 102.6-252.3-391.9z"/><path fill="#24181a" d="M1412.9 1656.7l-399.3 492.7 736.2-603.6 557 201.7z"/><path fill="#2e1d17" d="M3117.4 1066.4l770.9-189L3594.4 987 2761 1191.1z"/><path fill="#bb834e" d="M927.7 1502.2l-1048 37.4-112.2-157L818.1 178.3z"/><path fill="#301f1a" d="M877.5 1653.8l1512 582-1598-611.4L993.3 1410z"/><path fill="#2f1a13" d="M270.5 1896.2l110.2-80.8-157.9 393 154.6-550.7z"/><path fill="#c6884a" d="M577.2 1975.3L440.3 1986 421 1781.9l521.9-417z"/><path fill="#1d161c" d="M384 2382l2073.6-949.4-891.2 959.9-906.1-554.2z"/><path fill="#df9658" d="M3775.9 410.1l-402.1 311L4068 844.4l-73.7-964.9z"/><path fill="#c0854a" d="M2.9 1975L418.5 924.6 238.8 2006.5l193.8-102.8z"/></g></svg>