<svg xmlns="http://www.w3.org/2000/svg" viewBox="0 0 3840 2160"><path fill="#d3cec1" d="M0 0h3840v2160H0z"/><g fill-opacity=".5"><path fill="#543203" d="M1976 325.6l218.6 609.5 278.1-172.5 137.8-492.8z"/><path fill="#c8b37d" d="M3430 1345.4l-797.6 1047.1-968.8-1003.9L2857.8 327z"/><path d="M2392.3 1628l88.9 49-23.4 141.8-166.8-185.3z"/><path fill="#e0e5eb" d="M2053.9 390.2L2717-232.5l-2949.6 248 378.7 2377z"/><path fill="#f6d754" d="M2405.2 1481.3l485.6-285-190-420.2-477.3 53.2z"/><path fill="#e0e7e9" d="M2457.3-232.5L4072.5 340 2216 350l175 406.8z"/><path fill="#5e4a38" d="M2655.1 551.5l-620.4 48.3L2230-9.4l-126.8 966z"/><path fill="#dee5e8" d="M2697-218.4l1375.5 5.8-178.5 1934-897.8-1221z"/><path fill="#f5d68f" d="M2373.5 813.5l-43.2-410.9-156.5 133.8 531.8 470.3z"/><path fill="#a78464" d="M2356 257l643.7 181.7-39 147.8-439.8 58z"/><path fill="#45342c" d="M2054.2 370.7L2198 723.3l57.6-346.3 142.2-147z"/><path fill="#e4dbca" d="M2703 123.1l-349.8-36L3089 1043l-545-361.1z"/><path fill="#d5ddde" d="M2173.6 249.7l-459.7 681.4L-232.5-79.5l4305 133.8z"/><path fill="#686051" d="M2747.4 1731.6l-422.8-24.6 328.6 108.8 82-33.8z"/><path fill="#4b3a1a" d="M2368.2 775.6l78.9-225.2 26.3-278.3-54.3 40.3z"/><path fill="#ded8d2" d="M-232.5 2182.4l2539 210.1-1073.2-1265.8-1397.2-910z"/><path fill="#d1c5b5" d="M2796.5 308l145 975.4-347.3 1109.1L3658 1508z"/><path fill="#bcbbae" d="M2576.4 1951.5l131.2-565.4-1222.2 58 669-658z"/><path fill="#523f2f" d="M2025 540.6l106.3-261.3 28.3 166.7L2354 930.7z"/><path fill="#dfdedc" d="M2391.4 2128.3l1681.1 137.6-330.9-950.7-590.5 1077.3z"/><path fill="#dae0e2" d="M1844.4 912.1l-85.9-141.4 12.3-274.7 413 223.2z"/><path fill="#d8e1e7" d="M2807.4 805.8l573-547.4-314 214.8-423.6 287.9z"/><path fill="#403022" d="M2411.5 684.2l25.3-93.7-112.2 67.8-191.8 297.4z"/><path fill="#b5aa93" d="M2323 1330.3L2189.5 1673l349.5-85 213.3-131.3z"/><path fill="#c9c0b1" d="M2352.8 1719.4l1190.3 673.1-1569.3-355.1-494.1-1111.8z"/><path fill="#94596d" d="M2728.2 650.6l27.6-266.1L2897.7 594l-201.8 23z"/><path fill="#d8dedf" d="M2211 313.3l-482.8-545.8 2295 979.5-1772.7-529.3z"/><path fill="#ffdca7" d="M2298.2 637.5l118.4-70-62-253.9-121.9 61.6z"/><path fill="#f1d874" d="M2440.7 760.5l-209.5 109L2386 1184l581.4 101.5z"/><path fill="#473529" d="M2181 791l370.4-102.4-118-21.6-267 220z"/><path fill="#ba851d" d="M2423.8 345.4l130.7 245.1-142.8 48.2 138.5-320z"/><path fill="#d1d2c8" d="M2063.4 868.3l-94.9-374.5 339.2 672.8-414.5 64z"/><path fill="#d8cdb7" d="M3041.7 1291.6l541-76.5 57.6-281.5-725-207.7z"/><path fill="#44403a" d="M2248.9 248l190 39-5.3 356-9.2-257.5z"/><path fill="#f0d6a7" d="M2744 738l-243.2-290.8 310.7-81.6-252.4-8z"/><path fill="#d9dede" d="M2057.8 404.2l12.6 22.4-208 330.8 260.9-989.9z"/><path fill="#c4b69e" d="M3058.4 1953.6l-893.9-39.4-145.5-72.7 1015.3-81z"/><path fill="#6e5161" d="M2808.7 416.5l40.6 15.9-136-44 35.7 178.4z"/><path fill="#e5b896" d="M2796.3 664l-19-240.6 102 126L2331 788.6z"/><path fill="#574538" d="M2259 842l-59.3-77.8-187.7-227 172.2-205z"/><path fill="#dad7d0" d="M597.2 2392.5l1079.2-1575-903.5 62.2L-232.5 2061z"/><path fill="#aea075" d="M2327.1 1328.3l330.7 110-202.7 24-117.7-267.3z"/><path fill="#e2c69d" d="M2258 648l-20-349.6 205.5 144.4-69 122.2z"/><path fill="#5c533b" d="M2567.4 1779.3l134.6-40.4 59 37-278 12z"/><path fill="#c7baa1" d="M2580 1413.1l901.5-220.6-63.9 135.8-904.9 481.7z"/><path fill="#d8dcd9" d="M4072.5 317.7l-1251.8-89.5-650.9 58.9-16-519.6z"/><path fill="#513f30" d="M2449.7 521.5l-51.6 199-187.7-127.2-55.5 326.7z"/><path fill="#d0c1a1" d="M3381.7 968.8l-626.2 226.4 341.7-700-126 412z"/><path fill="#5c4d3f" d="M2156.4 874.5l84-590.6-132.7 141 48.6-231.2z"/><path fill="#493f2c" d="M2389.8 238l96.1 240.7-118.8 199.8 84.4-275.2z"/></g></svg>