<svg xmlns="http://www.w3.org/2000/svg" viewBox="0 0 3840 2160"><path fill="#42342f" d="M0 0h3840v2160H0z"/><g fill-opacity=".5"><path fill="#d8e1d6" d="M2778.3-232.5l176.4 2035 734.7 590-1306.5-70.2z"/><path fill="#aa9488" d="M2070 1563.7l65.8 753-1797.7 48.7 1174-1143.8z"/><path d="M2919.7 1746.8l918 645.7 202.1-2595-1057.8-30z"/><path fill="#d2d9ce" d="M2948.6 352.4l-92.7-584.9h-383.2l288.4 1433.8z"/><path d="M892.3 1856.6L769.9 12.6 32.2 1718.9l36.3 673.7z"/><path fill="#a76950" d="M1946 1252.5l259.4-185.6 192.2-288.8-864.3-83.4z"/><path fill="#010000" d="M2647.7 887.7l-503.5 103-34.8 1023.2 393.9-15.6z"/><path fill="#bfae91" d="M1094.1 1031.7L1451.3 842l-424-51.4-228.9 133.6z"/><path d="M4072.5 2152.8l-293-2385.3-983.3 1532.6 593.7 947.5z"/><path fill="#d4d5cc" d="M1461.1 2392.5l991.5-407.5-38.3 407.5-260-58.4z"/><path fill="#c3cad0" d="M2883.5 2323.6l137.9-21.5 647.3 90.4-808.4-631.4z"/><path fill="#110506" d="M113 978.9l183.7 594.5 808.8 151.2-5.2-483z"/><path fill="#150b04" d="M3113.7 1937.5l379.3-2170-630.1 1586-1.1 421.7z"/><path fill="#815237" d="M1128.4 402.4l945.4 112L2752 207.5 1151-148.7z"/><path fill="#9b8f89" d="M1714.4 1152.8l101.1 169.6 45 143.8-1033.3 475.2z"/><path fill="#492f22" d="M1840.4 2283.2l-991-67.6 482.3-462.8 194.6 139.3z"/><path fill="#060100" d="M2236.6 1092l69.8-244.4 208.3 1206.8-410.1-4.7z"/><path fill="#3b2926" d="M137.6 1058.4L546.3-232.5l267.2 905 127.8 539.2z"/><path fill="#675444" d="M2412.8 2381.9L2900 2123l-564.7-401 263.8-251z"/><path fill="#b4beb9" d="M2965.5 785.8L2855.1-232.5l-131.2 86.3-25.8 632z"/><path fill="#010002" d="M747.2 2012.2l-899 311.8 315-712 894.2-137.7z"/><path fill="#b6aeaf" d="M691.7 2104l-242.8-23 281.8 287.2 145.6-387.1z"/><path fill="#785c42" d="M2463.6-39.3l90.6 1661.9 125.5-860.2 111.2-62z"/><path fill="#3c1e10" d="M1832.5 1691.7l9-368.2L1009.8 657l1236.7 677.5z"/><path fill="#090300" d="M2420.4 1764.1L2474 813l-484 1061.9-32.2-280.8z"/><path fill="#b0b5b2" d="M2880.7 1082.2l-29.1 868-149.3-930.5 187.7 246z"/><path fill="#938687" d="M1004 1669.5l264 537.5-467.7-337.6 85-89.8z"/><path fill="#836b58" d="M1394.6 441.8l-519.8 597 567-81-77.6 817.5z"/><path fill="#190d0c" d="M487.5-232.5l498.8 996.1 194.2-405.8-133.1-590.3z"/><path fill="#a59687" d="M2047.2 2029.2l61.5 357.2L1428 1176.1l352.4 326z"/><path fill="#645a6e" d="M16.7 785.7l-48-1018.2 144.4 377-172.8 1925.3z"/><path fill="#947c66" d="M789 666.3l154-159-174.8 301.4-97-56.3z"/><path fill="#040101" d="M2932.1-232.5l1140.4 426.3-1147.7 804.3.8-705.5z"/><path fill="#3f1b05" d="M2601.8 1010.6l-61-565-1179 187.4 873.8 86.9z"/><path fill="#020006" d="M555 259.7l-158 520-157.8-564L410 366.4z"/><path fill="#bebaa5" d="M901.3 927l304 89.2 75.1-135-333.1 25.5z"/><path fill="#281b17" d="M1352.4 935.4l-66.4 694-271.4-276.4-1247.1 298.6z"/><path fill="#8e6657" d="M1731.8 957.2l-120-67.4 463-301.6-211.3 632.2z"/><path fill="#a2a7a3" d="M2854 1529.9l108.5 451.4-425.4-192-99.6-108z"/><path fill="#070501" d="M1518.2 1113.3l76.4-242L1690 1186l-85 180.7z"/><path fill="#060000" d="M2262.2 1618.9l-211.9-12.7L2158 2091l-111.5 7.4z"/><path fill="#000004" d="M3933 1583.1l-687 346.1 121.5 325.6 626.4-15.3z"/><path fill="#957f6e" d="M1989.8 2392.5l-400.2-732.4-161 170 302.4 276.7z"/><path fill="#cadae0" d="M2841.3 1816.8l612.9 458-92.7 117.7-95.8-378.1z"/><path fill="#5f4030" d="M1003.5 1320.5l842-582.1-708-431.6L1478 1311.5z"/><path fill="#9b8881" d="M1738.7-232.5h-607.6l49.5 402.1 270-236.6z"/><path fill="#744a38" d="M2288.8 622.8l-43.7 647-186.3-384.1 426.5-10.6z"/><path fill="#060505" d="M3373 2031l-274.6-605.3-218.2 68.1 24 335.4z"/><path fill="#55463e" d="M1281.6 881.7L253.4 609l-485.9 346.4 573.8-180.8z"/><path fill="#150f16" d="M143.3-126.8l86.2 1651.4-107.2-683.4-33.4-633.7z"/></g></svg>