<svg xmlns="http://www.w3.org/2000/svg" viewBox="0 0 3840 2160"><path fill="#4b4e69" d="M0 0h3840v2160H0z"/><g fill-opacity=".5"><path fill="#dfe0ff" d="M30.8 2323.1l-263.3-2286L764-173.3l285 1996.7z"/><path fill="#1e212c" d="M842.8-100.7l3229.7-106.2-202.3 2481.5-2408.7-116.2z"/><path fill="#8f86d9" d="M3172.2 1281.1l-40 1111.4h269.5l-15-1067.8z"/><path fill="#999bdb" d="M-1.8-232.5l1258.4 1322.7-249 687.1-1058.8 615.2z"/><path fill="#000010" d="M3470.2-232.5H3890l182.5 904.3-1011.7 628.6z"/><path fill="#122231" d="M1419.7 2336l-1652.2 52.8 1203.2-464.2 311.2-659z"/><path fill="#595152" d="M3182.3 933l-817 1377.7-334-404.2-237.2-1598.1z"/><path fill="#152241" d="M1787.8-140.6l-481 1180L843 693l-56.3-417.9z"/><path fill="#686960" d="M3003-232.5L3301.2 373 2769 388.7l-492.9-493z"/><path fill="#7e7bb3" d="M1037.1 902.8l-1269.6 488.8 1333 274.2 80.4-546.5z"/><path fill="#c3cde7" d="M12.8-232.5l-55 1388 480.8-407.8-287.2-135.5z"/><path fill="#000f33" d="M3099.6 1218.8l9.7 811-168.7 362.7-81.3-827.4z"/><path fill="#162d64" d="M3368.2 2325.4l494.6 55.7L4072.5 227 3407 1088.7z"/><path fill="#aab0df" d="M-147 288.3l808.8 50 357.5-443.5L34.4.6z"/><path fill="#676869" d="M2198 1160.3l106-534.7-395.8-46.5 97 357.6z"/><path fill="#6b76b2" d="M385.2 568.2L893-32.6l-88.8 479.4 389.2 613.9z"/><path fill="#7f7db2" d="M1231.6 1200.2l-287.5-365-284.2 579.5 338 480.1z"/><path fill="#2f2c31" d="M2534.2 1291.5l107-1102.2-217.7-97-139.9 1047.8z"/><path fill="#393543" d="M1479.4 929.5l-374.3 1411.3L2146.9 1724l672.8-33.8z"/><path fill="#58565a" d="M3094.4 1197.3L2597 1573.8l66.5-1654.6L2785.6 708z"/><path fill="#121f3a" d="M1038.4-232.5l-268 650.8 747.8-650.8 161.2 604.8z"/><path fill="#aaa1cf" d="M1026 1880.2l-533.3-547.6-315.5 783.3L669 2012.3z"/><path fill="#0a1324" d="M3472 1253.7l383.2-1486.2L2992 892.8l-104.6-548.7z"/><path fill="#8578b0" d="M3202.7 1353.3l26 1020.6 160.1 18.6-150.7-1243z"/><path fill="#d7fbfb" d="M71.6 2374.1l-34.2-439.8L6.6 1728l-107.4 201z"/><path fill="#303d82" d="M2600.1 2265l319.1 43-96.4-565.1-130 157.3z"/><path fill="#082044" d="M436.9 2092.7l361 299.8 267.7-535.3-412.4 186.2z"/><path fill="#3d3c47" d="M1231.5 439.8L994.6 200.6l323.8-248 899 2439.9z"/><path fill="#23252d" d="M1881.2 83.4l110.7 206.8 664.5 193.3L2416.7 213z"/><path fill="#101e41" d="M1359.9 649.6L878.6 143.2 849.8 334l371.6 730.8z"/><path fill="#38447f" d="M3216 1216.6l-38.7 1102.7-39.1-59.9-54.6-930.1z"/><path fill="#8284b8" d="M51.1 2016.4L26.5 1140l241.6 208.6-32.3 1043.8z"/><path fill="#3d528d" d="M1090.7 300l74.9-42.1-122.9-109.3-85.4 109.3z"/><path fill="#1d213e" d="M1286.3 1465.2l85.1-62 836 989.3-685.5-497z"/><path fill="#7777ac" d="M1204.4 961.5l-9.4 320.9-130.6 466.6-320.3-348.4z"/><path fill="#2e4076" d="M1104.7 973.2L814.4 585.5l383.7 235-37.7 174.3z"/><path fill="#bcc0da" d="M-232.5 201.4l594-8.7-4.4-425.2h-538z"/><path fill="#95a1cb" d="M1152.8 1047.6L-232.5 71.1l673.3 916.3 707.8 133.8z"/><path fill="#312739" d="M2568.3 1231.9l-63.3 93.7 286.7-206.8-617.6-100.3z"/><path fill="#9192c1" d="M950.5-232.5L715.7 259.6l35 557.1-477-281z"/><path fill="#323b64" d="M3846.3 1636.5l162-845-642.9 1014.7-30.3-611z"/><path fill="#bcc1e0" d="M344.8 648.8l-577.3-57.3 162.3 332 447.5-12.3z"/><path fill="#282832" d="M1543.7 731.2L1344.7 31l286.6-263.6 130 1020.6z"/><path fill="#414554" d="M879.9 1920.8l491.6-205.4 365.5 677.1-628-380z"/><path fill="#9a8ebf" d="M1122.8 1401.3l3 116.4-72 180.8L708.2 1881z"/><path fill="#091220" d="M3338.8 65.9L3659 639.8l354.3-812-766.2-14.2z"/><path fill="#2d2f37" d="M2971.6 930.4l-130.8-625.3 451.6 190.3 36.8 108z"/><path fill="#a7a5d0" d="M-232.5 2392.5l1070.1-493.2-586.5-548 180 988.4z"/><path fill="#57555b" d="M2734.5 796.1l197.9 437.5-734.6 98.7L2646 1556z"/><path fill="#464b89" d="M3205.4 1317l53.1-110.2 34.5-16.5 135.4 152.6z"/></g></svg>