<svg xmlns="http://www.w3.org/2000/svg" viewBox="0 0 3840 2160"><path fill="#505a5c" d="M0 0h3840v2160H0z"/><g fill-opacity=".5"><path d="M4072.5-232.5L1944.7 58l510.5 428.3L3958 404z"/><path fill="#b6a38b" d="M3611.9 1391.3l-165.2-986.9-924.3 126.9-598.6 1861.2z"/><path fill="#00466e" d="M3230.7-232.5L-232.5 12.2l278 2380.3 869-1511.1z"/><path fill="#3a86c3" d="M1672.2-203.2l974 945.4-965.5 754.3-460.7-910z"/><path fill="#b4552f" d="M1747 2392.5l-257.7-1635L306 1930.8l318.5 461.7z"/><path fill="#b0bebc" d="M3103 975.8l-672.1-192-369.1-229 1708.6-83.2z"/><path fill="#493613" d="M1398.8 2392.5l1535-1828.7-349.3 876.2-785 44.9z"/><path fill="#813a0e" d="M4042.8 2035.6L4072.5 621l-607.9-78.6 12.4 1632.4z"/><path d="M2094-146.2L3751.4-232l321.1 737.4-1768.3-173z"/><path fill="#013228" d="M1177.1 699.8l-25.5-932.3-1384.1 128.3 457 852.6z"/><path fill="#327bb3" d="M1118.6 1242l-666.4 307.6-684.7-230.6L6.3 721.6z"/><path fill="#183d08" d="M-100.9 2201.7l113.5-700.4L483 1787.4l-148 541z"/><path fill="#0f0000" d="M2951.2 1114.7l-64 65.1 345.3-57.9-80.6-166.3z"/><path fill="#b79e91" d="M2245.5 1522.4l1260.3 870.1-1154.5-406.8 1077.8-718.3z"/><path fill="#44150d" d="M2251.8 1829.6L2484 1733l-534.7 659.4h1118.8z"/><path fill="#004126" d="M2379.8 1005l89-153.2-805 1540.7 814.4-1140.8z"/><path fill="#9c7b6a" d="M2010.7 1763.2l-5.4-955.2 1660.9 778.4-1407-437.5z"/><path fill="#ac9d92" d="M1670 883.1l-59.6 136.7L954.6 915l113.9-198z"/><path fill="#00221b" d="M2940.7 559.1l-781.9-246.8L3073-232.5l58.7 677.1z"/><path fill="#a1846d" d="M3169.7 2073.5l-992-64 1327.6 237.8-299-1564.6z"/><path fill="#4b1000" d="M1340.3 2052.4l232 340.1-98.5-601.2-291.3-110.2z"/><path fill="#4d0b00" d="M2976.3 1554l231.6 504-187.6-37.3-107.2-87.3z"/><path fill="#fde2df" d="M2557.1 528.6l8.6 244-323.5-139.5 208.3-95.8z"/><path fill="#849793" d="M1469.6 1118l208.5 408.6-624.9-7.3 343.5 304.8z"/><path fill="#2871a1" d="M897.6 1329.9l173.9-516.3-412.9-192.9-137.8 337.4z"/><path fill="#074787" d="M1255.5 506.7l-233.8-654.3 1049.8 96.4 37.9 423.7z"/><path fill="#2e180c" d="M2906.6 1193.6l148.2 41.8-498.2-337.2 260.5 12.5z"/><path fill="#39656f" d="M2509.6 981.7L-20-16.5l2837.6 1467.4-495.9 21.4z"/><path fill="#317aaf" d="M2077.5 255.8l457 773-1318-456.5L2378.9 293z"/><path fill="#ad7663" d="M890.7 1389.4l-225.9 46.4-211.1 214.6 534.4 193.7z"/><path fill="#95a38a" d="M982 419.4l-482.7-217 548.2 308.2 601 228.2z"/><path fill="#a1a4a8" d="M1763.6 2392.5l401.3-686.5 311-97.4-377.5 480z"/><path fill="#112221" d="M549.5-4.3l9.2 1897-93.2-978.5-47 84.6z"/><path fill="#000102" d="M3362 410.2L2282.1-102.1 4072.5 31.2 3456 505.8z"/><path fill="#4c240f" d="M968.5 938.2l94.7 403.6-54.6-111.5 628.1-108.6z"/><path fill="#97a59f" d="M3385.4 401.9L2382 705.4l334 200 705.8 110.8z"/><path fill="#003210" d="M2703.8 1367.9L2551.7 1476l-243-91.4-50-111.8z"/><path fill="#434c21" d="M2509.9 1736.9l-901.2 483.3 75-810 403.8 545z"/><path fill="#9da2a3" d="M3957.2 493.1l-181-112.5-41 134.4-67.6 57.4z"/><path fill="#930802" d="M1038.7 2084.2l119.8 308.3-98-788.2L891 1334.2z"/><path fill="#ba8e78" d="M1659.5 1525.5l-232.5-280 30 292 125 535.3z"/><path fill="#000519" d="M441.5 2392.5L351.2 1884l-32.5 148.5-551.2-199.2z"/><path fill="#b48b6c" d="M1867.7 1412l-149 205.9 263.5-438.8 227.1 145.7z"/><path fill="#3e180a" d="M2869.5 957.1l-141 157.9-121.9-146.6L2441 803.8z"/><path fill="#266a8f" d="M2022.8 592.4L1648 594l-179.3 751.8 282.8 132.3z"/><path fill="#70331c" d="M2047 1786.6l12.6-919.7L2207 978.3l-604.5 840.3z"/><path fill="#b39e8f" d="M2134 1810.9l1081-381-556.7-358.3 28.8 373z"/><path fill="#820000" d="M472.8 2299.2l144.1-830.5-123.6-36.6 58.4 59.4z"/><path fill="#726951" d="M3490.9 2130.6l235.2-500.3L3502 488.6l-182.1 301.6z"/><path fill="#b49ea2" d="M2031.4 1321l279.8-290.3-204.2 468.6-76.1-124.7z"/></g></svg>