<svg xmlns="http://www.w3.org/2000/svg" viewBox="0 0 3840 2160"><path fill="#566346" d="M0 0h3840v2160H0z"/><g fill-opacity=".5"><path fill="#e3e9b4" d="M582.6-45.5l2391-187-690.4 2033.8-912.5 102.5z"/><path fill="#000700" d="M3797-232.5l275.5 2351.3-903.5 273.7-1211.8-173.7z"/><path fill="#000800" d="M-232.5 181.6l60.7 2210.9H1688L159.5-118z"/><path fill="#fff6c3" d="M2365.3 1914.4l-780.4-56.1-379.4-205 648.1-992.4z"/><path fill="#192617" d="M1428.9 366.5l-1377 2026-284.4-1116.8 1917.4-76.8z"/><path fill="#093b11" d="M1931.6 282.8l225.2 770.6 455 1339.1 134-1274.4z"/><path fill="#f4e9b9" d="M2500.3-232.5l545.8 76.1L2413.4 1173l19-1345.7z"/><path fill="#fffde1" d="M988.1 520.3l90.4 20 44.8 544.3-263.9-201z"/><path fill="#4d5e51" d="M2723.4 205.3l-472.8 104.2L590.8 477.3l1443.8 265.4z"/><path fill="#fffff5" d="M2162.4 987.7l-481.2-345.1-145 221.8-2.4 119.2z"/><path fill="#475745" d="M1082.7-64.4L965.9 536.2 577 1554.8 270.3-105.6z"/><path fill="#fff5bd" d="M1247.3 1390.8l219.5-267.6 690.2 482.2-789 349.6z"/><path fill="#487345" d="M746.5 1850.3l446.3-1392.6L1663 669.8 659 2392.5z"/><path fill="#313e25" d="M1778.1 1274.5l682.5-337.2-354 39-494 302.1z"/><path fill="#fff" d="M2386 847.8l69.4-473.6 152.4-59 59.6 303.2z"/><path fill="#000200" d="M2829.8 2391.4l575.8-470.8L3780.3 162l232.5 2199.3z"/><path fill="#8f8d74" d="M2620.6 506l435.6 93 106-403.4-77.3-428.1z"/><path fill="#d1e296" d="M984 275.9l308 264.7 496.6-773.1L2152 292.7z"/><path fill="#1f1927" d="M1783.8 518.8L1516 553.9l9.4 696-189.6-261.7z"/><path fill="#ffffc9" d="M2192 1451.8l120.5 63-152-321.9-803.7 671.5z"/><path fill="#485d42" d="M2940.4 2392.5l291.5-664.1 133-1436.4-754.9 77.5z"/><path fill="#003200" d="M1390.3 1830.2l-252-285.4-344.7 651 433.9 171z"/><path fill="#030a00" d="M-10.1 2392.5L15.5 100.2l327.5 1640 471 652.4z"/><path fill="#404944" d="M2447.4 410.2L1737.2 684l107-173 500 493z"/><path fill="#b9997c" d="M1199 821.3l242.8 192.7-511.9-217.8 120.6 522z"/><path fill="#505129" d="M1204.4 2392.5l365.9-569.2 357.2-100 391 402.2z"/><path fill="#fff4d8" d="M1997.2 1078.5l166.1-235.7-130.6-68.7-238 279.5z"/><path fill="#19291d" d="M2356 1057.7L2039.2 570 2156 762l-109.8 355z"/><path fill="#fff89a" d="M1090.7 285.2l21 213.8 174.1-587.7-276.1 398.3z"/><path fill="#ffffef" d="M858.8 764.3l190.4-227.6 144.7 104.9L882 849.3z"/><path fill="#6c9950" d="M2585.5 1479L2389 827l-114.8 1012.6-231.8-311.8z"/><path fill="#2b301d" d="M2091.8 1143.2l-802.5-32.4-156.5-78 268-64.1z"/><path fill="#d9ff8c" d="M1921.7 420.9L1575 547.4l-256 143.2 226-235.4z"/><path fill="#8b8f68" d="M1705.7 326.7l1463-126.7-173.6 344.7-512.6-255.2z"/><path fill="#d1c8bf" d="M1236.1 929.8l-12.9-135.4L830.7 583l562.1 296.9z"/><path fill="#f6f899" d="M2304.7 272l345.7-504.5h207.8l6 452.7z"/><path fill="#19191e" d="M2603 1312.4L2411.3 1211l255.1-436.5 42.3 410.6z"/><path fill="#353343" d="M1930.6 586.5l86.4 276.7-317.8-354.8 433.1 63.5z"/><path fill="#2d3126" d="M2906.3 943.5l541.5-1176 624.7 724.4-1009 667.3z"/><path fill="#42a843" d="M1345.4 1077.1l-102.8 388.7-355.8 27.3 204.5-337.8z"/><path fill="#fffff4" d="M2349.8 950.6L2650.1 352l-156.4 21-18.6.7z"/><path fill="#ffecce" d="M1609.8 966.6l31.3-389.4 325 242.3-109.2 297.7z"/><path fill="#002e00" d="M2953 2202.4l-763.6 170.7 210-805.2 210.7-259.3z"/><path fill="#f7eedc" d="M1952.8 591.8l200.5 344L2047 926l-103.5-313.7z"/><path fill="#6f8662" d="M2636 188.3l-773 141.4-417.4-562.2L2200 700.8z"/><path fill="#32392b" d="M700.5 646.5l365 538.9L1224.2 971 912 1479z"/><path fill="#f1eab8" d="M1757 1326l469 478-865.7-148.3 332.5-624.4z"/><path fill="#549d70" d="M1279.7 339.1l-69.3-10.5L1262.8-4l286.3 269z"/><path fill="#4b584d" d="M1105.2 835.4l538.4-444.7-940.2 172 465.3-133.6z"/><path fill="#9ca168" d="M1194 1169.2L2226 1375l-782-77.3 11.3-179z"/></g></svg>