<svg xmlns="http://www.w3.org/2000/svg" viewBox="0 0 3840 2160"><path fill="#31527f" d="M0 0h3840v2160H0z"/><g fill-opacity=".5"><path fill="#90ffff" d="M4008.8 2392.5l-166.6-2625-1066.7 310-112.3 467.1z"/><path fill="#ffb77f" d="M2633.2 602.8L756 941.5 2280.8 1658l339.2-307.5z"/><path fill="#00001d" d="M99.7-232.5L-232.5 2167l2725.5 82.3-211-349.8z"/><path fill="#7fffff" d="M2770.9 419l1097 1620.3 12.2-2056.6 192.4-215.2z"/><path fill="#fd6134" d="M1026.6 1148.4l177.3 283.4 544.8-607.4-225-434.5z"/><path fill="#da0c12" d="M2110.5 1942l464.4-639.4h-466.3l-498.2 267.7z"/><path fill="#fff" d="M774.3 829l-62-21L822 1048.9l382.7-.7z"/><path fill="#004edb" d="M2773.8 2016.9L2871.6 705l396.7 31 627 1656.4z"/><path fill="#e7f7ca" d="M2158.8 875.7l603.8-426-244.8 753.6-887 287.9z"/><path fill="#000039" d="M1731.3 740.8l-123.4 701.5L2776.6-232.5-232.5 118.9z"/><path fill="#002374" d="M2693.4 1007l-143.8 1385.5L3174 824.2 2297 729z"/><path fill="#b4ffff" d="M4072.5-232.5v674.3l-2113.8 522L3965-232.4z"/><path fill="#1173c2" d="M2331.9 330.6l-708 721.5 552.5 95.7L2377 120z"/><path fill="#ff210a" d="M1344.4 619.7l319.4-71.2 51 304-544.2 11.1z"/><path fill="#ffff05" d="M2679.3 1182.2l-122.6-250.9-347.9-22.3 19.4 239z"/><path fill="#e7ffff" d="M4072.5 1101L3850 2107.8l-216.3-200.3 92.1-594z"/><path fill="#e7ffc1" d="M1489 847.7l-295.7 137 409.1 150.7 140.5-87.6z"/><path fill="#00003c" d="M1348.5-232.5l-165.2 1511.4 584.4 131.5-2000.2-1239z"/><path fill="#00023b" d="M2905 1340.1l-439.2 65-299.5 591.8L3236 1419.7z"/><path fill="#00b5ff" d="M3744.3 529.4l-599.1 204.8-186.7 562.7 684.3 256.1z"/><path fill="#3b87de" d="M2118.1 788.5l723 65.5 65.2-252 123-834.5z"/><path fill="#ffe7d4" d="M2544.6 1182.3l-19 203.7 312-52.1L1543.2 1230z"/><path fill="#d4f4ff" d="M1182.7 1307.5l22.3-101.8-318.3-116.8-139.1-342.8z"/><path fill="#a6ffb7" d="M2548 1865.8l38 212.4-205-65.7 12.4-127z"/><path fill="#0083ff" d="M3067.7 2392.5l87-390.6-142.1-435.8 600.7 597z"/><path fill="#e4ffff" d="M4072.5-7.5L1753.2 1080.8 3635.6-1.2l309.7-231.3z"/><path fill="#000c50" d="M3156.3 1940.7L2963.9 2378-232.5 575.5l283.7 1817z"/><path fill="#c00" d="M1152.6 979l156-22.8L981 1018l455.6 310.7z"/><path fill="#b20b00" d="M1743.2 1237.2L1089 1033.5l559.4 257.3 196.4 650.5z"/><path fill="#428b9f" d="M1188.4 1590L898 1134.6l332.6 49.2 62 476.5z"/><path fill="#fff" d="M1870.8 1512.2l-58.7-52.5-57.5-269.8 278.3 37z"/><path fill="#bf3536" d="M2308.1 1807.4l-18.9-148.2L2430 1060l-616 414.8z"/><path fill="#004591" d="M3673.2 1793.7L3298.4 1248l-1156.6 721.6 877.6-230.8z"/><path fill="#001242" d="M2527.1 1331l395.8-132.2-374.8-238.6 272-88z"/><path fill="#000847" d="M460.2 423.4L-31.3-232.5l48.7 2625 910.2-1236.4z"/><path fill="#4ee9ff" d="M3757.7 1501.7l-515.3-510.4-17.3-629.7 836 250.9z"/><path fill="#fff" d="M1045.8 957.6l-256.2-132-35.5 35 208.6 264.7z"/><path fill="#43847e" d="M1149.4 2005.6L895.5 1687l92.4-60.5 105.6-42.4z"/><path fill="#ffd4d0" d="M2913.3 1401l-635.8-195.6-233.9-122.5-152.5 162.7z"/><path fill="#000d49" d="M1893 761.9l293.4-994.4-1167 1189.4-851-1189.4z"/><path fill="#41b4ff" d="M3820 2036.6l111.6 196.5-341.3-281.5-49.1-495.3z"/><path fill="#3273c8" d="M3440.1 87L2947.7-78.4l-826.3 896.1 746.8-402z"/><path fill="#0d4d8d" d="M2225.8 1107l-350-381.2-225 402.5 488.8-39.4z"/><path fill="#00114d" d="M665.3 1475.2l1073.2 145.9-32.8-187-419-19.3z"/><path fill="#e1c080" d="M1263.9 1047l-77.3-120.3 9-154.1 282.9 516.5z"/><path fill="#ff7064" d="M1644.8 753l-243.4-164 260.8-18.7 11.2 80z"/><path fill="#7af69f" d="M2371.6 2013.3l71.3-133.8 192.7 31.1-150.2 214.7z"/><path fill="#3dccdb" d="M2161.2 300.4l-61.6-57.2-40-48.3 159.6-33.2z"/><path fill="#fff394" d="M2677 1125.9l-156-253.5-6 333.3-149.1 192z"/><path fill="#000b47" d="M2515.6 1812.3l83.4-563.5-453.1 1143.7-888-472.4z"/></g></svg>