<svg xmlns="http://www.w3.org/2000/svg" viewBox="0 0 3840 2160"><path fill="#343e4b" d="M0 0h3840v2160H0z"/><g fill-opacity=".5"><path fill="#6791c8" d="M-232.5 972.2l155.4-530.6L2321 467l296.1 986.6z"/><path fill="#74a3e5" d="M2912.4 1120.1l172-667.8 988.1-45-29.4 1099.5z"/><path fill="#181608" d="M4072.5 2241.6L-29 2224l-203.5-345 1491.7-846.2z"/><path d="M3223.3-109.2L2078-133l759.6 1885.6-14.2-392z"/><path fill="#80b3e8" d="M151 1640.5L325 984l-557.5 82v494.7z"/><path fill="#130500" d="M4072.5 174.1L2861 589.4-232.5 234l527.2-466.6z"/><path fill="#7dadd9" d="M2528.5 918.2l-433.3-6-16.2 359 565.9 154.6z"/><path fill="#688eb8" d="M478.6 811.6l51.8 139.9 549.4 1.5-244.6 471.9z"/><path fill="#1d1204" d="M2560.4 2392.5l111.1-1086.2 1300.2 589.1-306.5-650.6z"/><path fill="#251706" d="M400.6 1073.6L13 2002.6l674-756 32.3-118z"/><path fill="#494345" d="M972 1108.5l1053.2 928.9 845.5-402.7-1314.2-529z"/><path d="M2127.7-218.8l563 1680.4 134.9-15.7L3120.3 16.7z"/><path fill="#6a5e56" d="M2925.4 1080.2l179.5-58.5 165 267.8-486.8 427.3z"/><path fill="#6a92c3" d="M3317.8 1032.6L3601 758.3 3909.2 884l-478.4 626z"/><path fill="#000906" d="M3747.4 2184.6L-47 2392.5l39-370 1574.5-55.6z"/><path fill="#222625" d="M3648.4 1257.2l267.3 1135.3-511.4-674.6 176.7-534.5z"/><path fill="#6e9ccd" d="M1366.9 1208.6l47.7-210.2 109.9-50.7-7.6 323.8z"/><path fill="#000100" d="M2810.9 1684.9l295.5 671.4-25.4-8.2-890.6 44.4z"/><path fill="#0c0500" d="M4013.5 57.2L3161.2 373l577.3 29.5 334-159.4z"/><path fill="#6b6760" d="M26.5 1595.4l411 2.1 687.4 81.3-951-11.7z"/><path fill="#3a3029" d="M3054.5 2139.3l-201-379.3-469.2-357.8 1214.3 46.8z"/><path fill="#384f79" d="M1799.8 511.6L-232.5 865.2l83.3-645.4 518.2 105z"/><path fill="#4d3f34" d="M2044.5 184L857.1 157.5-116.2-67.3l2380.2.8z"/><path fill="#364a5c" d="M2853.8 1691.4l191.3 275.4 1027.4-195-425-35.5z"/><path fill="#6687a9" d="M919.6 1310.2l-272.5 4.8 298-270.6 101.5 169.9z"/><path fill="#394f78" d="M3203.6 799.7l-181.8-370 1050.7-40V497z"/><path fill="#53719a" d="M875.6 1080.5L2527 979.2 2319.7 414l-353.5 72z"/><path fill="#231102" d="M3963.2 1701.4l46-222.2-866.6-47.4 39.7 265.3z"/><path fill="#719dc8" d="M2437.7 793.2l-.8 637.2 219.6-58.8-134.6-353z"/><path fill="#6da5de" d="M2957.8 1354.7l-22.3-253.6-18.6-6.2-70.3 278.4z"/><path fill="#5b4c43" d="M947.6 1200.6l-208.5 525 13-53.7 223.7-61z"/><path fill="#051515" d="M-138 2003l71.2-366.7 889 113.7-160.8 100.3z"/><path fill="#6894c5" d="M4072.5 1640.2L3745.2 662l-46.5 568.4-12.4 141.5z"/><path fill="#31404d" d="M508.1 1827.6l1849-143.8 38.1-602.9 111.8 871.4z"/><path fill="#658ab6" d="M1740 1269.2l24.1-65L1886.3 849l-351 81.4z"/><path fill="#413026" d="M1808.5 1274.7l44.2 529.2 73.4-545.7-64-228.3z"/><path fill="#091e26" d="M1172.8 1020.6l-54-30.7 75 495.1-181.8-393.4z"/><path fill="#4e4d4b" d="M1907.9 821.2l145.9 860 7.5-837-279.8 595.7z"/><path fill="#698fbb" d="M3555 1194.8l-57 324L3117.2 631l66.6 585.9z"/><path fill="#3d3027" d="M4072.5 60.9l-926.2-293.4-34.8 487.4 639.5-115z"/><path fill="#78a7c9" d="M2117.8 1337.6l-8.5-47.2 146-33.1-46.3 160.2z"/><path fill="#36261d" d="M909.5 1356.5l215.4 48L226 1195.2l242.8 429.4z"/><path fill="#567599" d="M1681.4 717.2l309.1 728.2-2.2-335L-232.5 1003z"/><path fill="#070100" d="M2769 1512.3l400.4-1744.8-1005 346.5 363.5 736.5z"/><path fill="#000603" d="M2703.6 1432.7l260.4 959.8h-298.3l-42.7-710.9z"/><path fill="#47352a" d="M2315.4 1324.5l-16 185.6 969 105.7-1850.6 139.8z"/><path fill="#322320" d="M1321.1 1035l-316.4 683 617.7-35.6-13-23z"/><path fill="#202929" d="M2079.2 1887.4l-645.6 68.8 831.6 436.3 320.5-357z"/><path fill="#2f2822" d="M731 1304.7L381.1 982l-97.7 349.5-156.3 437.2z"/><path fill="#58779c" d="M1215.1 904l-13.4 534.3-123-720-367 662.9z"/></g></svg>