<svg xmlns="http://www.w3.org/2000/svg" viewBox="0 0 3840 2160"><path fill="#a8b4c0" d="M0 0h3840v2160H0z"/><g fill-opacity=".5"><path fill="#000086" d="M3510.4-232.5L-232.5 96.4l2115.4 150.4 2189.6-34.5z"/><path fill="#6b554c" d="M4072.5 1323.9v-1000l-2346 75.5-27.3 1021z"/><path fill="#fff" d="M1702.7 339.6L76.9 171.7l-3.3 1753.1 1636.5 79.3z"/><path fill="#fff" d="M3698.1 1531l-81.7 428.5-2816.9 38.3 611.6-492.4z"/><path fill="#0044a1" d="M3209.5 228.8l863-212.8L-29.6-138l-36.2 368.7z"/><path fill="#190000" d="M2985.2 690l-54.5 530.6 210.2-19-32-525.2z"/><path fill="#140300" d="M2074.7 1180.8l459.6-556.4 4.6 388.4 38.6 180.7z"/><path fill="#0063cb" d="M4072.5 2204.5L1955 2016.8l757.1-30.6 1360.4 5.4z"/><path fill="#002cb6" d="M3789.8 1989.2l176.8 403.3-122.4-2625-60.1 1264.5z"/><path fill="#005fc5" d="M-136.4-232.5L2548.2 156 87.9 172.8 32.6 2375.4z"/><path fill="#e9ddc3" d="M2937.9 721.6L2255.7 318l146.1-90.2 482.6 2100.4z"/><path fill="#00afff" d="M2070.5 2116l-2303-101.3 2776.5-27.2-1569 405z"/><path fill="#00009a" d="M1706 662.6l131.5 594.9-119.7 373.9 18.3-490.2z"/><path fill="#b00" d="M1732.8 980.8L1718 824.5l5.5-715.5 94.5 647.4z"/><path fill="#fff7f3" d="M3777.6 2005l5-1540-29.1 1051.7-3986 34.6z"/><path fill="#fffff6" d="M2075.8 396.8L3166 288.1l-998.7-53-1882.7 30.6z"/><path fill="#d7ded7" d="M2154.9 685.4l634.6-308.5L2328 594l53.7 603.2z"/><path fill="#5c8d49" d="M1834.3 1523.4l1553.8-22.8-1131.6-69.3-90.4-51.8z"/><path fill="#757f6c" d="M4072.5 1464.7L3395.7 1314l-884.2-55.3 1013.4 264.9z"/><path fill="#2c1c14" d="M2609.4 543.4l483 147.7-472.5-76.8-443.7 599.5z"/><path fill="#004699" d="M3781.9 162.4l-2786.3-7.1 2961.8-387.8-115.3 1946.6z"/><path fill="#0699c9" d="M60.9 2258.8l-65-368.3 134.5 131 249.9-16z"/><path fill="#fbf1ec" d="M1743.5 1788.7L1687 397.3 66.4 164.6 129.1 1979z"/><path fill="#fff2fc" d="M3084.5 243l-40.8 393.8-152.6-211 940.6-166.2z"/><path fill="#ffe4f1" d="M2710.8 240.3l-227.2 438.5-4.7-221.7 902.3-206.7z"/><path fill="#dbdde1" d="M3168.4 571l36-246-12.6 1502.5-27.4-982.2z"/><path fill="#0000c0" d="M1719 1426.2l48.3 97.8 25.2-563.1-88.8 202.5z"/><path fill="#fff" d="M3660.5 1201l57.2-176.8 82.2 28.3-51.4 90.7z"/><path fill="#0a0000" d="M2368.7 812.2l4.2 215 78.8 112.4 85.8-475.8z"/><path fill="#0c0000" d="M3118.4 764.7L2806.3 574l121.2 119.4-26.3 33.7z"/><path fill="#0f0000" d="M3220.6 958.8l26.2-78.6-253.8 298-49.4-244.5z"/><path fill="#949492" d="M2667 2063.3l1183.2 329.2 222.3-332-734.4 3.5z"/><path fill="#18910e" d="M3669.7 1488.5l-704.5-2 48.9 21.5 776-8.7z"/><path fill="#16d9ff" d="M-232.5 1478L58 2030.3l-3-728.5 7-457.6z"/><path fill="#b6b6b4" d="M2345 1478.2l-91-997.6 113.7 548.2 306.2 434z"/><path fill="#82f67c" d="M1730.5 352.1l903.7-15.6-22.4 25.2-276.3 43.4z"/><path fill="#cddbe0" d="M3695.4 687.6l144.1 13.2-111.3 159-48.2 511.8z"/><path fill="#ddd1be" d="M2184.4 481l685.3 176-444.6 391.3L2717.7 559z"/><path fill="#0053a0" d="M4017-2.3L-9.3-5.1 570 251l3502.4-96.9z"/><path fill="#15211e" d="M2304.4 1277l-128.6-199.7-15.7-38.8 138.6-246z"/><path fill="#0056bc" d="M3711 1420.5l345.6 654.6-972.8-19.7 988.7-108.4z"/><path fill="#151c00" d="M2675 495l164.5-3 130.9 43.6-430.7 8.9z"/><path fill="#ae0000" d="M1813 282.4l-13.8 386.3-32.7 372.5-42-448.8z"/><path fill="#b5b5b7" d="M3115.1 1064.9l151.3-260.2-209.1 551.6-329.2 165.3z"/><path fill="#0050c5" d="M60.6 142.2l-29 977.7-264.1-728 393.3-624.4z"/><path fill="#a4c5e8" d="M970.3 2054.2l-1202.8 338.3 3545.8-314-1130.7-11.2z"/><path fill="#0052bb" d="M3850.9 406.3l71.3 1352.3-111.4 331.1-20.2-689.9z"/><path fill="#ffffe0" d="M1933.2 270.3l-341-27.5 548.5 282.6-60 24.3z"/><path fill="#fffbf9" d="M3794.7 258.1l2.5 101.8-896-42.6 702.4-87.7z"/><path fill="#d0c9c3" d="M3099.2 759l-130.5-496 64 167.6-149.1 132.1z"/></g></svg>