<svg xmlns="http://www.w3.org/2000/svg" viewBox="0 0 3840 2160"><path fill="#e08f93" d="M0 0h3840v2160H0z"/><g fill-opacity=".5"><path fill="#790c08" d="M644.3 1306.5l-876.8 870.4 1123.6 54.7 1141-1457.4z"/><path fill="#8c2206" d="M2248.4 1447.6l418.8 286.8 594-861.2-1019 381.5z"/><path fill="#33272c" d="M365.4 636.6l842.5 1160L404 1185.7-9.6 1120z"/><path fill="#ffd5f2" d="M-232.5 32.5L722.3 798l3350.2-37.2-1759.1-993.2z"/><path fill="#600000" d="M3288.2 251.4L4072.5 588l-1037-820.5-192.9 326.8z"/><path fill="#ffc6ce" d="M4072.5 1855L2278 1018.2l991.4 102 484.9-785.9z"/><path fill="#ffb1af" d="M1240.4 1587.7l877.3-584.5 365.6 977.3-1605.7 412z"/><path fill="#be6466" d="M2077.1 743l896.3-194.6-1634 894-673.6-147z"/><path fill="#f6cbff" d="M1626.8 297l973.7-529.5-2637.3 90.7 10 351.7z"/><path fill="#96170f" d="M2726.3 1243.6l169.7 330.8-165.3 148-540.7-306.2z"/><path fill="#674450" d="M156.6 1118L387 291.7 67.2 661l898.7 762.2z"/><path fill="#ffb68d" d="M266.8 404.2L949 1165l1991-663.3-1537-222.9z"/><path fill="#7b0006" d="M2492.4-171.3l1374.8 670.6 14-236.8-270.8-16.6z"/><path fill="#903e40" d="M2492 776.5l-24.9-80.3-321 230.8 1050.1 85.5z"/><path fill="#ffc887" d="M647.8 1237.2l-150 351-663.8 273.3-66.5-706.4z"/><path fill="#ffdeff" d="M3764.7 223.7L2882-232.5h727l463.5 415.7z"/><path fill="#542c2c" d="M592.6 1429.5L890 1019.7l-278.4-12 527.8 884z"/><path fill="#ff9386" d="M2482.5 2392.5h1281.6l269.7-672.6-1148-342.7z"/><path fill="#ffbaa4" d="M641.5 229.9l1119 576-609 276.7-679.4-99.1z"/><path fill="#ae5f89" d="M3460.2-232.5H2393.7L1691.1 426l513.5-277.7z"/><path fill="#fabbe8" d="M3427 916.3l645.5-243.8-355.4-248-1373-502z"/><path fill="#ba3547" d="M3347.9 122.5l58.8 350 186.9-206 372.2-5.2z"/><path fill="#ffb9b9" d="M2007.9 983.2l691.1-71.7-950.9 821.6-375 30.4z"/><path fill="#b35860" d="M1275 1703.2l146.6-754.4 927.8-194.1-814.3 692.6z"/><path fill="#db7245" d="M2402.9 1493.1l345.5-621.6-448 258.6-34.5 210z"/><path fill="#ffd0cb" d="M-232.5 1105.3l576.6-849-460.5-77.3 197 818.6z"/><path fill="#d56861" d="M2873.5 1463.6l-39.8-587.1 364.5-213.9 48.4 408.3z"/><path fill="#ff8f80" d="M3054 1845.7l287 245-2008 301.8 885.1-838.8z"/><path fill="#531410" d="M987 1454l-123 401.8-90.7-52.7 431.4-41.4z"/><path fill="#922825" d="M2862.6 1315.8l-467-202.4 112.6 480.5 281.6 180.2z"/><path fill="#ac5861" d="M1434.7 609l43.2-159-108.8-20.3-171.7 86.6z"/><path fill="#ad2f2e" d="M1129.6 1754.7l-210.5 612.8-1151.6-156.7 346-407.4z"/><path fill="#ed678b" d="M2997.9-80l427.3 107.4 647.3 395.3L3045 12.4z"/><path fill="#765363" d="M415.6 1108.5l144.9-436.6-461-24.6L656 1308.4z"/><path fill="#ffbac1" d="M4072.5 1148l-974.2-12.2-142.4 463.6-396.5 276.3z"/><path fill="#f0bdf2" d="M2576 406l-642-23.3 187.9-202.5 753.4-201.4z"/><path fill="#ff9fbc" d="M4072.5 1934.7l-390.4 40.3-538.7 26.8 209 390.7z"/><path fill="#ffb397" d="M751 1325.4l130.2-437 845.2-504.3L939 1244.6z"/><path fill="#d95e73" d="M2927.7 164.4L3686.9-150l-757 412-70.6-34z"/><path fill="#f3c0ff" d="M12.3 168.6L-3-232.5 2179.7 79.9l-685.5 221.5z"/><path fill="#4b3030" d="M864.6 1562L437 1511.4 959.1 1401l150.8 128.7z"/><path fill="#ff8d7d" d="M1124.2 1538.7l639.3 404.6-648.7-33.8 79-328.8z"/><path fill="#f88260" d="M2264.8 1301.2l262.7 292.1L2398 1134l534.4-384.1z"/><path fill="#954554" d="M2857 998.4L2831 737l-.1 57 416.6 244.2z"/><path fill="#3a0000" d="M3113.6 41L2968 149.2 2788.7-197 2161.3-92.5z"/><path fill="#b39b7a" d="M2498.7 1156.6l408 168.7 59.8-292.6-186.5-65.4z"/><path fill="#6b404b" d="M709.8 1000.3l61.8 381.6-622.5-463.3-244.2 201z"/><path fill="#ff727e" d="M3657.2 1707.3l-544.3-4 862.3-465.3-690.4 267.3z"/><path fill="#ffb68e" d="M86 1104.6l-318.5-17.1 119 894.7L587.1 1388z"/><path fill="#c35e69" d="M3418 371.6l18.7-304.4 89 230.5-218.2 353.5z"/></g></svg>