<svg xmlns="http://www.w3.org/2000/svg" viewBox="0 0 3840 2160"><path fill="#beb2b2" d="M0 0h3840v2160H0z"/><g fill-opacity=".5"><path fill="#6c0000" d="M1442.9 1671.8l-88.4-1224 693.3-49 576.7 1367z"/><path fill="#d6e8e5" d="M1755.7 1443.2l560.9-327.5L387.3 922.4l-177.7 477.2z"/><path fill="#fdffff" d="M2989 1879l771.4-585.9-1003.2-1461L1756.6 17.7z"/><path d="M1258 1852.2L2429.3 2019l46.7-160.1 3.7 398.8z"/><path fill="#a10000" d="M1972.7 1399.3l-672.6-671 310.1-476L2253 675z"/><path fill="#320000" d="M1899 1806.6L1469.7 1586l-.1-119.8 1255.8-78z"/><path fill="#f7ffff" d="M1434.4 425.4l819.4-266.8-1737.4 181 69.3 1535.3z"/><path fill="#353a3b" d="M1147 1251.2l634.8-96.7-814-74.7 1.7 1018.2z"/><path fill="#e6fdfd" d="M1788.4 1207l-505.3 3.5 934.6 496.2-193 491.6z"/><path fill="#111c1c" d="M1957.2 1854.9l-135.5 136.4-382-3.3-763-16.6z"/><path fill="#fff" d="M1037.7 1981l779.8-154.8-812.7-344.6 146.8 741.7z"/><path fill="#950000" d="M2492.9 1220l-365.8 81.8-177.6 245.5 586.7 66.9z"/><path fill="#a80000" d="M2061.5 432.1l-290.3 627.5-435-272.8L1562 326.5z"/><path fill="#fff" d="M3639.7 959.2L2293 941l43.6 254.2-259-1044z"/><path fill="#a9a39b" d="M2881.5 1057.2L2533.2 911l-914 307.3 1252.5 185.8z"/><path fill="#00211f" d="M1346.2 1608l736.7-279-194.2-97 71.4 533.8z"/><path fill="#faffff" d="M1329.2 2215.1l142-1058.9 563 251.2-985.2 47.4z"/><path d="M2480 2102.2l-46.1-66.9-452-24.7 189 135.1z"/><path fill="#ebfcf8" d="M2268.8 1218.6l-238.5-69.1-851.2-124.8 575.2 19.2z"/><path fill="#cdd5d5" d="M.1 1253L939.8-232.5l2646 409.6-2334.6 234.7z"/><path fill="#030505" d="M1367.4 1860.1l608.4 31.3-448 145-104.3-193.6z"/><path fill="#c7d3d3" d="M3110.7 1491.1l701.5 213-1876.7 373.3 77.2-377z"/><path fill="#e1ebeb" d="M1766.3 1948.1l375.5 444.4-929.8-297.8L600.1 2282z"/><path fill="#fff" d="M1207.7 99.7l-94 879.3 303.5-116.8-48-73.1z"/><path fill="#566262" d="M2664 1810.6l-34.2-635.7-166.6 620.4-415.3-224.4z"/><path fill="#fbffff" d="M3083.6 657.7l-424.4 1191-25.8-677.6 616.3 459.7z"/><path fill="#acaeaf" d="M833.4 1193l899.2 681.3-759.5-1083 165.6 73.7z"/><path fill="#6f7272" d="M2810.7 2263.3l37-820.9-47-205.7-52.1 427z"/><path fill="#221919" d="M1113.3 992L1542 888.5 1299 899l-22.2 137.3z"/><path fill="#770704" d="M2351.4 1137.4l82 102.3-450.7 84 494 594.2z"/><path fill="#ccd2d2" d="M2346.6 2034.2l-421-559.3-56.2 269.5 61.4-64z"/><path d="M1680.8 1444.2l234.7 141.2-129.6 133.2-389-257.5z"/><path fill="#311917" d="M2331.7 1105.4L1970.5 904l612.6 53.9-337.4 23z"/><path fill="#f7f8f8" d="M964.4 930.7L921.6 1986 592.4 871.2l391-368.7z"/><path fill="#bac3c3" d="M4072.5 305L2053.6-232.4l1147.6 781.2L3622.3 2309z"/><path fill="#970000" d="M1566.6 372l-83.8 652.2 781.6-70.6-102.1-352.8z"/><path fill="#1f2526" d="M1777.1 1975l49.5-176.5 37.7-86.6 165.1-36.2z"/><path fill="#7b6b68" d="M1929.2 614.6l258.5 385.2-203.8-126.4-154-366.5z"/><path fill="#e5e9e8" d="M1807.1 322.2l723.5 481-958-994.6-448.5 675z"/><path fill="#737676" d="M1830.5 1097.9l-444 162L924.9 1022l4.8 229.6z"/><path fill="#5d5f5f" d="M1150.8 2073.9l-220.4-857.3 136.2 123.4 42 422.8z"/><path fill="#dce8e8" d="M2419 1799.2L1832.8 1900l707.8-280.2-441.1 62z"/><path fill="#cdd5d5" d="M2555.8 2121.2l-826 81 1360.3-36 389.1-655.2z"/><path fill="#9e0000" d="M1455.6 984.4l-136.7-422.7 265.9-218.9 498 294.2z"/><path fill="#585757" d="M1042.9 792.2l-65.6-545 74 54.7-75.7 248.6z"/><path fill="#111a1a" d="M1218.5 1492.2l597.8 212.2-247.1-300.7-96.2 287.5z"/><path fill="#010404" d="M2204.7 1998.3l282 138.4-487.6 5.6 64.2-100.5z"/><path d="M1771.6 1944.1l135.8-72.5-717.9 98.7 18.6 45.3z"/><path fill="#fff" d="M1483 1930.7l-387.2-495.9 9 432 71.2 84.8z"/><path fill="#950000" d="M2045.6 1353.3l-48.8 290.1 563.1-39.8-46.1-297.8z"/></g></svg>