<svg xmlns="http://www.w3.org/2000/svg" viewBox="0 0 3840 2160"><path fill="#592831" d="M0 0h3840v2160H0z"/><g fill-opacity=".5"><path fill="#e33f5e" d="M1893.8 456.4L60 1011l1411.3 15.4 1246-57.3z"/><path fill="#ff869d" d="M2934.7 1173.8l1111.2 46.6L3388.2 844l-411.4 209z"/><path fill="#0c0e11" d="M2023.1 1627l565.2-857.6 1475.2 1483.3-4296-89.3z"/><path fill="#378a6a" d="M313.3 520l-542.8-33.9-3-585 1576.4-133.6z"/><path fill="#c296a7" d="M2824.4 2031.5l139.6-222-274.8-277.2-67.4 116z"/><path fill="#3f876b" d="M2586.4-232.5h1486.1v478L2039 616.4z"/><path fill="#a00f2b" d="M27.2 1012.4l1117.4-162.8 806.3-989.3-2183.4 944z"/><path fill="#83000e" d="M-232.5 1273l1172.3 644.6L2429.9 1565 394 1085z"/><path fill="#b7344d" d="M4072.5 1178.4L3329.7 319 1983 1373.6l482-967.8z"/><path fill="#03241b" d="M1839.1 703.3l-515.6 473.8 131 64.9 434.2 177z"/><path fill="#0d090e" d="M429.8 1509.1l552.7 631.3-916.3 252.1-298.7-820.5z"/><path fill="#00251f" d="M3553.3 1538.4l225.4 531.8 293.8-821.4-892.9-62.7z"/><path fill="#720013" d="M1715.1 1801.3l1730.5 377.6-1361-580.3-1748.9 250z"/><path fill="#fdaeba" d="M4072.5 1250.4l-807.3-88.2-264.6-65 451.4-5.7z"/><path fill="#133930" d="M2995 1052l-434 751-471.4-136.2 564.1-975.2z"/><path fill="#990a27" d="M3543 1122.6l-176.4-111.1L4072.5 398l-299.3 668.6z"/><path fill="#1c4636" d="M2439.6 382.6L127.9 741.3l-15.4-444.9 228 334.4z"/><path fill="#ba2843" d="M-123.2 1847.4L-232.5 2029l1092.1-220.4-644.8 37.8z"/><path fill="#cd536a" d="M3102.8 1331.4l246.8 42-573.7-572.1 101.7-151.7z"/><path fill="#e1556e" d="M1669.7 964l-827 28.4-1075.2 10.7 84.7-165.9z"/><path fill="#c77a8d" d="M3588.3 1609.2l-200.1 396.2 82.7-325 114.3-226.7z"/><path fill="#141e1d" d="M970.7 998l-1203.2 71 1524.3 195 2780.7 597.7z"/><path fill="#56000c" d="M1284.8-139.7L656.8 285l1569.8-24.3-119-246.7z"/><path fill="#dd526a" d="M1871.9 1073.4l228.3-400.5 462 85.6L2379 930z"/><path fill="#59000d" d="M4054.3 1834.4l-1286 120-156.2 153.2 1094.1 284.9z"/><path fill="#cd3659" d="M1297.5 1502.8l-168-6.8 620.1 50.6 201.3-134.3z"/><path fill="#18493b" d="M3218.4 922.2l-274-80.3 36.3-84.6 615.5-26.5z"/><path fill="#0c2624" d="M3193.7 1897.4l-26.5 305.6 387.2-751.6-1353.3-257.5z"/><path fill="#b16d7e" d="M3265.4 681.6l-136.5 192.2 121.7-504.3 59.1 48z"/><path fill="#0d0c0e" d="M1918.5 2104.2l982.3 138.5-831.1-429.2-1711 110.2z"/><path fill="#ea5872" d="M2455.4 861.8l-47.7 174.1-357 267.9-51.3 15.6z"/><path fill="#ae2340" d="M934.5 410L352 482.7l213.8 118 1180-215z"/><path fill="#cd3f59" d="M1564.2 741l-290.4 13.3-98.3 294.1 389.5-16.8z"/><path fill="#23644c" d="M3955.8 255.6l55.3 231.2-66.6 168-400-129.4z"/><path fill="#c398a7" d="M2981.2 1957.4l-196.6-80.6 11.6-207.2-172.3-43.2z"/><path fill="#3d5045" d="M3091.4 157.1L1677 413.1l778.4 332.6-87.8-154.8z"/><path fill="#7f898e" d="M3427 1525.9l197.8 10.6 3.6 62-61.6 148.5z"/><path fill="#d54666" d="M1269 1338l-45.5-16.6-284.9-30.6-88 82.8z"/><path fill="#28453b" d="M2448.1 865.1l251-117.1 296.3 317.9-493.6 11.7z"/><path fill="#b43a52" d="M3002.9 960.3l249-72.5-141.1 276.4-190.3 63.5z"/><path fill="#980e2a" d="M1662.8 743.3l137.7-193.5L819 648-91.3 886z"/><path fill="#aa1333" d="M2539 663l352.4 175.1 483.8-541.4 259.1 104z"/><path fill="#001917" d="M-232.5 1814.1l774.7 10.8 13.9-255.6-619.6-11z"/><path fill="#6e0019" d="M725 1915l1169.1-696.6-46.5-27.6-1497.6 330z"/><path fill="#b02c46" d="M1302 2047l277.4 4.5 62.6 23.7-267 43.2z"/><path fill="#8f2639" d="M1771.3 248.8l724-69.4-689 260.2 377.5-16.9z"/><path fill="#c96878" d="M2809.8 780.8l8.7 123.6L2944 1029l-88-311.2z"/><path fill="#345647" d="M2618.9 397.6L2822.8 609l432.1-181 38-218z"/><path fill="#7c001b" d="M553.1 1085.3l366.1 311.1L-232.5 1610v-402.5z"/><path fill="#471a1f" d="M3681.4 609.6l-185.3 477 576.4 25.8-545.4-133.8z"/></g></svg>