<svg xmlns="http://www.w3.org/2000/svg" viewBox="0 0 3840 2160"><path fill="#564029" d="M0 0h3840v2160H0z"/><g fill-opacity=".5"><path fill="#fff" d="M3290.1 1530.5l-283.4-697.3L4072.5 504v797.7z"/><path fill="#fff" d="M3467.6 1660l604.9-737.5-854-242-150 392.9z"/><path fill="#ffe6ad" d="M2271.7 953.4L2020 2392.5l48.7-872.6-77-1278.2z"/><path d="M851.9 2273.1l-1084.4 119.4v-969.6l951.8 8.2zm2667-306.9l-196.2-594-871.3 1020.3H3639z"/><path fill="#261304" d="M1007.1 2392.5l962.2-159 1.3-2466-1128 1057z"/><path fill="#c68d5e" d="M2389.3 1640.4l388.4-861.2 32.3 1016.4-172.6 303z"/><path fill="#fff" d="M3077.5 1123.8l340.7 355.3 654.3-635-858 1.5z"/><path fill="#d19e61" d="M4070 2271l-534.9-153.7 39-399 276.6 209.2z"/><path fill="#371600" d="M4047 689.9l-569.5-922.4 456 1076.3L2067.8-232.5z"/><path fill="#100000" d="M2196.4 1900.8l-425 491.7h622L2428 812.9z"/><path fill="#100" d="M3701.6 2392.5l-417.2-1014-417.2-313.1 58.7 1280.3z"/><path fill="#ffd289" d="M3549 447.7l159.2-25.8L3525 297l-149.3 111z"/><path fill="#ffffef" d="M3259.9 1412.4l812.6-58.8-432.6-634.8-517 231.8z"/><path fill="#b68a65" d="M2099.2 891.8l-214.6-439.6 407.8-486.5 13.6 484.5z"/><path fill="#3d250e" d="M3459.2 382.3L2280.8-181.1l808 1437.5 41.5-486z"/><path fill="#3d2916" d="M2471.6-181.2l-2704.1-26.6L-69.9 1642l841.6-91z"/><path d="M11.7 1693l767-74.4-87.7 773.9-808.8-100.1z"/><path fill="#ffa741" d="M4072.5 1340.6l-316.7-718.3-585.3 87.2 883 233.2z"/><path fill="#7c581f" d="M4072.5 1379.8l-102.8 778.6-315-554.7-258.5-208.1z"/><path fill="#ffffa5" d="M1012.7 525.4l95.3-5-10.8 150.8-89.8-125.1z"/><path fill="#120400" d="M1199 1722.2l285.3 613.2 480.8-680.8-836.8-89.3z"/><path fill="#fddfb5" d="M1969 1212.8l217.7-417.3-124.1-130 123 517.3z"/><path fill="#e1a082" d="M877.2 1505.6L858.7 1825l57.1-4.6-187.7-70.5z"/><path fill="#b4875e" d="M2588.7 1639.9l-233 217.4 303.5 231.8 215.8-397.9z"/><path fill="#b48658" d="M1992 2128l-13-118.6 334-1167.3-169.4 1210.5z"/><path fill="#211004" d="M2047.6 289.8l309.2-213.3 523.6-34.2-211 210.7z"/><path fill="#e19546" d="M3142.6 752.6l325-292.1-409.8 628.3 47-369.5z"/><path fill="#483720" d="M809.3 1115.1l832.7 506.1 467.5-142.3-211.4-1372.1z"/><path fill="#230b00" d="M3439.3 148.4l633.2 577.1L3528.9 595l270-259.1z"/><path fill="#5e3e23" d="M3192.5-90.5L3074.4 1008l-479.1 174.6-401.4-248.4z"/><path fill="#0a0000" d="M2300.4 1333.6L2518 1453l-121.2-361-82.2-73.5z"/><path fill="#1c1106" d="M1997.7 257l-79.4 601L1819-232.5h820.6z"/><path fill="#513c1b" d="M3050.1 1460.6l412.6 133.8 307-196.6 11 537.4z"/><path fill="#100000" d="M2507.3 2066l42.8-103.5-447.5 106.5 187.8 323.5z"/><path fill="#ffffed" d="M4072.5 1419.4l-114-515.2-744.6-190.6 30 615.2z"/><path fill="#3b1804" d="M2087.6 620l-34-182 188.3 123.6 305.6 37.4z"/><path fill="#ffffec" d="M1990.1 297l2.7 72 18 199.8 69.5-361.2z"/><path fill="#806948" d="M2703.2 550.2l65.2-187.6 53.7 309.2-184.8 622.5z"/><path fill="#ddc89e" d="M2985-232.5L2132.2 157l-121.7 163.5 585.8-553z"/><path fill="#ac8657" d="M3777 1388.1l273.9-133.6-24 645.5-324 492.5z"/><path fill="#523615" d="M3415.2 1438.7l134.4 41.2 522.9 591.3-413.7-685.7z"/><path fill="#6f593a" d="M3512.2 219.8L3664 381.5l-669.8-211.4-5.6 388.4z"/><path fill="#3d250b" d="M3255.7 1452.6l-624 179.2 209-285.9-11-839z"/><path fill="#deb07e" d="M2681.7 1718.4l-14.8 229-70.2-61.7 98.6-490.3z"/><path fill="#e3c192" d="M2905 63L2679.7-8.1l-35.6-22.4L2828.6-214z"/><path fill="#210600" d="M3228.4 710.7l-121.3-193.5 350.5-195.9-272 461.6z"/><path fill="#200d00" d="M2210.2 1833.2l-99.6-116.4 423.2-474-313.2 682.3z"/><path fill="#4d2413" d="M2692 787.2l-117 354.6L2199.5 882 2445 227z"/><path fill="#dcaa73" d="M3666.2 2167.9l406.3-279.7-571.9 31.4 571.9 146z"/></g></svg>