<svg xmlns="http://www.w3.org/2000/svg" viewBox="0 0 3840 2160"><path fill="#8d918d" d="M0 0h3840v2160H0z"/><g fill-opacity=".5"><path fill="#fff" d="M2590 162.1L-84.3-232.5-232.5 806.1l2704.6 64.3z"/><path fill="#171917" d="M3724.4 1128.3L552.2 807.7l163.8 745 1939.3 839.8z"/><path d="M2010 2.2l1086.7-89.7L3410.8 152l-99.7 542z"/><path fill="#fff" d="M3421.9 255.2L3881 582.9l-31.6 569.7L3355 1115zm-433.4 1681.3l174.6 456 804.3-85 22.7-1086.2z"/><path fill="#e2e8e3" d="M-232.5 2259.8l1278.7-276.1L450.7 947.2 52.9-232.5z"/><path fill="#fff" d="M1991.3 1938.2l-373.3 153 114-274.7 383-251z"/><path d="M4045.8 532.5l-512.4-155.3 185-327.8 354.1-28.7z"/><path fill="#232522" d="M1722.6 1277.4L3301.1 1104l-40.4-406.7-2026.4 341.3z"/><path d="M1424.5 1566.3l-575.8 96.2 805.6 291.2-210.8 438.8zm2190.4-150.9l457.6-252.8-703.8 8.2-143 224.5z"/><path fill="#1a1e1f" d="M587.5 1310.1L553 1123.5l538-472.7 144.4 652.4z"/><path fill="#edf3ec" d="M2800.9 774.2L1447.5-213l-1680 286.7 2049.2 844.8z"/><path fill="#d5dcd5" d="M3093.7 1831L2965 2392.5l1107.5-829.7-770.6-173z"/><path fill="#d8dcd7" d="M687.2-232.5L540.9 1495.9-64 1624.1-232.5 14.6z"/><path fill="#fbfffb" d="M2381.9 371.5l-711 88.2-606-138.2 1533.7-198.8z"/><path fill="#171d18" d="M3422.3 376.7l-561.9-318-315.8-155.9 71.5 606.4z"/><path fill="#0d0d08" d="M3018.4 2204.3l-181.1-13.3-314 138.6 528.8-464.2z"/><path fill="#d3d7d1" d="M3340 576.5l-63.6 455.4L4028 483.8l-2128-7.2z"/><path fill="#fdfffe" d="M985.5 2392.5H1333l92-466.2-407.9 223.6z"/><path fill="#000100" d="M4059.5 445.6l13-622-534.3 434.2 206.5 223z"/><path fill="#969691" d="M3256.8 1357.5l-1080.2 60.6 502.3-217.8 945.7 316.6z"/><path fill="#474741" d="M3104.4 955.7l309.1-354.6L2698 741.6l-535.9 550z"/><path fill="#161c1b" d="M2345.3 1432.7L1699.5 1845l-312.3 547.4 83.2-720.8z"/><path fill="#e0e5df" d="M4072.5-139.1l-592.3 274.7 592.3 1087.6-720-924z"/><path fill="#343938" d="M596 1358.5l558.5-243.5-586.6-437-.5-94.5z"/><path fill="#acb0ac" d="M1395.6 1998.5l-1628.1 292.6L394.8 1221l670.8 531.5z"/><path fill="#090e0c" d="M1736.3 67.6l296.4-45.4 770.8 107.4-841.7-362.1z"/><path fill="#1e251d" d="M3352.3 105l430.3-272L3354 290.7l2.4-192z"/><path fill="#dee5dd" d="M2056.4 1829.7l-170.6 216.8-248.5-253.6-100.9-.3z"/><path fill="#edf4ec" d="M2213.5-126.8L2081.2-9.4l575.2 491.3-715.8-47.2z"/><path fill="#3a3e3e" d="M2564 1311.4l155.7-333L1400.8 866l-510.5 442.3z"/><path fill="#d6dad5" d="M2427 838.6l263.1-5.9-8.4 32.6-109.2-584.7z"/><path fill="#171c1c" d="M791.2 1552.5l462.4 8.4 273.5 345-307.7-67.4z"/><path fill="#959798" d="M1145.2 1440l58.9-67.7-77.2-105.8 486.8 90.7z"/><path fill="#c6cac7" d="M921 407.9l1349.4 66-808.5 372-244.1 52.6z"/><path fill="#2e342f" d="M2981.3 481.4l-572.9-199.3L3107-75.3 3326.5-43z"/><path fill="#cad0ca" d="M3451.4 11.7l621.1-77.2-655.7-167-206 475z"/><path fill="#000202" d="M3479.7 1434.5L4072.5 997l-107.8 233.2 107.8-2.7z"/><path fill="#878c88" d="M-232.5 2173.3L742 1638l129.8-141.3-822.5 259.8z"/><path fill="#030807" d="M2717.3 14.4l-230-246.9-249.6 398.3 107 5z"/><path fill="#a3a6a5" d="M1447.9 1584l-176-88.3 824.7-16.1-639 79.4z"/><path fill="#0b0f0f" d="M1292 1382l-444.7 131.8-197.9-126.7 233.6 5.7z"/><path fill="#d2d6d3" d="M-189.6 1155.4l334.7-691.1 437.6 964.6 6-785.3z"/><path fill="#dbe0db" d="M4072.5 517.5L3363 451.1l-23.4 241.6-24.8 367.3z"/><path fill="#e6ece6" d="M2497.3 60.4l130.5 121.9-471.3 106.5 158 59.8z"/><path fill="#363a39" d="M745 1033.2l695.2-158.6-430.1 758.7 106.5-981z"/><path fill="#e7ece7" d="M1855.3 905.2L366.2-232.5l1871.3 389.7-899.8 687.1z"/><path fill="#52534b" d="M3174.1 1347.2l-943.3-95.1 341.2-233.4L2770.7 425z"/><path fill="#c7ccc8" d="M290.2 1918l515.2-415.6 23.3 90.4 393.1 244.2z"/></g></svg>