<svg xmlns="http://www.w3.org/2000/svg" viewBox="0 0 3840 2160"><path fill="#71727c" d="M0 0h3840v2160H0z"/><g fill-opacity=".5"><path fill="#fff" d="M1454.3-103.4L-232.5-232.5l238.1 2625 1269.2-427.3z"/><path d="M4050 2392.5l22.5-2236-1342.3-303.1-194.8 2327z"/><path d="M1623.6 1128l1466.2 1052.7-1129.4 42-777-958.5z"/><path fill="#fff" d="M1615.7 1839.6L570.8 230l-803.3-462.5v2475.7z"/><path d="M2765.7-232.5l32.6 2508.8 1140.6 41.6L4072.5 290z"/><path fill="#d4d5e8" d="M2196.4 1412.2l609.1-349.7-1159.3-130.2 370.6 595.1z"/><path fill="#00000e" d="M2542.1 2255l-714.6-1037.6-455.8-55.6-184.7 264.4z"/><path fill="#fff8f3" d="M1292.6 1158.2L-59.1 2210-232.5 671.1l1604-674.3z"/><path fill="#ab9eab" d="M2754.2 1477.5l140-155-1054.4-1555 342.6 1277.2z"/><path fill="#2b2344" d="M1506.6 849.8l26.1-780.3 381.3 5.6 21.8 817z"/><path d="M2502.2 1377.4l-282 406-131.2-39.5 426.2-588.9z"/><path fill="#ced5f0" d="M2285.5 1762.4l184.7-351.8 268 280-284 95.1z"/><path fill="#00193c" d="M4072.5 1401.8l-584.6 990.7-1374.7-116.3-880.2-137.6z"/><path d="M4072.5-232.5L2624.4 1595l-106.5-267.5 789.9 708.6z"/><path fill="#8ea9d8" d="M670.3 2392.5l1036.6-445.1-97-219.7-1346.7 151z"/><path fill="#fff" d="M1867.2 983.6l-95.4-49-218.1 223 335.2 9.2z"/><path d="M2812.8 922.5l1259.7 416V310.3L2912.3-130z"/><path fill="#d6d8e8" d="M2078.6 1461.1l-171.6-61.6 583-477.3-164.3 540.5z"/><path fill="#3c5274" d="M3854.6 1774.8l-395.2 217.7-445 69 586.4-434.5z"/><path d="M1475 1602.7l1000.3-68-558.8-79.7-617.5-286.4z"/><path fill="#474a69" d="M1908.1 1193.3L1882 968.9l341 25.8-300.1 326.2z"/><path fill="#b4958c" d="M94.4-232.5h23.5L1154-34.5l-149.4 569.7z"/><path fill="#83989e" d="M1806.4 1459.2l308.8 373.6-214.2-137.2-26.7-156.6z"/><path fill="#f0f9fb" d="M1399.3 1811l-776.5-557 861 344.2 142.3 287z"/><path fill="#c7c3c2" d="M2553.2 1319.8l-332.7-384.7 112.4-115.4 446 724.2z"/><path fill="#848aa6" d="M1724.7 1184.7l-49.2-133.4-806 358.2-59-198.2z"/><path fill="#000001" d="M2700 1498.8l-269.9-286.2-243 592.2 279.8-399.7z"/><path fill="#000615" d="M1356 1186l566 225.8-159.8 420.4-580.8-474.7z"/><path fill="#a898a2" d="M1431.6-232.5l560.8 442.4 365.2 273.6 12.7-469.2z"/><path d="M2749.2-110.3l380 1246.1 786.3-1368.3-339 384.4z"/><path fill="#000007" d="M4043.5-142.6L2669.8 1591.6l41 153.9 1206.5-523.4z"/><path fill="#000620" d="M2224.5 1819l189.7 101.4-270.6-503.5-221.4 165z"/><path fill="#5a576d" d="M2794 1455.8l186.2-128-469-748.8-209.6 36.7z"/><path d="M3693.3 1921.8l-661.5 238.4 926 75 114.7-438.6z"/><path fill="#b6a5bb" d="M1405.3 1239.8l-112.7-208.3 40.7-897 131.9 35.9z"/><path fill="#acada6" d="M3083.3 1042.5l63.1 66.5-176-136 72.2-11.2z"/><path fill="#4e506c" d="M1518 986l391-701.8-314 1035.3-282-321.6z"/><path fill="#fff9f6" d="M1295.9 1255L1086.7-232.4h281L984.4 982.3z"/><path fill="#473b4b" d="M2930.8 183l-1394.4-6.5 579.5 138 299.3-227.6z"/><path fill="#10283c" d="M1841.3 1914l317.8-355.5 438.6 487.8-1512.1 346.2z"/><path fill="#687390" d="M1795.6 2033.1l-286.2 55.7-444.2 229.2 29.1-443.1z"/><path fill="#ffe6d8" d="M-69.7-183.9l13.4 754.6 910.5-147 463 243.4z"/><path fill="#d8eef0" d="M1016.7 1654.4l-1233.2 616.3 773.5 83-789.5-868z"/><path fill="#9c909b" d="M1993-232.5l-178.7 336.4L2514 475.3l-565 571.4z"/><path fill="#4d362f" d="M2358.2 287.9l209.2-520.4L2451-132.1l59.7 597.3z"/><path fill="#fffffb" d="M1672 1127.2l177.2 100.5-6.2-375.3-146 202.2z"/><path d="M1599.1 1381.4l14.2-221.5 246 81.5 107.3 381.2z"/><path fill="#000111" d="M2516.3 1282.2l-135.4 8.5 561.9 522.4 162 149.8z"/><path fill="#403856" d="M2657.7-232.5l-65.6 1316.7 181-810.7 74.7 393.6z"/><path fill="#c6d1d7" d="M2594 1298l-194.6-122.4 339 294.9-64.5-256.6z"/></g></svg>