<svg xmlns="http://www.w3.org/2000/svg" viewBox="0 0 3840 2160"><path fill="#646b3d" d="M0 0h3840v2160H0z"/><g fill-opacity=".5"><path fill="#fb7ca4" d="M852.6 1235l-24.8 125.4 1392.5 461.4 786-830z"/><path fill="#edb9ba" d="M-172.8-232.5l-59.7 674.3 1297 78.2L1549-232.5z"/><path fill="#0e152c" d="M3807.7-232.5l211.1 1327.3L2731 981.4 1658.2-48z"/><path fill="#012400" d="M1045.5 954.4L1466 598.8l884 270.7-605 384.5z"/><path fill="#68c80a" d="M2122.3 1590.5l709.4 743.3 894.7-12 346.1-629.7z"/><path fill="#113b0b" d="M645.2 1367.1l-449.9-97-322.6-798.6 1189.9 551z"/><path fill="#53ad0d" d="M82.4 2327l-217.3-1129.6L2050 1827.5l9.3 556z"/><path fill="#7d1a6d" d="M2972.1 931.1l35.4 47L2302 1593l1512.7-7.9z"/><path fill="#ffa087" d="M2169.2 2003.8l233.2 31.5-80.9-266.2-269.3-175.6z"/><path fill="#cf77b9" d="M2696.2 914.5l-748.4 344-389.2 354.8 1259.8-249.9z"/><path fill="#d68442" d="M1959.8 1346l-673.1-267-526.6 129.2 397.8 458.6z"/><path fill="#475474" d="M1360.4-222.6L1229 450l1388.3 100.6 61-783.1z"/><path fill="#110e03" d="M3547.4 1630l-511.3 22.3 52-426.4-151.8-60z"/><path fill="#19200d" d="M1693.9 881.2L676.5 1132.7l1871.5-99.6-275.3 162z"/><path fill="#373322" d="M2616.3 1513.3l83.6 92-431.3 80.3-293.8-87z"/><path fill="#c66a9b" d="M3287.3 1131.8l225.3 226-3.6 241.8-546.7-519z"/><path fill="#6b2b17" d="M769.9 1112.4l173 371 506.3 245.6-660.6-55z"/><path fill="#69a911" d="M4072.5 977.6l-77.8 633.5-502-183.8-146.2-407z"/><path fill="#415e2e" d="M782.8 871.6L193.2-232.5l523.6 632.4-481.9 125.6z"/><path fill="#1a2623" d="M3156.8-232.5h-290.2l-334 1171.7 745 143.2z"/><path fill="#e699ca" d="M2219.5 1155.6l-275.4 122.9 667.2 241.5-58-312z"/><path fill="#8cbc50" d="M2499.3 876.5l-63.8-263.1-379.8-123.9-396.1-55.4z"/><path fill="#af4c97" d="M2842.5 925.2l8.3 140.5 104.1 196.2-715.7-205z"/><path fill="#7f4b24" d="M1590.9 1476.2L842 1622.8l1366 147.5-643.6-177.6z"/><path fill="#6aae00" d="M1367.4 1653.6l-430 112.6 1061.7 212-27.6-192.7z"/><path fill="#45591c" d="M2157.5 1149.4l323.4 13.5-81-293.7-797.1-416.6z"/><path fill="#88cb15" d="M2576 1638.5l816.9 47.2-394.7 144.3-592.6 22.7z"/><path fill="#224209" d="M3119 1081.4l743-86.7.6-206.2-1135.1 151.3z"/><path fill="#1d3008" d="M1465.3 927l730.8-76.2-363.8 386.3-183 21.8z"/><path fill="#69aa35" d="M607.2 1304.5l-801.3 193.3 978.3 568.8-184-806.2z"/><path fill="#5d452a" d="M3338.8 904.6L3148.3 771l114-482.8 810.2-263.3z"/><path fill="#bea592" d="M226.8 26.5L561 59.2l375.1 551.6L1414-232.5z"/><path fill="#2f6128" d="M-112.5 1830.5l624 239.4-163.3 292.3-580.7-330.4z"/><path fill="#d39f70" d="M959 1066.5L819 1326l722.9-227.2L1137 1340z"/><path fill="#203813" d="M859.8 1223.7L698 1361.5l-353.4-110.2L688 803.5z"/><path fill="#404658" d="M2841.4 571.1L2569 965.6 2110.1-58.2l-850.4 433.4z"/><path fill="#537d36" d="M-232.5 1233.3l1413.4-777.8 82.2 534.2-865.7-253.5z"/><path fill="#587926" d="M1755.7 467.3l743.6 376.2-228.5 100-1170.2-246.4z"/><path fill="#3a1e29" d="M2877.4 1305.3l-90 346.4 678.3-54.6-472.8-221.8z"/><path fill="#624326" d="M1319.5 1449.1l40.9-281.4-38.1 159.7-152 109.3z"/><path fill="#dfa175" d="M1890 1182.8l-320.6 192.7 330 269.5 75.2-332.5z"/><path fill="#bd788e" d="M3648.4 1601.3l-458-310.1 827.6 521.4-263-296.2z"/><path fill="#c79989" d="M-127.7-232.5L421 268.2 718 130 188.8 558.4z"/><path fill="#518422" d="M4072.5 2092.3L2757.7 2053l-340.4-242.3-38.8 581.9z"/><path fill="#e99877" d="M1538.8 1421.3l-166-35.5 238.2-228.1-342.3-37z"/><path fill="#93466d" d="M2907.6 1682.2l-47.2-331.5-541.3-317.4 642.8 684.2z"/><path fill="#828561" d="M1315 90.3L960 524.7l882-73.7-480.8 145.8z"/><path fill="#de986e" d="M2108.6 2076.8l130.4-306.1 189 52.6-143.8 149.5z"/><path fill="#3b4b1d" d="M786.5 1025.2l405.5 222 15.6-506 796.8-69z"/><path fill="#86ad54" d="M2776.1 1699.2l126.9 265 164.7 30.6 63.8-220.5z"/></g></svg>