<svg xmlns="http://www.w3.org/2000/svg" viewBox="0 0 3840 2160"><path fill="#5c5d6d" d="M0 0h3840v2160H0z"/><g fill-opacity=".5"><path fill="#480000" d="M3363.2 1047.6L3350-232.5l514 136.4 208.5 709.5z"/><path fill="#5f120e" d="M2912.5 1702.5L2240.8 205.7l-421.5 406.2 626 1042.1z"/><path fill="#001f3b" d="M1918.5 1499.4l-587.2-854.9-4.8 996.4 349.4 146.3z"/><path fill="#7c8291" d="M-138.8 2225.8L-116 421.5l980.7 241.4 664.8 1672z"/><path fill="#4b81ae" d="M3444.8-216l-239.2 780.5L748.6 363l666-595.5z"/><path fill="#ac9898" d="M3364.9 1738.6l-835.5-217.4 1141.1-214.4 402 574.2z"/><path fill="#0b1621" d="M2321.4 414.2L2005 672.5 2125.4-115l103 17z"/><path fill="#500" d="M3799.3 908l221.4-1140.5H3334l106 1025.8z"/><path fill="#000009" d="M2131 488l-.8-172.2 678.3 893.2-372.3-225.2z"/><path fill="#583402" d="M-80.8 309.3L883.6 258l37.9-490.6H-222.3z"/><path fill="#036b8b" d="M3739.4 1435l-608.3-395.8 573.5-184.4 367.9 391.2z"/><path fill="#0a182b" d="M1314.5 885.8l671.6-107.6-774 465.7-286.3-239z"/><path fill="#a2424d" d="M2790 1482.4L2257 1702l-527.5-916.3 388.4-97.9z"/><path fill="#74839e" d="M1657 829.6L-232.4 676l1605.2-347.4L1675.2 464z"/><path fill="#8d9499" d="M1615.1 1130.8l118.8 169.3 487.2-83 173.7-250.7z"/><path fill="#2c4d61" d="M785.3 134.2l-163-366.7-308.4 1265.1 444.7 84.5z"/><path fill="#82829b" d="M3343.6 1263.3l-63.7-1458-137 1197.7 98.1 1385.5z"/><path fill="#ffd196" d="M58.7 618.5l-291.2 22.2 562.3 118.5L169 581.5z"/><path fill="#9f99a0" d="M1010.5 1188.2L746.8 707.7l108.7 733.6 573-153.1z"/><path fill="#7c001c" d="M1949 1437.5l552.2-467.3-133.3 775.1v-477.2z"/><path fill="#529cbd" d="M3170.9-124.8l-483.4-98.7-202.2 684.9 621.6 75.3z"/><path fill="#5e2800" d="M2759 1684.4l619.2 271.8-269-261.3-836-150z"/><path fill="#314964" d="M3070.7 1314.2h-531.1l70.6-811.2L3188 663.5z"/><path fill="#7b0016" d="M2730 1383l-281-26.3-230.4 288.2 297.2-17.9z"/><path fill="#a6a697" d="M2167.5 1347.5l243 21.7-154.3 184.8-208 29.8z"/><path fill="#000009" d="M1738.1 605.2l594-274.4-501 401.1 16.2 17z"/><path fill="#742f00" d="M3412.4 809.6l660.1 167.7-160.2-486.5L3383 217.2z"/><path fill="#250000" d="M4072.5 519.8l-29.2-752.3h-861.7l349.2 561.8z"/><path fill="#617193" d="M1557.7 2392.5l-448.1-724.1 1992 134.5 970.9 363.5z"/><path fill="#448a9a" d="M-232.5 456.7l835.2-193L479 532.3l-338.6 95.2z"/><path fill="#100700" d="M686.3 81.5L838.8 312l106.7-544.6h-231z"/><path fill="#0d283f" d="M1125 1561.7l361.4 158.8 369.7-202.2-559.7-98z"/><path fill="#5b8e8a" d="M3623.3 808.7l-318.6 183.9 743.6 53.2-6.8 62.7z"/><path fill="#004a68" d="M3758.9 949.6l183.1 495.6-469.6-150.6-181.3 44.2z"/><path fill="#000006" d="M2441.2 1111.1l233.7-204.3-424.7-67L2428.6 619z"/><path fill="#33393c" d="M3640.4 2060.2L3517.3 1746l-366 155.3 791.9 1z"/><path fill="#85492d" d="M2093.7 550.9L2372.2 668l-381.7 354.6L1877 720.9z"/><path fill="#99899a" d="M4072.5 1483.3L3737 1934.8l-531.5-663 609.4 148z"/><path fill="#3e8545" d="M-158.5 342.8l414 84.5-35.2-217.2-231.9-.2z"/><path fill="#092134" d="M1098.6 1116.2l200-314.4 74.7-26.7L1843 993.3z"/><path fill="#797d9c" d="M1102.6 1051.1l56.9-1283.6 298 814.4-496.9 632.7z"/><path fill="#7f7b6b" d="M2679.3 1735.7l695.2-311.2-1067.6-134.7 404-52.7z"/><path fill="#403f42" d="M57.7 683l672.9 250.9 62.8 303.8-158.6-192.1z"/><path fill="#874f26" d="M518 314.3L237 311-232.4-37.1l782.3 50z"/><path fill="#3c5b6f" d="M2532.2 58.6l-644.6 435 384.9-75.9 363.8 586.1z"/><path fill="#383530" d="M3415 1904.6l-94.2-169.4 25.4-430.1 97.6 577.7z"/><path fill="#6b7397" d="M798-232.5h971.7l-639.2 989.6-50.6-221.1z"/><path fill="#908b94" d="M1374.9 1327.6l-182 136-467-253.3 209.8-110.6z"/><path fill="#848599" d="M2045.3 1275.2l-144.5 269-101.6-495.7 136.1-92.8z"/><path fill="#553a5a" d="M1213 1164.1l-30 8.3-113.1-582.7-211.6 313z"/></g></svg>