<svg xmlns="http://www.w3.org/2000/svg" viewBox="0 0 3840 2160"><path fill="#384452" d="M0 0h3840v2160H0z"/><g fill-opacity=".5"><path fill="#fdffff" d="M2328.2 1045l-441.5 585.8 724.8 510-1671.9 251.7z"/><path fill="#96f8ff" d="M1971.3 407l-517.5 792 244.4 54.3 625.4-206z"/><path fill="#b1ffff" d="M595.7 126.4l501.9 636.1L854 995.1 414.1 148.7z"/><path fill="#ffc7d0" d="M2912.3 2017.7l-820.9 111.8 1517-730.1-107.2 170z"/><path fill="#ffbec8" d="M724.6 1879.7l1483.9 512.8-1205.4-603.6L2 1226.2z"/><path fill="#000413" d="M1527.5 869l403 126.5-1084.4-1228 442 2230z"/><path fill="#320000" d="M4072.5 508l-613 1185-880.1 699.5 1184.6-106z"/><path fill="#00132a" d="M2042 475l897 1436.6L4072.5 76.1 1886.2-232.5z"/><path fill="#4d0000" d="M-232.5 841.4l823.6 1057 1210.6 416-1941.3 73.6z"/><path fill="#a2cfe2" d="M1775 3l-163.3 442 226.3.8 70-352z"/><path fill="#032338" d="M-232.5 1235.7l2432.2 560.6L708 838.8 315.3-232.5z"/><path fill="#99d1c6" d="M1685.5 1878.3l30.1-503.2 254.4 49.4 280.3 875.4z"/><path fill="#c2fcff" d="M1012 942L757.8 684.2l39-292.7L1047 663.6z"/><path fill="#7dcae2" d="M1513.2 1003l879-236.2-73.2 182.7-766.5 385z"/><path fill="#000007" d="M1175.6 553.3L1150 386.6l196.3-619.1L159.5-97.3z"/><path fill="#193650" d="M2125.2 2046l872.4-265.4L4072.5 924 2761.8 443z"/><path fill="#dea3ad" d="M3485 1335.9l-544.8 724.7-577-92.8 1268.4-390.4z"/><path fill="#f6b9c2" d="M676 1709.4l545.3 140.1L910 1907l-103.2 151.5z"/><path fill="#12324a" d="M719.1 1745.5L282.3 1196l1829.4 372.9-710.8 266.7z"/><path fill="#6b3141" d="M1945.9 2187.7l-275.2 204.8 76.4-491.7 222 95.7z"/><path fill="#d4f4f1" d="M1426.2 1877.1l165.6-131.6 685.7 106-552.5 123z"/><path fill="#eab3bd" d="M144.4 1391l51.2-88.9 131 44 487.6 512.2z"/><path fill="#932f36" d="M2782.9 2329.8l340.9-289.2-385.3-79.6-804.1 431.5z"/><path fill="#15314b" d="M2138.9 1568.6l21.7-415.5L2975 202.3l-707 1887.9z"/><path fill="#030409" d="M2545.4 513.8l-399.7 285.4-176.8-593 399.9-438.7z"/><path fill="#04131f" d="M1685.6 1510.2L811.1 998l792.2-347L415.8-232.6z"/><path fill="#f6dae2" d="M1916.5 1772.4l344.8 323.1 541-248.2-808.5 545.2z"/><path fill="#944048" d="M1079.2 1907.8l552.4 484.7-744-244.5-310.4-277.3z"/><path fill="#57a1a1" d="M2150.6 1422.3L1348 1855l517.2-89.6 410-959.2z"/><path fill="#0d1b2b" d="M627.4 288.3l-859.9 590 82.6-755.8-17.4-315.4z"/><path fill="#52bdc5" d="M3779.7 915.2l292.8-279.6v92.9L3586.2 1250z"/><path fill="#e7d0d8" d="M1513.2 2019l69.4-203.4 178.2 468-854-456.4z"/><path fill="#001013" d="M4072.5 1586l-475.9 263.8-26-470.7L3866 952.6z"/><path fill="#000001" d="M2038 1146.4l28 160-354.9 102 45.7-139z"/><path fill="#615631" d="M1252.8 419.2l727.5-346 139.7-235-907.5-70.7z"/><path fill="#679fbc" d="M1602.5 667.8L2315 811.7l-187.9 588.1-75.8-957.1z"/><path fill="#7cc1d4" d="M1023.5 625.1L569.1 150.6 488 580l22-75.4z"/><path fill="#3e888f" d="M1450.2 1108l212.2 381.8 538 333.5-745-793.6z"/><path fill="#4693aa" d="M773.4 1004.2l-115-256.7L524 205l384.6 697.5z"/><path fill="#89b4d3" d="M1956.2 274.5L1773.6 28.9l-49 407.5-134.1-212.7z"/><path fill="#042967" d="M1392.4 1331.6l85.7 751-218.1-203.9 41.6-860.4z"/><path fill="#699772" d="M1620.2 1608.5l213.3-89 331.7 283.5-555.9-84.2z"/><path fill="#20374d" d="M3626 1256l-612.7 540.8-247.3 73.7-632-717.5z"/><path fill="#f2dce2" d="M2498.7 1904.4L2084 2392.5l-91.2-265.5 1150.6-290.8z"/><path fill="#6c3237" d="M605.6 1707.4l294.1 482-743.2-725 219.2 62.3z"/><path fill="#112335" d="M2455.4-91.8L4032-19.4l-843 1611.6 883.6-1010z"/><path fill="#531e22" d="M3098.1 1847.7l-276.3 544.8 1250.7-347.8-512.5-541z"/><path fill="#000a17" d="M1647 1500.7l-81.8 295-80.9-61-174.7-764z"/><path fill="#a5e5ed" d="M1664.7 938l-223.5 162.3 341.4 36.2-73.3-215.4z"/><path fill="#d6c1c8" d="M1474.2 2029.4l162.7-269.6 39.5 632.7L882.8 1705z"/></g></svg>