<svg xmlns="http://www.w3.org/2000/svg" viewBox="0 0 3840 2160"><path fill="#816246" d="M0 0h3840v2160H0z"/><g fill-opacity=".5"><path fill="#ffffdf" d="M4072.5 2068.8l-1560.3 323.7-898.1-261.8 2262-695z"/><path fill="#ffffdc" d="M820 1783.9L161.9 1032l-394.3 1074.3L-20 2392.5z"/><path fill="#091e00" d="M-232.5 698.7l3160.8-107-998.8-824.2-2162 243.7z"/><path fill="#2c0000" d="M1948.4 1786l-1396 467 1808-1895 89.9 892.2z"/><path fill="#eaa991" d="M1858.3 2088.9L3811 383l-328.4-177.5 174.6 744z"/><path fill="#171513" d="M3023-232.5l-426.5 732.6 1330.4 297.7-766.8-665z"/><path fill="#fff0ac" d="M1164 1394.7l-257.2-207L314 2392.5l-546.6-833.2z"/><path fill="#ffffe9" d="M2980.7 858.8l146-267.5-387.4 95.3 43.2 160.2z"/><path fill="#001000" d="M3801.2 473.5l-469.7-706h-292l1033 292z"/><path fill="#ffefc6" d="M4072.5 1433.4l-2076.8 959.1H1955l2117.6-311.8z"/><path fill="#e29380" d="M1668.7 825.5l4.6-176-542.2-48.7L369 1003.7z"/><path fill="#431817" d="M3735.1 1453.8l-49.7-506-595.2 459.8-722 446.8z"/><path fill="#130000" d="M1647.7 381.2L2147 999.5l82 423.9-407.5-16.3z"/><path fill="#fadb93" d="M1035.4 2023.6l213 368.9 317.7-535.1 167.4 449.3z"/><path fill="#001800" d="M1223.7 52.4L100.9 810.8l407.4-84.4 1836.4-934.2z"/><path fill="#fffbe2" d="M2561.8 525.7l3.3 239.4-200.3 7.6-88.2 52.7z"/><path fill="#f4d365" d="M2355 2171.7l204.5-997.4-247.7 414L3408.6 2291z"/><path fill="#b2672d" d="M2012 370.2l52.9-190.6 941-118.6-1046.7 583z"/><path fill="#491210" d="M253.3 1096l1149 721.4-525-441L676 1071.6z"/><path fill="#6c2531" d="M2137 1091.6l671.6-192 386.5 435-770-35.6z"/><path fill="#32224d" d="M3511.4 1415.7l-55.2 147.4-568.9 12.2 480.4 194.2z"/><path fill="#ffffd9" d="M3122.4 965.6l245.2 88-189.8 119.8-192.3-141.2z"/><path fill="#033100" d="M677.3-232.5l-624 316 296 110.6 400.2 757.2z"/><path fill="#ecab93" d="M2350.8 1567.5l-63.2-216 788.8 37-182.4 127z"/><path fill="#a13c29" d="M829.8 606l416.5 184.6 59.9-502-307.6 237.6z"/><path fill="#5d2219" d="M2357.8 1541.8l40.4 416.9-976.3-192 1372.3-9.3z"/><path fill="#bd544e" d="M1741.7 1269.5l62.4-236L431.7 1610l1061.6-117.4z"/><path fill="#ffcfab" d="M3494.3 667l125.4 136.8 18.4 232.4-418-311.2z"/><path fill="#eabf78" d="M2051.1 1536l136.8 214.2 939.1 269-395.5-203.3z"/><path fill="#c5884a" d="M730.7 799.7l-569.8 815.5-393.4-1094.1 485.6 595.4z"/><path fill="#6d6e31" d="M534 394.9l-766.5 84.5L100-105.9l-222.4 1316.5z"/><path fill="#1e0300" d="M3055.6 269.4L2206 441.2l-92.6 132L3124 495.8z"/><path fill="#614928" d="M3805 1592.6L3877 509l-122.5-213.7L3635 1577.7z"/><path fill="#dcd6c6" d="M1135.5 885.3l176.9-82.5-374.7-79.5-85.8 89.5z"/><path fill="#c09470" d="M3328 315.4l514.3 97.9-231.2-226-577.5-287z"/><path fill="#ecb57d" d="M252.9 1447.7l780.7 417.7-237.9 45.8-42.2-301.7z"/><path fill="#53980e" d="M1148 55.1L997.8 305.8l-379-123.5 77.8-149.2z"/><path fill="#170100" d="M1497.4 1644.4l-557-172.6 162.8 261 335-88.5z"/><path fill="#c85355" d="M864.7 1413.7l-16.5-145.9 618.5-392.6-735.5-7.4z"/><path fill="#f6eae7" d="M3092.6 2354.2l667.4-485.8-709 34.4 7 218.7z"/><path fill="#8e3b36" d="M3723.2 2019.8l-179.6 2 528.9-246.8v-43.7z"/><path fill="#f8ffba" d="M117 2392.5l447.8-700.2L485 1403l-717.5 898.2z"/><path fill="#7c3533" d="M-232.5 427.7l790.7 1028 21.4 225 203.9-274.2z"/><path fill="#150000" d="M1018.5 1128.4l221.2 139-198.8 37.2 91 714.9z"/><path fill="#e0a777" d="M2099.8 1956.8l60-120.4 300.9 434.7L801 2179.4z"/><path fill="#002a00" d="M3252.8-232.5l271.5 308.7 548.2 621.4-234.2-930.1z"/><path fill="#743d27" d="M2383.3 1860.2l-690 130.7-582-93.2 1483.2-205.8z"/><path fill="#eedcb9" d="M3598 1501.6l-173.2-10.2-67.5 78.5 715.2 398.9z"/><path fill="#5f4140" d="M3277.1 847.8l745.2 480.4-682.8 257 120.4-307z"/><path fill="#633122" d="M1608.2 1155l49 1148.4 264.3-491 436.5 100.2z"/></g></svg>