<svg xmlns="http://www.w3.org/2000/svg" viewBox="0 0 3840 2160"><path fill="#414f48" d="M0 0h3840v2160H0z"/><g fill-opacity=".5"><path d="M2308 1939.2l-1266.2 163.5 268.4-825.6 1194.6 86.2z"/><path fill="#948879" d="M2696.7 739l1375.8-246.7-195.1-724.8L2798-21.5z"/><path d="M2074.1 613.7l393.3 345.4-1240.8-55.7L1796 474.6z"/><path fill="#e7855c" d="M708.4 584l238.5 536.4L403.3 640l296.9-320z"/><path fill="#727b65" d="M4072.5 1982.7L3759.2-232.5 3083 1488.8l-152.7 194.6z"/><path fill="#be7652" d="M-93.2 1820l590-148.2 560 159-752.4 104z"/><path fill="#300f00" d="M413.8 721l-484.3 97.6 382.2 456 574.8-218.9z"/><path fill="#a55431" d="M2041.6 1411l-415.2-175.7-5.9-392.6 651.8 198z"/><path fill="#b9775f" d="M1482 1215.4L333.7 641l666.2 456.5-560.7 68.6z"/><path fill="#396f6d" d="M849.4 609.6l2792.1-187.7-575.9-654.4-2528.1 85.3z"/><path fill="#f08b6d" d="M3447 423.1L4072.4 224l-345.8 338.4-747.5-56.5z"/><path fill="#050609" d="M1361.3 2157.6L1179.6 1825l394.5-1269.4 36.4 1050.5z"/><path fill="#482411" d="M488.7 734.8L464 1488.4l-184.7-1343 366.5-25z"/><path fill="#00040c" d="M2347.7 1254L1594 1507l360 494.4 365.6-33.1z"/><path fill="#b26044" d="M3200 1584.9l-253 125.7 1125.5 266.6-170.3-169.9z"/><path fill="#30625b" d="M3579.1 663l-1323 611.3 1464.2 397.9 93.5-760z"/><path fill="#1e5257" d="M2762.5 803.5l-689.2-309.3 955.3 1694.2-994.3 142.5z"/><path fill="#813a24" d="M3658.6 586l-302 174.5-660-186.5 673.4-56.7z"/><path fill="#4d7f70" d="M321.5-212l-346-20.5-208 1163.6 520-322.6z"/><path fill="#482112" d="M3125.4 1695.2l947.1 297.7-982.5 11-137-224.9z"/><path fill="#a29d98" d="M3342 164.6l97.1 42.7L3622 262l219.8-494.5z"/><path fill="#768375" d="M1128.2 264l1290.2-159 171.7 171.2L1937 248z"/><path fill="#2b5d69" d="M1549.2 2016.2l343.4 376.3 2179.9-324.3-2309.4-99.9z"/><path fill="#a3644b" d="M670.8 1294l207.5-185-201.3-32.4-134.7 47.2z"/><path fill="#23535b" d="M1531.2 331.9l-120.8 742.4-702.3-328.4L791.6 443z"/><path fill="#bb7a60" d="M892.3 1229.2l86.6-165.7L898 892.3l160.6 581.8z"/><path fill="#8c5a41" d="M1838 1346.6l244.5 28.9 189.3-268-952.4-76.6z"/><path fill="#0a3934" d="M702.2 2121.2l-934.7 58.2v-731l252.3 425.7z"/><path fill="#345a57" d="M3742.4 268.5L2619.9 593.2 2485.4 62.4l1296 240.9z"/><path fill="#060e10" d="M1451.4 649l620.5 401.3 228.8-297.2-456-189.6z"/><path fill="#bf7b59" d="M671.9 935.9l69.3-402.1-85.8-124.5-195.2 53.2z"/><path fill="#305f51" d="M971.2 1915.6l-1115.6 301 1516.2-48.3-892.3-892.2z"/><path fill="#9d9283" d="M2668-201.4l173.9 63.9L2701 46l411 119.8z"/><path fill="#c97f62" d="M2802.1 547.4l203 177.5-381.1-68.3 918.7-215.9z"/><path fill="#264944" d="M1023.1 1243.5l-195-233.2 463.2 162.2-219.6 1220z"/><path fill="#9b725a" d="M303 1611.8l227 418.8-276.9-76.7 612.4-166z"/><path fill="#376b54" d="M869 1525.5L-232.4 1096l534.7-152.4-534.7 878z"/><path fill="#224042" d="M2535.3 1132.6l544.6 352.3-743.7 404.5 52.5-603z"/><path fill="#7f878f" d="M1847.8 2104.6l-147.7 85.9 30-99.5-75.3-122.1z"/><path fill="#d5987c" d="M931.3 1028.5l435 180.4L735.1 827l-127.8-18.6z"/><path fill="#8b7261" d="M460.7 772.9L894.8 897 249.6 659l-384.2 66z"/><path fill="#684d3a" d="M432.6 352.5L764-45.2l-64.8 837L831 513.4z"/><path fill="#2b1f15" d="M455 1393.7l-238-387-449.5-479.5 922.8 727.6z"/><path fill="#27231c" d="M304.3 267l20.6 261.6 322.6-383.4L444 24.1z"/><path fill="#11303a" d="M1488.4 1196l237.5 758.5 2-683.8-90.4-71z"/><path fill="#103d53" d="M2766.1 2280.7l-885-198.5-77.3 223 1269.9-433.7z"/><path fill="#405e58" d="M3328.1 1313.2l-1042.2-310L2306 957l894.2-411.8z"/><path fill="#325658" d="M708 821.4l368.4 155L1905.9 392 701.3 501z"/><path fill="#121b1c" d="M1519.2 563.7L1370.8 990l-13.1 90.5 222.7-68.2z"/><path fill="#2d554d" d="M374.7 1887l250.1-48.4 577.5 166.3 576 387.6z"/></g></svg>