<svg xmlns="http://www.w3.org/2000/svg" viewBox="0 0 3840 2160"><path fill="#b87828" d="M0 0h3840v2160H0z"/><g fill-opacity=".5"><path fill="#190000" d="M3677.2 780.8l-631.8 15.7-254.8 1534.2 1277.2-168.2z"/><path fill="#fff390" d="M2685.2-232.5l197.1 2565.4-1675.8 59.6-19-634.2z"/><path fill="#050000" d="M3804.3 2392.5l268.2-1047.3-677.7-684.5-139.4 1629.5z"/><path fill="#e70400" d="M3341.8 2007.9L3266.2 11.3l-309 1105-187.8 936.1z"/><path fill="#f7e19f" d="M1809.4 1635.5l684.8-694 58.3 1451L1420 1893.9z"/><path fill="#7b3d00" d="M429.7 399.3l1043 73.2-530.8-705H469.6z"/><path fill="#e7b22e" d="M3562.7 676.8l-605.5 267-80.4 852.7-996.5-2029z"/><path fill="#e0bf65" d="M626.9 1873l734.8-989.4 917-329-586 469.1z"/><path fill="#bd7300" d="M2753.8-232.5l-479.2 790.6 1690.8 356.1 41.8-899.4z"/><path fill="#b26100" d="M-137.2-45.7l724.6-186.8-46.9 2477.2-773 147.8z"/><path fill="#380000" d="M3224 160.7l167.6 187.1-391.2 42.7 91.9-161.1z"/><path fill="#f0c838" d="M2957.2 478.6L2207.8 525l-227 208 286.3-965.4z"/><path fill="#300000" d="M3313.2 850.2l-135 1365 768.4 97.4-280-1461.5z"/><path fill="#aa6f10" d="M1985.4 1313.7l65-596.7-387.8 368.6 658-12z"/><path fill="#c54100" d="M2612.4 1668.4l726.3 252.8-403.3 178.3L2671 2035z"/><path fill="#86510f" d="M1592.9 1576.3l-253-329.1 184.3-223.4 143 168.7z"/><path fill="#d6a118" d="M1088.2 806.6l-617.3 819.6 29-1233.5 991 177.5z"/><path fill="#bc0000" d="M2838.4 1868.8L3247.6 681l122.7 107.4 129.4 684.4z"/><path fill="#8c591e" d="M1448.5 1592.2L938 2088.4l-6-571 480.7 411.8z"/><path fill="#433a14" d="M2156.1 341.1L1855.3 417l-957.5-8.5 204.2-109z"/><path fill="#b82a28" d="M591.2 1585.3L1257.9 770 515.4 2121.4l-92.2-588.7z"/><path fill="#b16700" d="M720.3 296.7l-670 2095.8L-228.9-13.9 2916.8 1z"/><path fill="#5d5634" d="M2455.7 492.2l-103.4 249.3 16.8-194.4 544.2 108.2z"/><path fill="#e8d779" d="M1339.7 1467.1l27.2 15.4 66 467.7-317.7-278z"/><path fill="#e9b85d" d="M2345.6 588.6L2588.1 2265l390.5-1273.8 102.6-347.7z"/><path fill="#c09246" d="M1006.6 1012.9l686.2 678.4 698.1-426.8-423.6 424.3z"/><path fill="#b56600" d="M3070.4-129.5L3759 987.7l92.4 1103.2 79-2323.4z"/><path d="M3659 2392.5L3430.7 896.1l223.5-53 169.5 690.6z"/><path fill="#f7eec1" d="M1700 1324.2l128-218 46.4 25.6 18 226.3z"/><path fill="#e9c36b" d="M1620.2 823.6l719.7-287.8-747.5 540-85-696.2z"/><path fill="#e3a408" d="M1796-125.1l1364.5-107.4-195.3 740-153.5-160.2z"/><path fill="#bd413a" d="M689.7 1247.7l703.8-629.3 699-71-555.8 260.8z"/><path fill="#cd973b" d="M1439 223.6l-681.7 740L1862 457.2l-785.5-211z"/><path fill="#6d0000" d="M3826.7 2222.3L3531.4 2046l-706.8 346.4 75.7-346z"/><path fill="#2f0000" d="M3295.5 223l-186 46.1-63.8 48.3 321.6 71.4z"/><path fill="#d0a44b" d="M1630.5 2314.2L6.8 2392.5h294l980.2-549.6z"/><path fill="#3c2800" d="M981 334l-353.7-39.6-112 85.6 45.5 60.6z"/><path fill="#6d3100" d="M1070.6 1787.4L933.8 1619l-54 377.8 179.8 1.5z"/><path fill="#f89f06" d="M3140.3 900.8l-17.9-560L2910 685.1l618.8-149.8z"/><path fill="#914100" d="M335.8 616l16 222.8-584.3 388.5V426z"/><path fill="#da8e3e" d="M3047.4 963.7l-560-50-230.7-238.8 874.7-8.7z"/><path fill="#bc801c" d="M2107.9 748.3l-311 170.8-229.1 335.4 736.7-481.9z"/><path fill="#e7c868" d="M2286 882.8l377 824 246.4 5.2 16.2-717z"/><path fill="#d3a532" d="M630 1740.7l279.3 651.8-62-470.2 201-456z"/><path fill="#ca8500" d="M-232.5 188.7l182 142.2 830.3 419L341 54z"/><path fill="#d09f4e" d="M1163.4 819.6L1750 2182.8l-358.5-834.5-596.2 402.5z"/><path fill="#5f0000" d="M3376.6 743.7l-203.2 1129.1 279.7 60.1 65.9-810.4z"/><path fill="#1e0000" d="M3020.8 2093.3l725.8-246.8-547.2 546H3309z"/><path fill="#704d1a" d="M2585.7 623l222.8-30.5L3432 457 2272.9 576z"/><path fill="#494920" d="M2958.8 530.5l-150 55.9-446.3-84.6 2.7 83.7z"/></g></svg>