<svg xmlns="http://www.w3.org/2000/svg" viewBox="0 0 3840 2160"><path fill="#4e3b2d" d="M0 0h3840v2160H0z"/><g fill-opacity=".5"><path fill="#ffffc5" d="M892.6 2193.8l-955.2 198.7-169.9-1517.1 1006.3 824.3z"/><path fill="#ffd281" d="M3467.6 1292l604.9-1524.5-248.3 2625L2582 932z"/><path fill="#000007" d="M64.5-232.5l2321.8 969.2 664.4 1655.8L-232.5 1013z"/><path fill="#ff9851" d="M-232.5 2225.7L1305.7 912l425.5 288.4-391.3 469.8z"/><path fill="#f39957" d="M1381.5 341.1l301.9-573.6 473.7 797-354.8 62.2z"/><path fill="#ffeab6" d="M774.9 2308L-25.2 989l-207.3 1202.3 81 118.3z"/><path fill="#000001" d="M3308.4 2370.6l-1247.8-149.2-1109.3-62.3L2039.5 418.3z"/><path fill="#ec8b54" d="M4072.5 1493L2684 1751.1 2521 1171l571.5-15.5z"/><path fill="#ffb472" d="M3118.2 2223.7l954.3-30.7-1382-1293.5 1382 726.6z"/><path d="M3082.4 1389.2l430.7 412.2-400.6 472.8-205.3-158.5z"/><path fill="#00030b" d="M-232.5 890.1l3338.4 124.3 304 375 174.9-921.2z"/><path fill="#001328" d="M-.4 268l1369.8-481-622 1938.2L-148.9 857z"/><path fill="#ffffe8" d="M3578.2 778.7l494.3-355-150.7 559.7-115.3-66.2z"/><path d="M810.9 2385.4l1835-1190.8-418.7-947.1-608.4 1158.8z"/><path fill="#a65f32" d="M857.8 1042L610.5 2045.3l855.2-370.3 145.6-595.8z"/><path fill="#ff8a41" d="M909.3 2030.4l282.3 322-596.9 40.1L96.2 1070.8z"/><path fill="#dd9657" d="M680.3-177.2l217.3-39.3-926-16 381.8 469.4z"/><path fill="#000b1b" d="M3173.8 2392.5H1146.5l-347-672.4 2603 70.4z"/><path fill="#f69558" d="M1266 974.6l314.2 160.6 52.6 292.2-378.4-197z"/><path fill="#fffde0" d="M170.7 1637.1l128 755.4 12.8-976.8-544-302.2z"/><path fill="#ffc682" d="M4072.5 1980.1l-845 412.4 145.5-471.7 218.1 169z"/><path d="M1196.8-8.9L1133.4-152 1830 1390.2 430-160.3z"/><path fill="#89583c" d="M3020.7-165.1l770.5 804.7 281.3-170.3-102.1-701.8z"/><path fill="#ffa96d" d="M2970 937.9l-30.5 403.6 1133-155.2-35 977.2z"/><path fill="#995933" d="M4072.5 2133.2l-900.6-393.4-250.7 5.4-327.6-825.1z"/><path fill="#f8aa6d" d="M1796.5-115.3L2026 252l-474.9-94.7 293-389.8z"/><path fill="#da723a" d="M164.4 1652.5l96.7 234.3-210.7 88.7-180-565.3z"/><path d="M2150.7 2135.7L2318.5 324l-647.7-556.5L2112.6 311z"/><path fill="#002341" d="M-222.5-232.5l69.4 1235.9-79.4 268.2L714.4 865z"/><path fill="#fffff1" d="M680.8 2301.2l119.9 91.3L194 1966.9l-426.6 255.2z"/><path d="M-99.9 11l583.6 160 1033.6-403.5-1145.2 803z"/><path fill="#4e3627" d="M2489.7 1186.3l405.3 562.5-142.5 27-292.4-222.6z"/><path fill="#2b3737" d="M2179.1 173.9L3300.7 18l394 937.6-1207.4-341.2z"/><path fill="#62371c" d="M1533.6 381.3L1522.1-232 1001.8 24.8l1000.4 319z"/><path fill="#e88e53" d="M806.4 1394.4l558.4 155.5-178 168.6-117.8-635z"/><path fill="#854b26" d="M666 1749.7l209 544.2 248.6-861.4-672.3 76.3z"/><path fill="#2e2b20" d="M3615.5 302.8l-274.3-535.3 583.7 785.7-115 35.6z"/><path fill="#1b2225" d="M1105.4 210.2l39.7 646.2 154.6 424.6L554 450.2z"/><path fill="#000003" d="M3201.7 1192.9l28.1-155.6 385.8-550.2-243 802.5z"/><path fill="#ffffe1" d="M4072.5 1123.7L3760.1 1380l312.4-662.2-451-2.4z"/><path fill="#4f311c" d="M1542.2 1523l-77.7 144.6-269-305.8 469.5-18.5z"/><path fill="#a46339" d="M3199 1444.3l-615-367-102.5 467 740.2-259.2z"/><path fill="#b16b47" d="M3176.7-232.5l50.5 175.8 606.2 840.5-208.7-476.6z"/><path fill="#bf7745" d="M2107.6 293.3l-716.6 154-99.3-345.8L1938.1 662z"/><path fill="#f1fffa" d="M1825.8 261.8l13.8-58.1 86.4-91.4-.6 127.4z"/><path fill="#e4dac4" d="M1593.6 510.6L1699 309.1l5.4 141.2 122.2-55.8z"/><path fill="#ffc88f" d="M3248.7 1421.8l-36.6 119.3 399.6 52.4 132.6-199.2z"/><path fill="#8f4f27" d="M3414.6 1288.4l-161.9-16.9 356.7 84.5 30.2-738z"/><path fill="#ffb572" d="M587.6 1762.8l-820.1-811.2 409.7 279.2 283.5 1161.7z"/><path fill="#e7a065" d="M629.5-114.7l12-117.8-424 176.7L299.4 151z"/></g></svg>