<svg xmlns="http://www.w3.org/2000/svg" viewBox="0 0 3840 2160"><path fill="#402900" d="M0 0h3840v2160H0z"/><g fill-opacity=".5"><path fill="#fd0000" d="M1976.2 142.4l1319.6 8.2-696.3 1865.8-674.2-123.3z"/><path fill="#007103" d="M15-232.5l-186.2 2355.6 2046.6-229.8 67-1894z"/><path fill="red" d="M3268.1 1807.2l51.3-1690.5 753.1 238.1-35 1747.7zm-354.9 164.4l-96.4-156 235-406.7 184 570z"/><path fill="#004601" d="M-232.5 2388.2l2206.9 4.3-93.2-2625-2113.7 213z"/><path d="M-232.5 130.3l1274.4 465.2-555.5 1654.7L744.9-207.5zm3764.7 2262.2l-605-1097.3L3235.4 67.1l45.3 1373.8z"/><path d="M2717.4 1960.6l-2949.9 58.3 3580.8 373.6 724.2-403.6z"/><path fill="#008e00" d="M1953.4 1927.9L1100.5 225.7 873 1139.5l470 874.2z"/><path fill="#6c0000" d="M1927.8 805.4L4072.5 461l-214.8-693.5-1896 50.7z"/><path fill="#db0900" d="M2722 1898.7l-795.5 104 95.8-1372.1 763.8 222.1z"/><path fill="#009a09" d="M426 1993.8l182.8-458.6-142.5-937.3-698.8 1274.5z"/><path fill="#e10a00" d="M4072.5 1975.6L3461.2 553.9l-220 842.7 212.7 568.1z"/><path fill="#010000" d="M1391.5 1743.7L1648.3 413l151.9 524.6-407.3 839.7z"/><path d="M3053.3 867.2l-471 1455.5 772.9-1553-950-212.3z"/><path fill="#000001" d="M1054.6 1891.6l-1158 252 1536 176.9L952.8 1187z"/><path fill="#00a110" d="M591.7 1745.7L862.3 1505l202 306.5L810 2046z"/><path d="M854.4 1180.9l48.2-812.7-345.5 945.1 676.8 419.5z"/><path fill="#cf1000" d="M2014.4 1955.8l-73.6-1104.9 862.7 1014.6-145.5 113.7z"/><path d="M3242.4 1400.8l48.4-473-570.5 543 9.7 243zm-840.8 580.5l-2634.1 5.1 4095.3 406.1 29.3-422z"/><path fill="#008900" d="M1905.7 768l-71.8-92.2-141.7 350 192.9 230z"/><path fill="#070000" d="M1584.4 984.6l370 700.6-12.4-344.5-356.5-451.5z"/><path fill="#780300" d="M2605.8 24.4l570-113.1L4072.5 189l-553.7 624.8z"/><path fill="#003e00" d="M-232.5 243.7v385.5l2174.3-40.8-13.3-820.9z"/><path fill="#008101" d="M1530.9 302.4l-453.6 846-290.3 42.2 661.9 629z"/><path fill="#ca0c00" d="M2697.5 2002.8L1953 1439l1210 533.2-60-583.5z"/><path d="M3394.4 1907.7L3079 744l-70.2 564 285.8 740z"/><path d="M-232.5 1971l576.2 421.5 3523-381.6-3502.6-28zM856 1472.2l78.4-752-150-162.4-294.7 429.8z"/><path fill="#008f00" d="M1380.2 1978.3l334.6-746.3 102.8 168.9 43.8 491.5z"/><path fill="#006e03" d="M-186.5 886l-46 1113 435.5-33.5 565-1529z"/><path fill="#580000" d="M4072.5 44.2L1872.7-152.6l69.3 476.2 1109.4-34z"/><path fill="#af0c00" d="M3012 1023.1l60.4-153.5-1110-470.9-9.6 1113.6z"/><path d="M3308 2001.4l-89.4-1569.1 150.5 391.5L3085.5 556z"/><path fill="#000001" d="M570.5 2002.2l186-643.3-30-238.3L324 2363.2z"/><path fill="#090000" d="M1597.1 544.9l141.3 108-253 1032.1 42.2-687.9z"/><path d="M2958.4 1394.4l292.4 120-452.5-147-57.2 890z"/><path fill="#c50f00" d="M1940.8 1974.7l13.1-741 1042-37.2-297.8 333.4z"/><path fill="#af0b00" d="M4072.5 694.7l-167.3 854.9-608.8-945.4L2993 279.3z"/><path d="M3007.5 1102l-163.8-3.4 396 525-109.6-1084.2z"/><path fill="#005b00" d="M1955.7 434L1201 846 577.6 307.3 181 248z"/><path d="M1347 2392.5l-264.7-397.2-126.8-595L1117 1531z"/><path fill="#00810c" d="M1096.9 1969.2l-272.3 4.4-227-47 149.5-522.8z"/><path fill="#008100" d="M1166.6 1641.1l81.4 323.4 692.7 10.6-30.8-390.1z"/><path fill="#0e0002" d="M1566.3 1210.6l-51.7 442.9-61-29.3-52.7-88.8z"/><path fill="#bd0e00" d="M3824.1 932.4l248.4 759-601.4-526-221.4-388.8z"/><path fill="#cc1000" d="M4056.5 1747.9l-491.7 252.6-186.2-96.4 693.9-1358.5z"/><path fill="#c90c00" d="M2896 1981l266.2 10 86.5-31.8-222.1-529z"/><path fill="#030000" d="M1901.7 1293.4l-420.8-530.7 331.7 631 154.8 702.5z"/></g></svg>