<svg xmlns="http://www.w3.org/2000/svg" viewBox="0 0 3840 2160"><path fill="#000c0a" d="M0 0h3840v2160H0z"/><g fill-opacity=".5"><path fill="#0ea074" d="M4059 1467.9l-3697.3 69.6L193 1356.2l2900.7-3.8z"/><path fill="#06503c" d="M3504.8 1603.4l-3236.3 44 358.7-441.6L2741 1074.4z"/><path d="M3850.6-232.5l221.9 1276.7-4305 113.6v-1211z"/><path fill="#10a477" d="M-88.3 1415.1l1820.5-52.3-35.7 68.6L1049 1450z"/><path d="M3563.2 1647.8L-232.5 2045l4259.6 347.4-251.9-2625z"/><path fill="#0b946c" d="M2647 1447.4l563.2-19.3 302.2-62.4-2030.4 51.5z"/><path d="M-232.5-232.5l4305 370.2L283 1306.3 65.4 2392.5z"/><path fill="#022b21" d="M3256.4 1623l-1470-173.2-1430.7 43.5 863.2 244.2z"/><path fill="#14bc86" d="M399.8 1381l349.4 19.1-4.5 51.6-346.3 10.1z"/><path fill="#001916" d="M1634.3 1194.7l545 31.5-903.6 169.7-566.7-28.8z"/><path fill="#054736" d="M3413.8 1545.5l-269.3-173.6-47.5-69.8 605 61.3z"/><path fill="#011a18" d="M3201 1069.5l-1109 302.7 855.6 3 854.6-12z"/><path fill="#001513" d="M3250 1784.2l-1193.8-91 1454-248.6 562.3-107.2z"/><path fill="#000004" d="M25.1 1718.7l-96.8 673.8 4082.9-424-1715.9-158.3z"/><path fill="#033526" d="M491.9 1710l251.8-101.3-534-205.6 143.8 249.4z"/><path fill="#054231" d="M2768.3 1035.5L2292.5 1210l.8-48.3-7.7-58.5z"/><path d="M4072.5-123.4L1892.2 43.5l1427.4 1021 615.5 661.3z"/><path fill="#011e19" d="M2524 1409.5l-211 295-220.7 112 684.1-298z"/><path fill="#00040d" d="M2292.9 687.5L1086-232.5l1014.3 472.4 703.2 498z"/><path fill="#001311" d="M1219.4 1731.4l-889.7-88.8 745.4-80 93.7-119.5z"/><path fill="#011a18" d="M-232.5 1395l106 46.7 779-320.5-107.2 252z"/><path d="M513 1237.2L807-232.5l2267.3 1460.2L2440 992z"/><path fill="#097655" d="M3004 1510.3l744.8-133.3-1059.7 21.4 617.5 70.2z"/><path fill="#055039" d="M593.9 1227.3L1106 1201l-436 75.2-193.8-45.6z"/><path fill="#0d986d" d="M1810.7 1411.5L953.4 1375l87.6 129.5 194.8-116.5z"/><path fill="#0a966d" d="M653.8 1395.2l1364.6 6.2-766.7 34.8 146.7 9.5z"/><path fill="#08513a" d="M1085.3 1475.2l232-83.3 95.3 20.6 184.8 249.2z"/><path fill="#011e19" d="M2031.6 1355.6l-186 31.8-512.3-129.7 627.5-75.3z"/><path fill="#010a0d" d="M3645.1 1482.2l427.4 282.1V1243l-500.3 2.4z"/><path fill="#0a7c5a" d="M2133.8 1483.1l350-100.2-799.2 14.5 205.4 7z"/><path fill="#16ce8f" d="M433.2 1458.7l-107.6 4.2L469 1392l13 83.9z"/><path fill="#063c2b" d="M2057.1 1510l1000.2 26 583.1-53.8-257.7-50.1z"/><path fill="#0c976e" d="M2703.2 1374.7l289.4 85.5-9.2-69 112.4 33.6z"/><path fill="#022820" d="M2619 1644.6l-686.3 9.1-756.5 56.3 88.7-178.3z"/><path fill="#0f9a6e" d="M280.3 1475.5l452.7-74.6 14.4-25.3-443 3.2z"/><path fill="#0ea579" d="M900.5 1434.7l851.2-32.7-721.5 1.3-54.7 40.5z"/><path fill="#033327" d="M1552.5 1129.7l-339.4 24.3 158.5 97.4 355.8-134.6z"/><path fill="#06392b" d="M3247.7 1382.8l-619 3.2 657.5-55.1 178.7 26.4z"/><path fill="#01090c" d="M-232.5 1703.3l60-524.7L376.1 1285l-72.5 78z"/><path fill="#053f2d" d="M723.2 1421.4l-217.4 297.4-289.4-320.6 371.3 144.6z"/><path fill="#000101" d="M2255 1076.2l-70.6 103.8-959.7-1362.7 748 1333.3z"/><path fill="#011f19" d="M3060 1147.2l131.8-119 31.9 329-785 17z"/><path fill="#000004" d="M1274.7 2392.5H310.4l-542.9-946.8 452.1 154.8z"/><path fill="#0b6449" d="M2762.9 1425.2l-612.3 29.9 219.7 79.7 87.6-121.8z"/><path fill="#10a176" d="M1358.3 1398.9l232 46.6-63.2-90 17 47.1z"/><path fill="#108c67" d="M1532.8 1346.4l152.6 5.9-302.2 11.3 185 101.9z"/><path fill="#08533e" d="M1862.4 1343l-702 59.5 56.9-13.8 322.2-54z"/><path fill="#000002" d="M2308.8 755.8L3677 300l149.5 476.3-946 421.5z"/><path fill="#0a5b42" d="M975.9 1512l-26.1-116.1-262.3 98.3-59.3-110.2z"/><path fill="#000e0e" d="M-232.5 807l1316.4 532.8L1237 1065l-72.4 313.1z"/></g></svg>