<svg xmlns="http://www.w3.org/2000/svg" viewBox="0 0 3840 2160"><path fill="#392945" d="M0 0h3840v2160H0z"/><g fill-opacity=".5"><path fill="#e83275" d="M4072.5 24L490.4-232.5 1206.8 384l2425.4 195z"/><path fill="#140608" d="M41.5 2392.5l.3-2542.6 1129 422.6 28.4 2038z"/><path fill="#285a86" d="M1147.4 1743.5l171.4 199L4041 480.9 1255.3 553z"/><path fill="#00030f" d="M3033.8 995l-30 1285.1 1025.8 112.4L3685 650.2z"/><path fill="#0b1a2f" d="M2767 1848.5l-664.3 30.5-195.1 513.5-78.8-1780.4z"/><path fill="#85112d" d="M2045.6 519.9l-619.4-102.5L385 190.7l440-389.2z"/><path fill="#657a9a" d="M3029.2 749.8l776.4-198.7L2605 539l-71.6 224.3z"/><path fill="#433d63" d="M458.3 1259.2L395.5 1028l55.9-1173.2 259.2 1419.6z"/><path fill="#45496d" d="M3032.5 1466.5l-142-1004L2167 1546.3l594.5 43.6z"/><path fill="#ac3f7d" d="M4072.5 162.9L1462.8 334l-141-566.6h116.3z"/><path fill="#375d8c" d="M1905.3 1640.1L1182 1428.9l54.4-725.6 544.1 199z"/><path fill="#031b2b" d="M1199.6 293.6l16.7 1703.2L631.8 1346l26.9-989.7z"/><path fill="#365a81" d="M1641.9 522.6l654.7-114.2 53.6 359.6-235.8 129.3z"/><path fill="#10182a" d="M2085.1 905l141.1 280.6-153.9 384.7 473.2-619.4z"/><path fill="#102133" d="M706.9 439.9l328.8 107.2 269.2 202.3 400.6-356.9z"/><path fill="#862040" d="M4072.5 496.7l-1477.7 68.6-348.3-33 1826-310.1z"/><path fill="#223765" d="M1234 2016.2l-85.5-628.4 738.7 334.8-44.6 434.7z"/><path fill="#360a16" d="M-81.4 2392.5l1495.7-106.2-554.7-744.6-1092.1-395z"/><path fill="#0d0c0a" d="M65.4 282.6L-54.4-232.5 340.7 21.6l-58.5 2050z"/><path fill="#2d5883" d="M3682.9 510.3l389.6 312.8-339.4 344.5 65.4-770z"/><path fill="#091327" d="M3659.6 455.6l214 1621.2-2043.9-519.3L2901 1671.2z"/><path fill="#0d0c25" d="M2060.5 1115.1L1864.8 658l14.4 1152.4 53.9-128.9z"/><path fill="#254465" d="M131 380l-363.5-546.3L28.1 1295l64.1-166.9z"/><path fill="#639fc0" d="M3412.1 608l-441.4 60.5 124.9-107.6 420-5.2z"/><path fill="#ad3c83" d="M874.3 229.7l844.5-300.3-29.8-161.9 450.3 419.1z"/><path fill="#4e1f58" d="M-93 2025.7L608.6 2341l-407-385.1 80.3-6.2z"/><path fill="#721223" d="M1030.9 125L927 378.2 208.4-232.5 1365 99.8z"/><path fill="#38587d" d="M3381.5 408l-165 92.8 268.3 255-178.5 171z"/><path fill="#4d2d52" d="M3051.3-232.5L4072.5-47.2v-77l-569.2 270.1z"/><path fill="#5d2040" d="M1269.8 2038.4l-468.3-256.6 229.7-69.8 102.7 365z"/><path fill="#94488d" d="M2653.3 283.8l-52.2-5 205.7 187 109.3-412.3z"/><path fill="#334974" d="M2563.6 740l-558.8 743.4 8.8-1211.1 8.7 983z"/><path fill="#3b2a48" d="M570.7 1869.4v-1384l-125.3 883 38.9 1024.1z"/><path fill="#182439" d="M2610.9 1093.2l-452.3 218.4 62.2-472 319.4 535z"/><path fill="#230907" d="M1405.3 2392.5l-566.6-665.3L761.6 522l-117 1507.7z"/><path fill="#101e38" d="M3394 996.1l-298.4 949-133.2-734.3 180.3-390z"/><path fill="#562239" d="M598.6 401.6l215.4-268-347.4 115.2 167.6 1450.7z"/><path fill="#8d1d44" d="M3572.3 603.9l-598.5-405.7 606.7 86.3 349.8-7.2z"/><path fill="#170909" d="M515.6 1806L-68 1575.3l-164.5 299 664.1 108.4z"/><path fill="#3a5f8e" d="M1351.4 1383.7l359-321.2 196 485.6-455.3 16.5z"/><path fill="#75101e" d="M484.4 302.6L850.4 92l469.8 363.3 271.7-166.6z"/><path fill="#222946" d="M3035.3 1886.4l-887-137.6-899.8 456L2427 2392.5z"/><path fill="#4e436f" d="M2577.4 914.4l213 544.6 219.7-78-217.7-890.2z"/><path fill="#6a2244" d="M1959.7 308.8l400.7 110.5-554.5 84-113.3-101.6z"/><path fill="#233961" d="M1974.8 596l-405.7-174.2-186.7 187 507.7 159z"/><path fill="#4b1c38" d="M758.7 1647.2l131.5-195.8-725.5 184.2 541.2-16.2z"/><path fill="#97244e" d="M2536.4 599.5l75.8-64 11.5-157.1-695.1-177.8z"/><path fill="#141b35" d="M2453 770l73.4-275.4-619 847.8 496.1-618z"/><path fill="#aa6daf" d="M1594 131.4l-555.3-363.9 703.8 118.6L1603 81.5z"/><path fill="#3d5c7e" d="M4072.5 646.6L3491.9 591l215-87.7 92.5-57z"/></g></svg>