<svg xmlns="http://www.w3.org/2000/svg" viewBox="0 0 3840 2160"><path fill="#917d63" d="M0 0h3840v2160H0z"/><g fill-opacity=".5"><path fill="#501f06" d="M2576.8 2280.6l-1396 111.9 5.3-1065.7 1409.3-70.2z"/><path d="M3598.1 2154.2l474.4-133.5L3668 92.6l-60.6 1366z"/><path fill="#d9d6bc" d="M1393.8-66.1l-546 1676.8-859.5-436.5L-232.5 43.6z"/><path fill="#d2d0ad" d="M3614.9 649.5L1031.2 157.8l912.5-390.3L3636 82.7z"/><path fill="#310c00" d="M438.6 2087L600 1464.2 79.8 1575.9l-160.3 772.3z"/><path fill="#4e2a00" d="M2106.3 745.4l-96.9-465.2 524.8 208.5 167 262.1z"/><path fill="#b7b99e" d="M2627.1 1649l978.7-73 10-901.5-942.6-260.7z"/><path fill="#b07957" d="M1479.8 1649.7l22-361 993.6-110.3-408.1 690.3z"/><path fill="#7e2c2a" d="M1816.4 525.4l-695 545.4-73.8-434.8 555.1-498.6z"/><path fill="#654127" d="M3985 1939.4L3788.2 2327l-4020.8-557.2 3989.7-154.4z"/><path fill="#59282b" d="M2053.5 1244.5L1657.7 1517l18.8-627.6 431.2-54.3z"/><path fill="#112929" d="M4072.5 38.5l-468.3 183 125.2 1345L4072.5 787z"/><path fill="#d0c7b0" d="M1561.3 722.7l-166.7 105.7 164.1 441.1 145.3 113.2z"/><path fill="#151712" d="M1065 1748.2l1294.2 582.4-369.1-104.4-376.3-576z"/><path fill="#0c1610" d="M2199.4 1665L2096 2010.9l449.6-90.3 28.6-293.2z"/><path fill="#76541b" d="M2625.1 1192.7l-213.9 767.5-42.5-935.9 45.7-550.6z"/><path fill="#c5ba95" d="M2977.5-173.8L1966.2 377.9l315.2 818.5L1288-232.5z"/><path fill="#aea68c" d="M475.3 1012l132.1 859 564.2-327.3-76-885z"/><path fill="#5f3e40" d="M1432.6 1101.3l-251 793.8 88.8-1421-202.7 194.2z"/><path fill="#beb390" d="M2349.8 876.2L2125.3 1542 2105 802.2l269.2-55z"/><path fill="#9c6c47" d="M4072.5 1787.6l-545.9 604.9h-1371l714.1-749.2z"/><path fill="#c9a600" d="M1967.4 1311.8l204.6-112.3-134 442.5-78-100.3z"/><path fill="#aea68b" d="M2726.1 1267L2569.8-6.9l1297.8 555.3 64.5-323.7z"/><path fill="#503b1e" d="M440.2 2104l-291.8-396.4L89 1769l521.4-554.7z"/><path fill="#021b1a" d="M4068.5 1719l-208.8-24.4-197.2-1121-57.4 1098.9z"/><path fill="#beb398" d="M-232.5 249.4l1984.3-360.3-426 468.3L831.7 1017z"/><path fill="#b49008" d="M2359.3 1430.6l-32.9-352.2 207.8 368-34.3 215z"/><path fill="#a17b26" d="M2125.4 194.7l234.7 102.5-448.6 161.3 176.8 487.1z"/><path fill="#281003" d="M2122.9 407.9l215.6 343.5 35.8-90.6-132-307.6z"/><path fill="#a17d6b" d="M2085.5 2296.7l-472.8-1001.5-402.4-653.7 396.4 992z"/><path fill="#a08667" d="M2396.5 1298.4l-405.5 292 22.4 241.4-78.7 397.8z"/><path fill="#222c2d" d="M2602.4 546.7l80.3 130.4-178.3 667.7 56.6 482.4z"/><path fill="#091618" d="M1878.4 1642.9l-36.2-63.1 82 388.7 78-310.2z"/><path fill="#bcb49a" d="M1687.9 945l389.7-963.3L1429.4 33l647.3 722z"/><path fill="#9c6744" d="M1634.1 2366.5l-762.7-631.7-126.2-23.7-670.5 681.4z"/><path fill="#892322" d="M1624 285.9l-342.6 556.7 25.7-333.1 103-247.6z"/><path fill="#816f59" d="M3917.9 502.1l154.6 611.8-766.7 97.2 433-25.4z"/><path fill="#b89742" d="M2323.3 232l-161.5 49.7 163.7 183.6L2538.8 886z"/><path fill="#84241d" d="M1608.9 261l146.7 228-89.6 289.7-155-535z"/><path fill="#293529" d="M1753.4 1240.8l-15-302.8 343.2-5.1-400.3 141.5z"/><path fill="#9c2a4a" d="M1695.8 1279.6l246.3 142.2-23 285.7-317.4-290.4z"/><path fill="#9d9680" d="M3649.9 427.7l-59-644.3-726 121.8 766.7 1086.7z"/><path fill="#9e1c47" d="M1245.9 1727.2l139.7 3.3 42.2-397.2-135.3 37.3z"/><path fill="#332817" d="M1803.7 1969.7l-598.4-320.5L1222 2011l646.4 47z"/><path fill="#202d23" d="M1096.9 808l1.1-87.2 13.2-52.5 148.3 495.6z"/><path fill="#001011" d="M4072.5 442.9l-248.2-151 248.2-342.8-386 281.2z"/><path fill="#764e49" d="M2282 1267.3l366.8-185.2-60.8-523.9-155 219z"/><path fill="#b2a88e" d="M731.4 1706.2L239 262.2l915.3 662-164.7 821.4z"/><path fill="#78685b" d="M259.5 1580l331.1-148.2-220.3-178.3-602.8 145.4z"/><path fill="#aa835b" d="M3844.3 1621.6L4040 805.8l32.4-428.9L3803.7 1459z"/></g></svg>