<svg xmlns="http://www.w3.org/2000/svg" viewBox="0 0 3840 2160"><path fill="#d9ceca" d="M0 0h3840v2160H0z"/><g fill-opacity=".5"><path fill="#645b4c" d="M441.1 616.6l118.1 837.2L2406.3 427.6l-851.4-166z"/><path fill="#f3f9fe" d="M4072.5 941.4L3892-232.5 2272.9 242.1 2405 1554.5z"/><path fill="#f4f8fc" d="M1151.9-232.5l-1384.4 269v1250l1818-1519z"/><path fill="#94877b" d="M2553.4 699.8L1207.3 510.1 769.5 309.6 587.6 985z"/><path fill="#f7a29f" d="M2605.2 2062.2L24.7 2013.9l2947.5-477.5L3027 1888z"/><path fill="#f8fbff" d="M-232.5 1844.2l512.3 548.3L543.3 986 301 684.6z"/><path fill="#f3f9ff" d="M3672.4 2392.5l-1026.8-336.3 725.6-274.8 269.4-1222.9z"/><path fill="#f6e9cf" d="M478.5 1653.8l1386.2-941.4-351.7 45.7 513.2 1043.5z"/><path fill="#8e867e" d="M1186.2 1248.4l475.4-562.2 468.2 255.1-472.5-882.2z"/><path fill="#eceef2" d="M1356.2-5.3L517 431.5l1203.4-210.2L3394.4-31z"/><path fill="#de9d98" d="M210.7 1933.2l450.1-354.7 225.4 165.7 716.9 114.8z"/><path fill="#f7f5e8" d="M2435.4 1147.5l-358.6-570.8 561.6 52.2-775-96z"/><path fill="#f6ebd7" d="M844.5 1002l194.3 22 17.5 760.9L929 1032z"/><path fill="#bab19d" d="M2417.3 1704.5l924.9-164.5-1570.3 106.8 588-365.4z"/><path fill="#f3f6fa" d="M1654.4 173.5L1981 393.8l317.3-84 105.1-35.3z"/><path fill="#f0e8d6" d="M348 1202.6l748.6 590.4 395.3 17.2L911 1390z"/><path fill="#c1beba" d="M2674.2 252l600.6-59.8 92.8-117.1-2116.8 42.5z"/><path fill="#a89e86" d="M1983 1287l-503.7-465 635.6 790.1h-157.5z"/><path fill="#767875" d="M2352.9 1460.2L2286 525.8 1463.8 130l814.8 488.4z"/><path fill="#91867c" d="M800.7 385l181.6-22.4 703.1 683.2L658.6 498.5z"/><path fill="#ece9eb" d="M751.7 394l811.4-109-1404.4-12.6L666 668.2z"/><path fill="#f1e5c3" d="M1922.2 803L1527 682.4l517.3 738.5 291.4 24.2z"/><path fill="#767d77" d="M3192.6 1805.8l-119.6 95.5-544.2 133.7-48.3 77.7z"/><path fill="#88877c" d="M2271 1064l99 484.6-40-866 30 257.7z"/><path fill="#8e8273" d="M1851.3 1247l-28.5-761.3 253.7 273.5-280.3 198.2z"/><path fill="#a19588" d="M794.8 1785.6l770.8 22.7-516.4 88.3-441-379.7z"/><path fill="#93877b" d="M1248.6 294.2l-799 869.9 316 261.9 53.4-94z"/><path fill="#edf5fa" d="M3736.6 1102l46.5 626-13.2 664.5 302.6-1592z"/><path fill="#847961" d="M1974.4 1322.7l44.2 124.8 188.7 20.1-225.7 46.7z"/><path fill="#f0e6d4" d="M1816.7 1378l-958.2-350.7 375.8 368 747.9 308z"/><path fill="#febcba" d="M574.8 1674.4l620.1 213.5-824.8 299.6-65.2-339.9z"/><path fill="#ebeaec" d="M2974.3 1549.3L2371.9 230.7l-9 1104.8 129.7 282.4z"/><path fill="#918a89" d="M2215.4 1635l764.5-47-1087.7 123.8 525.5-206.2z"/><path fill="#eae9eb" d="M599.8 1297l-94.3 362.8-656.2 732.7L49.1 893z"/><path fill="#bab299" d="M3303 1242l-192.8-31.8-173 186 319.6-1.8z"/><path fill="#908176" d="M1180.9 1151l-204-172.6 443.9-624.6-36.2 711.6z"/><path fill="#f6ebdd" d="M1815.7 1076.2l-160.5-58.7-89.8-322.7 254 49.2z"/><path fill="#ebe8ea" d="M4046 215.4l-1536.5 926.7-333.9-968.6 234.7 66z"/><path fill="#aba48b" d="M2269.3 1103.6l-200.5 155.8-5.7-434 138.2 437.2z"/><path fill="#eeebec" d="M700.8 619l-33.3-455.2-300.9 799.7-32-308.6z"/><path fill="#efe4d1" d="M2012.5 1262.7l-663.2-328.4 221.3-29.3-475 378z"/><path fill="#787672" d="M2030.6 536.8l336 46.4L2217 391.4 1246.7 460z"/><path fill="#ece9eb" d="M1225.8-232.5L3821.1 124 1767.8 55.2l-373.7 330z"/><path fill="#eae7e9" d="M3150 1117.6l346.4 358.6 335.8-1410-1759.9 952z"/><path fill="#837971" d="M786 571.5L510.6 860.9 448 681.6l1230-360.2z"/><path fill="#8b8a81" d="M2391.5 912l-137.2-137.6L2094.8 571 2240 819.3z"/><path fill="#9e8e88" d="M2982.3 1816l-188.8 159.6 262.7-81.9-49.2-363z"/><path fill="#83786d" d="M859.3 1791l555.5 21.9L1142 1856l-530.3-227.2z"/><path fill="#989893" d="M603.8 1585.5l24.7-283.5-88.7 139 254.3 319z"/><path fill="#c9c6c1" d="M226 364.8L164 87l-45.4 593.5 71 615.6z"/></g></svg>