<svg xmlns="http://www.w3.org/2000/svg" viewBox="0 0 3840 2160"><path fill="#3b2f29" d="M0 0h3840v2160H0z"/><g fill-opacity=".5"><path fill="#9b97b6" d="M-104.6-232.5l582.4 58.3L611.4 1461l-843.9-67.5z"/><path fill="#cd9288" d="M826.6 1352L1291 2370.7l53-1568.3-512.1-133.3z"/><path fill="#b27d6f" d="M2950.2 2392.5l456.6-459.5L2791 815.5 2317.4 842z"/><path d="M3002.9 887.5L2455.2 37.2l1617.3-269.7-258.4 2625z"/><path fill="#000600" d="M2956.3 2388.3l-515.1-127-774.7-192.5 541.8-967.3z"/><path fill="#070600" d="M2386.8 1390.3L2364 842.5 2175-218.9 816.6 59.8z"/><path d="M1027.8 2392.5H-232.5l87.6-872.2L1106 1803.6zM3146.2 855.8l916.5 1536.7L3954 9.9 2881.2-31.7z"/><path fill="#090b08" d="M852 19.9l-55.7 1304.6-363.4-689.3 315.5-867.7z"/><path fill="#805343" d="M2119.5 1669.3l-172.1 94-240.7-847L1894.5 663z"/><path fill="#77656a" d="M2561.2 774.1L2960 1450l-588.1 190 6.8-1872.4z"/><path fill="#7b86a1" d="M535.5 192.3L245.4 769.5-232.5 97.8l919.2-330.3z"/><path fill="#9d6b60" d="M1586.5 972l-431.6 772.4 98.2-899.3 138-272.6z"/><path fill="#140a04" d="M1187.7 1268.2l-150.8-607.4 598.5-893.3-571 1503.7z"/><path fill="#744c43" d="M591.5 996.8L720 1619l-422.3 65-424.7-447z"/><path fill="#b1837b" d="M901 381.9L806.3 845l171 720.4 48.2-953.4z"/><path fill="#000400" d="M2202.8 832.3L1955.1-232.5l79.8 1677.9 271.4 947.1z"/><path fill="#986b5b" d="M3040 739.8l-214.4 834.5-104.3 24.4-196.2-548.4z"/><path fill="#5f3421" d="M2649 658.4l698.7 1451.8 160-598.7 188 165.7z"/><path fill="#000902" d="M2304 2072.1l95.7-423-672.5 203.5-397.8 168z"/><path fill="#2d1707" d="M3236 1044.1L2885.6-18.8l-490 508.8-296.1-121.5z"/><path fill="#000100" d="M3033.8 1052.4l-52.5 234.5 1091.2-755.8-806.9-763.6z"/><path fill="#000e0c" d="M1159.3 1669.8l-569.9 562.5-821.9-1133.4L12 2392.5z"/><path fill="#9e7a72" d="M1068.7 1484.6l97 858.5 136.7-83 34.6-187.3z"/><path fill="#716c7b" d="M2384.2 384.4l-97.8-616.9h142.4l48.6 693.9z"/><path fill="#5f3f36" d="M1141.2 2292.9l-124.1-1821 194.4 680-165.7 734.6z"/><path fill="#57362a" d="M1291 2093.7l-10-862.6 768.2-633.2-305.4 1162z"/><path fill="#533c36" d="M880.1-232.5L920 608.9l217.6-841.4-233 288.4z"/><path fill="#11150f" d="M1048 2340.1l18.5-587.5-123-97.9-619.6 562.5z"/><path fill="#312d2a" d="M2163-232.5l27 257 197.2 1465.6 69.8-863.4z"/><path fill="#724e42" d="M1973 624l-254 362.7 358.6 671-115.6-88.2z"/><path fill="#0a0a05" d="M1251.1 93.3l503.6 585.2-70 217.4-114.5-30.8z"/><path fill="#815541" d="M2723.3 1636.7l369.5-374.3 192.1 253.5-44.3 529.7z"/><path fill="#31342c" d="M2393.3 1734l274 340.7 25-623.9-322.3 68.6z"/><path fill="#251b0b" d="M3467.3 1297.6L3307 1454.3l220.5 734.7 509.5 69.3z"/><path fill="#a8817c" d="M1167.6 1381.2L1320.2 636l8.2 681.9-557.2 185.4z"/><path fill="#3c2a22" d="M2063.5-215.3l-418 711.1-219 248.8-124-162.3z"/><path fill="#7a7c90" d="M475.6 118l59 307.5 55.6-658-822.7 405.3z"/><path fill="#b1857d" d="M1055.8 798.6l-129.9 658.9-44.7 5.3-39.3-667.2z"/><path fill="#704f4a" d="M-232.5 1409.7l900.9 136.6-84-722.1-34.2 435.8z"/><path fill="#99786f" d="M2855.2 958.3l-41 482.1-164.8-45.9-57-378.7z"/><path fill="#000200" d="M4072.5 1724l-307.4 49.5-981.5-2006 1265.2 176z"/><path fill="#020700" d="M1087 720.2l99.1-159.9L1264 845l-41.7-3.5z"/><path fill="#251712" d="M724.6 1641l-65-170.8L833 1037.3l24.3 283z"/><path fill="#0b1a13" d="M2288 2392.5l-1019.2-491.6 1415.3 42.7 212.7 273z"/><path fill="#000701" d="M2197.2 451.6l-70 1634.6-127.5-1655L1845.2 118z"/><path fill="#291e18" d="M1176.4 308.3l-701 88.4 779.4-274.9-828 810.3z"/><path fill="#070804" d="M1197.1 366.5l284.5 105.6 175.6-418L1509-232.6z"/><path fill="#673b2c" d="M3066 1552.4l-228.8-776.6 131.7-98.4 31.5-78.4z"/><path fill="#2a1b12" d="M1758.6 1166.6l-62.5 418.6-63.8-98.7L1589 1068z"/></g></svg>