<svg xmlns="http://www.w3.org/2000/svg" viewBox="0 0 3840 2160"><path fill="#3a220d" d="M0 0h3840v2160H0z"/><g fill-opacity=".5"><path fill="#cd7d2e" d="M1920.6 1136.5l107.5 1256-1694-473.8-566.6-770.4z"/><path fill="#000004" d="M2400.3-56.6l-2632.8 49L-35.1 1098l1463.4-54.6z"/><path fill="#f1a83f" d="M1875.8 1167.2l-100.2 663.4-194.1 561.9 119.8-1389.6z"/><path fill="#532208" d="M1455.7 1519l-1276.8-83-411.4 512.9 736.1 443.6z"/><path fill="#ffc252" d="M1157.8 2366.4l134.7 26.1 26.2-569.4-293.7 49.7z"/><path d="M2479.8-232.5l849.7 38 743 59.8L3580.8 1361z"/><path fill="#000002" d="M2126.3 836.4l-127.8 1145 2074-97.5-1529.1-195.3z"/><path fill="#d7943d" d="M578.5 1398.6l-811 66 141.3-251.2 1628.6 64.1z"/><path fill="#c56816" d="M2329.1-12.7l295.2-219.8 166.2 750.3-451.3-746z"/><path fill="#000003" d="M2975 1168l394-418-739.8-66.5 339 571z"/><path fill="#7c3d13" d="M2400.3 1553l747.2-227.2 622.3 310.5-862.3-28.7z"/><path fill="#000008" d="M1847.5 274.3l-332.7 815.9-1747.3-98.3L66.3-232.5z"/><path fill="#040509" d="M2484.2 2117.8l-22-1284L1812.6 1923l61.8-456.4z"/><path fill="#e8801f" d="M3825 769.9l130.7 419.8-207.4-85.6L4072.5-71z"/><path fill="#c17e32" d="M1450.8-212.1l-32 309.6-35.5 27.5-1034-357.5z"/><path fill="#9b5716" d="M3990.7 2325.9l-1674.8-224-766.1-222.8 61.2 321.2z"/><path fill="#44200c" d="M372 1796l1255.4-170 24.7-243.8-1133.9 257.5z"/><path fill="#602e0e" d="M-162.2 1495.2l-70.3 897.3 1515.4-33.4-705.7-886.8z"/><path fill="#623d19" d="M1612.6 1025.3l-894.9 154.4 1225.8 88.5-64.6-814z"/><path fill="#fbbe51" d="M1884 1368.4l-218.9-122 111.5 708-161-156.8z"/><path fill="#000404" d="M1829.5 406l-635.3-638.5 1427.7 751.4-16-407.2z"/><path fill="#a46522" d="M1357.7 1566.6L1151 1812.3l-22.9 489.2-200.3-551z"/><path fill="#1d0100" d="M3435.8 2070.8l478-192.7 158.7 514.4-326.6-1418.3z"/><path fill="#ffd86c" d="M1220.5 1882.3l120 61.4-36.8 50.4-138.2 340.3z"/><path fill="#683110" d="M4072.5 1625.5L2513 1425.8l2.9 309.8 449.6-5.8z"/><path fill="#3b1909" d="M2038 1208.7l65.2 75.3 39.9 274.8-421.8 143.6z"/><path fill="#01050a" d="M2525.9 1884.3L2169.6 1276l-445.7-328.2 669.8 133.6z"/><path fill="#000207" d="M2227.4-232.5L1601.6-8.3 43.5 1021.7l2019.2-588.4z"/><path fill="#ffd561" d="M1113.5 56.9L1565-232.5 1389.3 40.6l-418-273.1z"/><path fill="#5d4011" d="M2507 647.6l527.7-696.9-648.2 1190.7-71.5-119.2z"/><path fill="#a56d2a" d="M1338.6 1473.8l299.8-242.6-158.8-32.5L113 1354.1z"/><path d="M2758.7-232.5l534.9 401.6 33.8 296.7L4072.5 3.5z"/><path fill="#0c0b05" d="M3082.9 840.7L2698 1229.4l62-648.5 87.3-437.6z"/><path fill="#796417" d="M1982.4 523l-332.6 452.8 50.3 32 151.5-445.4z"/><path fill="#422517" d="M738.7 1210.6l923.5-74.8-1894.7-115.4 409.7 145.5z"/><path fill="#e79c43" d="M-232.5 1445l558.3-103.6-1.6-81.3-376.6-21.3z"/><path fill="#be7a27" d="M1578.3 1562.2l344.6 830.3 74.6-778.3-313 778.3z"/><path fill="#120101" d="M4072.5 1732.9L3420.7 1961l-598 28.7 24.7-276.6z"/><path fill="#5d2e0e" d="M1688.1 1051.5L1473.2 2330l-59.4 62.6 10.3-627.8z"/><path fill="#713d18" d="M2617.8 1256.7l-26.8-232.2-149.7 591 339.2-61.3z"/><path fill="#4f2c0a" d="M3157 386.7l216.2-103.9-374.1 8.6 79.8-296z"/><path fill="#593812" d="M2122.8 948l217.2 84.3-192-461-455 464.8z"/><path fill="#6b3d0f" d="M2958.6 12l-3.3 72.7L2829-50l79 423.9z"/><path fill="#733f0f" d="M1468.2 1782l82.6 610.5 314.3-657.6 20.7 342.6z"/><path fill="#190600" d="M1139.2 104.5l123.9-337L1396 236.9l-78 145.6z"/><path fill="#411808" d="M3219.9 1448.2l-305.5-118.4 411.2-606.5 493.8 918.8z"/><path fill="#000106" d="M328.4 933.2L-232.5 33 1083.7-87l1.6 360.3z"/><path fill="#c87728" d="M1783.3 1134l-75.4 118.9-80.8 53.2-28.5 759.5z"/><path fill="#743e14" d="M137.7 1633l294 81-229.2 350.5-320.8-248.7z"/><path fill="#441e08" d="M1919.8 1967.3l-121.6 47 140.2-456.3-148.7-7.3z"/></g></svg>