<svg xmlns="http://www.w3.org/2000/svg" viewBox="0 0 3840 2160"><path fill="#49597d" d="M0 0h3840v2160H0z"/><g fill-opacity=".5"><path fill="#ffd1cc" d="M1290 2392.5l376.3-589 350-2036 269.9 2464.1z"/><path fill="#00011d" d="M2066.2 1876.2L-7.3 904.8l-225.2-924 1127-213.3z"/><path fill="#b5adbb" d="M2773.9 958.2L4072.5-117.7 962.2-232.5 1572 1061.8z"/><path fill="#002379" d="M4072.5 2161L3493.7 874.8l-1471.3 892.7 598.3 536.6z"/><path fill="#ff223c" d="M2210-232.5L2071.4 161l-303.2 1559 249.9 89.7z"/><path fill="#fff" d="M1770.4 1705l-512.3 687.5 522.7-19.6L2532 2181z"/><path fill="#00204a" d="M-107.2 2111.8l1257.6 280.7 729-762.6-486.2 1.3z"/><path fill="#fff" d="M-232.5 1045l1026.6 342.5 412.2 52-1438.8-467.8zm2074.6 236.4l39.4-635.4L1691 2141.1l132.5-542.7z"/><path fill="#001530" d="M2629 1824.5l-515-400.3 14.2 474.5 642.4 407.7z"/><path fill="#2e0a16" d="M1856.5 1351.5l64.2 1041 75-840.4 1.7 48z"/><path fill="#0343d4" d="M2929 1484.4l307 240-25.6 505.2-570.8-253.5z"/><path fill="#ffc0ca" d="M1853.4 814.6l283.7 420 76-523.1-239.2-944z"/><path fill="#002343" d="M1646 1531.9L944.1-232.5-232.5 944.1 586.9 1228z"/><path fill="#5a7692" d="M4072.5 621.3L3287 983l-1215 58.8L3238.3-77.9z"/><path fill="#fdffff" d="M2131 1246.5l-194.9 1146 481.2-277.7-313.6-244.1z"/><path fill="#153059" d="M2863.8 2135L2155.2 980.4l-52.2 978.2 41.1-37.5z"/><path fill="#c5dbdc" d="M1194.3 1510.4l274.9 43.6 49.9-20.4-1393-434.4z"/><path fill="#d9dae3" d="M1835.8 1332.7l-168.8 186 227.7 420-165.7 359z"/><path fill="#ff2138" d="M2055.4 411.3l-55.2 748.9-222.3 788.3L1928 778.3z"/><path fill="#fef0ee" d="M1804.4 1436.5l342.4-1669h28.6l-289.8 453.8z"/><path fill="#041e3b" d="M1546.7 863.8l-289.4 1528.7 367-566.6 129.5 25.7z"/><path fill="#250000" d="M1836.3 1664.1l35.8-131.2 145.7 66.5-203 250z"/><path fill="#274360" d="M3639.9 147.4l-1129.6 90.5 1306.8 105 255.4 114.6z"/><path fill="#1b3751" d="M1247.3 558l536.4 848.7 59.7-608.9-96.1 436z"/><path fill="#ac80a8" d="M2030.5 1771.6l-22.5 620.9-183.6-413.4 11-102z"/><path fill="#d3eaf1" d="M2210.2-188l57.1 503.6-180.2 968.6 82.2-871.7z"/><path fill="#2f598a" d="M148 2392.5l1412.6-824.4L-107 1111.3l-125.5 822.4z"/><path fill="#fff5ff" d="M2042.8 2392.5h-1.5L2037 1324l119-403.6z"/><path fill="#415c77" d="M1325.1 171.4l-175.3-344.2 510.6 138.3 263 216.3z"/><path fill="#557185" d="M410.9 486.2l-643.4-525v-92.7L429 386.4z"/><path fill="#8dd8ff" d="M3049.5 2086.9l2-51 74.9 10.4 17 204.5z"/><path fill="#001830" d="M3392 1268.8l4.5 312.7L3204 1633l-78.7-345.6z"/><path fill="#392927" d="M2820.1 1231.8l-508.7-47.7-135.2 32.2 287.8 132.9z"/><path fill="#226298" d="M3984.1 623.5l88.4 138.5v1208.6l-682.4-969.2z"/><path fill="#88a0bd" d="M2172.4 414L3900 541.8l172.5-137.6-1701.2-175z"/><path fill="#ff152c" d="M1550.6-72.7l688.1-15L2100 641.7l-15.6-838.3z"/><path fill="#f5fff8" d="M-151.7 993.4l-48.5 104.7 982.5 223.1-606.8-204z"/><path fill="#f6ffff" d="M1495 2168.6l313.8 223.9-13.4-693.4-555 693.4z"/><path fill="#000c25" d="M2103 1714.3l33 159.7 270 171.7 176-341.3z"/><path fill="#1b395e" d="M1421.2 722.3l205.6 338.2-818 207.6-106-556z"/><path fill="#335483" d="M3052.4 1325.8L2649.6 1759l-498-87.6 4-431.9z"/><path fill="#3d4f68" d="M3163.7 682.4l-1124.8-2.7L4072.5 843l-976.2-161.5z"/><path fill="#003062" d="M4072.5 1791.7l-317.8 593.7-401.3-63.8-271.2-401.2z"/><path fill="#789cbe" d="M3721 205.6L2622.3 83.2l525.4-315.7 924.8 394.2z"/><path fill="#fdd9e2" d="M2081.8 393l-140 1156.3 43.5-102.9L2107 418.2z"/><path fill="#031738" d="M1604 1405l-127.4 413.1-1128.8 574.4L1754 1805.9z"/><path fill="#5b7ea3" d="M-116.6 1085.6L1568 1596l-1800.5-334.2V981.7z"/><path fill="#051124" d="M833.1 1315.3l-421.9-220.1 98.5-697L162.6 1060z"/><path fill="#31435c" d="M3746.5 538.8l-954.8-88.5 7.5 90.5 1077.2 110.6z"/></g></svg>