<svg xmlns="http://www.w3.org/2000/svg" viewBox="0 0 3840 2160"><path fill="#776e78" d="M0 0h3840v2160H0z"/><g fill-opacity=".5"><path fill="#ffffd4" d="M1317.3 853.7l-1549.8 34.6 1060 1504.2 1894.7-480.2z"/><path fill="#000031" d="M4072.5 67.6l-204.6 2324.9L2638 2271.8 2064.6 920.5z"/><path fill="#fff" d="M1863.1-232.5l1382.1 100.8 324 498.5L2442 527.5z"/><path fill="#000035" d="M1068.7-232.5l329.1 927.3L-186.4 813 38.8-232.5z"/><path fill="#ffffba" d="M1493.7 725.4l-348.2-957.9 286.3 57 708.4 789.1z"/><path fill="#040050" d="M1379.2 815l706.7 501.3 1674.7 1076.2 311.9-1915.6z"/><path fill="#ffffc9" d="M-180.8 982.6L889.6 2392.5l1288.8-270.7-2065.7-1227z"/><path fill="#4e513f" d="M847 943.9l551.9 770.6-317.5-100.4-852-1207z"/><path fill="#fff2ba" d="M875.5 2392.5L2335 1936.3l260.5-221.2-976.6-315z"/><path fill="#ffffc1" d="M2515.7 580.5L2036.5 23.7l1143.3-256.2 331.5 547.9z"/><path fill="#494647" d="M1189.5 1610.3L2396.8 437l-16.5 536L1120 1802.6z"/><path fill="#070736" d="M-161.7 1251.1l147 1081.3 761.5 60.1-462.1-584z"/><path fill="#030052" d="M2231.3 2007l23 202 1818.2-38.4-39.2-1399.3z"/><path fill="#060149" d="M4009.8 40l-677-272.5 309.9 579.9 30 1234.8z"/><path fill="#000053" d="M23.2-232.5l1044 14-92.8 693.7L-232.5 658z"/><path fill="#ffeec7" d="M469 818.3l-696.5 324 1888.4 1250.2-558.5-775.8z"/><path fill="#fffdcb" d="M1431.4 83.2L1882 598.9l176.4-102.8-648-728.6z"/><path fill="#63614f" d="M1139 799.2l290.8 360.9 857.1-523.3-2476.8 116.4z"/><path fill="#665e56" d="M3494.1 576.4l35.4-235.9-949.8 181-221 470.3z"/><path fill="#f8e2af" d="M2562.8 1785.4L1968 1320.1l-339.7 136.3 172 852.4z"/><path fill="#ffeec9" d="M2525 531l-566.7-633.6 1366.8 39 10.3 383.2z"/><path fill="#fff6b8" d="M989.5 919.3l163.1-93.3-403.4-9.6 647.4 740.7z"/><path fill="#54505a" d="M2646.2 1902.7l36.7-99.3-297.2-810-404.4 258.5z"/><path fill="#5b5a55" d="M861.4 596.2L585 469.5l693.6 743.7 25.1-3z"/><path fill="#a9a074" d="M1946.9 728.2L1498.7 714l-185.5-288.2-117-658.3z"/><path fill="#3b3154" d="M3415 668.9l-1143.3 684-248.7-1131 336.4 358.9z"/><path fill="#6e745d" d="M1197 1792.5l802-681-964.4 415.6 296 107z"/><path fill="#ffeeb9" d="M760.6 740.3l550 546.4 399.3-211.1-420.9 368.8z"/><path fill="#fce6b9" d="M1779.7 752.4L1436.3 309l-154-278.8 328.5 407.2z"/><path fill="#727957" d="M901.4 2392.5L15 1264.8l-247.5 89.7L715 2343.2z"/><path fill="#ffe9c1" d="M1861.1 642.2l143.6-43.4L2072 573l-829.2-790.4z"/><path fill="#666c56" d="M1855 2286.5l876-661.5-578.1 767.5 189.7-268.2z"/><path fill="#f4deba" d="M1327.5 1716.3l-617.1 406 1362.7 268-178.9-1107.5z"/><path fill="#f9e3bf" d="M338 1682.7L153.4 839 635 1027.1l1127.9 1365.4z"/><path fill="#7b7f59" d="M2556 646.7L2106.7 78.5l-623.1-285.3 510 681z"/><path fill="#595657" d="M1301.4 234l-53.7-251.3L1086-77.8l235.2 1191.7z"/><path fill="#64675e" d="M1995 775l-106.3 27.6 220.6 343.8L1410 102.5z"/><path fill="#8a8963" d="M3189.7 529.2L2980 546.7 2323 595l1443.5-337.9z"/><path fill="#181153" d="M2324.3 2392.5L3627.4 399.7l55.7-632.2 389.4 724.9z"/><path fill="#b6a979" d="M1536.3 1024.7l-182 314.4-203.5-176.4 339.8-304.5z"/><path fill="#f9e4b5" d="M1371.6 1390.7l283.7-317.4-491.8 267.2-413.1-528.3z"/><path fill="#1a1351" d="M-161.9 2375.3l-70.6-920.3 559.7 702.2-185.9 70.5z"/><path fill="#7e8066" d="M982.8 1384.3L263.1 628.6l533.8 317 674.2 719.7z"/><path fill="#696d5f" d="M2492.7 1748.1l-355-277.9-607.3-506.6 848 458.2z"/><path fill="#2d2357" d="M1225.8-22.6L965.4 623.6 55.7 666.7l-288.2 52z"/><path fill="#0e0a54" d="M2875.4 2392.5l-133.1-382.3 828-1272.2 502.2 1376.5z"/><path fill="#2d2458" d="M2674.6 757.9l-487.4 155.6 532.5 1234.9 41.2-451.4z"/><path fill="#f8dcad" d="M3553.2 329.7l-404.9-562.2h553.6l-1276.6 781z"/><path fill="#524f57" d="M1827.6 1325.6l22.2-663.1L1223.6 960l296-28.2z"/><path fill="#100954" d="M32.6-125.5l651.4-107 169.6 595.6L-232.5 393z"/></g></svg>