<svg xmlns="http://www.w3.org/2000/svg" viewBox="0 0 3840 2160"><path fill="#7a8894" d="M0 0h3840v2160H0z"/><g fill-opacity=".5"><path fill="#fff" d="M1964.8 931.7l-2197.3 596.6L3309 1542l675.5-155.3z"/><path d="M1659.8 552l-321.7-106-357.2 637.2 675.9-2.4z"/><path fill="#051b35" d="M181 1521.8l-390.7 608.5 2484.4 262.2-237.6-830.8z"/><path fill="#00041d" d="M3695.2-232.5l377.3 594.7-2203.2-130L-232.5 77.7z"/><path fill="#fff" d="M1216.3 334.6l-123.6 11.3L2041.1 693l692.3-312z"/><path fill="#fff" d="M488.7 579.5l-547.5 25.1-64.5-354.2 1558.5 154.8zm3576.9-190.2l-1288.4 3.4L3430 703.2l642.6 12.8z"/><path fill="#0c2a4b" d="M3570.7 1230.4l33.7 655.2 468.1-977-887.9-186.1z"/><path fill="#001735" d="M-98 692.7l152 1219-286.5-349.4 643-43.5z"/><path fill="#fff" d="M152.8 1217.4l493.6 302.8 3426.1 8.3-2441.2-359.7z"/><path fill="#fff1dc" d="M652.3 839.4l526-329.9L876.6 1541h815.7z"/><path fill="#000205" d="M1765.2 1860.7l710.6 490.5-2016.3 41.3 1006-576.5z"/><path fill="#000002" d="M1071.7 1072.9l177.8-617.6 400-33-33.8 659.5z"/><path fill="#223736" d="M1880.5 789.3l1181.8-323.8-716.2 11.6 607.7 670z"/><path fill="#ffc55e" d="M2439 796l309.3-233.6 213.4 8L3001 1034z"/><path fill="#fff" d="M2793.6 1089l-399.2 432.5 1108.5 12.7 83.9-327z"/><path fill="#c36e14" d="M1248.6 478.3l-544-25.6-103.5 198.6 682.4 82z"/><path fill="#65829d" d="M1468.3 1777.1L416 2271.6-34.3 1405 834 1649.6z"/><path fill="#b0c8e5" d="M3622.6 2392.5l-733.1-300.4L3223 1832l849.4 123z"/><path fill="#26445f" d="M108.3-232.5l1947 508-1636.5-79.9-651.3 241.6z"/><path fill="#f3fdff" d="M2423.1 935.5l-640-48.8-165 19.8 123.4 213.8z"/><path fill="#fff" d="M1628.6 611.4l673.7 66.5-6.6-251.7-569.5-103.3z"/><path fill="#29384a" d="M2494.3 1061.4l33.8 32 1406.8-25-406-242.9z"/><path fill="#245c4f" d="M3302 730l73.2 68.3-679.8-355.8 577.8 54z"/><path fill="#0c0800" d="M2578.3 615.5L2553.5 781 2327 532.5l627.2-88.2z"/><path fill="#1e3957" d="M2996.6 1582l1075.9-87.8-495-301.1 14.1 558.2z"/><path fill="#fff" d="M2792.1 466.4l1280.4-50.2-1154-31-856 10zM397.2 1529.9l1123.8 9.7-1072-378.3-74 317zM-232.5 445.8l1361.7 5 1157 25.8-1139-155.6z"/><path fill="#9cbad9" d="M2276 2392.5l-263.4-774 780.1-25.2-215.7 146.2z"/><path fill="#f4e3c7" d="M861.7 635.2l-156.6 87 44.6 465 417.8-357.4z"/><path fill="#577391" d="M2107 1206.2l-2339.5-26.8 1467.6-36.1 300.8-64.2z"/><path fill="#fcffff" d="M3266 688.4l37.4-258.5 565.5-4.6 203.6 257.8z"/><path fill="#375370" d="M-125.3 630.1l560 998-667.2-324.4 902.4-567.3z"/><path fill="#13222b" d="M4072.5 323.6L2991.2 81.8-232.5 50l3915.2-282.5z"/><path fill="#4c849e" d="M2502 717.5L1993.5 626l361.6 430.6 241.1-76.4z"/><path fill="#fdffff" d="M488.8 614l-721.3-274.5L721.6 358 650 579.5z"/><path fill="#98999d" d="M782.8 1254.4l1831.4 42.3-2067.8 73.6L1902.8 692z"/><path fill="#52779e" d="M1749.1 94l424.2-75L233.5 344.9l3611.4-2z"/><path fill="#dee3e8" d="M2580.8 1093.4l798.6-11.4-153.2 183.6-956.6 30.6z"/><path fill="#436693" d="M2400.4 2392.5l588.6-.3 40.2-799.7-224.7-64.9z"/><path fill="#f8bc6f" d="M2527.2 655l334.6 310 193.4-200.8L2877 490.6z"/><path fill="#5d666f" d="M2064.3 2338.5l10.9-861.5 513.5-1.5-546.5-55.9z"/><path fill="#253542" d="M380.6 1425.6l-8.3-197.9-549.4 211 467 17.2z"/><path fill="#1b242c" d="M1606 1556.5l-472-21.7-329.8 9.4L1861.3 1881z"/><path fill="#384d4b" d="M2893.3 1256l-319-298.6-281.5 25 568 162.5z"/><path fill="#74b9be" d="M3095.4 418.3l-165 637.3 618-470-256.7 317.1z"/><path fill="#45220f" d="M866 1103.4l35.4-96.7 218.3-8.1-116.6 96.6z"/><path fill="#010c21" d="M1660.7 1052.9l-14.8-620.6-270.2 87.3L1076 1054z"/><path fill="#0f111a" d="M3253.8 409.9l40.5 541.3-59.3-36.8 7-510.6z"/></g></svg>