<svg xmlns="http://www.w3.org/2000/svg" viewBox="0 0 3840 2160"><path fill="#403f4f" d="M0 0h3840v2160H0z"/><g fill-opacity=".5"><path fill="#8f99ba" d="M1224.3-69.8L256.6-6l-489.1 986 2593.2 121.9z"/><path fill="#c3b6ac" d="M1492.6 1000.4L1979 512.2l358.2 407-352 513z"/><path fill="#010000" d="M1939 2329.4l-312.8-1293.3-875.3 10.7 8.2 1345.7z"/><path fill="#8dceff" d="M1535.6-230L799 922.3l601.7 155.2-293.4-1274.2z"/><path fill="#5a79c9" d="M592.6 602.4l160.6 603.3-29.6 505.7-844.8-541.5z"/><path fill="#190002" d="M1405.4 906.6l-128.6-74L1599 275.1l700.6-10z"/><path fill="#16181d" d="M3520 1985.2l330 407.3 1.5-2625-2837.1 2625z"/><path fill="#54362b" d="M904-53.9l-96.3 1157.3L412.4-26l-35 79.4z"/><path fill="#b5a5a6" d="M2716.3-144.8l-1338.8-87.7 369.4 100.1 14.9 396.7z"/><path fill="#5e4f56" d="M2782-50.2l-819.9-96.6 820 1449.9 462.5-498.6z"/><path fill="#bf4f75" d="M2324.7 1724.4l299.6 50.3 86-241.3-395.5 13.3z"/><path fill="#110c1c" d="M1666 1489.1L145 2392.5l-377.5-756.4 1861.2 527.5z"/><path fill="#0d0003" d="M2226.5 1036l233.7 655.8 177.9-538.5 56.8-225.4z"/><path fill="#beb8b3" d="M2217.5 1213.3L1862 1395.8l-175.3-181.5 47-175.4z"/><path fill="#277062" d="M2138.2 2392.5l-30.7-942.3-473.7-61 239.6 668z"/><path fill="#aba8b4" d="M2517.7 990.5l-387.4 29.8 539.5-274.7-115.9 57.5z"/><path fill="#62493c" d="M1703.5-232.5l-608.3 698.7 13-506.3 444.3 1121.5z"/><path fill="#81beec" d="M1256.3 1043l-314.5-12.6-22-257.9 799.4 277.1z"/><path fill="#8c868e" d="M3177.4 2273l287 52.2 113-440.8-250.2 87.7z"/><path fill="#240914" d="M2212.8 944.8l281.1-99.6 86-270.7-319-29.2z"/><path fill="#180616" d="M2123.3 323.2l300.1 342-848-164.8 184.8-178.3z"/><path fill="#101519" d="M3477 1880.8l262.3 511.7 333.2-917-2506.8 680.7z"/><path fill="#0e7f68" d="M2812.5 2392.5l240.5-535-357.3 146.7-432 388.3z"/><path fill="#51609d" d="M761 1699.3l-47.3-723.4-370-1208.4-576.2 416z"/><path fill="#1e1928" d="M1447.2 934l153.2 48.4 95.5-526.7-409.8 440z"/><path fill="#a4b6dd" d="M2704.8-232.5L1058.4 76.7 952.5 265.9l-77-498.4z"/><path fill="#75a2d7" d="M527 1260.4l483.7-879.9 440.8 292.3-643.6 84.5z"/><path fill="#00040f" d="M3280 1956l-51.6-101-473 487.4 453-98.8z"/><path fill="#675561" d="M2032.3 788.8l-103-.4 120.2 396.5L2379 232.5z"/><path fill="#150a0d" d="M2208.9 2172l246.1 220.5 191-522.2-505.5-268.9z"/><path fill="#9a4b6b" d="M2543 1676.4l-286.6-40.9 492.1 251.7-266.3-527.6z"/><path fill="#573861" d="M1002.3 2081.7L924.5 1464l13.3 428.8-227.4 436.3z"/><path fill="#75625b" d="M1393.4 64l173.8 72 61.3 508.5-683.9-444.7z"/><path fill="#705245" d="M1453 1194l682.5 375.5 85.6-509.7-167.1 317.7z"/><path fill="#b4f7ff" d="M1335.9 1049.1l-14.4-155 229.7 124.6 126 3.6z"/><path fill="#0d0f14" d="M3862 451.6l210.5 1187-565.2-305.7L3744.8 980z"/><path fill="#99919a" d="M1608.9 985.2l80-375 460-16.7-255.4 325.1z"/><path fill="#a39391" d="M68.7 889l94.4 263 126.2-369.8-195.6-12.8z"/><path fill="#3a4171" d="M791.8 1654.6L637.5 1733l-758-1040.8-63.8 933.4z"/><path fill="#494771" d="M437.7-232.5L184.3 777.7l-416.8 231.7 64.1-703.9z"/><path fill="#535371" d="M3014.2 750L2670 1386.7l-13-676 182.9-1.4z"/><path fill="#5f7cb6" d="M413.3 1036.7l276-174.4 71.4 633.3-240-20.7z"/><path fill="#0f020d" d="M2380.1 1012.2l348 544.5-18.2 335 301.9-175.7z"/><path fill="#11030c" d="M2219.2 1269l-3.2-266 561 66.3-284.8-31.6z"/><path fill="#a09ba2" d="M1868.6 163.6l457.9-396.1-556.6 559 17.7-442.4z"/><path fill="#170615" d="M1617.1 1221.9l80.8-6.4-916.2 260.2-69-488.9z"/><path fill="#85bae4" d="M1071.6 900l191.7-43.3 87-202.9-142-300z"/><path fill="#3c2f25" d="M1899.9-34.3L831.4-232.5l784.1 362.8 95.2-43.8z"/><path fill="#502d29" d="M1736.1 1130.2l737.7-77-650.2 21.7 82 18.2z"/><path fill="#a7a9aa" d="M2634.9 927.2L2032.2 1057l-487.3-45.5 153.2-82.7z"/></g></svg>