<svg xmlns="http://www.w3.org/2000/svg" viewBox="0 0 3840 2160"><path fill="#b58360" d="M0 0h3840v2160H0z"/><g fill-opacity=".5"><path d="M-232.5 2134.3l2607-271.1L3813.7-232.5l258.7 2625z"/><path fill="#ffffc3" d="M59.2 2082.4l2467.9-244.6 423.6-1655.4L60.9-144.9z"/><path fill="#b50000" d="M2451 1593.2L3130-216l712.6 145.4L3693.2 1579z"/><path d="M3103.3 1800l904.4-68-243.7 660.5-3947-257.8z"/><path fill="#fec01a" d="M44.3-232.5L74 1542.6l571.6-932.2 1316.6-842.9z"/><path fill="#431a08" d="M1250 1865.8L778.6 1664l207.8-220.4-496.2-342z"/><path fill="#830200" d="M2907.1 963.3l-33-1153.3 1116.6-42.5-98.5 1780z"/><path d="M59.4 894.7L61.7 120-102-232.5 27.6 2380.7z"/><path fill="#ffd8cf" d="M2074.4-127.4l283 1659.5-1308.8 184.1L606.4 533.4z"/><path d="M3201.2 1577.6l-835.3-111 869.5 925.9 837.1-380.9z"/><path fill="#fde8e5" d="M3430 1743.8l200.2-119.1 185.6-168L3735 1758z"/><path fill="#af3013" d="M2386.4 1124.9L1502 1229.5l2279.8-588.1-53.3 821z"/><path d="M3583.3 1783.7L920.9 2012.5l-1153.4 180.6 4305 3.8z"/><path fill="#7e2901" d="M2019.7 617.7l485-61.8-642.3 36.5L1053 855.2z"/><path fill="#be8815" d="M1747.3-106.4l-533.5 304.7 1444.9-430.8L2427 386.4z"/><path d="M4072.5-39.6l-290.3-192.9-20.1 2625H4006z"/><path fill="#ffce9b" d="M2641.8 1151.6L2955 611l-193.3-776.4-381 46.4z"/><path fill="#efc1a8" d="M2969 1154.7l-140.4 526.5 65-572.5-392-782.5z"/><path fill="#885a25" d="M1312 123.2L476.3 738l353.5 226.6L531 629.9z"/><path d="M3314.7 482.2l-370.2-35.7L3450 851.2l-215.4-404z"/><path fill="#861405" d="M1399.1 1752.4l1518.4-291.7 528.4 342 353.9-608z"/><path fill="#b11c03" d="M3753.6-166.8L2781 272.6l134.8-388.8L3757 1165z"/><path fill="#ffd9a8" d="M143.8 2067.5l712.4-40.4 339.6-90L72.7 992.4z"/><path d="M-232.5-1.6L62.2 9l-20 202 19.2 1812.3z"/><path fill="#ffd0c0" d="M1735.9 1862.7L909.7 428.5 1266.6 1970l2071.7-190.8z"/><path fill="#ffd53e" d="M1838.7-232.5l186 280.3 366.4 180.7 774.2-307z"/><path fill="#6f2e16" d="M2363.5 248.3L2667.1 1483 2422.6 383.8 2524 118.4z"/><path fill="#ffc2a1" d="M2714.6 1467.3l12.8-289-384.2-91.8L1608 1676z"/><path fill="#572e0f" d="M3073.8 920.2l-1823.9 361.7 199.4-13.8 190.7-32.8z"/><path fill="#220300" d="M671.9 1366.6l77.7-72.5-152.9-112.9 60.8-183.8z"/><path d="M3819.3 2392.5l49.5-683.6-267.3 30.2L655 2114.3z"/><path fill="#ffc2b4" d="M2498.9 1851.8l-1504-183.6 1690 111.8 223-239.8z"/><path fill="#1e0000" d="M2676.6 1544.5l728.5 229.8 562.4-481-679.5 294z"/><path fill="#c06132" d="M2378.4 677.6l81.8-239.8 161.4 1121.8 67-663.6z"/><path fill="#fbd272" d="M47 1910.8l585.3-345.6L575 568 58 875.4z"/><path d="M55.8 2130.2l1186-136-1474.3 398.3 283.8-888.4z"/><path fill="#9c1300" d="M3429.6 888l-519.8-409-74.1 385.2 285.8 891.6z"/><path fill="#ffd5c8" d="M2490 291.7l-12.4 445 499.1-335.2-178.3-220.2z"/><path fill="#ffdbc2" d="M2398.9 673l74.7 389-1843.8 47 1425-497.2z"/><path fill="#270c00" d="M1036 1695.4l243.8 106.2-439.6-100.8 43.1-137.3z"/><path fill="#ffdfc8" d="M2215 251.5l197.7 216.1L635.2 589 1448 120.4z"/><path fill="#ffcfc0" d="M2559.7 1802.2l-63-226.4-1211 213.3 163 108.4z"/><path fill="#ea8553" d="M2416.1 527.2l348.1 792.7-452-673.3-512.6-161z"/><path d="M4072.5 517.6l-295.4 1301 5-835-12.3-1094.8z"/><path fill="#fff3e9" d="M3525 1721.4l162-4.9 78.5 30.7 1.2-235.7z"/><path fill="#491d08" d="M2436.4 435.8l-11.2-87.2-575.8-432.9L2251 258.5z"/><path fill="#321300" d="M562.4 1193.5l140 120.8 162 118.9 79.4-18.5z"/><path fill="#6a3d13" d="M566.5 660.7l53.1 124 19.3-263 295.8-152.5z"/><path fill="#a2766d" d="M3541 1731.6l-210 63.7-445.5 7.2 423.2-63.5z"/><path fill="#3d1207" d="M1820.7-1.9l-875-61 1221.8-139.7-942.2 389z"/></g></svg>