<svg xmlns="http://www.w3.org/2000/svg" viewBox="0 0 3840 2160"><path fill="#f4ebd4" d="M0 0h3840v2160H0z"/><g fill-opacity=".5"><path fill="#69492f" d="M1282.3 1584l253-414 737.9 119.8-831.4 362.5z"/><path fill="#ce8b94" d="M1636.1 1885.4l2436.4-553.8-272.3 1060.9-4032.7-248.8z"/><path fill="#fff" d="M3853-232.5L-232.5-43l2945.2 1706.3 1286.5-564.1z"/><path fill="#ffffae" d="M1051.7 306.9l-1284.2 488 106.3 1038.4 1264.7-355.7z"/><path fill="#8f5210" d="M1258 1390.6l390.2-141.4-98.5 235.2-210.8 164z"/><path fill="#fff" d="M2080-232.5L2040.1 1086l-249.7 237.4-716.9-229.6z"/><path fill="#3c414d" d="M2033.3 1405.5l-103.3-97-214.1 85 377.1-279.2z"/><path fill="#7a867b" d="M1188.5 953.8l30.3 368.9-105.5-705 105.2 288.9z"/><path fill="#ffffea" d="M4072.5-232.5L-120-74.3l2244 1392.7 1845 15.6z"/><path fill="#fafff7" d="M2121.6 1490.8l-527.6-107 330.9 218.7 351.2-534.2z"/><path fill="#ffffed" d="M-232.5 869.6l872-250.2 939-763.4L-188.6 7.6z"/><path fill="#352d30" d="M1364 1378.4l373-203-239.6 323.4 231.3 4.9z"/><path fill="#f29740" d="M1208.6 1309.1l478.1 244.7-302.8 47.6-169-408.3z"/><path fill="#cf9c9a" d="M1323.7 2336.7l710.7-344.2 1935.5-112.7 102.6 512.7z"/><path fill="#ffffe7" d="M1383 1755.7l-160.4-321-1455.1 157.8 115.8 437.9z"/><path fill="#edcec7" d="M4072.5 1243.2l-4305 900.2 4305-449v-832z"/><path fill="#ffffaf" d="M1134.8 745.5l-5.8 250.4-1012.5 761.8-349-898.8z"/><path fill="#ffffef" d="M1566.5 1555L1089 1846l2397.7-585.1-1880.4 316.3z"/><path fill="#f9f9fd" d="M1650.7 1135.3l-737.3 79.2 386.3-343.1 77.4 526.6z"/><path fill="#fffff6" d="M1931.8 1601.8l-156.5-271-2.2 359.4-834-2.3z"/><path fill="#284349" d="M1442 1267.2l64.6 212.8 172-207 113.7 107.3z"/><path fill="#f1a2a8" d="M1593.5 1188.8l17 88.6 147.3-23.5 456.5-96.3z"/><path fill="#fbfeda" d="M2119.3 437.7l1541 669.5-1558.9 428.2-86-719z"/><path fill="#1d2c25" d="M2024.2 1384.2l102-113.7-174.4-21 3.3 193z"/><path fill="#c8dae0" d="M1951.5 1433.1l40-112.3-341.9 144.7-256-149.3z"/><path fill="#dbdecf" d="M2044.2 1703.5l170.4-852.3-221.4 112 182.5-743.3z"/><path fill="#ffffc0" d="M32.4 1839l1299.4-381.1-725-1073-790 353.7z"/><path fill="#f7fcf7" d="M1790.6 1307.4l-786.7-149.7 194.5-201 617.5 423z"/><path fill="#484131" d="M1944.4 1276.4l-256.9 217.3-67.2 55.8 107.1-143.5z"/><path fill="#ec933e" d="M1259.5 1591.7l14.1-142.2 390.1 54.4-254 92.4z"/><path fill="#feffff" d="M1605.2 1081.7L1077 412.5l824.7-97.3 175.4 953.3z"/><path fill="#d47881" d="M1990.9 1201.7l-196.2-38-88.5 16 66 43.3z"/><path fill="#e9cfc6" d="M-232.5 2079.8l289.2 312.7 1935.3-566-1546 82.3z"/><path fill="#e3d7ca" d="M1708.8 605l-99 80.6 114 71.3-312 489.5z"/><path fill="#4e5346" d="M1169 751.6l38.6 223.1-52.4-110.3-36.2-105.3z"/><path fill="#dfeaea" d="M1784.1 1227.6L1976 1366l-124.1 43.8 85.4-118.2z"/><path fill="#ffa" d="M-14.1 891l-115.5 459 1019.4-33.1-34.6-481.6z"/><path fill="#293233" d="M1838.1 1439l37.7-229.9-79.4 156.6 71 29.4z"/><path fill="#ffe" d="M4072.5 108.6L76.3-232.5-232.5 681l1422.3-414.8z"/><path fill="#2b2c1f" d="M1441.4 1440.8l288.5 68.5-157-87.9 68.3-161z"/><path fill="#fbfceb" d="M1998.5 1680.8l-231-358.5-14.7 289.4 2319.7-809.4z"/><path fill="#ef9543" d="M1328.7 1615.7l51-275.7 131.2 143.5-53.4 153z"/><path fill="#ffffec" d="M1809.9 1293.6l192.6-109.4 2070-867.9-1371.7-548.8z"/><path fill="#fcfdf6" d="M1424.2 1308.5l183.7-56.7-442.2-107.3 121-900z"/><path fill="#da863a" d="M1757.2 1566.6l-80.9-10.2-229.9-52.6 346.9-17z"/><path fill="#d6cbbe" d="M1513.8 1068.7l-112.4 69.7-42.7-169 286.7 301.2z"/><path fill="#1d261e" d="M1916.2 1217.2l139.5 190.3-160.8-141.2-22 28.8z"/><path fill="#ffffe6" d="M3754.2 408.8l318.3 740.7-1799.6 508.1-209-366.3z"/><path fill="#f9f4ff" d="M1076.2 1096.8l-93.1 107 369.4-18.6 85.2 194.8z"/><path fill="#d6d2c3" d="M2150 1108.1l-105-156.3 60.4 598.3 15.1-226.7z"/></g></svg>