<svg xmlns="http://www.w3.org/2000/svg" viewBox="0 0 3840 2160"><path fill="#7d5f43" d="M0 0h3840v2160H0z"/><g fill-opacity=".5"><path fill="#ffffd6" d="M3133.1 1543.7l-3341 848.8 4025.9-18.3 254.5-935.4z"/><path fill="#ffffdc" d="M484.2 1599.6l-302.5 498.6-414.2 236.3v-1263z"/><path fill="#0c1900" d="M-232.5-195.5L2815.7-58 3374 533 154.7 669.5z"/><path fill="#501818" d="M435 2092.7L1640 650.5 3259 1391l-1192.4 489.7z"/><path d="M4072.5 1314.7L3267.9-232.5l90.7 316.3 468-316.3z"/><path fill="#c27d74" d="M3372.6 1012l-170.5 60-455.3-647.8-854.5 1177.4z"/><path fill="#cf6f6a" d="M515 920.6l415.4-597.3 521.8 1002.1-766.8 199.4z"/><path fill="#fff3e7" d="M2995.5 1802.4l-274.4 223.5 295.5 317.5 916-398z"/><path fill="#ffceab" d="M2933.1 504.5l247 105.8L2295.7 860l13-120.7z"/><path fill="#ffffaf" d="M47.7 1438.6l451.1 226.6-64 116.5-667.3 489.1z"/><path fill="#fff1cc" d="M2773 1170l-147.5-130.5 434.3-104.9-6 232.5z"/><path fill="#381513" d="M1539.9 1235.5l-175.4-953L1860.9 892l1861-248.5z"/><path fill="#d4a57f" d="M3013.6 119.6l478.3 435 130.4-199.5-635.9-440.8z"/><path fill="#f9e164" d="M2147 1766.3l27.7 626.2h490L2957 1605z"/><path fill="#4a202f" d="M3741 1068.1l-790.3 761.3 10 4-22.2-574.5z"/><path fill="#fff9bf" d="M654.5 1418.7l-40.9-174.3 124.9-181.7 71.3 223.2z"/><path fill="#1b2608" d="M3122.6 465.8L4072.5 795 3593.8-232.5 3578.1 1262z"/><path fill="#002100" d="M2258.2-232.5L1070.5 7.7l-1303 866 1591-687z"/><path fill="#f5bea6" d="M3958.8 1135.3L3665 1271.6l368.5 627-752.2 388.4z"/><path fill="#67b214" d="M-232.5 785.6L285 597.9 316.6 450 196 148z"/><path fill="#e2cea3" d="M1156.9 875.7l-722-93.6-266.2 293.7 620.1-439.6z"/><path fill="#341c12" d="M440.4 2290.8l959.7-760.7L3004-79.2 7.6 2392.5z"/><path fill="#a36838" d="M1444.6 1891.2l-526.4-173.5 518.6 417.8 775.8-401.5z"/><path fill="#4d0000" d="M3913.4 2108.5l-12.6-134.2-185.7 124-413.3 142.9z"/><path fill="#ddbe77" d="M1385.6 2392.5l-670.7-252.3 392.4-230.9 279.5 35.6z"/><path fill="#e6bc88" d="M3954.6 1185.3l-489.2 1207.2 499-1536.8L3468.9 966z"/><path fill="#2c0805" d="M1448.5 1686.3L403.2 1325.6l48.6-310.2 382 643.3z"/><path fill="#f6dab3" d="M3925.3 1606.7L3145.8 1870l140.3-175.4-248-172z"/><path fill="#7e4035" d="M3595.8 1593.2L2100 799.1l34.8 162-243.7 423.2z"/><path fill="#8f4a21" d="M2148.3 446.9l-84.8-679.4h760.1L2567.1 320z"/><path fill="#5ba510" d="M428.4-232.5L808.9-67.1 951 86 622.5 328.4z"/><path fill="#e2aa8d" d="M2341.9 889l281-81.5 447.5-254.3-851 101.3z"/><path fill="#003400" d="M752.5 459.2l-355.1 61L-22-38.5l427.8-26.2z"/><path fill="#1e0403" d="M2857.6 92.8l104 356.5-963.2 239.3 1099-773.8z"/><path fill="#864344" d="M1190.4 1551.7L1560 1131l-81.4-303-863.1 142.5z"/><path fill="#a35129" d="M1049.7 281.6L346 882l1148.8-692.2L1627 374.1z"/><path fill="#002c00" d="M3096.2-232.5l776.1 191.7L3985.7 835 3503 238.8z"/><path fill="#d67a6e" d="M1016.5 618.9l366.1-40.5 108.8 226-502.2-11.7z"/><path fill="#0d0c06" d="M2367.9 1800.3l-27.5-18 243.9-248.6L2018 1564z"/><path fill="#cf7363" d="M2602.2 974.7l428.3-513.5 228 295-298.2-54.2z"/><path fill="#cb9153" d="M234 1090.6L-57.3 743.2 738 791.7l-417.4 231.9z"/><path fill="#451d14" d="M3645.6 1347.9l-264.3-133-999 292.8 1024.7-39.1z"/><path fill="#462d22" d="M2272 539.5l-972.7 1010 867.5 422.8-273.7-681.4z"/><path fill="#d69a7b" d="M1850 1394.5l-46.6-7.1 405.8 53.5-177.8 118.2z"/><path fill="#af675b" d="M2622.5 866.2l316.8 423.2L2161.2 845l-31 306.1z"/><path fill="#331b1a" d="M2546.9 377.9l867.2 9.6-633.7 178.6-136 98.1z"/><path fill="#f9f4d8" d="M2848.4 1602.7l-9.6 789.8h270l-21.5-582.9z"/><path fill="#be7546" d="M301.7 1273.4L722 1826.6l-954.5 408.8 1009-699.3z"/><path fill="#565e4e" d="M1659-26.3l73.3 507.5 65.6 818.3 194.3-638z"/><path fill="#703b2a" d="M2192.6 1064.7l-719.1 1025-320.2-378.7-43 394.9z"/></g></svg>