<svg xmlns="http://www.w3.org/2000/svg" viewBox="0 0 3840 2160"><path fill="#584e96" d="M0 0h3840v2160H0z"/><g fill-opacity=".5"><path fill="#160021" d="M2182.4 2392.5l437.3-1043.7-586.5-1581.3-754.7 2062z"/><path fill="#7fb3af" d="M-41.4 776.6L427 1868.3l609 524.2 846.7-2625z"/><path fill="#7a35ff" d="M2621-232.5l-436.6 1050L3470.9 1538l415-1729.8z"/><path fill="#6a167b" d="M2349.1 420.7L1363.4 1162l-257.9 468.4L2167 1418.5z"/><path fill="#002203" d="M193.8 2300.7l-426.3-264.2 270-2269-12.8 1462.7z"/><path fill="#010023" d="M1634 558.7l680.8-131.1 49.8-213.2-561.1-112.3z"/><path fill="#83adb6" d="M1360.8 1845.2l302.9 125-429 422.3L720.5 639.3z"/><path fill="#000029" d="M2357.5 953l-876.6 1394.6 678.2-137.5 596.1-1125.7z"/><path fill="#7e64d1" d="M2366.8 1823.5l476.2-805.6 467.4 602-910.8 772.6z"/><path fill="#859bc5" d="M1643.8 459l131.6 456-578.6 328.6-796-185z"/><path fill="#4d7871" d="M159.5-232.5l-321.3 1355.6 452.8 1246L855.7-151.6z"/><path fill="#180034" d="M1405.6 997.9l49 392 900 1002.6-1112.2-690z"/><path fill="#4d1f92" d="M3947.5 2069.3L3847.4-10l-693.6 1658.6 509.6 744z"/><path fill="#7249f0" d="M2171.2 981.1l1028.3-217 558.4-996.6L2750.2 55.6z"/><path fill="#7a2d97" d="M2312.4 943.2l-815.8 360 126.3 317.5 219 5.8z"/><path fill="#6b49d1" d="M2353.4 160.8L548.3-124.3l2718.3-108.2-982.8 1147.6z"/><path fill="#7386c8" d="M1678.8 289l-86.9 766.6L946.2-232.5h1155z"/><path fill="#00000b" d="M3852.3-232.5l-26.2 588.7-1.7 1245.5 21 790.8z"/><path fill="#43636c" d="M209 2392.5l557.2-128.1L523.3 1729l-602-471z"/><path fill="#223445" d="M408 59L41.3 495.7l-53.5 1453.1L18.2-232.5z"/><path fill="#7692a7" d="M832.9 1780.6l523 611.9-269.4-1627.7L-78.3 956z"/><path fill="#250540" d="M1660.6 363l168.7-238.2 494.6 39L1748.3 949z"/><path fill="#787fb5" d="M2323.3 2060.8l232-533 680.4 864.7-830.6-22.6z"/><path fill="#613abb" d="M3834.6 164.9l-113.7-111-959.1 1843.4 1059.5-674.7z"/><path fill="#83a3be" d="M1657.4 2392.5h189H972l646.8-510z"/><path d="M56.6 1906.5l59.2 293.7L-82 2392.5l75-1268.3z"/><path fill="#b5dcee" d="M866.1 972l-417 17.1 489.8 59.7 378.4 26.6z"/><path fill="#160243" d="M2689 1084.6l-183.2-187.8-585.2 568.1 255.3 927.6z"/><path fill="#080028" d="M1487.7 1894.9l-78.6-20.5-104.4-313.1 866.6 145z"/><path fill="#0c064b" d="M2358.5 382l-77.4 315-88.3-56.3L2168.6 20z"/><path fill="#521251" d="M1799.8 593.3l196-305.4 213.6 207.7-529.1 1008.5z"/><path fill="#581867" d="M1880.2 1167.7l-702 217.1 437.5-377.2L1944.9 2334z"/><path fill="#5c6d93" d="M988.2-232.5l347.2 528.7-615 494.5L15.7 631.8z"/><path fill="#775cce" d="M2958.7 1011.8L2319.8 467l-24 393.3L2463 962.9z"/><path fill="#6f44d8" d="M2754.2 841.8l-97.7 593.6-8.4 306.4L3715 233z"/><path fill="#7085b2" d="M1710 841.3L1385.2 1166 822 387l906.4 186.8z"/><path fill="#7a39ab" d="M2237.5 925l2 282.2-377.4-88.8 27.6 286.9z"/><path fill="#643ac4" d="M2795.5 66.4l-477 401.8 6.8-51.3-93.8-649.4z"/><path fill="#0c012f" d="M2039.2 2392.5l-458-63.5 148.5-686.4-317-69.9z"/><path fill="#5f7c8c" d="M40 1301.2L655.5 2305l79-856.3-702.1-420z"/><path fill="#6d2b85" d="M1274.7 1174.8l397.1 247.7 42.3-568.3-483.2 913.9z"/><path fill="#0f0536" d="M2400.8 1966.3l-964.8-465 58.4 390 908-126.7z"/><path fill="#7949a5" d="M1750.7 1854.4l292.3 18.9-363.6 38.5-261.5 150.7z"/><path fill="#9170df" d="M787 2090.1l-241-122.4-60.3-3 404.3-37.4z"/><path fill="#7a95b3" d="M1415.6 1893.4l-324.2-471 418.2 970.1 122.5-360.4z"/><path fill="#4c3276" d="M3804.6 1368.8l13.7 264.6 28.3 759.1h-627z"/><path fill="#14063c" d="M1893.4 2109.4l444.2 250.1-29.8-1270.2-144.7 125.4z"/><path d="M-14-143.3l12.8 784.2 4.3 1751.6L15 634z"/><path fill="#6546aa" d="M2705.7 2042.2l209.4-793.4 634-108-177 792.5z"/><path fill="#090834" d="M2195.3 86.3l-411.6 123.2-101.6 258.2 45.6 182.1z"/></g></svg>