<svg xmlns="http://www.w3.org/2000/svg" viewBox="0 0 3840 2160"><path fill="#6296a5" d="M0 0h3840v2160H0z"/><g fill-opacity=".5"><path fill="#c6fff5" d="M2178 2392.5l571.4-1237.6-761-635.2-1240 1024.8z"/><path fill="#002b47" d="M709 45.2l-941.5-150.7 162 2274.4 426.7 223.6z"/><path fill="#17456a" d="M3895.6-104.6l-783.1-35.2L3368 2392.5l520.9-207z"/><path fill="#d7dbd3" d="M2837.3-31.7l-121 339L1606 243.5l-68.5-343.4z"/><path fill="#77b3bd" d="M352.5 542.2l1790 1850.3L666.8 2161 83.8 531.1z"/><path fill="#000823" d="M3821 2392.5l-9.3-626.1-264.2 125.2-443.1 500.9z"/><path fill="#bbfef0" d="M2109.5 721.4l-965 732.8 527.3 283.5 881.1-163.7z"/><path fill="#003041" d="M527.1 1902.2L-232.5 683.3l497.9-676-497.9 2227.6z"/><path fill="#66afc1" d="M3377.6 674.2l359.4 888.6L2213.7 1326l595.6-678.8z"/><path fill="#29588a" d="M-232.5 66.5l1556.7 886.9L1099.4-51l1060.1-30.4z"/><path fill="#90c9d8" d="M746.7-117.2L1538.4-26l-364.5 1705 589.4-1507z"/><path fill="#518479" d="M1601.1 433.1l300.4 293.4 610-358.8-420-202.6z"/><path fill="#b9dadc" d="M2836.7 578.3l154.6 281.4-758.1 797.6 454.2-612.6z"/><path fill="#8daab9" d="M2492.5 1385.4l-49 241-2676 630.8 3133.6 135.3z"/><path fill="#3c6ca3" d="M3271-199l427.2 1568.5-536.9-336-312.2-775z"/><path fill="#45858d" d="M2853 1283.9L4072.5 1460l-758.2 649.6-395.7-785.5z"/><path fill="#4ea8b9" d="M1740.1 1082.3l-1178-507.8-146 1025 498.3-212.9z"/><path fill="#1a3257" d="M-72.5 315.5l-160-220.8 1069-12-149.4 301.2z"/><path fill="#708e83" d="M2180.8 801l-122.6-584.7L2613 318l213.1 477z"/><path fill="#156473" d="M-232.5 393.6l650.7 1811.6 147.7-496-276.5-619.9z"/><path fill="#b6cdcb" d="M1596.7 197.7L1439 713.2l241-347 1162.6-461z"/><path fill="#b0c4c7" d="M2079.5-232.5l-145.2 438.8 858.8 97.8 126.7 409.7z"/><path fill="#add7c7" d="M2562.2 759L1362.8 908.7l1208.7 413-153.8 36.4z"/><path fill="#002438" d="M176.2 2047.2l264.6-41.8-673.3-616.7 77.4 1003.8z"/><path fill="#508bac" d="M1437.5 844.4L392 1171.6l173.7-637.8 539.6-766.3z"/><path fill="#1a4671" d="M3453.9 783l335-424.4 283.6 223.6-856.4 430z"/><path fill="#c1f9f1" d="M2263.9 1401.5l-244.5 153.9-395-10.4 46-768z"/><path fill="#1a7187" d="M3559.5 1611.7l-15.4-3-483.6-320.3-21.7 299.8z"/><path fill="#65b8ad" d="M1002 1901.1L2570.4 1717l-668.6 284-272.4-311z"/><path fill="#77ccd2" d="M1554 676.8l-311.2-223.2 512.5 705.1-1028.9 358.8z"/><path fill="#374961" d="M2760.4 446.5l-219.4-38-21 124.6 84.4 35.5z"/><path fill="#63a1b6" d="M2851 1105.3L2514.4 1667l987.3-930L3653 425.4z"/><path fill="#79adc1" d="M3322.1 512.8L3437 307.4l-672.2 670.3-626.9 1414.8z"/><path fill="#197b99" d="M1361 652l-597-87.6 325.4 305.4 293 1.1z"/><path fill="#0f4d7a" d="M3244.1 666.9l420-698.4-119.8 519.1-293 264.4z"/><path fill="#2e7382" d="M1200.2 223.8L1077 295.4l863.5 168.2 105 221.4z"/><path fill="#99a1b6" d="M881.6 2392.5L511.4 1866l539.4-33.3 1349.8 559.8z"/><path fill="#3c5a80" d="M3137.5 564.6l935-728.7-473.8-68.4L2958 273.2z"/><path fill="#8adfdd" d="M1121.4 1462.5L1504.2 861l104 1022.5-325.8-334.6z"/><path fill="#0d6584" d="M3422 1090.4l-441.9-155.5 731.2 358.4-18.3-108.6z"/><path fill="#6e7b96" d="M157.5 2021.3l-179.8 306.2 1085.2-262.2-309.2-92.4z"/><path fill="#105282" d="M3605.5 612.7l162.3 559.5-5.6 43.4-320-442.6z"/><path fill="#5699a8" d="M346.8 925.3l121.6 860.4 113.2 128 437-1293.7z"/><path fill="#4571ad" d="M1704.3 133.3L1173.2 35l92.8 330.8L961.7 250z"/><path fill="#5e7990" d="M4072.5 1385.9L3036.9 2392.5H3290l-437.4-357z"/><path fill="#417384" d="M146.2 379.7l233 89.2 167.9 323.3-428.3 95.6z"/><path fill="#94b8cc" d="M2242.7 1874.7l278.2 101.5 244.5 416.3H70.2z"/><path fill="#647690" d="M660.3 106.8L975-232.5-232.5-65.3 343.3 71z"/><path fill="#6c99b9" d="M1137.3 599l273.7 82.4 44.4-308.9-765.8-54.2z"/><path fill="#166570" d="M416.6 1655.8l-29-473-620.1-406.6 489.4 1097.2z"/></g></svg>