<svg xmlns="http://www.w3.org/2000/svg" viewBox="0 0 3840 2160"><path fill="#a5a4a7" d="M0 0h3840v2160H0z"/><g fill-opacity=".5"><path d="M2619.2 808.9l-1279.8 18L497.6-232.6h2770.9z"/><path fill="#fff" d="M1195.1 1855.6l-1427.6 335.6L45.1-232.5l1040 931.4zm2448.7-1398l-931.7 627.6 3.5 914.3 1356.9-309.4z"/><path fill="#525256" d="M2212.8 1323.6l687.5 1068.9-1474.4-761.1 307.3-546.6z"/><path fill="#fff" d="M2334.1 1117.8L2292 934.7 1802.9 707l-452.7 464z"/><path fill="#47464b" d="M1521.4 2083.2l606 309.3 1170.4-585.2 219.4 296.1z"/><path fill="#100f15" d="M3245.8-232.5l-393 639.9-1678.5-31.1-754.7-608.8z"/><path fill="#fff" d="M509.3 636.5L86.5 1911.8l1101.6 25-260.5-1113zm2342.9 1131.1l884.8 204.6-276.9-1005-790.4 263.8z"/><path fill="#fff" d="M217.4 2392.5l515.3-1262.4-965.2 234.4 536.3-952.3z"/><path fill="#2b2a2d" d="M3508.8 878.1l-136.9-248.3 192 676.2 253 665.5z"/><path fill="#d5d5da" d="M1977.9 400l-88.5 185.4 35.9-447 67.6-370.9z"/><path fill="#4d4d52" d="M2415 851.4L2701.6 1959l-65.7-642.6-20-904.4z"/><path fill="#656568" d="M3322.7 1592l106.2 800.5-277.2-1358.9 25.8 28.6z"/><path fill="#f1f0f6" d="M1964.8 1668.7l-742.6-184 469.7 201 52.6 187.9z"/><path fill="#fff" d="M1941.5 406.2l-706.7 40 1797.5 32.6-687.2-53.4z"/><path fill="#575758" d="M351 783.1l-203.6 853.4 116.4-307.6L469.5 795z"/><path fill="#fff" d="M3568.3 523l504.2 730.4-204.5 514.8-392-946.3z"/><path fill="#49484d" d="M1193 1601.2l57.4-768.4L818.2 28 1449 925.2z"/><path fill="#d9d9de" d="M2324.4 1596l2.5-571.2 271 608-1374.9 241z"/><path fill="#66666a" d="M939.7 2163l-604-368.2L545 2049.2 772.8 1776z"/><path fill="#d8d8dd" d="M2195.7 1778.1l216 272.8-889.9-13.8 558.6-105.7z"/><path fill="#49484c" d="M2088.3 1797.2l290.7 31-921-374.2 479.4-354.6z"/><path fill="#303033" d="M3127.3 2052.4l-257 340.1 432.2-265.4-346.5-308.2z"/><path fill="#c3c4c9" d="M254.2 540.1L1656.1 451l-758.7-54.4-694.9-629z"/><path fill="#fdfdff" d="M2201.7 1268.4l-730.3-351.2 720-26.9-139.6-113z"/><path fill="#18171d" d="M2138.5 736.2l-144.6-209.7-14.3-52.6-972.6 9.7z"/><path fill="#58575b" d="M3939.4 1943.2l-171.2 137-340-1356.1 403.5 1167.4z"/><path fill="#989899" d="M511.2 1539.7l221.7-634.4-278 1215.2v-284.2z"/><path fill="#6e6e71" d="M2829.5 652.2l232.9 1343-125.7 153.8 58.9-246.5z"/><path fill="#fff" d="M165.7 1205l297.7-499.4L-232.5-46 32.4 1644z"/><path fill="#afafb2" d="M1877.3 1601.1l-57-196.6 708.3-346.6-106.3 50.3z"/><path fill="#1b1a1d" d="M2138 1341.3l-87 182.7-280.7-368.7 534.5 540.6z"/><path fill="#d7d8db" d="M2045.4 2392.5l-312.9-387.3-6.8-1108.6-216.6 127.6z"/><path fill="#8a8a8b" d="M39.8 1750.3L382.6 783l126.1-43.8-428 1111.2z"/><path fill="#2c2c2f" d="M1721 1972.5l-408.3 420 112.1-270.2 462.3 213.5z"/><path fill="#cacad0" d="M2861 442.6l-395.4 37-210.5 671.1 275.6-689z"/><path fill="#27262b" d="M2532.1 2376.6l-73.9-722.3-116 608.7-166.8 129.5z"/><path fill="#d0cfd4" d="M2364.1 1803l-19.7-161.7 596.4-167.5-887.4 127.8z"/><path fill="#fff" d="M3178.7 606.6l234.7 728.6 138.4 790.8-267.5-570.6z"/><path fill="#1e1c20" d="M1840.8 1898.2l167.2 40 107-117.6-273 8.2z"/><path fill="#7b7b7d" d="M899.8 1116.6l25.5-11.4 61.9-101.2-150.4 466z"/><path fill="#cccdd0" d="M991.3 1579.4l618.7 356.2-226.6-606.2-467.7 1016.7z"/><path fill="#87878c" d="M3557 255.7L4072.6 154l-599-386.5-750.1 743.9z"/><path fill="#212025" d="M987.2 401l156.4 45.3 543-106.9-583-571.9z"/><path fill="#3c3b3c" d="M1944.7 1168l-352.5 105 301.2 99.5 177.3-72.6z"/><path fill="#9e9ea4" d="M3134.4 2392.5L2736 1714.3l-159.5 469.6 445.4 208.6z"/><path fill="#828286" d="M2259 798.7L2157.4 1168l291.2-176-980-379.8z"/><path fill="#fff" d="M3599.8 2015.2l-203-101.4-137.1-582.5 71.2-239.4z"/><path fill="#bdbcc2" d="M3124 1941.4l721.1 451.1-154-11.1-301.5-363.2z"/></g></svg>