<svg xmlns="http://www.w3.org/2000/svg" viewBox="0 0 3840 2160"><path fill="#233b30" d="M0 0h3840v2160H0z"/><g fill-opacity=".5"><path fill="#669972" d="M573.4 1601.7L833 555.4 1167.3 881l1472.3 258z"/><path fill="#81cc99" d="M3566 1164l265.4-220.4-93.9 767.2-504.7-184.3z"/><path d="M558.7 1958.1l-791.2 249.4v-807.3L901.6-232.5z"/><path fill="#79ac94" d="M2453 545.6l377.9-86.8 403.4 112.8-332.8-804.1z"/><path fill="#80b380" d="M2214.6 1242.7l-393-59.3 427.8 584.1-127.3-147.1z"/><path fill="#000004" d="M580.7 2160L-171.8-206.7l250.9-25.8 413.4 340z"/><path fill="#040c05" d="M2414.2 693l518.3 1002.9 497.7-739.4 142-315.3z"/><path fill="#b39f6e" d="M2227 1012l108.2-275 140.7 398 23.9 120.3z"/><path fill="#000006" d="M642.7 67.6l2145.7-300.1-367.1 491.3-1266 261.8z"/><path fill="#7ab383" d="M908 1018.9l951.4 158.9-40 34.9-853.7 131z"/><path fill="#6eae82" d="M1860 385.4l-32.4 367L1953 709l65.4-208.5z"/><path fill="#09211f" d="M2058.5 1823.8L1817.8 1287l-708.5 102 161.7 654.8z"/><path fill="#3f6160" d="M719.1 2028.2l3058.3-23.6 269.4 266.9-1861.2 121z"/><path fill="#47826e" d="M-175.6 688.5l128 587.2L163.8 743l-38-148z"/><path fill="#395a53" d="M1304.4 1372.2l-792.2-190.3L650 1725l64.5 155.7z"/><path fill="#547f69" d="M2493 453.6l75.7 323.5 208.5-516.3-11-493.3z"/><path fill="#7cb494" d="M3505.4 1358.6l79.5-68.3 212.7 18.3-207.5 466z"/><path fill="#091a1a" d="M3175-163.2l25.3 794.6L4072.5 56l-218-152z"/><path fill="#4a5038" d="M2051.3 1986l-295.7 26.2 934.5-539.5-433-458.6z"/><path fill="#051418" d="M3279 1856l-452.7-349.3 1054.8 287 191.4 241.8z"/><path fill="#242c1f" d="M2410.3 1292.6l-556.2-198.8L2678.1-76l-465.8 877.7z"/><path fill="#6b9a8a" d="M4072.5 785.7l-121.4-285-191.3 118 8-332.5z"/><path fill="#1f2b1f" d="M2827.5 349.3l-414.2 589 253 639.3L3139 575.2z"/><path fill="#3b6b46" d="M3750 936.4l-653.4 492 60 135.1L4001 998.8z"/><path fill="#253d3b" d="M272.5-232.5L1122 1651.8 536.4 716.6l358.3-839.5z"/><path fill="#010607" d="M779.9 802.1l-658-65-298.6 1618.8 825.1-1209.6z"/><path fill="#756541" d="M2625.2 1140.3l-135-91.3-266.4-262.5 132.4-79z"/><path fill="#0a1718" d="M584.1 2022l628-261 584.5 58.1-784.2 194.2z"/><path fill="#26513d" d="M2064.8 1052.4L588 203.8l296.9 316 28 407.7z"/><path fill="#5e8b6c" d="M3086 49.5L2802.3 247l347 405.2 46-116.4z"/><path fill="#08181b" d="M1846.7-203.6L1667.6 617l-624.3-81.2-502-768.2z"/><path fill="#4b7951" d="M1667 845.3l622.3 1045.2-509.4-681.4-538.8-90.7z"/><path fill="#162924" d="M902.2 1355.9l53.6-48.8-47.8-83.3-531.7-128.5z"/><path fill="#0c1819" d="M3504.8 1758l567.7-253.5-361.1-166.2 361.1 854.7z"/><path fill="#132422" d="M2759.6 1646.5l-467.7 7.7-247.3 457.4 719.3-217.7z"/><path fill="#4a6a60" d="M710.4 1982L543 1237.8 724.3 1351l94.4 39.4z"/><path fill="#0b1719" d="M1323.2-232.5h938.2l294.4 364-225 596.2z"/><path fill="#3f775c" d="M3528.4 1554.7l-251.6-296.9-62.7 303.8 516.3 194.8z"/><path fill="#48795c" d="M1695.5 530.2l281.6-162.7 26.4 365.3-139.2 15.6z"/><path fill="#3c6e4d" d="M2271.8 1631l356.1-12.6-101.3-274.8 62.1.4z"/><path fill="#43452f" d="M2892.2 1839l75.8-89.8-345.6-484.2-456-159.6z"/><path fill="#0f1208" d="M2726.6 1369.6l532.7-213.3L3119 982.2l-593.7 271.7z"/><path fill="#000606" d="M673.1 283.9L390.4 145.6l458.2 346.6-564 46.5z"/><path fill="#2e4844" d="M1525.5 1917.6L359.4 2088l986 70.4 1165-243.4z"/><path fill="#05120e" d="M2970 771.6l391.2-127.3-84.3 360.3-384.4-86.7z"/><path fill="#446157" d="M669.4 836.8l-84-150.9-72.3-190.5 209.4 263.4z"/><path fill="#71a885" d="M3793.7 1144.6l-52.2 373.3-10.3 99-297.6-58.3z"/><path fill="#000203" d="M819.2 612.3l-73.5 293.1L668 604l134.6-157z"/><path fill="#245933" d="M2035.6 1357.6l55.5 290-626-398.5 297.7 1.4z"/><path fill="#2a4945" d="M959.5 1985.8l68.7-696.8 190 272-98.5 345z"/></g></svg>