<svg xmlns="http://www.w3.org/2000/svg" viewBox="0 0 3840 2160"><path fill="#352620" d="M0 0h3840v2160H0z"/><g fill-opacity=".5"><path fill="#5b7998" d="M1663.8 938l-121.5 701.3-504 259.3-16.2-973.1z"/><path fill="#81a4ac" d="M4068.4-57.4l-715.3-175.1 178 702.1 381 15.7z"/><path fill="#a9c5b0" d="M2285.9 220.3l116-90.5-242.6-362.3-214.2 359z"/><path d="M205.8-232.5l884.2 73.7-482 2551.3-680-1027.9z"/><path fill="#714e2b" d="M1931 2392.5l676.1-693 471.6-1932 993.8 2397z"/><path fill="#080000" d="M2672.3 1336.9l-619.2 965.3-482.9-3.8 31.6-1125.4z"/><path d="M1627.2 1454.5l296.4 938-82.4-2625h-300z"/><path fill="#86645b" d="M2436.5 846l-42.8 254.8-379.8 277.2-145.2-472z"/><path d="M2553.4 749.8l309-982.3-104.6 1264.6L1857 2392.5z"/><path fill="#746b5d" d="M1548.7-106.8l-328.2 278.4 25.5 295 254.3-44z"/><path d="M-232.5 717L428 906.4l595 1274.2-590.4 71.2z"/><path fill="#020000" d="M4072.5 460.9l-643.1 101.3L4007 1662.3l5.1-1209.4z"/><path fill="#4e0003" d="M2087.5 1305.8l242.5-28.1-317.6 714.3-278.4-923.2z"/><path fill="#3e5f81" d="M1118 2392.5l-130.4-261.9L1323 1964l227.9 428.5z"/><path fill="#5a7086" d="M1430 1094.4L1699 929l-432.8 623-313.9-676.6z"/><path fill="#5b423b" d="M2198 370.9l503.1 365-787-111.8 177.8-584.5z"/><path fill="#040005" d="M1610.2 2019.3l57.9 373.2 451-673.8L442.5 2065z"/><path fill="#432d32" d="M670 1940l162.3-563 863.5 245.9 50.2 214.5z"/><path fill="#5a422d" d="M241.8 1869.8l241-48.9-485.4 571.6-76.8-990z"/><path fill="#040000" d="M1135.5 211.2L882.4-232.5h476.3l30.8 342z"/><path fill="#5a412b" d="M3426-232.5l-527.4 100 102.8 1956.1 506.1-1447.1z"/><path fill="#655342" d="M2538.2 137.4L1880 522.2l380 10.5-423.6-404.3z"/><path fill="#363232" d="M894.5 497.3L856.3 40.7 716 213.2l35 851.3z"/><path fill="#230b06" d="M2007 264.5l-805.4 686 166.4 71.6 300.2-95.7z"/><path fill="#110504" d="M1804.6 1395L1676 1139.4 1532.4-132.2l447.4 746z"/><path d="M976.6 567l-49-741.4-45.2 1227.1 86.3-139.6z"/><path fill="#5c3d36" d="M738.5 1643.1L1238 828.5l-290.2 85.4-156.7 332.8z"/><path fill="#060103" d="M2468.5 944.7L2189 607.8l564.5 321.4L2118 1865z"/><path fill="#8ea19d" d="M2345.8 75.3L2184 186.5l-58-124.2-5.4-294.8z"/><path fill="#42504b" d="M2557.5 807.6L2711 535l-378.2 107.7 143.5 106.1z"/><path fill="#020000" d="M756.3 1458.8l-37-703.5-871.1 592.3L622 2002z"/><path fill="#3e464b" d="M2059.4 1872.3L1910.7 1982l75 72.5 143.6-138.4z"/><path fill="#5e614d" d="M999 443.3l203.2-294L1494 61l-9.2 116.2z"/><path fill="#41210f" d="M3403 620.6l669.5 795.8v299.3l-535.3-459.4z"/><path fill="#6c574e" d="M2400.7 1098.9l57.8-203.4-544.5 195.3 289.9 213.7z"/><path fill="#220a01" d="M2961.2-232.5L2637 187.7 2627 498l165.8 259.3z"/><path fill="#5e3833" d="M1167 284.2l397-32.7-70 449.7-284.8-124.6z"/><path fill="#010002" d="M456 1807.7L354.2-189.6l-87.9 897.9-498.9 370.2z"/><path fill="#556b7e" d="M1611.8 1418.4l-240.8 49-215.4 55.7-155.3-659.5z"/><path fill="#2c2423" d="M919.7 685L450 318l-1.2 1056 194.3-911.6z"/><path fill="#3f1b15" d="M973.8 1702.3l-150.7-539.1L677 1833.7l524.4 133.5z"/><path fill="#394755" d="M997.5 1330.5l571.2 286.4-44.4 116.3-524.8 97.3z"/><path fill="#290d06" d="M1455 928.8l-214.5-212.2-140.3-632.3-39.8 705.8z"/><path fill="#2a0f00" d="M-42.4 303.4l227.6-535.9 127.6 781.8-507.8 48.6z"/><path fill="#4c4d47" d="M1149.6 1006L970.8 340l27.7 553.5L854 1059z"/><path fill="#510009" d="M1859.6 1269.2l-93.9 97.9 71.5 187.1 485.1-252z"/><path fill="#55371c" d="M2623.2 646.8l44.6-879.3h-291.4l115.2 806z"/><path fill="#0a0000" d="M1860 184L1977.5 1.2l-843-55.9-147-177.9z"/><path fill="#2f140d" d="M2309.1 446.7l-67.7-214.2 263 261.4L2063 924.6z"/><path fill="#0f0002" d="M1859.3 1544.7l-515.5 847.8 124-425.8 944-415.8z"/></g></svg>