<svg xmlns="http://www.w3.org/2000/svg" viewBox="0 0 3840 2160"><path fill="#43245e" d="M0 0h3840v2160H0z"/><g fill-opacity=".5"><path fill="#fffff8" d="M2413.2 705L1361.9 894.8l228.9 1497.7 689-866.4z"/><path fill="#fff" d="M1543.1 789.2l889.3 194.5-602.3 540.6-429-375z"/><path fill="#ff3423" d="M3206.3 1890.7l-556.6 35.2-21-526.3 21-247z"/><path fill="#fe9000" d="M2187.8 1669l141.4-325.7-879 62.2 188.6 369z"/><path fill="#12a3ff" d="M1205 2392.5l263.8-706.8 1189.3 706.8-358.2-154.7z"/><path fill="#f1182a" d="M-133 512.9l1346 408.9-767.8 726.8L706.6 512.8z"/><path fill="#0cbdff" d="M1714.6 425.2L2532 850.3 1606.8 717l-256.3-154.5z"/><path fill="#ff3b13" d="M3160.4 571l-118.8-233-510.6 85.1 225.5 253.5z"/><path fill="#ff2933" d="M3411.7 1288.2l-250 269.2 310.8 240 433.2-294z"/><path fill="#ff1d1f" d="M1120.4 591.9L563.6 407l243-192.8 555.4 2.6z"/><path fill="#ff1c00" d="M1789.1 264.2l299-93.6 307.2 99.7-357.4 196z"/><path fill="#000049" d="M1396.5 1.7l-1266.1 535 99 1855.8L-232.5-16.8z"/><path fill="#000043" d="M3055.7 1767.8l20.7-1325L1048.2-64l3024.3-3z"/><path fill="#ff2f35" d="M3757 505.2l-494-37.3 19 315 392.5 198.3z"/><path fill="#00004a" d="M1591-36.4l-99.2-196.1-903.5 2625h584.3z"/><path fill="#003" d="M2662.2 526.4L2131 1813.8l-285.5 91.2 734 308z"/><path fill="#fff" d="M2359 838.3L2062 1390l-559.2-.4L1351.5 985z"/><path fill="#000048" d="M238.2 726l-470.7 1423.3 2011.6 243.2-1296.3-708z"/><path fill="#ff2d32" d="M656 698L275 848.1 25.9 628.7l337.6-198.5z"/><path fill="#000049" d="M2418.6 2392.5L3783.7 2242l288.8-332-745.4-261.2z"/><path fill="#ff2d27" d="M2968.7 1268.7L2657.2 925l330.1-13 11.6 352.1z"/><path fill="#00003f" d="M3248.1 1108.2l481-282 25.2-1058.7 318.2 1897.4z"/><path fill="#00005b" d="M3416.3 1161.1L1778 509.3l2294.5-373-2410.4-368.8z"/><path fill="#ff2726" d="M754.3 1820.2l97-113.1L294 1456.4l477.6 453.2z"/><path fill="#000043" d="M2821-46l-959.8 183 8.8 358.6L549.7-20.1z"/><path fill="#00004e" d="M1018.3 2308.6L651.6 1064.3l922 417-55.2 272.9z"/><path fill="#000005" d="M1355 808.4l681.5-97 89.7 119.9 171.6 31.6z"/><path fill="#00005c" d="M-25.6 2392.5L678.8 865.2l345-230.1L656 398.5z"/><path fill="#ef9e00" d="M1385 1658.5l399.2-250.6 633.7 5.8-1026.3 326z"/><path fill="#fff" d="M1395.4 1866.9l-115 447-115.3 78.6 426-596.4z"/><path fill="#000035" d="M3126 2392.5l-733-817.1-311.3 721.4-180.5-525.9z"/><path fill="#ff3b2d" d="M2915.3 677.7L3060.2 469l-16.7-135.6-473.7 44.2z"/><path fill="#ff331c" d="M1200.3 833.1L1031.6 967 599 961.5 769.6 757z"/><path fill="#ff3733" d="M2754.6 1440.8l-159.8 369.4L3016 1954l216.3-123.3z"/><path fill="#00005f" d="M2344.7 1066.7l967.9 688-752.2-927.5-314.6 11z"/><path fill="#eaa00a" d="M2329 1487.8l17-426.8-82.5 49.9-411 632.1z"/><path fill="#000059" d="M3027-232.5l508.4 1587.9L2698 823.7 3878.7-10.6z"/><path fill="#1678fb" d="M2124.7 2309.3l-905.8-24.1 415.8-459.6 270.3-.1z"/><path fill="#00005c" d="M656.6 1039.1l53.8 56.2-693.1 470.2-249.8-1012.2z"/><path fill="#33a0ff" d="M1880.2 707.4l665 206.2L1630 405l-167.3 353z"/><path fill="#005" d="M661.9 294.8L413.3-232.5l-544 572.7 938 247.8z"/><path fill="#fff" d="M1324.8 1101.8l187.5-239.4 900 12.7-394.7 516.9z"/><path fill="#00005b" d="M1160 814.3L992.9 678.2l659.9-595.6L1027.9 2233z"/><path fill="#ff3e2b" d="M4072.5 753l-745-304 8.4 88.8-133.5 42.6z"/><path fill="#00006c" d="M2295.7 1569.8l598-105.3L3600 886.4l-394 689.2z"/><path fill="#ff372d" d="M571.2 1458l-151.7 198.3 79.4-436 266.4-68z"/><path fill="#fd3537" d="M2558 1439l622.5 255-651 106.6 490.7-517.8z"/><path d="M2026 2058.3l244.5 47 6-263.4 103.4-532.2z"/><path fill="#000054" d="M3947.8 1610.9l-279-733.5 298 1313.9-2099.2 97z"/><path fill="#ff452c" d="M3750.2 1390.5l71.1 223.8-104.4-32.6-524.3-201.5z"/></g></svg>