<svg xmlns="http://www.w3.org/2000/svg" viewBox="0 0 3840 2160"><path fill="#b1757d" d="M0 0h3840v2160H0z"/><g fill-opacity=".5"><path fill="#4f0001" d="M3333.7-232.5l696.6 212.1-212.8 2412.9-493.6-878z"/><path fill="#ffdce8" d="M2171.7-232.5l-241 2579.1L3304.2 2152 3123.4-232.5z"/><path fill="#5e0000" d="M563.6-232.4L537.3 1138l-769.8 206 51-1452.1z"/><path fill="#66404f" d="M2290.9 912l-848.3 1219.2L904.3 791.4l726.2-940.2z"/><path fill="#fcd4e4" d="M2383 0L1148.3 172.5 967 960.9 567.4-232.5z"/><path fill="#e5a7a0" d="M1690.5 1134.3L1249.9 708l308.5-124L2600.5 77.5z"/><path fill="#310d12" d="M-191.3 855l701-364L386.5 53.3-230-232.5z"/><path fill="#ffc6d3" d="M3145.6-54l-2319 98.8L1899.8 4.5l480.4 984z"/><path fill="#f8d0d7" d="M2446.7 1856.1l-331.5-645-355.4 313 505.4 660.4z"/><path fill="#555d72" d="M2360.4 1141.4l5.8 293.2-444.6-329.7 111.5-545.2z"/><path fill="#79666c" d="M3052.2 1138.7l-356.8 211-52.7-474 355.7 93.1z"/><path fill="#3f2933" d="M1886 1224.8L1293.4 1664l-265.9-450.3 109.7 29z"/><path fill="#f67f6d" d="M84.2 970.4l-316.7 570.2 1449-65.6-92.5-122.3z"/><path fill="#4f3851" d="M2070.5 262.2l-667 375-427.9-127.8 617.2-526.3z"/><path fill="#6c0c0b" d="M33.9 2392.5h792.8L92 1986.7l-324.5-1505z"/><path fill="#b23254" d="M3185.4 2167.8l-729.2 184.5 1616.3-74.9-688.4-624.9z"/><path fill="#c6ada9" d="M374.4 639.8L728.6 326l604.6 420.1-801.6 72.2z"/><path fill="#6d394e" d="M1871.5 1639.5l26.4 693 44.9-136.7-721.2-411.8z"/><path fill="#d22b35" d="M-232.5 508.5l685 290.1-116.2 479.7-510.2 12z"/><path fill="#a02c3d" d="M1054.5 1285L842.3 874l461.4-75.3 391.5 421.8z"/><path fill="#d1405d" d="M3026-232.5l716 618.3-500 181.1-175.7-509.8z"/><path fill="#3b2433" d="M3290.4 1759.5l333.9-656.4 433.1 24-168.2 595.3z"/><path fill="#a83352" d="M868.5-232.5L627.6 628.1l-320-860.6 485 162.4z"/><path fill="#e89c88" d="M1081 1719.3l500.7 359.3-466.6 313.9-884-535.8z"/><path fill="#c6778c" d="M2446 1797.2l410.3 61.7-107.5-736.1-234.2 121.1z"/><path fill="#cd4761" d="M3790.6 1105l-259.3-350.3-188.7 7.8-202 296.8z"/><path fill="#ed7877" d="M1571.3 1164.5l131-89.6-1038 19.4L282 1362z"/><path fill="#63131c" d="M3514.3-232.5h393.1L3847.2 927 3576 501z"/><path fill="#ffc3ca" d="M3243 1935.3L3056.7 1175l-350 852 124.5 365.6z"/><path fill="#593944" d="M1353.5 1045.9l-131-739 611 23L746.2 937z"/><path fill="#ffb6c3" d="M658.5 339.4l436 49.2 255-358.3-666.5 78z"/><path fill="#98607b" d="M3447.5 1719.1l-235 613.7 104-2133.3 49.3 405z"/><path fill="#6c6879" d="M1682.5 1056.5L1681 1519l306.8-106.1 286-504.5z"/><path fill="#713949" d="M610 505.6l93.3-39.3-219.8-316-288 249.9z"/><path fill="#d29481" d="M1028.5 1061.5l-670.6 222-590.4 7.2 503.4 690.7z"/><path fill="#e3c1cb" d="M1126.3 671l-122.5-158.8-327-197.8 224.5 523z"/><path fill="#c85871" d="M1473.5 1579.4l-242.7 227.8 663.6-190.5-21.3-142z"/><path fill="#fcb4c0" d="M1427.9-117.7l1323.6 631.3L3159 641l-88-873.5z"/><path fill="#e44d63" d="M3312 1837.2l-114.7 66.2 875.2 419.4L3904 2064z"/><path fill="#bd8d7c" d="M1238.1 1652L369.5 821l339.2-392.5 219.2 699z"/><path fill="#c3c2c6" d="M2306.8 1201.8l95 34.6-248.6-657.2 1086.5 91z"/><path fill="#cb3a45" d="M3612.2 441l-173.6-218 20.5 7.1L3948 345.8z"/><path fill="#b85c70" d="M874.6 860.6l1283.8-432.8-140.7-303.3-1.1 244.2z"/><path fill="#925b5b" d="M2048.7 2208l-624.1-235.2-999.2-617.4 1008 345.2z"/><path fill="#a5232c" d="M3472.6 932.6L3588 688.2l484.5 63.3-228.3 423.2z"/><path fill="#41303a" d="M1414.7 1650.5l-188.1-40.3 18.5-186.6 372.2-194.9z"/><path fill="#ebd2db" d="M1884.3 1595l-50.3-49.8 310.8-314.6-168 594.8z"/><path fill="#e2bfc9" d="M1225.3 217.9l90.1-210.5 925 105-515.7-344.9z"/><path fill="#5f4c5e" d="M3378.3 1246.7l135.2-73.2-3.8 727.5-273-531.8z"/><path fill="#6c2e2b" d="M605.4 1128.5l-504.7-113.8 128.4-111L512 975z"/></g></svg>