<svg xmlns="http://www.w3.org/2000/svg" viewBox="0 0 3840 2160"><path fill="#a54f6a" d="M0 0h3840v2160H0z"/><g fill-opacity=".5"><path fill="#0200ff" d="M1495.9-48.9l101.4 731.7L-232.5 1524 43.7-232.5z"/><path fill="#ffaa1c" d="M1310.6 2045.7L2661.8-232.5l1410.7 1348.6-1001 840.2z"/><path fill="#46fc3b" d="M2761.5 34.9l212.2 368-1021.6 694.9-482-286.7z"/><path fill="#bb00d9" d="M1707.8 1114.3l-694.7 701.1L275.4 637.6l1330.1 142.1z"/><path fill="#009cc1" d="M-232.5 312.5l468 1711.7 153.7-38L119.8-232.5z"/><path fill="#003650" d="M3553.4 1272.2l-417.9-417-324.8 347.7 157.2 196.7z"/><path fill="#0045bd" d="M1336.1 1088.1L1197.3-222l367.4-6.5-70.3 1891.3z"/><path fill="#010" d="M1918.6 961.6l-273.9-208.8L2191.2 559l168.6 137.3z"/><path fill="#ff005b" d="M1057.1 889.8l-730 143.5-9.6 903.4 729.8-511.8z"/><path fill="#4b3c00" d="M1325 2392.5H-151.9l416.3-377.3 1179-534.1z"/><path fill="#0025fb" d="M1151.4 1477.7l-681.5 279.1 73.5 77.6 606.5 21z"/><path fill="#ff00d6" d="M1832 59.4l641.5 626.8-187.9-263.9-825.5 180.3z"/><path fill="#f000ff" d="M1126.8-232.5l-47.2 533.2 21.9 1344.1 270.1-544z"/><path fill="#9700ff" d="M1680.3 1997l2392.2 395.5h-2391l-330-822.2z"/><path fill="#680009" d="M4064.1 985.4L3886.6-90.9l-523.2-141.6-51.5 809.6z"/><path fill="#e100f4" d="M-39 607.4l553.2-796.3L541 1205.4 256.5 188z"/><path fill="#e900ff" d="M64.2 54.1L1005-232.5l310.3 509-389 29.9z"/><path fill="#0000ec" d="M1414.4 356.3L448.2 229l97.2 680 97.4-29z"/><path fill="#ff6727" d="M2826.3 1256.5L1611.4 852.7l260.2 1028.6 1895.2 511.2z"/><path fill="#bafd5d" d="M2954 566.3l32.4-588-879.3 404 303.7 433.1z"/><path fill="#4d2c00" d="M1967.9 2392.5h1926.9l-587-452.6-256.5-68.3z"/><path fill="#683a00" d="M1468.5 206L2850-86.9l-280.6 464.6-981-610.3z"/><path fill="#c7ff77" d="M-137.5 2292.3l492.8-322.9-236-169.5-351.8-760.6z"/><path fill="#ffff38" d="M1991 983.8l807.3 144.3-1122.7-48.3-57.1-317.9z"/><path fill="#80ffc9" d="M3449.6 2105.6l11.8-295 200.9 108.3 44 315.6z"/><path fill="#de00c9" d="M2148.5 1274.9l-664.9 42.2 188.9-133 386.7-71.3z"/><path fill="#0300f4" d="M376.4 1810.5l-81.7 171.3L78 1672-30.3 711.8z"/><path fill="#ff5f23" d="M3394.5 359.3l-110.6-389-339.6-35.5-21.4 907z"/><path fill="#ff1004" d="M552.8 1651.1l-112.5-433.7 636.2-296.2-98.2 589z"/><path fill="#00db71" d="M197.1 634.6l92.1 1069.8L-100 104.6 88-109.1z"/><path fill="#003243" d="M3396.3 1135l-159.6-102.4-389.6 209 218.6 195z"/><path fill="#0004f2" d="M300.1 1083.8l203.5 120.3-251-1325.4-76.8 744.2z"/><path fill="#ff8d1e" d="M2430.3 220L1975.4 76.3l120.8 454.4 105 16.5z"/><path fill="#0000c9" d="M1548.8 520l-283.5 268.6 474.1 368.1-143.8 404.2z"/><path fill="#36ff8b" d="M2851 585.6l36.4-433.2L2390.6 462l19 178.5z"/><path fill="#ff00eb" d="M536.5 1872.5l-249-612.3 1085-654.3-865.3 418z"/><path fill="#c300ff" d="M2558.6 2093.9l-291.1 298.6-795.4-279.3 839.4-81.4z"/><path fill="#ffff62" d="M3552.4 1149.6l-505.8 257 390.3 122-62.4-289z"/><path fill="#ff7a3e" d="M3406.2 2003.3L2375.5 563l-579 1515.4 2015.1-380z"/><path fill="#51000d" d="M3676.4 1866.5l67.3 485.3 328.8-100v-986z"/><path fill="#ff2e79" d="M859.1 1727l762.5-510.8-127.9 272.7-52 40.6z"/><path fill="#964600" d="M-194.6 2302.8l1528.3 89.7 61-635.5-659.2 96.5z"/><path fill="#200054" d="M4002 653l-965.2-110.8 641 198 394.7 311.7z"/><path fill="#ff9c4b" d="M3496.7 612l94.7-275 71-66.8 73.2 406z"/><path fill="#ffff45" d="M3226.8 1036.2l-109.7 44-128 60.2 46-145.4z"/><path fill="#9221d6" d="M3395.5 1625l-229.1 212.8L3615 1705l457.5-198.2z"/><path fill="#003eca" d="M1273.5 754.2l141.1 673.9 86.6-323.8-57.3-1336.8z"/><path fill="#ff00f6" d="M1875.8 513.5l157.9-177.1-122.9-266-362.5 435z"/><path fill="#ff6d3d" d="M4072.5 948.7L3173.8 642l402.7 764.1 351.2-50.9z"/><path fill="#00001b" d="M1452.3 520.7l661-6.4 262.6 254.2-154-164.8z"/></g></svg>