<svg xmlns="http://www.w3.org/2000/svg" viewBox="0 0 3840 2160"><path fill="#8b438e" d="M0 0h3840v2160H0z"/><g fill-opacity=".5"><path fill="#0070fc" d="M1684.4 1184.5l-231.6-1417L-121.6 50.7l-110.9 1143.5z"/><path fill="#e9c800" d="M3032 570.4l-1257.1 563.4-223.6-340.6L3151.1-232.5z"/><path fill="#00ff02" d="M316.8 1194.2l5.5 936.3-515.3-2363h305z"/><path fill="#7f0000" d="M-217.5 2392.5l603.7-447 1111-333-253.5 780z"/><path fill="#c600ff" d="M501.6 895.6l-225.6 910 1068.7-376-21.2-533.8z"/><path fill="#ff2d79" d="M4072.5 1925.7l-2236 125.4-428.5-369.6L3441.9-129z"/><path fill="#006400" d="M3089.8 1429.4l-320.3-223.8L3121 898.2l392.2 148.2z"/><path fill="#001f00" d="M1752.2 702.9l33.6 192 296.7 55.6 289-432.1z"/><path fill="#6d00ff" d="M1997.8 1332.3l357.8-9.6-1501.6-.3 2254-520z"/><path fill="#e0ff5a" d="M2860.8-42.6L2916.5 93l55.4 380.7-879.9 493z"/><path fill="#800" d="M2742.8 2392.5l1173.7-23.5-770.2-547.6-825.8 377.1z"/><path fill="#0061e2" d="M1065.9 1422L1171 608l54.9 1214.8-815 21.4z"/><path fill="#ffff41" d="M-150.5 1302.2l353 596.6 286.8 56.2-695.5 289.7z"/><path fill="#00f" d="M3980 2348.5l-2298.1 9-443.4-1069.4 432.3 703.2z"/><path fill="#5d7300" d="M2056.7 126.3l131-142.7-1159.4-216.1L1452 334.2z"/><path fill="#0099f2" d="M-23.2 298l270.5 1242.4 159 520.5-356-410z"/><path fill="#2f00fc" d="M998.4 979.3l492.5 702.6-259.5-1233.3L246 1215.5z"/><path fill="#0067e4" d="M256 985.7l1331.4-428.1-124.8-790.1L192.4 248.7z"/><path fill="#00c4ac" d="M1230 560.5l337.8-268.8L1258 1420.6l342.8-149.6z"/><path fill="#ff09cd" d="M491.6 1131.6L941 1038l251 355-668.8 319.3z"/><path fill="#660057" d="M4072.5 96l-705.2-328.5-54.2 742.5 759.4 657z"/><path fill="#7f00ff" d="M1621.3 700.9l649.3-461.5-122.2-140.6-648.2 273z"/><path fill="#1e00a5" d="M3209 1796.4l608.6-432.7L3683 2392.5l389.6-780.1z"/><path fill="#910000" d="M361.5 2007.3l-540.7 326.1 1541.6 59.1 44.4-713.5z"/><path fill="#93ff71" d="M3762.4 2216l152.3 127.4-654.1-408.5 346.2-61.4z"/><path fill="#3e00fb" d="M1044.5-232.5L402.7 645.9 282.2-232.5 1404.8 476z"/><path fill="#00f" d="M2338.5 2031.3l-829.5 71.4 824.2 289.8 261.2-374z"/><path fill="#570048" d="M2178.2-232.5L3757.5-99.1 2033 123.2l630.6 263.6z"/><path fill="#dd06ef" d="M2764.4 720.9L1369.9 1631l1762.7-783.3-891-129.9z"/><path fill="#170900" d="M2449.7 684.3L2085 484.1l-180.7 453 350.4-195z"/><path fill="#00c959" d="M1569.2 476.3L966.8-232.5l237.6 279.2 285-208.2z"/><path fill="#ffa743" d="M3691.2 661.2l12-315.6-151.2 87.8L3440.4 626z"/><path fill="#ff3f88" d="M2827.8 1029.8l-1146.7 360.9 32.1 650.5 1274.6-100.8z"/><path fill="#00b4a1" d="M1163.5 1816l-44.5-356-511.3 278.8 7.6 120.2z"/><path fill="#00662d" d="M2829 1104.9l678.1 55.6-378 226.1-190.6 12.3z"/><path fill="#5700f4" d="M1046.6 1662.1l65.1-1174.6 376.4 1141.7 295.5-316z"/><path fill="#d91011" d="M1558.6 336.4l-.7-328.9 1007.6-240-572.2 384.3z"/><path fill="#00b9a8" d="M1365-232.5l-61.3 1107.4 121.5 540.8 151.5-579.1z"/><path fill="#00123c" d="M3410.1 575.4l-361 18.9 804 208.2 137 78.2z"/><path fill="#0068ae" d="M1652.3 1127.5l97 142-206 292.7 61.9-401.5z"/><path fill="#00a7d1" d="M1000.4 296.5l99.8 455.7L687 670.8 421 193.3z"/><path fill="#800" d="M3122.3 1901.5l898.3 491-1630.1-65.5 195.7-312.7z"/><path fill="#1f0010" d="M3022.2 1188l-10.4-1.3 524.6 70.6-249.5-307z"/><path fill="#ffa331" d="M3336.1 1095.8l103.1 418.7-456.5-77 348.2-172z"/><path fill="#ff23b2" d="M1267.5 1431l266.8-54.6-32.1 110.5-506 172.3z"/><path fill="#ff3e6c" d="M2425.5 646L2128.6 91.6l295.8 896.2L3134.8 661z"/><path fill="#ff3867" d="M2793.5-232.5l245 1029.8 291-473.4-27.5-556.4z"/><path fill="#5d00ff" d="M545.9 1812.3L314.4-232.5l274 1167-287 290.5z"/><path fill="#ff3380" d="M1570.6 2112l72.3 280.5-356-76.7 124.3-566.4z"/><path fill="#ff4188" d="M3836.1 892.5l-1139-313.6 921.7 604 453.7 352.3z"/></g></svg>