<svg xmlns="http://www.w3.org/2000/svg" viewBox="0 0 3840 2160"><path fill="#37251b" d="M0 0h3840v2160H0z"/><g fill-opacity=".5"><path fill="#c19298" d="M3460.8 600l410.6-272.8 87.4 2065.3-515.3-877z"/><path fill="#a66b57" d="M2289.2 1984.7L1164.6 823.5l-428.8-89 1368.4 1658z"/><path d="M-16.1-232.5h1141.8l-829 2466.9-331 158.1z"/><path fill="#000500" d="M2251.5-108l82 2500.5h394.3l539.7-1469z"/><path fill="#a66e5e" d="M2312.8 949.4l-372.3 985.9 432.6-113-283.6-899.2z"/><path fill="#7d452a" d="M1037 2208.2l730.4-1894.5-823.6 504-491.5 547.5z"/><path d="M1618.8 1456.5l-28.3-478 625-1211-147.6 1766.7z"/><path fill="#aeb8af" d="M2379.8 1081l167-144.1 117 104.4-676 89.5z"/><path fill="#613526" d="M2963.2 2311.7l292.3 80.8 341.2-1531.2-761.6 735z"/><path d="M477.4 1242.8l-94.8 1149.7-615.1-1754.7L954.8 868.2z"/><path fill="#979ca0" d="M1150.5 954.1L711 801l246.7-51-156 325z"/><path fill="#000e09" d="M2069.1-232.5l632.6 1197-720.2-99.5-652.8-1092z"/><path fill="#593833" d="M3248.6 544.8l823.9-166.3-175.4-497.7-1503-79z"/><path fill="#040300" d="M2968.3 2392.5l-1570.7-459.7-57.8 459.7L2878 1833.7z"/><path fill="#090b02" d="M937 144.9l704.3 127.6-398 333-345 258.9z"/><path fill="#9a7e81" d="M1652.7 1409.6l221 146.7-709-320.1 365.3-47z"/><path fill="#000200" d="M3357.2 2241.6L3241.8 1358l16.9 206.2 536.4 828.4z"/><path fill="#a1868e" d="M4072.5 196l-532.3 477.3 31.6-22.7 145.7 485.4z"/><path fill="#0e0803" d="M3324.9 492.5l-150.5 156.8-460.9-395.5 620 1152.6z"/><path fill="#fff" d="M2469.1 1033.8l7-24.3 113.2-59.4L2607 1073z"/><path fill="#e5fff8" d="M952.1 794.6L748.2 757l25.4 106.8 19.4-29.6z"/><path fill="#5e362c" d="M3201.9 1533l794.1 859.5-438.3-800.2-73-1263.8z"/><path fill="#673117" d="M1968.4 2145l-179.4-16.6-733.3-709.7 390.9-143z"/><path fill="#53270b" d="M411.3 1237.4l51.1 791.5-150 247.6 1148.3-334.3z"/><path fill="#000500" d="M1460.5 1095.2l-266.7-176.1 822 714.6 67.5-816.4z"/><path fill="#6e3f2e" d="M1412 436.9l-599.7 785 1016.5-465.7-142.2-238.8z"/><path fill="#4f3029" d="M2807.2 572.8l-374-805.3 158 700.4 35.9 378.6z"/><path fill="#928086" d="M1246 718.9L986.5 838.4 843 1201.1l-152.3.6z"/><path fill="#040600" d="M2624.3 1246.2l-323-407 13.6 997.2 538.8 113.6z"/><path fill="#be7514" d="M588.6 2088.2l242.5 259-167.4 45.3-238-302z"/><path fill="#686d68" d="M1412.3 94.5h-158.2l-173.1 96 488-5.6z"/><path fill="#805241" d="M2012.5 1818.1l172.3-681.7 145 337.5-131.1 918.6z"/><path fill="#000200" d="M471.9 1670.8l69.3 328.7-459.8 393-313.9-1187.6z"/><path fill="#0c1511" d="M3830.5 398.4l-203.2-220L3923 29l149.6 1207z"/><path fill="#060e07" d="M2114 213.9L1188.9 86.8 528.2 642.3l458.6-874.8z"/><path fill="#160e07" d="M2622.9 816.6l-592-110.4 1316.3 677.3-67.6-749.8z"/><path fill="#966961" d="M1963 1855.5L1844.2 1522l-100 143.5-250.9 17.1z"/><path fill="#6d4a3b" d="M3320.3 1593.8l-104.2-1.4 159.2 599-381-250.5z"/><path fill="#6f4f49" d="M3679.3 263l92.4 58.5L3427 1105l-57.8-351.9z"/><path d="M2075.2 2392.5l-510.3-442.3-114.8-51.3-119.7 237z"/><path d="M876.8 2114.7l1158.1 178.5-1428.4-22.6 134.6-148.4z"/><path fill="#60311c" d="M2101.5 2392.5L1100.3 1356.8 2237 2158.4l-1179.4 234.1z"/><path fill="#552a15" d="M1636 613.8l.1 393.2-918 369.7 559.5-368.5z"/><path fill="#3a2d27" d="M130.3 329.3l-13.4 214.2 263.6 59.4-1-248z"/><path fill="#693e29" d="M2178.7 1193.7l114.4 249.1-62-444.6-230.2-34z"/><path fill="#170d07" d="M932.9 201.4l-18 730 371.6-544.1L451.8 478z"/><path fill="#d4e9e3" d="M938.4 799.3L795.2 772l-23 26.3 24.7 64.3z"/><path fill="#70423d" d="M3444.4 339.2l76.8-571.7 551.3 167.7-440 225.9z"/><path fill="#9b959b" d="M1664.4 1385.2l-78.5-134.4-126.3-69.8 173.3 248.6z"/><path fill="#191e17" d="M2005.1-103.9l365-128.6 214.1 547.2-660.8 406.7z"/></g></svg>