<svg xmlns="http://www.w3.org/2000/svg" viewBox="0 0 3840 2160"><path fill="#523842" d="M0 0h3840v2160H0z"/><g fill-opacity=".5"><path fill="#d6a98d" d="M2815.7 1317l-2721 41.5L792.4 170.3l628.3-144.8z"/><path fill="#3d6aff" d="M2392.3 1401.4l279.2 124L2838.9-40l-349.8-192.5z"/><path d="M3969 1462.2L2379.5 1419l-370.9 945.3 2064-200.2z"/><path fill="#d9dfed" d="M3627.8 1454.6l-204.7-23.3-172-409.9 406.3-293z"/><path d="M-232.5 1360l155 868.9 1544.8 163.6-161-1003.5z"/><path fill="#c00400" d="M1292.6 1550.4l950.7 52.5-159.5 789.6-707-296z"/><path fill="#bd568c" d="M3762.2-25.7L2664.2 932l94.1-1164.4 856.3 309.2z"/><path fill="#973e00" d="M1329.7 539l562.6-270L2365 693 1312.6 890z"/><path fill="#420804" d="M986.4 891.8L262 229l428.5 1004 200 156.2z"/><path fill="#ffd9ca" d="M1773.1 746l-238 380.7 285 121.8 178.8-179.3z"/><path fill="#00000a" d="M4072.5 2003.1l-1666.4 389.4L4072.5-149.3 2619.9 1102.8z"/><path fill="#000b00" d="M2511.3 325.4l-944.8-557.9L1801.8 322l-291.3 304.6z"/><path fill="#330106" d="M1048.2 1648.7L2723 2074l-592-792.6-627-76.7z"/><path fill="#00000e" d="M1207.7 2124.4l148.7-709.3-1588.9-69.7 143 1047.1z"/><path fill="#b9b8bc" d="M1353.2 358l-70 637.8-881-274-246.5 349.5z"/><path fill="#000803" d="M-188 892l90.6-87 553.5-609.5 254.7 521.2z"/><path fill="#4570ff" d="M2225.8 1352.5l446.6 93-43.2-1678-239 1363.2z"/><path fill="#4d67e8" d="M3553.9 1295l-1000.6 134 1272.6 31.8 221.4 17.9z"/><path fill="#c27157" d="M4072.5 690l-430.8 109-84.2 599.1 438 8.8z"/><path fill="#dd88b8" d="M1787 1412l-58-9.2-222-799.5 447 760.8z"/><path fill="#919ed2" d="M1129.3 1415.2l611-288.6-588.4 23.5-409 221.1z"/><path fill="#fd423e" d="M1627 1775.8l-403.3 91.4 183 142.8 567.6 202.2z"/><path fill="#aebdcf" d="M329.6 766.6L571 1322.8 350.6 1299l-162-350z"/><path fill="#aaaa83" d="M765.2 204.6l699.6-90.6-641.2 627.8L535 312.2z"/><path fill="#060e05" d="M3695 233l-212 32.3-122 583.2 498.3-138.8z"/><path fill="#cf6704" d="M1210.2 588.9l829 299.6 18.9 457 207-798z"/><path fill="#1434c2" d="M3336.3 2131.7l216.6 167.5-127.4-307.7-60.1-904.5z"/><path fill="#0223ad" d="M438 1299l-670.5-6.5 568 138.3-28.1 584.2z"/><path fill="#9c030a" d="M2742.3 1771l2.6 52.4-746.4-405 501.7 8.5z"/><path fill="#121314" d="M1299 47.4l870.6 272.1 184 610.5 114.1-1141.8z"/><path d="M3763 1447l-374.2 54.2 147.3 891.3 536.4-488.6z"/><path fill="#151417" d="M201.8 959.8L777.9-29.4l-1010.4 1188 543.2 138.3z"/><path fill="#9a842f" d="M322.1 168L1925 389.5 1488.2 44.1 1224 553.2z"/><path fill="#a44260" d="M765-159.1L587 29.7l-819.5-59v815.4z"/><path fill="#f2a89d" d="M2431.3 999.6l79-202.3L1475 1054l191 87.5z"/><path fill="#c0b4c1" d="M2325.3 1369.2l128.5-17.2 68.6-460.4-332.2 425.8z"/><path fill="#bdbdcb" d="M1139.4 68.2L916.3 289.8l324.3 30.4 2.1-236z"/><path fill="#00000b" d="M2577.6 1751.8l819.7-314.7-1347.4 955.4 221.6-713.8z"/><path d="M2530.5 1466.4l735.4 926.1 78.4-921.8-392.4-32z"/><path fill="#241923" d="M3000.2 1402.5l300.4-97.6 10-523-735 479.1z"/><path fill="#b0afad" d="M3481.3 792.4l265-16.5-287.5 572.4-193-287.7z"/><path fill="#822324" d="M2006.9 1123.7l-280.7 445.1 343-248.4 495.8-414z"/><path fill="#007c08" d="M1391.2 1468.1l351.5 138.8 391.3-118.5-672.5-51z"/><path fill="#853025" d="M799 1326.8l-371.4-205.2 213.8-487.4 450.3 343.3z"/><path fill="#d8d7b9" d="M4072.5 1232.8L3876.1 53.6l196.4-286.1-285 593.6z"/><path fill="#0b40e8" d="M460.7 1372.1l657.7 15 229-33.9L.7 1309.8z"/><path fill="#000006" d="M1042.7 1384.7l-61.3 484.5-905 523.3-92.2-1010.8z"/><path fill="#4b0208" d="M1790.3 1539.6l-202.8-107-546 74 569.6-329z"/><path fill="#061677" d="M290.4 2392.5l957.8-754.4-220.9-255 26.7 534.8z"/><path fill="#272c22" d="M1186.6-15.4L966.7 219.9l-190.8 58 170.8-453.5z"/></g></svg>