<svg xmlns="http://www.w3.org/2000/svg" viewBox="0 0 3840 2160"><path fill="#5d2a16" d="M0 0h3840v2160H0z"/><g fill-opacity=".5"><path fill="#ff7039" d="M638 1933l-870.5-499L1784 845.9v943.4z"/><path d="M4072.5 2184l-2221.7-993.3-65.8 575.7-2017.5 396.3z"/><path fill="#bb5629" d="M4072.5 1652.8L2538 1854.5l-81-143L2240.3 235z"/><path d="M2580.7 2392.5l-860.9-34.4 178.8-2137 361.7 403.8z"/><path d="M548.8 1922.3l-781.3 203 4054.8 267.2 76.7-637.4z"/><path fill="#eb6530" d="M1645.9 1821.4l-521.5 119-638.7-79.1L1899 885z"/><path d="M681.8 1951.3l2987-105.2-3543.1 546.4-358.2-728z"/><path fill="#933e27" d="M1927.6 741.9L74.4 902.5l-241.7 888.2 1963.4-597.1z"/><path d="M1926.7 1069.6l711 1321.8L2080.8 245l-420.7 318.2z"/><path fill="#a74c28" d="M2905.4 558.6l-587 742.3 1140.7-492.4L3710 679.2z"/><path fill="#2b1a16" d="M-232.5 686.7l113.8-919.2 2227.5 34.3-385.2 421.5z"/><path fill="#c05627" d="M2463.7 1782.8l-77.5-691.6-27.4-260.2 787.5 1002.8z"/><path d="M3731.2 2392.5l341.3-699.6-1634.2 251.6-2670.8-27.8z"/><path fill="#482515" d="M2349.4 582.4L2231.5 909 3963-28 2064.4-232.5z"/><path fill="#b54619" d="M829 1938.5L81 1784l144-288.8L1421.6 1887z"/><path fill="#b14f2d" d="M1469.2 725l468 139.2-448.1 526.9L1057 721.6z"/><path fill="#e6693a" d="M920.5 1416.8l293.5-144 649-11.3-189.4 512.2z"/><path fill="#6f361d" d="M3931.1 1764.2l141.4-1510.9L2973.8 1047l430.1 666.5z"/><path d="M974.5 1939.8l-1175-131 287.8 583.7 3985.2-411.7z"/><path fill="#aa4c25" d="M3593.3 1057l-648.2 156-584 377.7 1420.6-384.4z"/><path fill="#030000" d="M2328.5 560.2l-681.8 320.6L1879 321.3l300.9 2071.2z"/><path fill="#7b3622" d="M789 499.8L1669.2 758l-767.7 571.9-934.1 151z"/><path fill="#944c29" d="M2337.3 372l-140.7-141.7L2091 564.6l216.8 14.2z"/><path fill="#ac4e2a" d="M1130.9 831l660.1 401.5 101.3-418-42.7 6.7z"/><path fill="#080100" d="M1926.2 842.8l-111.9 295.4 61.6 1181.5 515.2-1049z"/><path fill="#6c341d" d="M1499.4 232.7l2344.8 374.2-1388.8 170.2-343-774.8z"/><path fill="#572b1a" d="M2746.9 1243.6l965.3-265.4 360.3-324.7-1104 349.8z"/><path d="M4026.4 1761.7l-299.2 630.8-2129.7-512.2 1619.6-72z"/><path fill="#502918" d="M1387.4 377.2l-1619.9 192L1772 194.6l123.5 428.8z"/><path fill="#f2723e" d="M944.4 1515.7l40.7 24.5 763.5-24.8 72-216z"/><path fill="#a14925" d="M2907.3 697.3l285.6 302.9L3346.5 857l-131.2-182.7z"/><path fill="#703619" d="M4072.5 660.5v1038l-925.4 105.6 98-301.2z"/><path fill="#020000" d="M1763.4 1712l632.5 43.8-551.7 636.7-63.6-939.8z"/><path fill="#3c2013" d="M3343 479.6l58.5 65.3 666.6-160 4.4-330.1z"/><path fill="#d15924" d="M1728.6 1655.4l33-198.1-1036.5 472.2 568.8-18.3z"/><path fill="#af5024" d="M2485 1836.7l36.2-.6 282.3-117L2346.4 991z"/><path fill="#5c2b1d" d="M-232.5 683.4v514l1323.1-304L458.3 455z"/><path fill="#b24f2d" d="M1903.3 769.7l-1016 649.6-76.4-34.4 984-119.6z"/><path fill="#9c4120" d="M1326.7 1057.1l-1559.2 509.7L411.7 1887l105.6-348.6z"/><path d="M75.8 2367.1l3627.8-219.7-3570.1-263.9-92.6-301.9z"/><path fill="#8a3d1f" d="M2366.7 223l11.6 502L3789 633l-1422 458.2z"/><path fill="#341c13" d="M1730.8 217.7L95-232.5l-327.5 679.2 830.2-324.3z"/><path d="M1811.8 367.3l272.7-12.8 26.5 289.4-189.6 129.5z"/><path fill="#b65429" d="M2425.1 1483l333.7-459.1L2332 1103l766 336.8z"/><path fill="#843d1b" d="M2681.2 1622.3l844.5-433.7-145 537-199.6 112.5z"/><path fill="#4a2618" d="M1461.5 375.9l-332.9-608.4L1890 560 947.4 740z"/><path fill="#0c0601" d="M2188.4 563.5l-232.2-35-24.2 831.2 424.4-582.8z"/><path fill="#884324" d="M2627.3 347l-512-25 29 136.4 296.6-61.6z"/><path fill="#472415" d="M3644.3 971.4l428.2-224v-380l-559.7 539z"/><path fill="#0b0400" d="M2314 916.2L1599.7 453 1804 751.5h-12.4z"/></g></svg>