<svg xmlns="http://www.w3.org/2000/svg" viewBox="0 0 3840 2160"><path fill="#663332" d="M0 0h3840v2160H0z"/><g fill-opacity=".5"><path fill="#e26f72" d="M505 1471.1l-737.5 3 65.2-1706.6L1032 688.6z"/><path fill="#9b91a5" d="M2625.4 1311.2l-1088 254.7L1552.7 322l743.4-38.3z"/><path d="M2294.6 2094.7l751-2327.2 71.7 1908 14.6 598.5z"/><path fill="#b00" d="M93.2 2005.7L460 2392.5l1103.2-1267.1-703.8-383.5z"/><path fill="#fff" d="M1077.4 626.3l60.4 103.1-1370.3-48L8.1 597z"/><path fill="#290000" d="M1575.3 2248.6l-835 143.9L717 1362.8l700.4 7.2z"/><path fill="#114661" d="M4072.5-232.5l-246.4 2625-488.9-185.8L3292-232.5z"/><path fill="#130000" d="M2908 1618.3l-403.6-455.7 833.4-1096L2068-232.6z"/><path fill="#870000" d="M1543.6 616.8L832.7-14.7l-1061-115.1L883.3 644.7z"/><path fill="#508ac9" d="M2130.5-232.5H870l248.5 538 277.1-101.6z"/><path fill="#380000" d="M1082 265.6l33 943.5 337.5-599 293.8-366.6z"/><path fill="#ff5811" d="M568 1149.6l913.2 195.5 79.4-222.3-874.4-101.3z"/><path fill="#3d0502" d="M1705.5 1184.3l166.8-165L2144 981l103 240.3z"/><path fill="#676259" d="M2328.4 2274.1l272-981L1373 1574.9l-16.5 268z"/><path fill="#ff0c00" d="M370.1 2392.5l40.2-713.7-192.9-19.4 40.4 472.3z"/><path fill="red" d="M595 433.4l121.5-38L784.8 2.5 558-232.5z"/><path fill="#650000" d="M725.2 849.3l680.3 312.7-79.7-452.1L-13 762.7z"/><path fill="#626480" d="M3421.4 2392.5l126.9-1953.2-269-671.8 35.6 2207.8z"/><path fill="#2a0001" d="M904 529.7l-184.7-669 593 520.8L-84 412.2z"/><path fill="#230000" d="M2768.1 2392.5L806 2077l455.3-772.2 93.5 578z"/><path fill="#8b0000" d="M3295.2 266l-223.8 18.3L3113 2223l193.7 169.6z"/><path fill="#baa3c0" d="M112.2 1443l291.5 49.7 279-31-425.9-119.8z"/><path fill="#ff363d" d="M-141-232.5l-91.5 935.3 658-813.5 14 519.5z"/><path fill="#1a1010" d="M3684.7 121l7.5 2271.5 360.4-526.5-211.3-2098.5z"/><path fill="#a899a6" d="M255 2392.5h187.3l-590-297 21.9-774.2z"/><path fill="#5c0900" d="M2723.5 220l-53.8 327.1L1769.1 128l862.7-2z"/><path fill="#9f7c82" d="M1643 744.4L1465.1 565l-36.6 668.1 959-854.1z"/><path fill="#df0400" d="M-132 1109.2L303 721l-476.2-54 68.6 157z"/><path fill="#e3e6ff" d="M1011.6 725.6l-685.2.7L-232.5 613l797-10.8z"/><path fill="#772614" d="M1000.9 1274.6l-854 129-98.5 46.2 499-465.5z"/><path fill="#947e93" d="M2326.8 363.5l-580.5-111 655.8 861.7 182.7-168.8z"/><path fill="#ff1300" d="M675.7 1673.8l-107 29.4 5 483.1 168.5-219.5z"/><path fill="#a690a8" d="M2105.9 1389l243 118.4 71.6-377-667.4 221.2z"/><path fill="#050108" d="M3360.3-232.5H1537.6l1174.3 412L3019.7 816z"/><path fill="#756773" d="M293.3 1248.1l-525.8 738.5 9.4-1033.7 1002.6 208.4z"/><path fill="#401a03" d="M1923.6 264.7l-560.8 217.6L1890-35.3l607.4 339.1z"/><path fill="#e72700" d="M674.3 733.3L935 1077.1 417.2 704-85 879.7z"/><path fill="#340b00" d="M2425.9 1697.8l212.4 694.7 506.2-1148.6-704.4 247.7z"/><path fill="#454f55" d="M2701.5 907.8l53.6-621.1 37.5-142.7 27.6 720.5z"/><path fill="#4f0000" d="M1645.4 1240L363 2392.4l77.2-972.5 166.7 972.5z"/><path fill="#50372a" d="M1866.5-161.8L2656 446.8l-588.7 201.3 530.6 157z"/><path fill="#8b0000" d="M708.9 2120.7l279.8-210.8-3.1-773.8-286.1 178.6z"/><path fill="#483840" d="M1260.4 488.7L214.2 349.2l-446.7 21.2 144.2 45z"/><path fill="#a1677e" d="M796.1 551l-49.6 9.6 363.4 146.8 104.4-147.5z"/><path fill="#630000" d="M206.8 1812.5l133.8-269.8L68.3 1761l139.5 617.8z"/><path fill="#ad1c00" d="M558.7 1376.2l246.2 65.4-298-232-447 159.2z"/><path fill="#b18fac" d="M1917 334l111.5 231.6L2285.4 369l-436.2-117.5z"/><path fill="#f45215" d="M1401.9 846.4l64.8 254.5-679 132.2 641.1 81z"/><path fill="#69392f" d="M296.2 839L150.4 650.4l-40.1 414.7 427-162.9z"/><path fill="#b93a46" d="M464.8 542.5L332 405.3l10.8 208.6 603.8 16z"/></g></svg>