<svg xmlns="http://www.w3.org/2000/svg" viewBox="0 0 3840 2160"><path fill="#64605f" d="M0 0h3840v2160H0z"/><g fill-opacity=".5"><path fill="#fff" d="M1929 952.5L1175.6 1136l26.8 798.5 1652.5 52.8z"/><path fill="#f5ffd6" d="M1144.8 2070.8L1288 1560l589.6-579.2 746.8 826.2z"/><path fill="#210826" d="M166 611.5l1272.9-12-365.2 1205.4L-128 2197z"/><path fill="#2a2037" d="M4072.5 1297.2L1466-30.4l1072.8 1659L4072.5 1839z"/><path fill="#95aa9b" d="M3150.4 1798L1271 1964.3l2557 137.3-15.5-314.8z"/><path fill="#544830" d="M3037.3-232.5l-633.5 1263-707.7-32.5L143.5 142.5z"/><path fill="#a8bba9" d="M1960.4 1358l511.4 342-97-418.6-279.2-148z"/><path fill="#a79b49" d="M2831-232.5l417 953.6-317 42.6-288.3-996.2z"/><path fill="#50251a" d="M841 1107l386.3 470.9-13.9 355.7-1042.6 172z"/><path fill="#9bb19d" d="M674.4 2042.1l-906.9 100.4 280.2 250 2393.5-563.3z"/><path fill="#666199" d="M657.1 647.8l640.6 547 291.9-196.4 47.9-147.8z"/><path fill="#421b14" d="M3201.6 1738.8l-207 95.7-624-275.6 338.6-265.5z"/><path fill="#5c568e" d="M2783.5 904.9l-450 5.8 648 537 514-413z"/><path fill="#3e4168" d="M-216.6 730.9L147 1832.2l103.1-997L760.4-232.5z"/><path fill="#785860" d="M2001.3 1643.6l-111-330.1-79.5 303.9 49.1 35.8z"/><path fill="#f4ffdb" d="M1846.6 1854.5l-456.4 84.8-177-429.4 506.5-221.2z"/><path fill="#222437" d="M3360.9 1183.2L3103 1457.1l694.6 293.8-405.5-1060.6z"/><path fill="#1c1337" d="M1786.4 983.4l192.6 32.4-360.5-284.2-670.7-119.3z"/><path fill="#968b42" d="M435.6 570.8l124.6 41.8 346-462-157-383.1z"/><path fill="#221c2f" d="M1233.5 1433.6L192.9 500l74 690.5 313.5 191.6z"/><path fill="#f5ffde" d="M1758.6 1154l19-189 400.4 180-842.4 414.6z"/><path fill="#637c87" d="M3351.2 1464l-1098.1 848 784-602.7 486.8 146.9z"/><path fill="#f3ffdd" d="M2733.4 1814.7L2241 1849l-295.1-160.9 413.4-133.6z"/><path fill="#241432" d="M2534.8 885l684.7 87L2484 598.8l-504.3 359.1z"/><path fill="#aab3a2" d="M3475.2 1985.2l-1195.8-111 1254.1-86.6 233.9 24.2z"/><path fill="#3d5063" d="M2880.3-232.5l514.6 245L3876 1467.4l-566.5-570.8z"/><path fill="#9fa99d" d="M2155 1532l-212.6-593.5 430.6 384.3 109 300.4z"/><path fill="#655c42" d="M3084 544.3l-1090.1 166-504.1-444.6 133-366z"/><path fill="#302542" d="M2233.2 949l-338-47.4 696.4 539.7 324.1-358.7z"/><path fill="#897559" d="M1270.9 1717.8L1100.6 1315l9.3 251 53 453.5z"/><path fill="#53496a" d="M355 825.3L728 678l1038.7 153.4L1166 1174z"/><path fill="#211926" d="M1868.3 952.7L1569 1056.3l177-235.4L1309.7 697z"/><path fill="#9cad9f" d="M1242.7 1364.4l327.3 69.9 35.6-446.7-407 141.9z"/><path fill="#505471" d="M302.6 1274.2l195.7 56-730.8 270.3 435.9-851.8z"/><path fill="#7e8c80" d="M3465 2034.1l-1004.7-189.4-1204.9 105-209.8 172z"/><path fill="#5d576b" d="M1303 218l500 660.4 29.8-361.3L2154 411.6z"/><path fill="#251623" d="M1046.2 724L247 652l1067.8-112.4 13.7 183.2z"/><path fill="#81747f" d="M3204.4-232.5l242.2 20.2L3656.2 120l300.6 716z"/><path fill="#484a4e" d="M3943.7 1501.2l128.8-112.4-296.2 596.6-160.4-36.1z"/><path fill="#625589" d="M3099 1172l-951-298 1307.6 111.7-145.8 189.3z"/><path fill="#394856" d="M4002.7 2183.8l-45.8-122.6-2029.2 54-593.8 57.3z"/><path fill="#1d1627" d="M261.8 442.1l102.8 1001.3L149 383.4l-13.6 15.3z"/><path fill="#e9fdd3" d="M1685.6 1114.4L1288.3 1969l467-132 34-858.3z"/><path fill="#0b0311" d="M3437.5 1017.8l-127.3 343.4-202.3 247.6 387-318.5z"/><path fill="#949f93" d="M1810.7 1290.2l531.5 198-156.4-138.8-384 35.5z"/><path fill="#716c7f" d="M3635.1 1394.4L4072.5 666v605.5L3677.2 265.3z"/><path fill="#f2ffdc" d="M1748.6 1006.8L2131 1646l104 90-313.6-651.4z"/><path fill="#35262d" d="M309.8 1454.6l442 561.9-984.3 126 309-569z"/><path fill="#a4a16a" d="M2821.5 241.6l96.7 227.8 44.4-337.2 267.5 569z"/><path fill="#82664c" d="M662 1497.7l134.5 141.7-224.7 22.4-122.5 152.4z"/></g></svg>