<svg xmlns="http://www.w3.org/2000/svg" viewBox="0 0 3840 2160"><path fill="#686257" d="M0 0h3840v2160H0z"/><g fill-opacity=".5"><path d="M4072.5 35.6L233.7-232.5l-466.2 501.3 3581.3 71.8zM3700 1894l-3499 6.7-433.5 265.3 4305 29.9z"/><path fill="#b9b49f" d="M23.1 1899.3L137 371.3l1401-70 1857.4 1617z"/><path fill="#020015" d="M2675.2 846.4l-120.4 437.4-542.9-205-74.4-453.3z"/><path fill="#c3b89b" d="M3804.4 328.6l-8.7 1581.6L2225 347l98.5-53.5z"/><path d="M-61.4-65.8L-171.6 288l3387.1 29.2L4072.5-5z"/><path d="M3788.2 1840.9l-4020.7 175.9 4305 375.7-263.4-2625z"/><path fill="#eefffa" d="M2150 1621l-2106.4 3.7 36.7 200.1 3992.2-86z"/><path fill="#504b53" d="M1833.4 1603.4l61.7-551.2 408.7-239-1680 420.2z"/><path d="M-41.4-232.5l37.6 479.4 4003.5 70.9 72.8-344.4z"/><path fill="#aaa6cd" d="M1500.7 1251.9l554.1-706-231-306.6-584.4 684.3z"/><path d="M290.7 2392.5l2498.8-495.1-2350.6-7-671.4 13z"/><path d="M-232.5 844.8L68-207 55.2 764l-9.5 1628.5z"/><path fill="#b5c0b1" d="M3003 1901.3l590.7 5.5 59.5-319-1177.8 33z"/><path fill="#c7ac7c" d="M538.3 1430.2l389-224.7 104-900.4-717.2 11z"/><path fill="#3375e6" d="M1482.6 1273.8l-127.8-270.2L1779 754l93.5 137.7z"/><path fill="#7d7651" d="M3671.2 1638.5L913.8 1573l1477.8-454.8 822.6-215.6z"/><path fill="#1b0c29" d="M2525.6 1048l333.8-286.9-833.1 15-131.1 248.3z"/><path fill="#1b0000" d="M2166.6 525.6L1957 944l393.6-552.7-586.3-7.8z"/><path fill="#b5a79e" d="M2211.4 642.3L2387 811.7l548-513.8-552.5 25.3z"/><path fill="#536030" d="M59.7 1665.5l-21.3-376.6 1425.1 315.4-1696 11.6z"/><path fill="#323a39" d="M3172.6 1877.6l-1748.1-34.2-402.2-10.8 453.3-57.2z"/><path fill="#c19f83" d="M1734.1 308.8L2146 562.5 1233.1 998l-529-318.5z"/><path fill="#a79b8b" d="M2586.8 1007l81.8-5.8 1023.6-781.5L2657 1436.4z"/><path fill="#fbe4e1" d="M2115.7 1187l40.5 32.2L1772 931l284 376.3z"/><path d="M3489.7 2392.5l582.8-505.7-947.2 12.6L46 1907.7zM4072.5 331l-687-563.5-2449 542.2 2268.6-38.2zM1730.1 1840.5l-629.6 7.9-355-41.3 786.9 3.1z"/><path fill="#3f3026" d="M3171.7 1122.6l-132.5 90.7 8.8-223 277.4-116.6z"/><path fill="#aea492" d="M3091.4 307.4l443.4-14.8 248.2 112-335.7 1102.3z"/><path fill="#b6c4bc" d="M1051 1881.3l-870.8 21.6-87.4-231.5 1310.8 235.8z"/><path d="M95.7 2392.5l3976.8-496-3944.5 40-252.3-217.5z"/><path fill="#6b5f38" d="M1142.1 1111.6l-37.6-142 343 120.3-496.7 607z"/><path fill="#291e31" d="M2709.8 901L2867 697.9 1783.6 951l451.4 233z"/><path d="M3799.2 2376.8l235.1-2609.3-279.6 746.8 56.6 271z"/><path fill="#4a3c30" d="M1722.6 1001.7l201.5 192-426.6 364.2L1775 925.4z"/><path fill="#010000" d="M-232.5 341l484.7-35.2 3820.3-13.7L427.3-232.5z"/><path fill="#26000f" d="M2303 803l-299.4-152 343-238.5-350.7-38z"/><path fill="#aab3ab" d="M1859.4 1705.4L3233.7 1887l-655.5 19.8-200-83.3z"/><path d="M42 2025.6l-274.5 366.9 282.7-2625 1 1417.4z"/><path fill="#c9ccda" d="M1497.7 1397l16.3-342.5-48 109.5 152 139.8z"/><path fill="#706646" d="M3316.5 1238L3182 1604.5l539 11-26.4-130.7z"/><path fill="#826f54" d="M1148.4 305.3l-184 284.5 788.7 98L1339.3 418z"/><path fill="#c8ccc3" d="M1439.9 1820.7l996-40.2 792.3-152.4-2562 5z"/><path fill="#dab7b1" d="M2084 482.4l-854.4 468.8 212.5-312.4 660-59.5z"/><path fill="#b9968a" d="M2574.5 310.4l-1097 124.8-310.3 282 249-410.9z"/><path fill="#af9e7e" d="M2359.6 1470l926.6-47.9-546.7-120.6-273.6 70.7z"/><path fill="#e6d9cd" d="M2040.6 1129.5l-271.4-166 14.1 77.6 304.5 221.6z"/><path fill="#a89a86" d="M3122.4 1418.3l113.4-355.7-415.3 14.3 439.2 281.5z"/><path fill="#9a9184" d="M2487.2 492.2l-318 53.8 59 240 400.7-.2z"/></g></svg>