<svg xmlns="http://www.w3.org/2000/svg" viewBox="0 0 3840 2160"><path fill="#875c62" d="M0 0h3840v2160H0z"/><g fill-opacity=".5"><path fill="#d1ad94" d="M2994 1432l-227.7-351-871.8 30.7 477.2 1024.8z"/><path fill="#4a2025" d="M2252.3 2318.9l724.8-814.5 799.6-204.9 176.2 1093z"/><path fill="#cea58b" d="M856.3 1531.4l-278.6 861.1h2230.6L1476 1700.7z"/><path fill="#1f3319" d="M1666 1557.4l-87 177 545.7 260 235.4-232.6z"/><path fill="#59282e" d="M-232.5 1243.4L255.6 377l362 1740.4-592.9 275.2z"/><path fill="#ac7085" d="M3125 731.9L1247.6 493.8 64.6-183.7l2307-48.8z"/><path fill="#b38c81" d="M1715.8 1338.7l-760 316.5 1190.2-76.1 238.8-831.8z"/><path fill="#de383b" d="M-232.5-232.5H416L50 654.3 1.8 1752.1z"/><path fill="#473844" d="M2974.3 1361L2795 2172l574.3-715-333.8-1103.2z"/><path fill="#443643" d="M51.2 1038.6l240-739.9 481.4 138.6L263 1003z"/><path fill="#614553" d="M2579-232.5L1022.5 1729.9 765.1 769.4l413.6 125.2z"/><path fill="#a16a81" d="M3651 1441l-335.6 359.5-15.7-530.6L3163.5 248z"/><path fill="#ce7e9d" d="M1187.6 749.1l273.8-981.6H1706L1161.9 1192z"/><path fill="#ae927e" d="M831.6 1779.6L648.7 1578l-343-412.9 73.5-259.3z"/><path fill="#423141" d="M2748 21l572.7-220.5L3077.5 324l-334.4-134z"/><path fill="#bf9589" d="M2855 763l-102 1011.3-891 618.2 625.6-824z"/><path fill="#583d4b" d="M1765.6 498.6l432-705.7L1497 563.6l-29.2 892.2z"/><path fill="#b89a80" d="M2543.8 445.5l27.4 250 335.9-9.9 120-370.3z"/><path fill="#c17895" d="M2600.8 47.8L1983 896.2l428.3-1128.7 913 23.6z"/><path fill="#553d48" d="M1843 1225.9l198-802.5-87.4-80.6-267 729z"/><path fill="#c69a8e" d="M1078.7 1670l617 299 433.4 415.5-989.8 8z"/><path fill="#ad6d84" d="M3530-232.5l-378 464.6L3314.2 1336l54.3-830z"/><path fill="#b27488" d="M1729.5 850.5l318.2-719.2-117.8-1.3-279.4 702.4z"/><path fill="#8c574d" d="M2125.1 2357.6L1561 1808.9l202.3-67.6 330 147.8z"/><path fill="#583c4c" d="M3479.7 555.7l-130.4 133.5 243.6 963.3-18-467z"/><path fill="#ba8d85" d="M2227.4 1690.5L1522.9 1551l190-301.3 751.4 663.5z"/><path fill="#886166" d="M2677-8L1646.5 1314.5 3138.3 536l-862 1002.4z"/><path fill="#957066" d="M1281.2 2392.5l-727.8-617.8 223.7-743.4 159.1 821.2z"/><path fill="#62474f" d="M1039 1389.8l330.5 372.3-289.2-1025.8L577 838.2z"/><path fill="#832f35" d="M305.2 2392.5l-462.7-362.2-75-2078.3 725.6 2439.2z"/><path fill="#613133" d="M3753 961.5l-485.8 1431-645.6-524 1328.3 524z"/><path fill="#55474f" d="M122.4 947l327.3 435.2L659 1617.6l-142.8 594.2z"/><path fill="#a56a7b" d="M4072.5 307.5l-373.8 348.7 190 913.7-184.6 313.6z"/><path fill="#614350" d="M692.1 684.8L866.8 36.4 377.3 387.7 156 836.5z"/><path fill="#bc9288" d="M1864.7 2392.5l-377.2-893.3-138.5 722.2 1134.7-177.9z"/><path fill="#a76c7f" d="M967.6-3.3L550 1002.4l783.7-1037-52.6 78.4z"/><path fill="#966a76" d="M3526.5 1308l-26.3 248.8-296.2 443.3-70.5 90.8z"/><path fill="#664950" d="M1927.1 647.4l-17.2 702.9-369.1-494-250.6 890.9z"/><path fill="#9b687a" d="M2861.2 1250.4l76-564.6-570.9-42.6 226.8 489z"/><path fill="#af877d" d="M2230.8 1724l-854-506.6 521.9 377 587.7-1200.5z"/><path fill="#31392c" d="M2010.9 1657.8l206.4 40.6-36.8 238.6-98.8 158.5z"/><path fill="#5a4049" d="M3350.8 1246.3L3060 909.6 2835.2 2140l527.2-515.7z"/><path fill="#5f444e" d="M3230.5 719.7l-276-157.6-73.7 493 292.1 259.7z"/><path fill="#8f5f6c" d="M1484 1632.6l-38.4-683.9 19.2-291.6-181.2 360.4z"/><path fill="#6a4850" d="M2794.2-169.3L2469 594.2l-62.7-30-117 68.2z"/><path fill="#aa8778" d="M1279.4 1919.8l-982-757.8 171.1-458-69.2 682.2z"/><path fill="#b08b7d" d="M1006.2 1986l288.8 200.2-463.3-945.4 11 394z"/><path fill="#744f5b" d="M640.7 955.8l-3.1 309.5L865 920.7 1381.9-116z"/><path fill="#614353" d="M3733.5 1222.6l40.8 348.7.3-506.6L3463.4 277z"/><path fill="#343c2f" d="M2039.7 1833l227.3-4.2-636.3-264.4-98.4 104.6z"/></g></svg>