<svg xmlns="http://www.w3.org/2000/svg" viewBox="0 0 3840 2160"><path fill="#5b4e27" d="M0 0h3840v2160H0z"/><g fill-opacity=".5"><path fill="#d65a3d" d="M2641.6 751.4l-152.8-384-2081 232.7L1679 1789.7z"/><path d="M939.9 2392.5l-1172.4-111.3V-73.5l565.4-159z"/><path fill="#61af40" d="M2175-232.5l-37.4 2131.4 1407.7 493.6-215-2625z"/><path fill="#ff3c21" d="M1168.5 1083.3l-396-620.5L1962 1189.4l3.3 286.4z"/><path fill="#000800" d="M4056-180.7l-565.2 2450 581.7-186.3-413.2-2315.5z"/><path fill="#451c23" d="M-214.6 103l1769.5-284 594.4 892.5L1598 860.2z"/><path fill="#451f17" d="M2879.8 976.5l-127-516 565.5 191 418.4 330.3z"/><path fill="#c7824d" d="M3036.3 1397l29.4 28.2-1031.2-973.1 1263.4 690z"/><path fill="#1e0c0c" d="M-232.5 2165.8l449-2398.3 150 1835.4 3103.2 749z"/><path fill="#552321" d="M462 697.6l835 308-457 1386.9-306.4-765.7z"/><path fill="#439530" d="M2286.8 2113.8L1967.3 958l780.7 21 695 1413.5z"/><path fill="#fc4938" d="M455.7 785.3l842.5 7.2-745.5-289.8 36.9-222z"/><path fill="#357726" d="M3877.7 112L2656 2392.5l823.8-179.5 277.7-813.3z"/><path fill="#ccaf63" d="M2222.7 51.7l-30 1.9 287 328.2-359 637.7z"/><path fill="#060006" d="M3447.6-223.5l544.6 449.4-507.7 53.3-186.7-511.7z"/><path fill="#8d3f39" d="M1005.9 742l1046.7 1091.8-883.4 121-92.1-897.7z"/><path fill="#271803" d="M935.1 216L-232.5 940.2v-1156l741.8-16.7z"/><path fill="#71463f" d="M1326.6 314.2l707.8 637.1 341.7-1183.8h-754.4z"/><path fill="#63b33d" d="M2576.1 896.5l-312.6 427.3 944.4 654.6-415.4-657.7z"/><path fill="#e5502d" d="M726.4 296.8l1409.2 1070.7-1024.4-246.1 226.5-31.6z"/><path fill="#2e151e" d="M1783 1943.5l83.8 249.5 267 199.5 45.7-746z"/><path fill="#273b19" d="M3530.3 859.3l270.7 974.6-492-1134.2L3746-122z"/><path fill="#818e4d" d="M3411.7 599.2l-330.1-21.3-89.3-810.4 489.4 536.3z"/><path fill="#874533" d="M1050.2 291l238.4 437-601.2-135.4 235.2-295.8z"/><path fill="#601605" d="M1019.4 803l-273-50.5-250.4 230 685 63.8z"/><path fill="#ff9d7f" d="M551.2 661.7l11.7-67.6 158.2 56.4-109.3 196.3z"/><path fill="#569c32" d="M2913.1 1836.4l290.8 123.9 433-325.5-178.7-465.9z"/><path fill="#aa623f" d="M2847.4 1521.6l-48.3-531.8 504.9-5.2-304.5 353.2z"/><path fill="#376b29" d="M2374.8 2288.9l70-697.5 1096 516.3 17.5 284.8z"/><path fill="#457029" d="M2811.1 1320.7l49.4-666.3 249.8-791.2-541.8 111.4z"/><path fill="#7a9142" d="M1977.4 1360.6l171.7-496.4 426-671.6-364.6 1416.3z"/><path fill="#f2a585" d="M1773.4 983.4l-56.3 14.4 157.7-.8 60-210.8z"/><path fill="#251400" d="M-217.7 2346.3L-58 646.3l579.1 91 141.3 319.2z"/><path fill="#f7da98" d="M2463.6 859.5l11.2 8.4 167 33-60.9-161.6z"/><path fill="#0f0602" d="M3825.1 1260.3l-192.8 908.5 361.6 223.7L3810.6 636z"/><path fill="#8d706a" d="M487.6-142.5l438.9 242.8 126.2.7L1076-81.4z"/><path fill="#8ca957" d="M2303.2-112.6l-9.9 1199.8 24.7-451.4 246.6-44.2z"/><path fill="#ffa469" d="M2175.3 700.5l-36.5-23.7 111.4-458-10.8 540.1z"/><path fill="#5e3524" d="M388.1 1613.6l-123.9-1257L511.4 1524l1761.9 77.8z"/><path fill="#fa4711" d="M1905.6 1387l126.4-13.6L930.9 608l752 732.8z"/><path fill="#33201e" d="M1070 210.7L1352.4 655l-49.7-887.5-361.2 436.6z"/><path fill="#592b1e" d="M2919 786.4l180.2 339.8 281-537.5-574 106.7z"/><path fill="#864432" d="M1969.8 1361.4l65.3 423.6-190 66.5-769.4-322z"/><path fill="#cb5a32" d="M710 1100.5L667.9 538l-12.6 474 16.5 284.2z"/><path fill="#38262a" d="M61.3 2193.6l2504.5 39.7-490.6-373-977.7 79z"/><path fill="#d36541" d="M1311.3 1332.2l202.6-195.8 474.2-321-811.7 283.2z"/><path fill="#608a34" d="M3233 722.2l175.8 236.6L3278 2126l-73.5-893.3z"/><path fill="#2d120a" d="M669 552.1l122.8 86L814.1 482l-136-714.5z"/><path fill="#724234" d="M1213 1197l-335 280.3-274-259.2 499.5-356.3z"/><path fill="#715f4f" d="M2747-232.5l-120.9 534L1678-157.6l193.3 473z"/></g></svg>