<svg xmlns="http://www.w3.org/2000/svg" viewBox="0 0 3840 2160"><path fill="#565148" d="M0 0h3840v2160H0z"/><g fill-opacity=".5"><path fill="#fffffb" d="M7.9 554L679.3 83.7l862.4 2308.8-952-489.8z"/><path fill="#fff" d="M3563.3 593.9l-581.4 1482.2-129.4-39.9L2780 482.8z"/><path fill="#ffffe0" d="M1911.1 1389.2l-484.5-479.5 424-595.8L2385.9 556z"/><path d="M4072.5 11.5v655.2l-4305-503.2 67.8-396z"/><path d="M3314.5 1351.1l513.3-1583.6 220.2 2625-1122.4-246.6zm-2847-248.5l-700-140.6 150.6 1430.5h629.5zm632.8 224.3l342.1 176.5 307-1514.9-572-221zM2842.4-71.5l15.6 1695.4-840.1 670.7 469-2466.5z"/><path fill="#d9ddd4" d="M3225.2 383.8l385 424.7-1180.2 342L2811 594z"/><path fill="#fff9e6" d="M611.8 1982.6l44-1272.3 734.7 930.7-283.5 519z"/><path fill="#e0f0fe" d="M3427.8 1168.8l-349 632.3-592.5 591.4 50.6-465.2z"/><path fill="#cbbaa1" d="M1006.9 262.8l263.8 700.6L647.4 1110l-879.9-74.4z"/><path d="M3903.5 499.2l-679 547L3435 1360l405.5 1027.8z"/><path fill="#ffe1c1" d="M2108 254.1l-429.8 308.2-286.5 341.1 895.7 124.1z"/><path d="M-232.5 1064.3l488 1328.2 154-1149.2 44.4-170.8zm1343.8 1328.2l1401.2-31.8-448.8-460-402-81.4z"/><path fill="#fff" d="M2492.2 2309.5L2239.7 2030 2018 1903l337 61z"/><path fill="#fff0d7" d="M1971 1761.7l-68.8-175.8 460.3-101.3-369 299.5z"/><path d="M2809.8 2320.8L3573.7 920l17.6-1152.6L4072 2108zM1140.2 664.1l-238.5 357 483.7-206.5 794-1047.1zM-21 572l-20.3 1820.5 1527-43.3-1367-594.5z"/><path fill="#efdfcc" d="M368 1544.1l83.3-379.6 929.3 449.8-748 340.7z"/><path d="M3980.1 518.4L41.1 118.2-232.5.2l4305-232.7z"/><path d="M2190.7 1038.6L3074.5-78 2317 1467.3l-303.7-455.1z"/><path fill="#ac9b77" d="M346.1 135.3l-578.6 728.2L1134.1 745 817.3 168.2z"/><path fill="#fff8e8" d="M1084.8 852.1l-1035.4 239 61.8-170.8-197.5-198.2z"/><path fill="#090000" d="M1695 1514.9l-234-196.7-161.4 557.9 162-3.7z"/><path fill="#a1b3b2" d="M2718.9 1696.6l-33.4-647-367.2 399.3L2559 1023z"/><path fill="#9a6a31" d="M1045.8 541.5l717 1194.3-17.9-1348.3-429.8 789.2z"/><path d="M2389.8 2044.4l535.9-511.9-1105-216.4 222.6-154zM1082 1528.8l164.2-1013.1L132.8-232.5h1843.5z"/><path d="M1193.6-232.5l375.7 831.3-1678.4-806.5L-232.5 503z"/><path fill="#fdf6e1" d="M2690.6 952.6l909.7-301.5-931.2 858 738.4-249z"/><path d="M2269.2 1060.5l19 840.6 439 48.7-91.4 238.3zm604 14.3l-330.6-301 172.5 571.5L3004 1093zm-1871.6 29.8l373.2 28 264 443.5-464-181.3z"/><path fill="#f4e2db" d="M2281 339.8L1756.3 625l85.2 392.4 431.4-35.2z"/><path d="M1402 2081.3l-169 311.2 1229.5-94.4-604.9-474.6z"/><path fill="#fff8e6" d="M1315.3 1949l262.6-107.4-21.6-37-316.8 532.2z"/><path fill="#e07c66" d="M1546.9 1517.6l-2.7 133L634.6 1242l509.5 162.5z"/><path d="M631.7 1957.6l-625.6-931-238.6 1125.3 1542 240.6z"/><path fill="#fbf2e8" d="M1178.9 583.2L1051 800l-383.6 331.6L510.8 946z"/><path d="M3043.2 2392.5L3539.7 718l-332 428.6 864.8-38.8zM-183 1570.8l737-483.4-404-83.5 85.2 3.9z"/><path fill="#eae2d8" d="M908.2 1069.4l395-341-744.5 1065.9 498.3 417.3z"/><path fill="#c1d6ec" d="M2879.1 1570.4L2437 2073l512.4-239.8-383.8 540.6z"/><path d="M1261.6 2079.7l-157.1-35.2 159.8-58.4 68.8 38.4z"/><path fill="#a5987f" d="M1158.4 655.6L-232.5 790l717.6-675.2 636 289.2z"/><path d="M2256.6 1704.6l249 572.3 270.7-408.6-178 323.7z"/><path fill="#a98c62" d="M2360.5 738.5l4.2-278.4-93.6-142.4-493.7 32z"/></g></svg>