<svg xmlns="http://www.w3.org/2000/svg" viewBox="0 0 3840 2160"><path fill="#897743" d="M0 0h3840v2160H0z"/><g fill-opacity=".5"><path d="M2540.5 2323.8l-1269.2-129 81.1-1937L2189-232.4z"/><path fill="#dbd596" d="M-209.1 2152.6l1408.8 181.2 114-1686.8-1524 74z"/><path fill="#d9ce78" d="M3755.6 139.5L2755 492.2l-300.4 1900.3 1617.8-244.6z"/><path fill="#f7f1ae" d="M1559.7 2316.7l422.5 75.8-98-1296.2-87.7 682z"/><path fill="#160700" d="M2668.2 1196l-519-552.4-494.5 99.5 637.1 1571z"/><path fill="#090000" d="M1593.6 2392.5L1342 2232.2l-166.6-566.5L1915 690.4z"/><path fill="#bbb88c" d="M1313 858.9l148.4 507.3L-232.5 1714l1319.2 678.4z"/><path fill="#cdb965" d="M2724.7 1184.8l89.2-760.4-1211.8 365.9L2044.8 495z"/><path fill="#6c3b06" d="M184 406.8L-232.4 27.9l4006.9-260.4 169.9 421z"/><path fill="#291001" d="M1538.2 812.3l-361.7-371.8L1673 27.8l557.4 234z"/><path fill="#b4983b" d="M-232.5 974.9l1628.7 196.9-244.9-1035.4L59 732.5z"/><path fill="#b8b374" d="M1771 1425.8l176.9 378 11.3-548.2-139.4 91.5z"/><path fill="#bec0a7" d="M2666.8 2392.5L2422.4 1926l24.2-69.2 167.5-242z"/><path fill="#312008" d="M2694.6 1628.3L1222.3 784.2l1311.4 75.7-29.3 190.4z"/><path fill="#a9832a" d="M3757.2 180.3L2248.9 295l-286.6 363.4 901.5-15.7z"/><path fill="#b8b6a8" d="M4072.5 1370.5l-858.3 1022 809.9-19L3815.8 1312z"/><path fill="#190e00" d="M2759 2392.5l-750.7-839.6-123.4 191.4 141 473.8z"/><path fill="#b4ac73" d="M1019.8 1916.7l437.7-667.6-471.9-628.9-884.3 698.6z"/><path fill="#7c5722" d="M2864.8 213.5l1160 44.6-2097-490.6 358.8 798.7z"/><path fill="#2c1601" d="M1677.7 423.5L1801 1466l25 510.5-493.3-949.2z"/><path fill="#230d00" d="M1786.6 1846.6l-149.3-785.7-396.8 499.7-77.1 201.3z"/><path fill="#865816" d="M151.2 654.9l-23.5-143.6 428.8-274L729 624z"/><path fill="#b5ae83" d="M1239 2392.5l17.1-397.4 27.4-152.3L369.6 1024z"/><path fill="#c5c085" d="M1493.1 2392.5l501.9-332.7-127-210.2-67.1-12.7z"/><path fill="#110200" d="M1266.7 1890l-26.3 530.3 344-137 168.1-580z"/><path fill="#b5b27f" d="M2510.4 1526.5l-1.3 863.3 341.9-919.9-281.4 128z"/><path fill="#b5ab6c" d="M2097.4 601.8l312.1 248.7 293.4 121 734.5-385.3z"/><path fill="#382d11" d="M2375.1 816l-531 979.7 170.3 89.4 691.6-584z"/><path fill="#af8f45" d="M4072.5 1591L3298.2 486.3l-745.2-125 1215-167.4z"/><path fill="#b0933c" d="M242.4 387.7L199 316.4l-341 143.2 232.2 780.7z"/><path fill="#251100" d="M1445.5 523.8l-145 236.5 105.4 382 205.5 573z"/><path fill="#b69739" d="M660.4 505.4l12.7 316.9L1390 638 830 293.5z"/><path fill="#35250e" d="M2409.4 1471.8l108-578.7-1240.7-84.3 389.6 430.9z"/><path fill="#b5a349" d="M2579.3 1337.8l704.6-250.4 137.3 206.5-385 637.2z"/><path fill="#b7b170" d="M1763.7 1321.1l49.1 270.9 138.6 5.5-27-294z"/><path fill="#0c0100" d="M2254.4 688.6l-385 1.2 10.5 304L2211 890.2z"/><path fill="#b3aa62" d="M1367.8 1431.3l46.6-189.3-180.3-694.4-468.5 1025.7z"/><path fill="#2e1b08" d="M1290 274.9l-46.2 263.3L1807 963l-238.7-558z"/><path fill="#b5af80" d="M1290.7 1792.2l-66.4 375.4-1456.8 224.9 1397-630.9z"/><path fill="#b8a765" d="M2127.4 598.2l-431 156.2 102.5-169.8 190.6 68z"/><path fill="#261301" d="M1155 1747l527.5 121 110.1-304.4-373-254.6z"/><path fill="#7a5924" d="M1131.8 498.2L1963-172.2l680.2 300.6L1047.7 7.2z"/><path fill="#31290e" d="M2532.8 1785l-176.4-594-409 902.3 552.4-309.3z"/><path fill="#afaa71" d="M1610.1 2392.5l232.6-653 158 280.6-272.9-175.5z"/><path fill="#b4b27b" d="M2408.4 2392.5l143.9-293.3-58.9-549.6 634.5 842.9z"/><path fill="#b4ab64" d="M2554.4 1714l1089.4 678.5L2491 1003.1 3419.2 293z"/><path fill="#100403" d="M2210.3 2099.7l174.4-272.4 238 565.2-244.3-56.5z"/><path fill="#795521" d="M2299.9 442.4l304.8 94.6 77.3-640.4L1997.3 7.5z"/><path fill="#2f240e" d="M2622 1374.8l32.7 185-692.4-23 13.4 855.7z"/><path fill="#b59d40" d="M2478.6 681.6l406.6-480.3 279.6 129.4L2893 738.4z"/></g></svg>