<svg xmlns="http://www.w3.org/2000/svg" viewBox="0 0 3840 2160"><path fill="#c4ada1" d="M0 0h3840v2160H0z"/><g fill-opacity=".5"><path fill="#410000" d="M567.6 2163l3221.8 103.5L3179 1570l-1962.7 138.5z"/><path fill="#902d4a" d="M1948 2392.5L571.7 2159.2 502 770l345.6-35.4z"/><path fill="#ffffe8" d="M-232.5-174l2297.7 1907.5 1082.5-533.4-538.3-955z"/><path fill="#975c41" d="M1115.8 173.5L555.2 1565l844.1-1227.4 904.8-347z"/><path fill="#aff3ff" d="M3830.3 2392.5l-812.8-1146.6 143.3-1478.4 911.7 397.8z"/><path fill="#ffe" d="M20.3 2377L4.5 319.2l-19 19.1L476 736.9z"/><path fill="#fa8700" d="M-232.5 217.2L47.8-174.7l170.8 475.9 655 642.5z"/><path fill="#420200" d="M2354.7 1047.8l-22-203.9 226.3 29.6-17.5 188.8z"/><path fill="#870313" d="M2406.6 1549.6l883.4 91.6 438.7 608.2-1651-67.5z"/><path fill="#ea819c" d="M930.6 2211.3l-743-523.3 148.3-787 885.4 823.3z"/><path fill="#fffff1" d="M2270.9 733.3l-1036.2 692.2 373.6 177.6 908.3-76.2z"/><path fill="#53271a" d="M1723.8 1162.8L1595.5 956 266.4 1180.2 1858 901.6z"/><path fill="#00333c" d="M461 836.5L614.3 1147l365.8-81.2-26-175.6z"/><path fill="#faffff" d="M571.3 658.4l1112.1-890.9H-93.9z"/><path fill="#469154" d="M2703.4 1928.1l-89.7 93-1758-327.5 1743.2 32z"/><path fill="#9c4734" d="M2990.6 1073.7l35.6-748.5-931.4-352.6L2822 420.2z"/><path fill="#faffdc" d="M-203.7 2105.5l468-116.4-310.2-366 1009.5 769.4z"/><path fill="#520e0a" d="M798.1 2392.5l1329.7-71-529.1-565L1201 1815z"/><path fill="#b0ef57" d="M1955.3 354.8L1147 872.6l1022.6-370.2-110.6-99.2z"/><path fill="#d19135" d="M-232.5 947.3l936 350.5L471 779.3l-286 490z"/><path fill="#5d8aa6" d="M3117.7 129.8l87.7-362.3L4072.5 26l-559.2 187.7z"/><path fill="#f8edd6" d="M3077.8 1181.4l-833.2-111.8L1935 2392.5l303.6-719.9z"/><path fill="#835865" d="M2254.9 1659.1l818.1-126.5 89.6-397-330.2 281.2z"/><path fill="#b04a44" d="M1866.5-127l1381-24.7-1748.9 282.4L2719 199.9z"/><path fill="#c5765b" d="M1215.1 1010.1L1138 420.7 1437.7 88 701.5 1533.1z"/><path fill="#ffffeb" d="M1447.4 413.4l1413 443.1-1227 42.9 201-736.2z"/><path fill="#fffbe0" d="M2893.7 536.6l-13.1 470.8-1102.8-780.2 797.5 17.6z"/><path fill="#fff" d="M-232.5 253.2l320.7 477 565.5 97.1-299.4-225.7z"/><path fill="#ecebeb" d="M3461 227l-525.2-78.8 234.3 491L3896.8 479z"/><path fill="#fdffeb" d="M2705.6 1355.5l-1202.4 348.1-170.4-720.2 1606 662.7z"/><path fill="#367437" d="M2217.2 1698.2l-7.4 319.4-1070.1-114.2 1218.4-57.7z"/><path fill="#f9ffee" d="M728.6 895.9L-67-232.5 560-93.3 741.5 669z"/><path fill="#530000" d="M1612.1 955.7l25.3 187.6 151.5-115.9-182.5-93.6z"/><path fill="#941528" d="M2625.7 1486l-295.8 212 43.5-124 1433.5 818.5z"/><path fill="#67191f" d="M1893 1592.1l-93 299.3 62.9 309 131.8-561.5z"/><path fill="#8ec3d0" d="M4072.5 1133.7L2969 1509l387.6 242.8-343.5-630.6z"/><path fill="#c9d6c0" d="M2024.3 1887.3L1331 1348.4l621 399.6 228.7 122.3z"/><path fill="#6f0813" d="M682 2238.2l326.3 154.3-415.5-431-129.9-75.4z"/><path fill="#eb8d1e" d="M154 94.3l-360.4-326.8-26.1 488.6 793.7 440.8z"/><path fill="#efd998" d="M675.6 419.5l61 417.8L1493-157.3 993 743.1z"/><path fill="#bb628a" d="M1119.5 1782.9l-827.3-233.7 867.1-421 388.2 431.5z"/><path fill="#ffffe9" d="M1197.4 651.8l46-177.2 234.3-143.8 32.5 491.7z"/><path fill="#ed93b6" d="M237 1512.4l764.2 311.8-47.8 435.2-266.8-385.8z"/><path fill="#905852" d="M2980.7 573l65.3-32-158 532.8-3.4-226.7z"/><path fill="#5a1015" d="M2391.7 1000.9L2357.9 865l201 127.7-91.7 109.6z"/><path fill="#dfdacf" d="M2093.9 2056.7l18.4 335.8h-437.5l416-362z"/><path fill="#900521" d="M2030 2034.8l-300.7 353-598.1-416 1083-6.8z"/><path fill="#d4efe7" d="M3963.1 1950.7l109.4-513.2-580.1-124.1 173.4 1079.1z"/><path fill="#f5ffff" d="M382.4 679.8L562.2 712l-726 272.2L334.9 1098z"/><path fill="#415349" d="M653.8 1174.9l259.5 11.4L1019 1040 823 746z"/></g></svg>