<svg xmlns="http://www.w3.org/2000/svg" viewBox="0 0 3840 2160"><path fill="#875e3b" d="M0 0h3840v2160H0z"/><g fill-opacity=".5"><path d="M3822.4 2392.5l250.1-1770.2-1572.1 672.2-2732.9 998.3z"/><path fill="#f5af6f" d="M4047.6 641.9l-229.7-874.4L48.6-184.7-80 2232.3z"/><path d="M3878.6 2392.5l193.9-1744-2156.2 902-1950.1 660.2z"/><path fill="#200c00" d="M1265.1 2001.4l-685.5-328.6L910 2247l368.7-1060z"/><path d="M3020.2 988L839.7 2391l3042.2 1.5 64.8-1368z"/><path fill="#150500" d="M552 2293.7l179.3-729 228.5 827.8 1198.4-931z"/><path fill="#d4915f" d="M1257.6 1732.2l894.6-285.3 1882.2-937-746.8-742.4z"/><path d="M439.7 2216.6l3470.4-5.8L4072.5 952l-1545.6 870.6z"/><path fill="#ab7c49" d="M19 2392.5L782-69.3 37.9-25.8l-270.3 220.9z"/><path fill="#281209" d="M2822 1163.7l-1656.3 961.6 2597.9-1100.5-1001.2 57.9z"/><path fill="#d59261" d="M4072.5 577.8l-55-810.3L2770.8 866.6l452.3 134z"/><path fill="#c58b5a" d="M4072.5-232.5l-1901 1664L459 1263.2 1807 351z"/><path fill="#c4844c" d="M727.4 1969.9l-87.6-64 147.1-694.5-1019.4 997.5z"/><path fill="#351f0f" d="M1245.5 1582L771 2242l309.7-456 158.3-472.4z"/><path fill="#ca8a56" d="M1195.9 1545.8l155.7 180.6L3408.3 283l-741.7 959.8z"/><path fill="#221008" d="M1441.7 1685.4l1489.6-92.3 102-645 490.4 156.7z"/><path fill="#c58b55" d="M896 1849.3l-193.4 9.8 4.3 74.2 900.5-1651.4z"/><path d="M1769 2175.3l1999 217.2 270.7-700-169.4-458.2z"/><path fill="#160904" d="M362.7 2097.5L8.2 2145.7l778 246.8 3099-1280z"/><path fill="#be8650" d="M1310 1614.9l-483.3 281.3L597.4 786.7l546.2 1009.7z"/><path fill="#1d0e05" d="M1410.4 2222.7l420-687.3-506.5 254.9-183.8-311.5z"/><path fill="#281307" d="M1592 1646l-573 178.7-93.2-2.3-857 508.5z"/><path fill="#231308" d="M695 1751.4l348.5 325-351.1 316.1 102.8-924z"/><path fill="#af8455" d="M-6.3-232.5L2443 29.5l-411.7-1.3L277.5 786.4z"/><path fill="#c48952" d="M1337.9 1161.6L13.4 1792.2l276.3-605.5L994 1797z"/><path fill="#cf8e5c" d="M3165.8 1011.9l-273.4-542.5 336.5-115 185 592z"/><path fill="#361b0f" d="M3356.8 950.2l374.4-211.8-290.3 325.1-860.7 223.1z"/><path fill="#ce8e5d" d="M3341.3 191.2l-785.8 863.5 391.7 33 522-566.3z"/><path fill="#be8753" d="M410.2 42.4L354.1 2113l361.7-416.6 5.7-248.6z"/><path fill="#341c0e" d="M2192.5 1485.9l130.6-172.8 116.3 219 363.9-368.3z"/><path fill="#a37647" d="M-4.1 2295.2l-14.4-2273 488-111.8L68.8 473.6z"/><path fill="#1a0b06" d="M2816.6 1300.8l-816.3 547.7L4015.4 992l-273.8-240.8z"/><path fill="#28150b" d="M3147.6 970.6l-366 504.7-12.4-382 143.1-4.2z"/><path fill="#c68a55" d="M1210.2 1538.2l368.8 85.3 1077.5-393.2-419.3-439z"/><path fill="#361d0d" d="M2765.3 1209l-729.5 277.3-327 83.8-102.1 200.7z"/><path fill="#c48a59" d="M951.1 1252.8L3147.4-232.5 2209 1395.2l-199.1 105z"/><path fill="#230e04" d="M699.2 1836.5l-64.6 230.9-732.9 134.9 524.8 190.2z"/><path fill="#bc824d" d="M1209.7 1558.3l50.8-34.4 436.7 72.3-328.4 99z"/><path fill="#160a04" d="M1328 2392.5l-483-180.6 334.2-559.2-120.6 122.3z"/><path fill="#c08956" d="M335 1530.1L1496.4 297l-441.3 1521.7 79-187.2z"/><path fill="#d38f5d" d="M3638 753.8l434.5-20.1-98.8-339.7-1193.8 669.3z"/><path fill="#c28a5f" d="M4072.5 225.3l-269.2-374.8-1224.8-83-209.4 667.4z"/><path fill="#a67042" d="M44.7 1611.2l11 697.1-288.2-174.4L1.9-232.5z"/><path fill="#100703" d="M447.2 2116.8l-541.6 66.8L1309 2316.8l424-457z"/><path fill="#bf8651" d="M668.4 1878.4l-631 235.4 18.4-706.3 556.5-982.3z"/><path fill="#36200b" d="M1162.7 1519.4l117.3-184-4.3 90 3.9 100.6z"/><path fill="#b88654" d="M672.5 143l535.7 893.5-913 246.2-61.9-649.2z"/><path fill="#bc885a" d="M1287.3 199.5l1779.3-359.4-866.4 678.2L805.6 746z"/><path fill="#29160c" d="M1629.3 1800.4l960.3-544.8 1322-523.5-791.8 425z"/><path fill="#2b180b" d="M1203.6 1492l-73 9.7 308 605.5-276-634.3z"/></g></svg>