<svg xmlns="http://www.w3.org/2000/svg" viewBox="0 0 3840 2160"><path fill="#0d0808" d="M0 0h3840v2160H0z"/><g fill-opacity=".5"><path fill="#60707a" d="M1169.8 1509.8l-716.1 882.7 763.8-578.5 36.2 214.6z"/><path fill="#575545" d="M1356.2 511.6l-443-71.1L97.6 528 1093 149.5z"/><path fill="#321e19" d="M2129.5 1935.6l-665.2 456.9L1086 628.8l662.3-83.7z"/><path fill="#5e6568" d="M2623.5 406.7l89.2 510.5-28.5 173-132.6-195.4z"/><path fill="#841a26" d="M2244.8 848.5l-142.9-26-66.3-13.9L2350.3 627z"/><path fill="#535d65" d="M1198 893.5l-165.6-73.8 211.2-185-133 378.8z"/><path d="M1152.5 732.4L-161 363.4 40.3 2392.6l986.4-704.6z"/><path fill="#31281c" d="M3661.6 59.1l-96.7 88.4L2331 287.4l484.6-216.7z"/><path fill="#848d96" d="M1286.4 425l17 29.1L1226 402l-79.3 543.2z"/><path fill="#666863" d="M1548.6 154L1739-232.5h-107l44.2 460.9z"/><path fill="#4f4637" d="M1472.5 2086.4l.7 31 40.6-706 115-70.2z"/><path d="M2654.4 348.3L4072.5 69.5l-256.1 2323-928.3-606.4z"/><path fill="#262420" d="M3019.8 1838.8l-418-659 268.4 969.1 241.2-236.3z"/><path fill="#464c52" d="M811 2040.7l335.6 27 57.2-549.7-163.3 142.5z"/><path d="M595.5 2392.5l650.8-1890.2-1393.7 57-85.1 1833.2zM110.7 542.8L901.8 137l1249.6-69.6L-232.5-53.9z"/><path fill="#48483b" d="M259.4 518.7l56.5-46.4L886 153 603.7 507.3z"/><path fill="#666855" d="M1585.3 1902.7l72-135.1-12 140.7-37 154.6z"/><path fill="#0d0001" d="M1722.6 1059L250 2350.5 1878.9 579l899.9 896z"/><path fill="#020000" d="M1793.8 2025l160.8 202.5-412.3-542.5 385.5-340.7z"/><path fill="#2a120f" d="M1120.4 624.5l350-211.2-83.7 544.3 974.4-405z"/><path fill="#352820" d="M1732.7 1629.7l-24.3-58 282.4-159.8-471.1-406z"/><path fill="#211b13" d="M1392 242.3l-178-123-511.4 104 586 175z"/><path fill="#515d6c" d="M1035.7 1668l157.7-14.2-377.9 388-46.6 5.8z"/><path fill="#585642" d="M1906.2 1892.3l-29 184-47 17.8 18-317.9z"/><path fill="#8e979d" d="M1218 585.3l-61.2 392.2-17.5-16.5 19.1-204z"/><path fill="#030000" d="M1445.6 1704.4l-803.9-351.6 331-856.6 542.4 1215.3z"/><path fill="#3e372a" d="M1512.6 1804l90 120.8 314.7 117.8-421.4 10.9z"/><path fill="#6a0e19" d="M1350.6 702.6l300.7 26.7-16-20.2-130.9 88.5z"/><path fill="#414443" d="M2583 870.9l-31.6-399 85.1-19 95 645.5z"/><path fill="#0b0101" d="M2437.8 539.4l358.6-771.9L939.6 667.9l-145.4 3.4z"/><path fill="#3f392a" d="M1999.8 2013l-27.7-590.3-142.3-211.4 215 756.6z"/><path fill="#040000" d="M1922.5 2046.3l136.2-317-198.6 63.5 30.6-937.3z"/><path fill="#3f323f" d="M2513.5 1807.4l-113.3-41-29.1-.8 44.5-92.5z"/><path fill="#1a110e" d="M1635 2024.7L661 2200l391.6-299-2 131z"/><path d="M2717 2392.5l-676.4-104.4 281-518.5 276.9 151.7z"/><path fill="#79828a" d="M1270 427l-114.7-10.4-13.3-32.8 134.5 153.6z"/><path fill="#3e3a2e" d="M416.9 438.5l648.6-200.8-548 332.8-371.5-123z"/><path d="M2953.6 1789l1118.9-12.4L3773.8-31.6 2687 833.8z"/><path fill="#535656" d="M1649.8-232.5l-80.7 436 103.4 36.4-138-270.6z"/><path fill="#362f22" d="M3168.4 226.2l-70-109.7 554.5-58-227.3 124z"/><path fill="#544f40" d="M1566.5 1574.5l-29.7 356.3L1501 1397l85.4 168.8z"/><path fill="#a12b3a" d="M2149.6 741.3l173.7 24-43.8 6-154 67.8z"/><path fill="#26241f" d="M2764.4 1911.2l-45.7-823.1-40.6-113-14.2 398.5z"/><path fill="#170305" d="M2569.4 913.4l47.2-382.3-397.2 1312.1 39.8-1417.3z"/><path fill="#3c382b" d="M2119.4 1627.1L2015.7 2061l-30.7-119 108-300z"/><path fill="#1f0d0c" d="M1420.1 1487.2L1207 2118.5 1149.2 1080l594 16.8z"/><path fill="#060000" d="M1597.2 1406.3l374.8 986.2-303.8-644.8-117.6 174.8z"/><path fill="#262320" d="M2782.4 1372.6l302.5 854.5-31.1-424-120.4 503z"/><path fill="#070000" d="M1633.7 2093.9l171-508 61.2-292 59 365.9z"/></g></svg>