<svg xmlns="http://www.w3.org/2000/svg" viewBox="0 0 3840 2160"><path fill="#abcac3" d="M0 0h3840v2160H0z"/><g fill-opacity=".5"><path fill="#293e11" d="M1689.5 1561.6l2383-745.9-522.3-161.2L2184.5 1054z"/><path fill="#ffd200" d="M1408 528.6L1220.7 66.7l614.4-158.6-80.4 505z"/><path fill="#3c5395" d="M1662.6 1293.6l414 935.5L719 1451.6l470.4-213.9z"/><path fill="#8d50a6" d="M3115.8 1321.4l-360.5-487.1-1054 571.7 843 185.9z"/><path fill="#cfffff" d="M2117.2-232.5L4072.5 57.2l-1871.5 985-346.4 30z"/><path fill="#05a707" d="M2670.5 1008.7L2541 1123l1427.6-208.6L3677.9 569z"/><path fill="#f8f7ff" d="M554.7 1511.8L962.3-159.5l-1194.8-73L-99 1707.6z"/><path fill="#383598" d="M617 1023.6l447 103.3 15.9-265-421.9-101z"/><path fill="#002599" d="M1145.6 1311.5l243 533.4-261 9.1 470.7-435.7z"/><path fill="#c3ffff" d="M2718.5 2196.1l-1224.1-732.8-83 274.4 845.5-91.3z"/><path fill="#faffd6" d="M1081.5 2392.5l-19.8-659.5 124.5-252-800.4 398.2z"/><path fill="#4b92af" d="M3002 405.9l-270.5 102.9 720.6-11.9-53.3-255.9z"/><path fill="#217b1c" d="M1564 1733l687.4 191.6 229.1 89-755.4-145z"/><path fill="#acfaf4" d="M4072.5 711.2l-1190 790.8-326.7 860.7 975.4-168.1z"/><path fill="#399000" d="M1840.2 88.4l128.8 255-54.5 268.8-90.4-382.4z"/><path fill="#fde618" d="M763.9 741.6L1908-232.5 1726.9 211 772.3 807z"/><path fill="#bac420" d="M798.5 2222.6l484.9-706-81.7 478-59.6 5.9z"/><path fill="#9fed1b" d="M1837.1 840l-242 398.9 35.7 207-270.8-216.7z"/><path fill="#e74882" d="M1848.6 1317.3l815.6-291.3-189 247.6-900.4 302z"/><path fill="#4774cc" d="M3197.4 1270l-744.8 364 236.3-452.3 286.8-200.2z"/><path fill="#96fdec" d="M3572.2 732.8l208.1-965.3 141.7 979-1358.7 150.3z"/><path fill="#517caf" d="M237.7 1599.4L29.3 1700.2l439.6 256.6-.3-452.8z"/><path fill="#ddf1e4" d="M801.2 1329.3l393.7-99.3 712.2-581-101.7-463.6z"/><path fill="#a80080" d="M3610.8 2023.7l10-115.4 368.9-96.2 82.8 106z"/><path fill="#ff807b" d="M686.5 1010.7l-13.6-114.8L337 1449l82.8-1.1z"/><path fill="#8ff5b3" d="M3965.6 949.2L3588 1295.8l-541-56.5-110.7-178.7z"/><path fill="#b349a1" d="M1540.4 2021.2l919.8 178.4-749.8-308.3-59.6 501.2z"/><path fill="#c3f5f3" d="M2324.2 1515l34.7 370.3-472.5-37.7-487.8-281z"/><path fill="#d2eacb" d="M1706.4 1038.8L219-100.9l1459.8-131.6-412 471.4z"/><path fill="#3253bd" d="M507.8 1589.9l953.8-58.8 425-84-692-132.6z"/><path fill="#fe8960" d="M268.9 603.7l205.4-165.6 68.4-255.2L390 339.7z"/><path fill="#34e1d3" d="M151.5 1944.4l695 291.1-705.1 157 328.3-696.3z"/><path fill="#33808c" d="M1361.7 2052.5l-207.2-141.7 88.3-262.2 454.1 93.7z"/><path fill="#909535" d="M2917.2 1110.4l-1250.3 67.7 840-200.8 163.5 80z"/><path fill="#097100" d="M2668.3 947l769.8 48 634.4-194.4-64.2-67.7z"/><path fill="#5dbe00" d="M948.7 782l114 78.5-185.4 58.3-46.8-239.4z"/><path fill="#ffc116" d="M1613.1-232.5l-360.5 592.8 356.7 95.7 183.5-337.8z"/><path fill="#769fd2" d="M2947.4 855.3L2432.2 1106l993.2-744.7-108 413z"/><path fill="#4e26b2" d="M908.8 994.5l166.5 90.7 102.5-137.7L805 879.3z"/><path fill="#ccf1fa" d="M2847.5-232.5L1972-116.1l78.8 1098L3716 8.8z"/><path fill="#f5deec" d="M259.7 1551.4l252.8 1.6 436.1-424.4-275.3-14.3z"/><path fill="#ffac96" d="M263 193.9L57.9 649.6l-290.3-90.8 443-380.7z"/><path fill="#c7f2ff" d="M260.4 1408.6l-492.9 568.7V738.8l1191.4-388z"/><path fill="#8057bb" d="M2050.1 1380.2l228.3-377.6 198 395-1059.4 121z"/><path fill="#5c58c6" d="M2115.6 1985.2l-169-116.2-58-20.6-76 370.4z"/><path fill="#f1ff61" d="M61.4 1729.2l133.2 139-51 89-219.3 103.6z"/><path fill="#bafdff" d="M4072.5 1813.8l-377.3-694.6L3889 2247.1l-848.3 145.4z"/><path fill="#a1d118" d="M1594 1322l389.5-234-337.2 276.7-137.6 8.1z"/><path fill="#ddfbff" d="M659.5 1661.8l294.1 391.9-621 5.8 759.3-514.3z"/><path fill="#c0d5c2" d="M2197.8 1418.4L1561 1616.7l815.3-62.5 464.2-204.7z"/></g></svg>