<svg xmlns="http://www.w3.org/2000/svg" viewBox="0 0 3840 2160"><path fill="#e0deea" d="M0 0h3840v2160H0z"/><g fill-opacity=".5"><path fill="#702dbb" d="M4030.6 2392.5l-1671.8-243 139.3-206.7 1412.8-421.5z"/><path fill="#cca2e6" d="M1949.2 2392.5l1064.4-955.9 1058.9 43.7-418.6 251.8z"/><path fill="#5054b3" d="M4072.5 2125l-281.4-224-764 172.8-167.6 318.7z"/><path fill="#eefaf5" d="M4072.5 642.4L126.2 1031.2l201.6 1361.3 1757.8-279.8z"/><path fill="#e9fcf9" d="M728 1976.1l282.5-2208.6-693.7 362.9L112 1285.7z"/><path fill="#fdfbf0" d="M2574 1446.2l1498.5-594V228.9l-458-227.2z"/><path fill="#fec6f6" d="M-232.5 1968.9L-20.3-144.5l402.9 137-271.2 2400z"/><path fill="#bcb4e8" d="M3303.6 1757.8L2364 2155.3l-11-298.9L3360 1336z"/><path fill="#e1e1de" d="M2637.8 1206.8L4072.5-232.5 910.6-30.8l42.2 1646.2z"/><path fill="#eb8ce8" d="M-145.8-226.3L-91.3 588 153 247.8l64.6-480.3z"/><path fill="#dc8bd9" d="M3336.8 1572.8L2888 1801.6l427.6 125 756.9-335z"/><path fill="#f2f5f7" d="M3699 1471.4l171-1316.5-633.2 954.3 351.3 560.7z"/><path fill="#fabeed" d="M55.4 1652.8L274 1935.7l541.1 419-1047.6-247z"/><path fill="#e1f5f5" d="M975.7-232.5L670.1 747.9l691 1644.6-1506.5-1200.6z"/><path fill="#f1f4f5" d="M610.3 2392.5l1645.4-1236.1 76.3 1236.1-1721.8-365.3z"/><path fill="#c8dff7" d="M3131.6 1259.1l-576.7 476.2 159.8 16.4 788.8-492.7z"/><path fill="#a36ccb" d="M2745.4 2012.8l110 19.3 866.8-31.5 305.9-330.4z"/><path fill="#fbf8fa" d="M2094.1 1693.4l492.5 35.4 250-524.6-798.4 342.4z"/><path fill="#bb9ae2" d="M3902.6 1094.8L3744 1445.2l183.3 389.7 97.5-1211z"/><path fill="#fae6f3" d="M534.9-232.5l-641.5 981 318 247.8L782.3-232.5z"/><path fill="#d9f1fa" d="M3784.2 1156.2l86.8 238.4 89.3-644.2L2862.5 1349z"/><path fill="#dedfe9" d="M2717.8 786.2l-2133 178.7 566.7 749.7 87 59.7z"/><path fill="#8f84d0" d="M2882.2 1933.4L3341 2002l-368.5 257.8-223-308.3z"/><path fill="#e0d7e9" d="M2043.2 1839.9l-64.4-163-354.4 715.6 357.3-83.4z"/><path fill="#efb2e2" d="M3826.3 1540l-348.8 177.5-172.8-160.2 489.8-174.8z"/><path fill="#e0eff7" d="M2442.2 1243.4l-287.7-147.6-547.8 213.6-458.4 692.9z"/><path fill="#6b66bc" d="M4072.5 2161.6l-630-214.1-155.6 57.2 2.6 215.3z"/><path fill="#aecaec" d="M3191 1576.6l-182.8-124.8 133.4-119.6 215.2 168.3z"/><path fill="#b7acdf" d="M2756 2392.5h-314l-108.6-503.2 497.4-26.1z"/><path fill="#f8eee8" d="M4072.5-94.2L3758.3 54.6l-381.4-33.1 151.3 820z"/><path fill="#faf6ed" d="M1854.6 1908.9l-286.4 483.6h-810l745.7-509z"/><path fill="#d5caf0" d="M2201.4 1889.4l541.4-288.4-420.3 449 206.9 113.1z"/><path fill="#e3e2e0" d="M3300.9 832.9l-1016.8 233.4-236.3-1204.8 1291-86.8z"/><path fill="#bc8eda" d="M3033.2 2032.4L3153 1706l90-180.3 238 306.3z"/><path fill="#f4eeeb" d="M436.2 1975.4L584.7 1568l290.7 464.4-341 360.1z"/><path fill="#faeff4" d="M3728.4 1348.3l-118-227.5-176.9 19.4 108.5 427.1z"/><path fill="#e1f1f5" d="M1025.6 1109.6L196.3 840.2 225.7 2020l187.6-26.3z"/><path fill="#edf9f7" d="M569.9 684.8L351.4 992.3 473 107.9l310.9-278.3z"/><path fill="#d9b7ea" d="M3063.4 1911.4l19.4-270.7-402.6 65 159.8 97.7z"/><path fill="#9a6bca" d="M3548.2 1981.8L2928 2090.6l832.9-277.7 290.6 152.7z"/><path fill="#dfeaed" d="M869.2-232.5L547.4 1205.6l188.9 4.6 409.6-851.5z"/><path fill="#e1f7f7" d="M827.2 2392.5l473.4-492.8-769.6-791L832.5 2049z"/><path fill="#c8def4" d="M4072.5 1010.7V832.2v856l-466.3-666.8z"/><path fill="#f2e2f4" d="M2448.2 1760.6l-222.3-103.4 96 735.3-472-340.4z"/><path fill="#c177d2" d="M3383.9 1739l435.4-38.8-66.6 94.6L3360 1959z"/><path fill="#e1e1e2" d="M1226.5 1812.9L1001 856.3l710-1088.8 5.8 1151.1z"/><path fill="#f3b6e8" d="M-228.7 2141.8l169.5-447 202 268-30 303.4z"/><path fill="#f6f0ec" d="M3334 969.5l405.2-370.6L3258 370.4l-91.9 171.7z"/><path fill="#d696dc" d="M3928 1368.3l-13.8 213.3-704.6 75.5 282.4 110.2z"/><path fill="#dfdfe3" d="M2276.7 993.1L2414 1342l189.4-64.8 54.3-364.1z"/></g></svg>