<svg xmlns="http://www.w3.org/2000/svg" viewBox="0 0 3840 2160"><path fill="#e0e8ec" d="M0 0h3840v2160H0z"/><g fill-opacity=".5"><path fill="#6d95a6" d="M3874.2 1584.4l-31.4 808.1H2003.2l1164-768.8z"/><path fill="#7fa1b1" d="M3140.4 2004.8l582.4-264 349.7 390.9-1170.1 260.8z"/><path fill="#c4d4db" d="M3049.6 1386.1l188.5-82.9-1286.4 1089.3 2120.8-908.7z"/><path fill="#f7f9f9" d="M163.3 1943.3l1263.4 449.2 2440.2-1496 205.6-794.8z"/><path fill="#f3f6f7" d="M262.8 158.2l-392.8 1081 975.7 1153.3 59.3-2625z"/><path fill="#b8cbd3" d="M182.6-76l19.6 211.5-434.7 752.7 129.7-1120.7z"/><path fill="#f4f6f7" d="M3943.8 601.6l-121.6-834.1-888.3 1308.4 695.9 498.2z"/><path fill="#e0e8eb" d="M2558.2 1261L850 1781.7 2481.2-232.5l869.5 860.4z"/><path fill="#c2d1d9" d="M3473.3 1493L2436 2392.5l-96.8-388.8 70.1-150.3z"/><path fill="#f5f7f8" d="M2006.7 1333.5l785.6-20.8L1972 2392.5l96.7-674z"/><path fill="#a6bdc8" d="M3597.8 1860.3l296.6-705.5 6.3 100.2 29.5 735.8z"/><path fill="#d1dde2" d="M-97.1 2392.5l-135.4-928.9 428.7 372.5-86 556.4z"/><path fill="#f6f8f9" d="M3416 998.6L2823.5 906 2494 1817.3l371.5-498z"/><path fill="#f1f4f6" d="M3727.7 210l20 691.8-332-772.2-46.3-362.1z"/><path fill="#f3f6f7" d="M100.4 1374.6L744.5 135.8l-307-368.3L396.9 339z"/><path fill="#eaf0f2" d="M1087.3 943.9l-929.6 516.8 124 668.8 842.2 263z"/><path fill="#dfe7eb" d="M2076.7 1062.2l495 286.2 390.5-572.6 592.6-616.5z"/><path fill="#86a6b5" d="M3969.4 2267.2l-704 53 159.1-365.6 648 138.4z"/><path fill="#e8eef0" d="M2399.2 1827.2l153.4-110.3-772.5 84.7 409.7 590.9z"/><path fill="#c8d6dd" d="M3112.7 1885.4L2588 1764.2l1068.4-126.4-556.8-262.1z"/><path fill="#f6f8f9" d="M1197.6 1968l-159.3 267.3 769.1-193.9 63.6-340z"/><path fill="#b1c5cf" d="M2189.4 1969.2l1099.1-136.8-803.2 494.3 128.8-410.4z"/><path fill="#e3ebee" d="M577 1212.3l1913-28.3L786.4-55.4 561.5 1195z"/><path fill="#f8fafa" d="M3407.6 1222.8l111.6-63.3 182.5 76.7-47.2 214.8z"/><path fill="#9ab5c1" d="M3757.4 1740.7L3156 1930l-498.6 405.4 1415.1-565.7z"/><path fill="#e0e7eb" d="M905.3 912.2l169.9 805.3 305.8 48.9 465-1998.9z"/><path fill="#dce5e9" d="M3455.1 1009.2l-659.5 821.6-523.2-19.7 20.5 197.6z"/><path fill="#e4ebee" d="M-3.4 601.4l435.8-769.9L162.3 894l-279.8 258.5z"/><path fill="#e0e8eb" d="M112.3 1701.1L345 1404.2l47.6 72-515.5-222.3z"/><path fill="#f0f4f6" d="M1900 2392.5l235-802.2 240.6 802.2-160.6-73.1z"/><path fill="#b3c7d1" d="M3364.2 1515l-149.2 56.8-28.6 323.3 359-168.9z"/><path fill="#e1e9ec" d="M2021.8 2392.5l-167.6-700.8 246 125-369.7 306z"/><path fill="#c0d0d8" d="M115.6-183l-30 480.2-316 209.8L-55-148.6z"/><path fill="#dce5e8" d="M3718.5 79.6L3822 73l26.2-305.4H2810.7z"/><path fill="#dfe7ea" d="M3344.3 1219l307.8 433-338.4-236.1-297.4-93.4z"/><path fill="#dee6ea" d="M3096.5 799l241.7-1031.5-1564 456.9L2693.7 837z"/><path fill="#f5f7f8" d="M1567.5 1721.5l1454.9-562.4-559 448.9 285.8 53.2z"/><path fill="#c1d2d9" d="M2192.8 2335.9l599.2-380.3 80-217.5-383.1 218.2z"/><path fill="#e0e8eb" d="M4072.5 737.6l-537.8 298.2 415.4 309.5-206.7 9.5z"/><path fill="#f4f6f8" d="M3776.9 540.8l-322.8 38.9-249.5 687L3852 704z"/><path fill="#aec3cd" d="M3253 1768.7L2575.9 2076l795-211.4 701.7-379.1z"/><path fill="#eaeff2" d="M3462 787.8L2571.5 1060 3148 770.2l89.3-450.1z"/><path fill="#d3dee3" d="M3489.8 1649.4L4072.5 958l-286.3 540.1-400 217.9z"/><path fill="#e1e9ec" d="M518 2176.6l-364.8-359.8 42.6 575.7-284.2-161z"/><path fill="#ecf1f3" d="M846.9 2392.5l-635-516-19.3-860.5 129.6-540.4z"/><path fill="#d7e1e5" d="M-232.5 117.9L149.1 11.5l-22.2 213 406-377z"/><path fill="#dfe7eb" d="M2629.2 1125.2l-127.6-597.8-190.2 551 189.8 263.2z"/><path fill="#e6edef" d="M3037 1809l-352.6-348.2 571.3-322.6-385 510.8z"/><path fill="#dee6eb" d="M1708 286.2l-329.4 1124.2L1171 1224l-93-530z"/><path fill="#e5ecef" d="M1073.4 1429.8l-59.6 211.3L671.3 666l1057.5 1082.7z"/></g></svg>