<svg xmlns="http://www.w3.org/2000/svg" viewBox="0 0 3840 2160"><path fill="#87615e" d="M0 0h3840v2160H0z"/><g fill-opacity=".5"><path fill="#ffffdf" d="M1904.8 2392.5l-1920.9-256-206.7-706.8 1757.1-54.3z"/><path fill="#130000" d="M2908.6-127.5l298.7 1488.8 865.2-207-245-1386.8z"/><path fill="#369fff" d="M1368.1 2392.5l-80.6-656.8L3566 1341.1l506.5 842.2z"/><path fill="#490000" d="M-169.2-232.5l1772 57L2068.2 1464l-2300.6-158.6z"/><path fill="#ffb275" d="M2372.3 1778.4l603.3-384.6 75-1316-1367.3 522z"/><path fill="#ffdf00" d="M-232.5 2096.5l982.9 296 677.2-534.5-823.4-59.7z"/><path fill="#151529" d="M2394.1 1711.5l-226.2 681-454-949.5 147.8-460.4z"/><path fill="#200a00" d="M2675-232.5l678.5 758.3-1484.6-661.4-87.1 889.6z"/><path fill="#060000" d="M2972.3 1183.7l65.1-94.7 280.5-295.3 273 736.3z"/><path fill="#5a9fff" d="M3905.4 2392.5l167.1-619.6-1050-516.2-877.6 909.5z"/><path fill="#ffcfef" d="M588.7-232.5L461.6 428.4 441 554.6 313.9-222.9z"/><path fill="#ff9e75" d="M2229.1 1769.3L2227 238.1l614-2 363.4 712.2z"/><path fill="#ecdce4" d="M1365.2 1423.4l-1597.7 75.1 933.8 349.6 1524.4-146.8z"/><path fill="#410000" d="M425.2 890.6l284.7 437.3-942.4 85L178.2-232.5z"/><path fill="#5e90ec" d="M1330.7 1881.4l177.4-273 728.8-49.9-992 834z"/><path fill="#ffff2e" d="M1365.3 2037l-619.7 355.5-125.5-552.7 625.5-27.6z"/><path fill="#620100" d="M1188.2-81.5l481-151L1855.5 1558l-676-353.1z"/><path fill="#180a07" d="M1477.7 935.4l281.5 834.5 386.3-428.2-1369.9-4.1z"/><path fill="#ea6b67" d="M522.8 1642.4L720 2379.6l-895.7 12.9 585-731z"/><path fill="#864e2e" d="M3728.9 1574.2l343.6 87.7-770-187.1 333.6-1701z"/><path fill="#ffe2cd" d="M-232.5 1792.2l836.5-406-502 692.3 419.6-14.1z"/><path d="M1878.7 1999.7l-85.1 141 385-270.2-130-187.9z"/><path fill="#010000" d="M1880.9 462.4l654.3-371.5-356.8-4.8-321.8 251.6z"/><path fill="#132d6b" d="M3038.9 2081l-508.4-204.5 63-241.2 171.3 163.2z"/><path fill="#060000" d="M1765.8 1559.4l171-735.4-30.1 304 317.7 273.3z"/><path fill="#0e0100" d="M3147.8 770.6L2922.2-232.5 3521.9 835l-429.4-170.6z"/><path fill="#ff9b76" d="M2206.6 208L1835 714l428.7 835.5 695-1242.5z"/><path fill="#a35e43" d="M3510.7 19l561.8 288.9-680.6 90.8L3164.8-9z"/><path d="M3692.6 601.2l8.5 487.7 325.7 288L3942 147z"/><path fill="#95453b" d="M2381.1 665.9l-87.7-171.7L1994.2 621l252.3 177.6z"/><path fill="#642415" d="M2136.2 1242.6l58 501.8 112 310.3 104-112.4z"/><path fill="#bd938c" d="M1006.5 1252.4l-485.9-109 436.2-45.2 84.1-111.3z"/><path fill="#eab4ce" d="M1737.1 339.5l3.4-333 160.3-207.1-57 463.1z"/><path fill="#6098fc" d="M3177.2 2168.5l895.3-1.7-960.7-942-509.9 427.4z"/><path fill="#ffa27c" d="M1876.5 839.4l1403-71-85.8 150.2-424.7 269z"/><path fill="#cbc8d8" d="M3520 1643.3l443-309.2-166.5-34 243.7 466.6z"/><path fill="#ebdbdd" d="M1670.2 1375.3l-758.6 7L735.7 1829l737-77.3z"/><path fill="#8b543a" d="M2019.6 466.4l-193.1 259.4-96.9-465.8-105.9 1180.6z"/><path fill="#1b0803" d="M3529.8 1115.6l-348.5-866-978.3-119L2931.4 281z"/><path fill="#6791dd" d="M1923 2392.5l-79.2-369.4 320-566.8-789.1 304.7z"/><path fill="#c2886e" d="M2784.2 92.3l-823.4-36 971.7-288.8-50.3 381.6z"/><path fill="#0d0b0d" d="M3480.5 1508.3l-129.9-558.1-309.2 70.8-75.5 215.6z"/><path fill="#fcffb7" d="M100.1 2392.5l1248.5-258-171.1-792.8 164.7 615.1z"/><path fill="#98626a" d="M1181.4-232.5H987.8l-3 448.5 80.3 1161z"/><path fill="#8c4248" d="M2932.3 653.1l-101.8 185.7-252-96.2 45.9-100z"/><path fill="#790b00" d="M1244.7 985.9l-6.9-1069.6 461.5-148.8 27 1214.7z"/><path fill="#9a4d2b" d="M777 2224l-305.7-40.5 51.3-483 4.7 272.5z"/><path fill="#ee7756" d="M2370.9 1706.4l367.7-249.9-567.2-555.2 197.8 1063.6z"/><path fill="#620000" d="M258.1-232.5L405.2 425 62 1474.8l-157.8-1601z"/><path fill="#1a0400" d="M3146.3 328.4l-38.8 500.2L3634 265.3l-225.6 80.9z"/></g></svg>